<?xml version="1.0" encoding="UTF-8" standalone="no"?>
<svg
   version="1.1"
   viewBox="0 0 616.76453 136.10652"
   width="154.19113"
   height="34.02663"
   id="svg2"
   sodipodi:docname="button.svg"
   inkscape:version="1.3.2 (091e20e, 2023-11-25, custom)"
   xmlns:inkscape="http://www.inkscape.org/namespaces/inkscape"
   xmlns:sodipodi="http://sodipodi.sourceforge.net/DTD/sodipodi-0.dtd"
   xmlns="http://www.w3.org/2000/svg"
   xmlns:svg="http://www.w3.org/2000/svg">
  <defs
     id="defs2" />
  <sodipodi:namedview
     id="namedview2"
     pagecolor="#ffffff"
     bordercolor="#000000"
     borderopacity="0.25"
     inkscape:showpageshadow="2"
     inkscape:pageopacity="0.0"
     inkscape:pagecheckerboard="0"
     inkscape:deskcolor="#d1d1d1"
     inkscape:zoom="4.8422672"
     inkscape:cx="84.361309"
     inkscape:cy="18.37982"
     inkscape:window-width="1920"
     inkscape:window-height="1052"
     inkscape:window-x="-8"
     inkscape:window-y="-8"
     inkscape:window-maximized="1"
     inkscape:current-layer="svg2" />
  <path
     d="M 25.030366,3.6859449 H 586.03037 l 10,3 7,5.0000001 7,10 2,7 1,10 v 59 l -2,13.999995 -5,10 -7,7 -10,4 -9,1 H 30.030366 l -10,-2 -10,-7 -5.9999997,-8 -2,-5 -1,-8 V 32.685945 l 2,-10 6,-9 6.9999997,-6.0000001 5,-3 z"
     fill="#febd2c"
     id="path1" />
  <path
     d="m 611.03037,99.685945 h 1 v 7.999995 l -4,11 -9,10 -10,4 -9,1 H 30.030366 l -10,-2 -10,-7 -5.9999997,-8 -2,-5 -1,-11 3,3 7.9999997,11 8,5 10,3 H 582.03037 l 12,-3 9,-7 6,-8 z"
     fill="#9e7c30"
     id="path2" />
</svg>
