<?xml version="1.0" encoding="UTF-8"?>
<svg version="1.1" viewBox="0 0 2048 1158" width="2138" height="1209" xmlns="http://www.w3.org/2000/svg">
<path transform="translate(0)" d="m0 0h2048v1158h-2048z" fill="#EFB872"/>
<path transform="translate(0)" d="m0 0h2024v18 3 21l5 2 3 3 1 5-2 5-3 3-7 1-6-4-1-4h-23l-4 4-1 65h-3l-1-66-2-2h-89l-7 4-4 5-2 4-1 57 5 2 3 3 1 3 16 1-1 3 5-2 1-1h66l2-6 5-4h9l6 5 2 7h18l2-1 3 5 4 2v29l-8 5-3 6-20-1-3 7-3 2-1 28h8l-2 4-6 6-4-1-7-7v-2h8l-1-28-5-4-1-2h-23l-8 3-7 8-1 3-1 73 5 3 2 7-3 6-4 2-4-1-5-4v-3h-35l-2 7-8 7-3 1h-7l-6-3-5-5-2-5v-7l3-6 6-5 6-2v-42l3 1-3-4v-47h2l1-26-7-1-4-5v-3h-29l-2 4h-5l-4-3-9 2-6 4-3 4-2 6v114l6 4 3 4v9l-5 6-7 2-7-3-3-3-1-3v-7l4-6 5-3h2v-115l3-7 6-7 10-4 6-2 3-3-1-60-4-8-5-4-4-2h-78l-5 5-1 211-6 3-2 3 1 7 7 3 1 26-1 24-4 8-7 6-8 3h-12l-2 5-4 1 1 86 6 5 86 1 2-7 6-5 8-2 8 3 5 6 1 3v7l-3 6-5 4-2 1h-10l-6-4-3-4-2-5-86-1-2 5-2 2-7-1-4-4v-2l-37 1-1 8-4-2-6-6 1-4 7-7h2v8l38-1 4-4h2l1-87-5-1-3-4-81-1-2 7h-2l-1 4-5 3-4 1-1 74-8 4-2 3-1 7 5-3 2-4 6-4h3l-3 4 1 5-3 3h-5l-2 3 7 2v35l-6 3-1 2v6l3 3h7l3-4 1-3h84l1-6 5-5 5-2 8 1 6 4 3 6-1 9-5 6-4 2h-5l1 20-7 2v9l4 4 4 2v13l-3 9-7 8-6 3-82 1-5 5h-2l-1 130h8l-2 4-6 6-4-2-7-7v-1h9l-1-129-5-4v-2h-56l-1 202h9l-6 7-3 3-4-2-6-8h8v-203l-74 1h-31l-54-1-8-5-6-7-2-7v-16l-4-1-2-5h-56l-8-2-9-6-5-10v-14l2 1 1 13 5 9 6 4 3 1 61 1 2-5 4-1-1-17-4-8-5-4-4-2-58-1v-3h54l9 3 7 6 3 5 1 4 1 16 5 4 1 7-4 5-2 1v15l3 8 5 5 6 3 61 1h97v-39h-25l2-3h23v-38h-43l-8-2-6-4-5-6-3-8v-134l-54 1-8 4-4 5-2 6-1 43-4 10-8 7-5 2-51 1v27l8 1-6 7-4 3-9-9v-1l8-1v-27l-47-1-1 4-3-1v-6l-5 1-2-3 5-3 1-44-7-3-4-5v-5l5-6 4-1-2-16-4-6-5-4-6-2-71-1-2 6-3 3-6-6-3-5-3-3-5-3-3-2 4 4 1 8 3 2h5l6 5-1 3-4 2h-9l-6-4-4-5-1-4-13-1-1 4-2 2h-3l1 83 6 3 3 5-1 9-4 4-5 1v59l4 1 2 3-1 6-2 2h-3l1 96 4 10 6 5 6 2 300 1v-9l7 6 3 3-2 5-6 6h-2v-9h-302l-8-4-7-8-2-6v-98l-4-1-1-2v-6l3-3h2v-59l-5-2-4-4v-4l-12 2-7 4-4 5-2 4-1 51 5 1 4 5-1 7-6 5h-7l-5-5-1-6h-26l-1 8-6 7-5 2h-7l-6-3-4-5-2-9 3-7 6-5 6-1-1-2v-148l-8-5-2-6-49 1-1 4-2 2h-3l-1 57-4 8-7 6-5 2-47 1-4 8-7 3-7-1-6-5-1-2v-10l5-6 2-1h10l6 5 1 6 46-1 10-5 4-6 1-3 1-56-4-1-3-4 1-8 5-4v-32l-8-5-3-4-1-8 4-8 4-3 4-1 1-107-4-1-4-4v-3h-104l-8-2-6-4-6-7-2-6-1-26-4-4v-2h-94l-4-8h-4l-2 4 3 1-1 5-1 1h-5l-1-2-4 2 1 4 8 3v67l8 4 4 5v4h79l11 4 7 8 2 6v62l5 1 4 4 1 7-3 6-7 3-7-2-5-6v-2l-34 1-8 3-6 7-2 4-1 64v47l5 3 2 4 38 1v3h-37l-5 6-3 1v37l-1 17 6 2 6 4 3 7v7l-3 6-4 4-6 2-9-1-6-5-3-6v-8l5-8 8-4h2l-1-20v-34l-6-4-1-3h-27l-10 3-7 8-1 2-1 9v46l4 1 4 5v6l-4 6-4 1v65l6 2 5 5 2 8h33l3-6 2-2h7l4 5 45 1v-3h2l2-4 5-3 9 2 4 6v6l-4 6-4 2h-6l-5-3-1-4h-2v-3l-44 1-5 5-4 1v68l7 1 5 4 1 7 252-1 1-52h1l1 52 177 1v-9l7 6 3 4-9 9h-1v-8l-177 1v29l8 1-6 7-4 3-9-9v-1l8-1v-29l-252-1-1 6-6 5h-11l-5-4-2-4v-5h-24l-2 9-5 7-8 4h-9l-8-4-5-6-3-7h-29l-9 4-5 7-1 3-1 64 4 1 4 4v2h45l2-6 5-4 7-1 8 4 3 6 40 1h96v-8l7 6 3 4-9 9h-1v-8l-136 1-3 6-6 4h-7l-5-3-4-5v-3h-45l-2 5-4 3h-2v124h138v-8l7 6 3 4-9 9h-1v-8h-138v56h8l-2 4-6 6-5-2-6-8h9v-56l-103 1-4 6-2 1h-7l-5-3-2-4-35-1h-217l-2 7-6 5-9 2-7-3-5-6-2-4-13-2-8-4-6-8-2-5v-74l-4-2-2-4h-87l-9-4-6-7-3-8v-36h2l1 37 4 8 6 5 4 2h88l5-5 6 1 2 2v3h31l2-4 3-2 6 1 3 4h152l3-4h7l3 2v3h51v-8l6 4 4 5-6 7-4 3v-9l-50 1-5 5v46l5 8 8 5 85 1 1-5 6-5h8l6 5 2 5-1 6-4 5-5 2-7-1-5-4-1-5h-79l-9-2-8-6-5-10v-45l-4-2-1-3h-154l-2 4-2 2-5-1-5-5h-29l-4 5h-2l1 72 3 8 1 3 10 5h12l4-8 6-4 8-1 7 3 5 6 1 5h220l32-1 4-6 7-2 6 3 3 4v2h103l-1-123-6-5-1-4h-30l-2-8-4-4-2-1h-9l-5 3-4 10h-151l-1 5-6 4-7-1-5-6v-2h-78l-10-4-6-7-3-7v-64l-4-1-3-3-1-5 3-5 4-3 1-294-5-1-5-6v-3h-80v38l-3 8-5 6-8 4-3 1h-104v51h-2v-51l-32 1-8 4-5 6-2 6-1 17-2-1v-17l4-9 8-7 4-2 8-1h26v-113h2l1 9-1 104 106-1 8-4 5-8 1-4 1-37h-66l-9-4-7-8-2-5v-48l-5-2-2-2v-8l5-4h2l-1-9 1-61-5-1-4-4-2-4-12 1-8 5-4 7-1 4-1 56-2-1v-56l3-8 5-6 8-4 4-1h9l2-6 7-4 1-57-4-2-5-5v-2h-62l-1 7-6 7-6 2h-8l-7-3-5-6-2-10-1 1h-33z" fill="#EFB872"/>
<path transform="translate(833,5)" d="m0 0 2 1v80l4 2 1 3h81l1 2-81 1-5 5v25l3 7 5 6 7 3 108 1 2-5 4-3h6l5 3 1 5h129l11 4 7 8 2 5v15h-2l-1-14-4-8-5-4-4-2-132-1-2 5-6 4v105l9 5 3 5v4l46-1 4-5h3v-63l4-10 9-8 8-2h57v3l-61 1-8 5-5 8-1 66 5 2 1 4h73l2-5 4-2 6 1 3 3 1 5-3 5-3 1-1 42-6 3-1 6 3 4 4 1 1 83 6 3 3 5-1 9-4 4-5 1v59l4 1 2 3-1 6-2 2h-3l1 96 4 10 6 5 6 2 300 1v-9l7 6 3 3-2 5-6 6h-2v-9h-302l-8-4-7-8-2-6v-98l-4-1-1-2v-6l3-3h2v-59l-5-2-4-4v-4l-12 2-7 4-4 5-2 4-1 51 5 1 4 5-1 7-6 5h-7l-5-5-1-6h-26l-1 8-6 7-5 2h-7l-6-3-4-5-2-9 3-7 6-5 6-1-1-2v-148l-8-5-2-6-49 1-1 4-2 2h-3l-1 57-4 8-7 6-5 2-47 1-4 8-7 3-7-1-6-5-1-2v-10l5-6 2-1h10l6 5 1 6 46-1 10-5 4-6 1-3 1-56-4-1-3-4 1-8 5-4v-32l-8-5-3-4-1-8 4-8 4-3 4-1 1-107-4-1-4-4v-3h-104l-8-2-6-4-6-7-2-6-1-26-4-4v-2h-94l-4-8h-4l-2 4 3 1-1 5-1 1h-5l-1-2-4 2 1 4 8 3v67l8 4 4 5v4h79l11 4 7 8 2 6v62l5 1 4 4 1 7-3 6-7 3-7-2-5-6v-2l-34 1-8 3-6 7-2 4-1 64v47l5 3 2 4 38 1v3h-37l-5 6-3 1v37l-1 17 6 2 6 4 3 7v7l-3 6-4 4-6 2-9-1-6-5-3-6v-8l5-8 8-4h2l-1-20v-34l-6-4-1-3h-27l-10 3-7 8-1 2-1 9v46l4 1 4 5v6l-4 6-4 1v65l6 2 5 5 2 8h33l3-6 2-2h7l4 5 45 1v-3h2l2-4 5-3 9 2 4 6v6l-4 6-4 2h-6l-5-3-1-4h-2v-3l-44 1-5 5-4 1v68l7 1 5 4 1 7 252-1 1-52h1l1 52 177 1v-9l7 6 3 4-9 9h-1v-8l-177 1v29l8 1-6 7-4 3-9-9v-1l8-1v-29l-252-1-1 6-6 5h-11l-5-4-2-4v-5h-24l-2 9-5 7-8 4h-9l-8-4-5-6-3-7h-29l-9 4-5 7-1 3-1 64 4 1 4 4v2h45l2-6 5-4 7-1 8 4 3 6 40 1h96v-8l7 6 3 4-9 9h-1v-8l-136 1-3 6-6 4h-7l-5-3-4-5v-3h-45l-2 5-4 3h-2v124h138v-8l7 6 3 4-9 9h-1v-8h-138v56h8l-2 4-6 6-5-2-6-8h9v-56l-103 1-4 6-2 1h-7l-5-3-2-4-35-1h-217l-2 7-6 5-9 2-7-3-5-6-2-4-13-2-8-4-6-8-2-5v-74l-4-2-2-4h-87l-9-4-6-7-3-8v-36h2l1 37 4 8 6 5 4 2h88l5-5 6 1 2 2v3h31l2-4 3-2 6 1 3 4h152l3-4h7l3 2v3h51v-8l6 4 4 5-6 7-4 3v-9l-50 1-5 5v46l5 8 8 5 85 1 1-5 6-5h8l6 5 2 5-1 6-4 5-5 2-7-1-5-4-1-5h-79l-9-2-8-6-5-10v-45l-4-2-1-3h-154l-2 4-2 2-5-1-5-5h-29l-4 5h-2l1 72 3 8 1 3 10 5h12l4-8 6-4 8-1 7 3 5 6 1 5h220l32-1 4-6 7-2 6 3 3 4v2h103l-1-123-6-5-1-4h-30l-2-8-4-4-2-1h-9l-5 3-4 10h-151l-1 5-6 4-7-1-5-6v-2h-78l-10-4-6-7-3-7v-64l-4-1-3-3-1-5 3-5 4-3 1-294-5-1-5-6v-3h-80v38l-3 8-5 6-8 4-3 1h-104v51h-2v-51l-32 1-8 4-5 6-2 6-1 17-2-1v-17l4-9 8-7 4-2 8-1h26v-113h2l1 9-1 104 106-1 8-4 5-8 1-4v-39l1-59-6-3-4-5v-8l5-6 2-1h8l6 5 2 7h73l2-5 4-2v-69h2v69l4 2 1 2 149 1v-9l7 6 3 3-2 4-7 7h-1v-9l-149 1-4 4-1 55 6 2 3 4 1 3h187l10-4 5-6 2-6v-44l-6-5-1-6 3-5 5-3h2v-13l6-3 1-2v-6l-5-5-4-2v-126l1-3 1-7 4-6 9-6 4-1 28-1 3-7 5-5 5-2h7l8 4 4 6 1 7 43-1 3 6h8l4-7h42l1-5 5-4 3-1v-28l4-8 7-6 9-3h91z" fill="#EFB872"/>
<path transform="translate(1440)" d="m0 0h584v18 3 21l5 2 3 3 1 5-2 5-3 3-7 1-6-4-1-4h-23l-4 4-1 65h-3l-1-66-2-2h-89l-7 4-4 5-2 4-1 57 5 2 3 3 1 3 16 1-1 3 5-2 1-1h66l2-6 5-4h9l6 5 2 7h18l2-1 3 5 4 2v29l-8 5-3 6-20-1-3 7-3 2-1 28h8l-2 4-6 6-4-1-7-7v-2h8l-1-28-5-4-1-2h-23l-8 3-7 8-1 3-1 73 5 3 2 7-3 6-4 2-4-1-5-4v-3h-35l-2 7-8 7-3 1h-7l-6-3-5-5-2-5v-7l3-6 6-5 6-2v-42l3 1-3-4v-47h2l1-26-7-1-4-5v-3h-29l-2 4h-5l-4-3-9 2-6 4-3 4-2 6v114l6 4 3 4v9l-5 6-7 2-7-3-3-3-1-3v-7l4-6 5-3h2v-115l3-7 6-7 10-4 6-2 3-3-1-60-4-8-5-4-4-2h-78l-5 5-1 211-6 3-2 3 1 7 7 3 1 26-1 24-4 8-7 6-8 3h-12l-2 5-4 1 1 86 6 5 86 1 2-7 6-5 8-2 8 3 5 6 1 3v7l-3 6-5 4-2 1h-10l-6-4-3-4-2-5-86-1-2 5-2 2-7-1-4-4v-2l-37 1-1 8-4-2-6-6 1-4 7-7h2v8l38-1 4-4h2l1-87-5-1-3-4-81-1-2 7h-2l-1 4-5 3-4 1-1 74-8 4-2 3-1 7 5-3 2-4 6-4h3l-3 4 1 5-3 3h-5l-2 3 7 2v35l-6 3-1 2v6l3 3h7l3-4 1-3h84l1-6 5-5 5-2 8 1 6 4 3 6-1 9-5 6-4 2h-5l1 20-7 2v9l4 4 4 2v13l-3 9-7 8-6 3-82 1-5 5h-2l-1 130h8l-2 4-6 6-4-2-7-7v-1h9l-1-129-5-4v-2h-56l-1 202h9l-6 7-3 3-4-2-6-8h8v-203l-74 1h-31l-54-1-8-5-6-7-2-7v-16l-4-1-2-5h-56l-8-2-9-6-5-10v-14l2 1 1 13 5 9 6 4 3 1 61 1 2-5 4-1-1-17-4-8-5-4-4-2-58-1v-3h54l9 3 7 6 3 5 1 4 1 16 5 4 1 7-4 5-2 1v15l3 8 5 5 6 3 61 1h97v-39h-25l2-3h23v-38h-43l-8-2-6-4-5-6-3-8v-134l-54 1-8 4-4 5-2 6-1 43-4 10-8 7-5 2-51 1v27l8 1-6 7-4 3-9-9v-1l8-1v-27l-46-1v-2h47l-1-122v-19l-8-5-3-3-2-6-135 1-3 6-3 2h-9l-5-4-1-2v-7l4-6 2-1h9l5 5 1 3 135 1 2-5 5-6 9-2 7 3 5 6 1 6-3 8-5 4-5 2v40l-1 101 51-1 8-4 5-6 2-8 1-43 6-10 8-5 3-1h54v-125h-6v-2h6l-1-73-4-8-5-4-3-2-2-6-5-2v-68l-5-1-6-7-80 1-8 5-5 8-1 57 5 1 4 5 1 5-3 7-5 4h-2v20l-4 10-8 7-9 3h-148l-1 3-5 1-4-4 1-5 3-2 5 1 1 3 151-1 8-4 4-5 2-4 1-23-5-2-4-5-1-5 3-7 4-3h3v-54l3-8 4-6 6-4 6-2 79-1 4-6 8-3z" fill="#EFB872"/>
<path transform="translate(0)" d="m0 0h458v174l-4 9-8 7-5 2-43 1-1 5-5 4h-2l1 31 4 8 7 5 3 1 120 1 3 8 7 3v12l-6 3-3 5 1 6 6 5v44l-4 9-6 5-8 3h-187l-4-7-6-3v-55l5-5h149l1 8 8-8-2-4-6-6-1 8h-149l-5-5v-69h-2v69l-4 3-1 5h-75l-2-8-5-4h-8l-5 4-1 2v8l4 5 8 2-3 1v59l-1 2h-65l-9-4-7-8-2-5v-48l-5-2-2-2v-8l5-4h2l-1-9 1-61-5-1-4-4-2-4-12 1-8 5-4 7-1 4-1 56-2-1v-56l3-8 5-6 8-4 4-1h9l2-6 7-4 1-57-4-2-5-5v-2h-62l-1 7-6 7-6 2h-8l-7-3-5-6-2-10-1 1h-33z" fill="#EFB872"/>
<path transform="translate(1427,52)" d="m0 0 4 5 4 3 3 1v68l5 1 2 2 1 5 6 4 4 5 2 5v73h-6v2h6v125l-54 1-10 5-6 10-1 43-3 9-6 7-7 3h-51v-141l10-6 3-8-2-8-6-5-7-1-7 3-6 9h-135l-3-5v-2l-3-1h-9l-4 4-1 2v7l5 5h9l4-4 2-4h135l5 8 9 6v141h-47l-2 6-3-1v-6l-5 1-2-3 5-3 1-44-7-3-4-5v-5l5-6 4-1-2-16-4-6-5-4-6-2-71-1-2 6-3 3-6-6-3-5-3-3-5-3-3-2 4 4 1 8 3 2h5l6 5-1 3-4 2h-9l-6-4-4-5-1-4-13-1-1 4-2 2h-7l-4-5 1-6 4-3h3v-40l5-5 1-5-3-5-5-2v-69l8-4 4-6h19l3 3 5-1 1-2 148-1 9-3 7-6 4-10 1-20 7-5 2-8-3-6-6-3v-57l5-8 5-4 4-2z" fill="#EFB872"/>
<path transform="translate(592,742)" d="m0 0h9l6 4 2 4v6h30l4 6 4 3v123h-103l-4-6-7-2-6 3-3 5-36 1h-159l-57-1-4-8-5-4-9-1-8 4-5 9h-12l-6-3-5-5-3-5-1-4v-72l6-6h29l5 5 5 1 4-5 2-1h150l7 6 1 45 5 10 7 5 9 2h22l57 1 3 6 6 3 7-1 5-5 1-6-3-6-4-3h-8l-5 4-2 5h-85l-8-5-4-5-2-4v-46l6-6h50l1 8 8-8-3-5-5-4-1 7h-51v-3l-4-2-1-1v-20l6-4 2-5h151l2-8 5-5z" fill="#EFB872"/>
<path transform="translate(1436,41)" d="m0 0 9 1 5 6v2h57l9 4 7 8 2 5v142l9 3 5 6 2 8-4 10-7 5-4 1-1 101h-2v-102l-7-1-5-5-4-8h-20l-1 4-3 2-7-1-3-4-12-2v124h7l3-6 5-4h9l6 5 1 2v9l-5 6-5 2-7-1-5-5-1-5-8 1v130l2 9 6 7 6 3 48 1v-144l7-3 3-6 39-1 5-10 7-4 6-1 8 3 6 7 1 3v7l-2 5h-2l-1 4-5 3-4 1-1 74-8 4-2 3-1 7 5-3 2-4 6-4h3l-3 4 1 5-3 3h-5l-2 3 7 2v35l-6 3-1 2v6l3 3h7l3-4 1-3h84l1-6 5-5 5-2 8 1 6 4 3 6-1 9-5 6-4 2h-5l1 20-7 2v9l4 4 4 2v13l-3 9-7 8-6 3-82 1-5 5h-2l-1 130h8l-2 4-6 6-4-2-7-7v-1h9l-1-129-5-4v-2h-56l-1 202h9l-6 7-3 3-4-2-6-8h8v-203l-74 1h-31l-54-1-8-5-6-7-2-7v-16l-4-1-2-5h-56l-8-2-9-6-5-10v-14l2 1 1 13 5 9 6 4 3 1 61 1 2-5 4-1-1-17-4-8-5-4-4-2-58-1v-3h54l9 3 7 6 3 5 1 4 1 16 5 4 1 7-4 5-2 1v15l3 8 5 5 6 3 61 1h97v-39h-25l2-3h23v-38h-43l-8-2-6-4-5-6-3-8v-134l-54 1-8 4-4 5-2 6-1 43-4 10-8 7-5 2-51 1v27l8 1-6 7-4 3-9-9v-1l8-1v-27l-46-1v-2h47l-1-122v-19l-8-5-3-3-2-6-135 1-3 6-3 2h-9l-5-4-1-2v-7l4-6 2-1h9l5 5 1 3 135 1 2-5 5-6 9-2 7 3 5 6 1 6-3 8-5 4-5 2v40l-1 101 51-1 8-4 5-6 2-8 1-43 6-10 8-5 3-1h54v-125h-6v-2h6l-1-73-4-8-5-4-3-2-2-6-5-2v-68l-5-1-6-7-80 1-8 5-5 8-1 57 5 1 4 5 1 5-3 7-5 4h-2v20l-4 10-8 7-9 3h-148l-1 3-5 1-4-4 1-5 3-2 5 1 1 3 151-1 8-4 4-5 2-4 1-23-5-2-4-5-1-5 3-7 4-3h3v-54l3-8 4-6 6-4 6-2 79-1 4-6z" fill="#EFB872"/>
<path transform="translate(0)" d="m0 0h224v107l-5 5-66 1 67 1 4 4v57l-8 3-6 7-1 5h-57l-3-6-7-4-1-53-1-4-4-2-5-5v-2h-62l-1 7-6 7-6 2h-8l-7-3-5-6-2-10-1 1h-33z" fill="#EFB873"/>
<path transform="translate(833,5)" d="m0 0 2 1v80l4 2 1 3h81l1 2-81 1-5 5v25l3 7 5 6 7 3 108 1 2-5 4-3h6l5 3 1 5h129l11 4 7 8 2 5v15h-2l-1-14-4-8-5-4-4-2-132-1-2 5-6 4v105l9 5 3 5v4l46-1 4-5h3v-63l4-10 9-8 8-2h57v3l-61 1-8 5-5 8-1 66 5 2 1 4h73l2-5 4-2 6 1 3 3 1 5-3 5-3 1-1 42-6 3-1 6 3 4 4 1 1 83 6 3 3 5-1 9-4 4-5 1v59l4 1 2 3-1 6-2 2h-3l1 96 4 10 6 5 6 2 300 1v-9l7 6 3 3-2 5-6 6h-2v-9h-302l-8-4-7-8-2-6v-98l-4-1-1-2v-6l3-3h2v-59l-5-2-4-4v-4l-12 2-7 4-4 5-2 4-1 51 5 1 4 5-1 7-6 5h-7l-5-5-1-6h-26l-1 8-6 7-5 2h-7l-6-3-4-5-2-9 3-7 6-5 6-1-1-2v-148l-8-5-2-6-49 1-1 4-2 2h-3l-1 57-4 8-7 6-5 2-47 1-4 8-7 3-7-1-6-5-1-2v-10l5-6 2-1h10l6 5 1 6 46-1 10-5 4-6 1-3 1-56-4-1-3-4 1-8 5-4v-32l-8-5-3-4-1-8 4-8 4-3 4-1 1-107-4-1-4-4v-3h-104l-8-2-6-4-6-7-2-6-1-26-4-4v-2h-94v-2h94l2-4 3-1z" fill="#EFB772"/>
<path transform="translate(727,83)" d="m0 0 4 2 3 6v2h94l2 4 3 2 1 26 4 9 7 6 4 2 6 1 104 1 2 6 6 2v107l-8 4-5 9h-109l-4-6-6-3-1-62-3-7-5-6-11-4-79-1-3-7-6-4-8-1v-1h5v-67l-6-1-4-3 1-4 4-2 1 3 6-2v-4l-2-1 1-4z" fill="#EFB772"/>
<path transform="translate(1427,52)" d="m0 0 4 5 4 3 3 1v68l5 1 2 2 1 5 6 4 4 5 2 5v73h-6v2h6v125l-54 1-10 5-6 10-1 43-3 9-6 7-7 3h-51v-141l10-6 5-8h26l62-1 8-4 6-7 2-6 1-18-6-1-6-5-1-2v-9l5-6 5-2h3v-73l-5-1-2-5h-50v2l-4-1-1-1-36-1-3-6-6-3v-57l5-8 5-4 4-2z" fill="#EFB772"/>
<path transform="translate(1586,218)" d="m0 0h6l5 5-1 7-4 3h-4v103l-10 4-6 11h-39l-2 6-4 3h-4v144h-48l-8-5-5-6-2-9v-130l1-1h8l3 7 7 3 6-1 5-4 1-2v-9l-4-5-2-1h-9l-5 4-3 6h-7l-1-1 1-124h9l4 2 4 4 7-1 2-4 2-1h18l5 9v2l4 2 7 2v102h2v-101l10-5 4-7 1-4h41l2-6z" fill="#EFB872"/>
<path transform="translate(1436,41)" d="m0 0 9 1 5 6v2h57l9 4 7 8 2 5v142l9 3 5 6 2 8-4 10-7 5-4 1-1 101h-2v-102l-7-1-5-5-4-8h-20l-1 4-3 2-7-1-3-4-12-2v124h7l3-6 5-4h9l6 5 1 2v9l-5 6-5 2-7-1-5-5-1-5-8 1v130l2 9 6 7 6 3 48 1v-144h2v144h56v3h-56v38h52v3h-52v39l56-1 4-5 6-1 5 3 1 4 82-1 8-5 4-5 2-6 1-15 2 1v13l-3 9-7 8-6 3-82 1-5 5h-2l-1 130h8l-2 4-6 6-4-2-7-7v-1h9l-1-129-5-4v-2h-56l-1 202h9l-6 7-3 3-4-2-6-8h8v-203l-74 1h-31l-54-1-8-5-6-7-2-7v-16l-4-1-2-5h-56l-8-2-9-6-5-10v-14l2 1 1 13 5 9 6 4 3 1 61 1 2-5 4-1-1-17-4-8-5-4-4-2-58-1v-3h54l9 3 7 6 3 5 1 4 1 16 5 4 1 7-4 5-2 1v15l3 8 5 5 6 3 61 1h97v-39h-25l2-3h23v-38h-43l-8-2-6-4-5-6-3-8v-134l-54 1-8 4-4 5-2 6-1 43-4 10-8 7-5 2-51 1v27l8 1-6 7-4 3-9-9v-1l8-1v-27l-46-1v-2h47l-1-122v-19l-8-5-3-3-2-6-135 1-3 6-3 2h-9l-5-4-1-2v-7l4-6 2-1h9l5 5 1 3 135 1 2-5 5-6 9-2 7 3 5 6 1 6-3 8-5 4-5 2v40l-1 101 51-1 8-4 5-6 2-8 1-43 6-10 8-5 3-1h54v-125h-6v-2h6l-1-73-4-8-5-4-3-2-2-6-5-2v-68l-5-1-6-7-80 1-8 5-5 8-1 57 5 1 4 5 1 5-3 7-5 4h-2v20l-4 10-8 7-9 3h-148l-1 3-5 1-4-4 1-5 3-2 5 1 1 3 151-1 8-4 4-5 2-4 1-23-5-2-4-5-1-5 3-7 4-3h3v-54l3-8 4-6 6-4 6-2 79-1 4-6z" fill="#EFB873"/>
<path transform="translate(1226)" d="m0 0h214v40l2 1-8 2-3 3-3 4-79 1-9 4-5 5-3 6-1 4-1 54-6 3-4 9h-69l-11-2-8-6-5-8-1-4z" fill="#EFB872"/>
<path transform="translate(1739,53)" d="m0 0h78l8 5 4 5 2 5 1 61-5 4-11 3-6 4-5 7-1 4-1 115-8 5-2 4-1 6-52-1-3-7-5-2 1-212 3-1 2-4z" fill="#EFB872"/>
<path transform="translate(1983)" d="m0 0h41v18 3 21l5 2 3 3 1 5-2 5-3 3-7 1-6-4-1-4h-23l-4 4-1 65h-3l-1-66-2-2h-89l-7 4-4 5-2 4-1 57 5 2 3 3 1 3 16 1-1 3 5-2 1-1h66l2-6 5-4h9l6 5 2 7h18l2-1 3 5 4 2v29l-8 5-3 6-20-1-3 7-3 2-1 28h8l-2 4-6 6-4-1-7-7v-2h8l-1-28-5-4-1-2h-23l-8 3-7 8-1 3-1 73 5 3 2 7-3 6-4 2-4-1-5-4v-3h-35l-2 7-8 7-3 1h-7l-6-3-5-5-2-5v-7l3-6 6-5 6-2v-42l3 1-3-4v-47h2l1-26-7-1-4-5v-3h-28v-2h28l1-5 6-4 1-55 4-9 4-5 7-4 4-1 87-1 2-2z" fill="#EFB772"/>
<path transform="translate(1734)" d="m0 0h249v47l-3 3-87 1-8 3-5 4-4 8-1 3-1 55-6 4-2 5h-28l-2 5-1 1h-5l-4-3-9 2-6 4-3 4-2 6v114l6 4 3 4v9l-5 6-7 2-7-3-3-3-1-3v-7l4-6 5-3h2v-115l3-7 6-7 10-4 6-2 3-3-1-60-4-8-5-4-4-2h-78l-3 4h-6l-4-3v-2h-59v-3h59l1-4 6-2z" fill="#EFB872"/>
<path transform="translate(1133,272)" d="m0 0h16l2 7 4 3h9l4-4 2-4h135l5 8 9 6v141h-47l-2 6-3-1v-6l-5 1-2-3 5-3 1-44-7-3-4-5v-5l5-6 4-1-2-16-4-6-5-4-6-2-71-1-2 6-3 3-6-6-3-5-3-3-5-3-3-2 4 4 1 8 3 2h5l6 5-1 3-4 2h-9l-6-4-4-5-1-4-13-1-1 4-2 2h-7l-4-5 1-6 4-3h3v-40l5-5z" fill="#EFB872"/>
<path transform="translate(1605,353)" d="m0 0h81l5 5 3 1v85l-7 7h-38v-8l-8 7-1 4 7 7 2 1v-8l1-1h37l4 5 3 3v29l-2 2-7 3-3 5-1 4h-84l-1 5-3 3h-7l-4-4v-6l4-4 3-1 1-35-7-1v-3l2-2h7v-6-3-1l-6 4-3 5-4 1v-7l4-5 6-2 1-74 10-5 1-3h2z" fill="#EFB772"/>
<path transform="translate(834)" d="m0 0h313v22l-4 8-7 6-7 3h-103v33l-3 1v-34h-54v37h-2v-37h-132z" fill="#EEB773"/>
<path transform="translate(316,205)" d="m0 0h2v69l4 2 1 2 149 1v-9l7 6 3 3-2 4-7 7h-1v-9l-149 1-4 4-1 55 6 2 3 4 1 3h187l10-4 5-6 2-6v-44l-6-5-1-6 3-5 5-3 6 1 4 5v6l-4 5-3 2-1 46-4 8-7 6-7 3-189 1-3 6-5 3h-2l1 294 5 3 2 4-1 6-4 4h-3l1 62 3 8 5 5 6 3 24 1h56l2-5 5-3h6l5 4 1 4h151v3h-151l-1 5-6 4-7-1-5-6v-2h-78l-10-4-6-7-3-7v-64l-4-1-3-3-1-5 3-5 4-3 1-294-5-1-5-6v-3h-80v38l-3 8-5 6-8 4-3 1h-104v51h-2v-51l-32 1-8 4-5 6-2 6-1 17-2-1v-17l4-9 8-7 4-2 8-1h26v-113h2l1 9-1 104 106-1 8-4 5-8 1-4v-39l1-59-6-3-4-5v-8l5-6 2-1h8l6 5 2 7h73l2-5 4-2z" fill="#EEB773"/>
<path transform="translate(978,144)" d="m0 0h132l8 5 4 5 2 5v14l-8 5-2 6h-58l-9 3-7 6-4 10-1 63-4 2-3 4h-46l-3-7-3-3-6-3-1-2v-104l7-5z" fill="#EFB872"/>
<path transform="translate(1837,135)" d="m0 0h29l4 7 7 2v24l-1 2h-2l1 47 2 4h-2v42l-9 3-5 6-1 3v7l3 6v2l4 2 5 2h7l6-3 5-6 2-5h35l3 5 6 3v36l-9 5-3 8h-41l-3-7-7-1-4 4-1 4h-18l-9-4-5-4-4-7-1-4v-32l1-2 5-2v-8l-6-2v-132l5-3z" fill="#EEB875"/>
<path transform="translate(1588,335)" d="m0 0 8 2 7 6 2 5v7l-2 5h-2l-1 4-5 3-4 1-1 74-8 4-2 3-1 7 5-3 2-4 6-4h3l-3 4 1 5-3 3h-5l-2 3 7 2v35l-6 3-2 5-57-1v-144l6-4 2-5 39-1 5-10 7-4z" fill="#EFB873"/>
<path transform="translate(326,667)" d="m0 0h80l8 4 6 7 2 7v59l-6 4-3 5-61 1-19-1-8-4-6-9-1-4v-62l5-2z" fill="#EFB772"/>
<path transform="translate(712,646)" d="m0 0 9 1 6 4 5 6 2 6-1 9-6 9-8 4h-9l-8-4-5-6-3-7h-29l-9 4-5 7-1 3-1 64 4 1 4 4v2h45l2-6 5-4 7-1 8 4 3 6 40 1h96v-8l7 6 3 4-9 9h-1v-8l-136 1-3 6-6 4h-7l-5-3-4-5v-3h-45l-2 5-4 3h-2v124h138v-8l7 6 3 4-9 9h-1v-8h-138v56h8l-2 4-6 6-5-2-6-8h9v-56l-103 1-4 6-2 1h-7l-5-3-2-4-35-1h-217l-2 7-6 5-9 2-7-3-5-6-2-4-13-2-8-4-6-8-2-5v-74l-4-2-2-4h-87l-9-4-6-7-3-8v-36h2l1 37 4 8 6 5 4 2h88l5-5 6 1 2 2v3h31l2-4 3-2 6 1 3 4h152l3-4h7l3 2v3h51v-8l6 4 4 5-6 7-4 3v-9l-50 1-5 5v46l5 8 8 5 85 1 1-5 6-5h8l6 5 2 5-1 6-4 5-5 2-7-1-5-4-1-5h-79l-9-2-8-6-5-10v-45l-4-2-1-3h-154l-2 4-2 2-5-1-5-5h-29l-4 5h-2l1 72 3 8 1 3 10 5h12l4-8 6-4 8-1 7 3 5 6 1 5h220l32-1 4-6 7-2 6 3 3 4v2h103l-1-123-6-5-1-4h-29v-3l29-1 5-6h3v-64l4-8 8-7 6-2h29l3-9 5-6 6-3z" fill="#90C4B5"/>
<path transform="translate(1586,218)" d="m0 0h6l5 5-1 7-4 3h-4v103l-10 4-6 11h-39l-2 6-4 3-7-1-4-5 1-7 3-3 5-1v-101l10-5 4-7 1-4h41l2-6z" fill="#EFB772"/>
<path transform="translate(833,5)" d="m0 0 2 1v80l4 2 1 3h81l1 2-81 1-5 5v25l3 7 5 6 7 3 108 1 2-5 4-3h6l5 3 1 5h129l11 4 7 8 2 5v15h-2l-1-14-4-8-5-4-4-2-132-1-2 5-6 4v105l9 5 3 5v4l47-1 2 7 7 3v36l-10 5-3 8-49 1-1 4-2 2h-3l-1 57-4 8-7 6-5 2-47 1-4 8-7 3-7-1-6-5-1-2v-10l5-6 2-1h10l6 5 1 6 46-1 10-5 4-6 1-3 1-56-4-1-3-4 1-8 5-4v-32l-8-5-3-4-1-8 4-8 4-3 4-1 1-107-4-1-4-4v-3h-104l-8-2-6-4-6-7-2-6-1-26-4-4v-2h-94v-2h94l2-4 3-1z" fill="#EDB977"/>
<path transform="translate(710,563)" d="m0 0h8l7 4 3 5 1 6h33l3-6 2-2h7l4 5 45 1v-3h2l2-4 5-3 9 2 4 6v6l-4 6-4 2h-6l-5-3-1-4h-2v-3l-44 1-5 5-4 1v68l7 1 5 4 1 7 252-1 1-52h1l1 52 177 1v-9l7 6 3 4-9 9h-1v-8l-177 1v29l8 1-6 7-4 3-9-9v-1l8-1v-29l-252-1-1 6-6 5h-11l-5-4-2-4v-5h-24l-4-10-7-6-10-3v-54l-6-2-6-7-1-2v-8l4-6z" fill="#EFB772"/>
<path transform="translate(153,192)" d="m0 0h55l6 9 6 5 4 1v61l-8 6-3 7h-64l-3-7-4-2v-70l6-3z" fill="#EFB874"/>
<path transform="translate(1458,214)" d="m0 0 3 2v8h8v2h-8v124h7l3-6 5-4h9l6 5 1 2v9l-5 6-5 2-7-1-5-5-1-5-8 1v130l2 9 6 7 6 3 48 1v-144h2v144h56v3h-56v38h52v3h-52v39l56-1 4-5 6-1 5 3 1 4 82-1 8-5 4-5 2-6 1-15 2 1v13l-3 9-7 8-6 3-82 1-5 5h-2l-1 130h8l-2 4-6 6-4-2-7-7v-1h9l-1-129-5-4v-2h-56l-1 202h9l-6 7-3 3-4-2-6-8h8v-203l-74 1h-31l-54-1-8-5-6-7-2-7v-16l-4-1-2-5h-56l-8-2-9-6-5-10v-14l2 1 1 13 5 9 6 4 3 1 61 1 2-5 4-1-1-17-4-8-5-4-4-2-58-1v-3h54l9 3 7 6 3 5 1 4 1 16 5 4 1 7-4 5-2 1v15l3 8 5 5 6 3 61 1h97v-39h-25l2-3h23v-38h-43l-8-2-6-4-5-6-3-8v-134l-54 1-8 4-4 5-2 6-1 43-4 10-8 7-5 2-51 1v27l8 1-6 7-4 3-9-9v-1l8-1v-27l-46-1v-2h47l-1-122v-19l-8-5-3-3-2-6-135 1-3 6-3 2h-9l-5-4-1-2v-7l4-6 2-1h9l5 5 1 3 135 1 2-5 5-6 9-2 7 3 5 6 1 6-3 8-5 4-5 2v40l-1 101 51-1 8-4 5-6 2-8 1-43 6-10 8-5 3-1h54v-125h-6v-2h6z" fill="#DED8CA"/>
<path transform="translate(1933,325)" d="m0 0 6 1 5 5v9l-4 5-6 2v85l-3 9-6 7-6 3h-37l-2-4-3-2-1-102 5-3 2-3 41-1 2-7 4-3z" fill="#EFB772"/>
<path transform="translate(0)" d="m0 0h51l1 33 1 4h-1l-1 57 12 4 5 6 2 6-1 8-3 6-4 4-6 2h-8l-7-3-5-6-2-10-1 1h-33z" fill="#EFB772"/>
<path transform="translate(138,272)" d="m0 0h6l5 5v4h64l1-4 2 9 5 4 6 1-3 1v59l-1 2h-65l-9-4-7-8-2-5v-48l-5-2-2-2v-8z" fill="#EFB772"/>
<path transform="translate(598)" d="m0 0h64l1 84 5 3 2 2v6l-3 4h-8l-4-6h-42l-3-9-5-5-7-3z" fill="#EFB772"/>
<path transform="translate(1056,183)" d="m0 0h57v3l-61 1-8 5-5 8-1 66 5 2 1 4h73l2-5 4-2 6 1 3 3 1 5-3 5-3 1-1 42-6 3-2 5h-71l-2-8-8-4 1-37-6-1-3-3v-7l3-4h3v-63l4-10 9-8z" fill="#EFB975"/>
<path transform="translate(911,330)" d="m0 0h48l5 6 3 1v56l-3 6-5 5-8 4h-46l-3-7-4-3-5-1 1-47 2-8 4-6 7-5z" fill="#EFB772"/>
<path transform="translate(665,667)" d="m0 0h29l2 2 3 8 6 5 5 2 6 1v57l-9 3-5 8h-45l-2-5-6-2v-64l4-8 6-5z" fill="#EFB772"/>
<path transform="translate(1711,278)" d="m0 0h13l3 6 6 2 1 26-1 24-4 8-7 6-8 3h-12l-2 5-4 1 1 86 6 5 86 1 2-7 6-5 8-2 8 3 5 6 1 3v7l-3 6-5 4-2 1h-10l-6-4-3-4-2-5-86-1-2 5-2 2-7-1-4-4v-2l-37 1-1 8-4-2-6-6 1-4 7-7h2v8l38-1 4-4h2l1-87-5-1-2-3v-7l3-4h4v-49l5-10 9-6z" fill="#EFB874"/>
<path transform="translate(1026)" d="m0 0h119v20l-4 9-8 6-3 1h-104z" fill="#F0B872"/>
<path transform="translate(1436,41)" d="m0 0 9 1 5 6v2h57l9 4 7 8 2 5v142l9 3 5 6 2 8-4 10-7 5-4 1-1 101h-2v-102l-7-1-5-5-3-6v-9l6-8 9-3-1-140-4-9-5-4-4-2-59-1v2h-2l-2 4-2 2-6 1-6-3-5-6-80 1-8 5-5 8-1 57 5 1 4 5 1 5-3 7-5 4h-2v20l-4 10-8 7-9 3h-148l-1 3-5 1-4-4 1-5 3-2 5 1 1 3 151-1 8-4 4-5 2-4 1-23-5-2-4-5-1-5 3-7 4-3h3v-54l3-8 4-6 6-4 6-2 79-1 4-6z" fill="#D1CAB9"/>
<path transform="translate(1458,214)" d="m0 0 3 2v8h8v2h-8v124h7l3-6 5-4h9l6 5 1 2v9l-5 6-5 2-7-1-5-5-1-5-8 1v130l2 9 6 7 6 3 49 1-1 2h-49l-8-5-5-6-3-8v-134l-54 1-8 4-4 5-2 6-1 43-4 10-8 7-5 2-51 1v27l8 1-6 7-4 3-9-9v-1l8-1v-27l-46-1v-2h47l-1-122v-19l-8-5-3-3-2-6-135 1-3 6-3 2h-9l-5-4-1-2v-7l4-6 2-1h9l5 5 1 3 135 1 2-5 5-6 9-2 7 3 5 6 1 6-3 8-5 4-5 2v40l-1 101 51-1 8-4 5-6 2-8 1-43 6-10 8-5 3-1h54v-125h-6v-2h6z" fill="#E7E2D4"/>
<path transform="translate(2024)" d="m0 0h24v135h-18l-3-5-5-3v-66l7-3 2-2 1-6-3-5-5-3-1-20-1-3 1-1z" fill="#EEBA79"/>
<path transform="translate(1892,280)" d="m0 0h35l3 5 6 3v36l-9 5-3 8h-41l-3-7-6-3v-31l10-4 6-7z" fill="#EFB874"/>
<path transform="translate(1983)" d="m0 0h41v18 3 21l5 2 3 3 1 5-2 5-3 3-7 1-6-4-1-4h-23l-4 4-1 65h-3l-1-66-2-2h-89l-7 4-4 5-2 4-1 57h-3v-55l4-9 4-5 7-4 4-1 87-1 2-2z" fill="#EFB976"/>
<path transform="translate(1980,123)" d="m0 0h9l6 5 2 7h18l2-1 3 5 4 2v29l-8 5-3 6-20-1-3 7-3 2-1 28h8l-2 4-6 6-4-1-7-7v-2h8l-1-28-5-4-1-2h-23l-8 3-7 8-1 3-1 73 5 3 2 7-3 6-4 2-4-1-5-4v-3h-35v-2h34l2-5 5-3v-69l3-10 5-6 10-5 25-1 4-5 2-1 1-28-5-1-4-4-1-9 3-5z" fill="#EFB976"/>
<path transform="translate(1991,52)" d="m0 0 23 1 3 5 5 3 1 66 6 4 1 4-3 5-5 1-7-5h-19l-3-9-4-3-8-1v-1h5v-65z" fill="#EEB772"/>
<path transform="translate(712,646)" d="m0 0 9 1 6 4 5 6 2 6-1 9-6 9-8 4h-9l-8-4-5-6-3-7h-29l-9 4-5 7-1 3-1 64 4 1 4 4v2h45l2-6 5-4 7-1 8 4 3 6 40 1h96v-8l7 6 3 4-9 9h-1v-8l-136 1-3 6-6 4h-7l-5-3-4-5v-3h-45l-2 5-4 3h-6l-5-4-1-4h-29v-3l29-1 5-6h3v-64l4-8 8-7 6-2h29l3-9 5-6 6-3z" fill="#66BEAF"/>
<path transform="translate(833,5)" d="m0 0 2 1v80l4 2 1 3h81l1 2-81 1-5 5v25l3 7 5 6 7 3 108 1 2-5 4-3h6l5 3 1 5h129l11 4 7 8 2 5v15h-2l-1-14-4-8-5-4-4-2-132-1-2 5-6 4v105l9 5 3 5v10l-4 6-6 3h-8l-6-4-3-4-1-8 4-8 4-3 4-1 1-107-4-1-4-4v-3h-104l-8-2-6-4-6-7-2-6-1-26-4-4v-2h-94v-2h94l2-4 3-1z" fill="#B6AB9C"/>
<path transform="translate(224)" d="m0 0h2l1 107 3 4 76 1v2l-76 1-3 3-1 57 8 2 6 7 1 6h61l1 2-61 1-4 8-6 5-8 2-7-3-7-8-2-4h-55l-4 6-4 3h-3v70h-2l-1-9 1-61-5-1-4-4-2-4-12 1-8 5-4 7-1 4-1 56-2-1v-56l3-8 5-6 8-4 4-1h9l2-6 7-4 1-54 2 1 1 53 7 4 2 6h57v-5l7-8 4-2h4l-1-57-3-3-67-1-1-2 67-1 4-4z" fill="#78C0B0"/>
<path transform="translate(969,39)" d="m0 0h54v37l-4 8-6 5-6 2-23 1-3-9-7-5-5-1z" fill="#F0B872"/>
<path transform="translate(834,262)" d="m0 0 7 3 3 3 1 7-3 6-7 3-7-2-5-6v-2l-34 1-8 3-6 7-2 4-1 64v47l5 3 2 4 38 1v3h-37l-5 6-3 1v37l-1 17 6 2 6 4 3 7v7l-3 6-4 4-6 2-9-1-6-5-3-6v-8l5-8 8-4h2l-1-20v-34l-6-4-1-3h-27l-10 3-7 8-1 2-1 9v46l4 1 4 5v6l-4 6-2 1h-7l-5-4-1-2v-8l5-5h3v-52l3-8 6-7 10-4 30-1 4-5 3-2v-107l3-9 7-8 10-4h34l2-5 5-4z" fill="#66BEAF"/>
<path transform="translate(646,764)" d="m0 0h3v124h138v-8l7 6 3 4-9 9h-1v-8h-138v56h8l-2 4-6 6-5-2-6-8h9v-56l-103 1-4 6-2 1h-7l-5-3-2-4-35-1h-217v-3h220l32-1 4-6 7-2 6 3 3 4v2h103z" fill="#B9AFA0"/>
<path transform="translate(316,363)" d="m0 0h2l1 294 5 3 2 4-1 6-4 4h-3l1 62 3 8 5 5 6 3 24 1h56l2-5 5-3h6l5 4 1 4h151v3h-151l-1 5-6 4-7-1-5-6v-2h-78l-10-4-6-7-3-7v-64l-4-1-3-3-1-5 3-5 4-3z" fill="#B6AC9D"/>
<path transform="translate(969)" d="m0 0h54v36h-54z" fill="#F0B872"/>
<path transform="translate(1124,336)" d="m0 0h2l1 83 6 3 3 5-1 9-4 4-5 1v59l4 1 2 3-1 6-2 2h-3l1 96 4 10 6 5 6 2 300 1v-9l7 6 3 3-2 5-6 6h-2v-9h-302l-8-4-7-8-2-6v-98l-4-1-1-2v-6l3-3h2v-59l-5-2-4-4-1-6 3-6 4-3h3z" fill="#B6AB9C"/>
<path transform="translate(1690,344)" d="m0 0h7l5 4 1 4-3 6-4 1 1 86 6 5 86 1 2-7 6-5 8-2 8 3 5 6 1 3v7l-3 6-5 4-2 1h-10l-6-4-3-4-2-5-86-1-2 5-2 2-7-1-4-4v-2l-37 1-1 8-4-2-6-6 1-4 7-7h2v8l38-1 4-4h2l1-87-5-1-2-3v-7z" fill="#E2DDCF"/>
<path transform="translate(1444,136)" d="m0 0 8 5 4 5 2 5v73h-6l-1 2-2-7-5-4-4-2v-73z" fill="#F0B872"/>
<path transform="translate(532,561)" d="m0 0 8 1 6 4 4 6v4h36l1-4 6-5h8l5 4 2 7-3 6-5 4h-2v37l-2 1-1-38-6-3-2-3v-3l-36-1-2 6-6 7-5 2h-7l-8-4-4-7v-10l4-6 6-4z" fill="#5D6FD2"/>
<path transform="translate(1318,259)" d="m0 0 9 2 6 7 1 6-3 8-5 4-3 1h-7l-6-4-3-3-2-6-135 1-3 6-3 2h-9l-5-4-1-2v-7l4-6 2-1h9l5 5 1 3 135 1 2-5 5-6z" fill="#9AC3B4"/>
<path transform="translate(456)" d="m0 0h2v174l-4 9-8 7-5 2-43 1-1 5-5 4h-2l1 31 4 8 7 5 3 1 120 1v2h-121l-8-4-6-7-3-10v-27l-5-2-3-4-1-8 5-6 2-1h7l6 5 1 4 41-1 8-4 5-6 2-7z" fill="#D2CABA"/>
<path transform="translate(712,646)" d="m0 0 9 1 6 4 5 6 2 6-1 9-6 9-8 4h-9l-8-4-5-6-2-6v-7l3-7 4-5 6-3z" fill="#5D6ED3"/>
<path transform="translate(2024)" d="m0 0h24v50h-16l-3-5-5-3-1-20-1-3 1-1z" fill="#EFB772"/>
<path transform="translate(1036,612)" d="m0 0h1l1 52 177 1v-9l7 6 3 4-9 9h-1v-8l-177 1v29l8 1-6 7-4 3-9-9v-1l8-1v-29l-252-1v-2l252-1z" fill="#D3CCBB"/>
<path transform="translate(1874,344)" d="m0 0h3l1 101 4 3v3l37-1 8-5 5-8 1-5v-85h3v83l-2 10-4 6-6 5-5 2-37 1-1 4-3 2-1 59v53l-2 5h-1l-1-117-5-5v-6l4-4h2z" fill="#DCD6C6"/>
<path transform="translate(224,292)" d="m0 0h2l1 61-1 38-3 8-5 6-8 4-3 1h-104v51h-2v-51l-32 1-8 4-5 6-2 6-1 17-2-1v-17l4-9 8-7 4-2 8-1h26v-113h2l1 9-1 104 106-1 8-4 5-8 1-4v-39z" fill="#E8E3D6"/>
<path transform="translate(833,5)" d="m0 0 2 1v80l4 2 1 3h81l1 2-81 1-5 5v25l3 7 5 6 7 3 108 1v3h-104l-8-2-6-4-6-7-2-6-1-26-4-4v-2h-94v-2h94l2-4 3-1z" fill="#B9AE9F"/>
<path transform="translate(1330,123)" d="m0 0 6 1 5 4 2 7-3 7-5 4h-2v20l-4 10-8 7-9 3h-148l-1 3-5 1-4-4 1-5 3-2 5 1 1 3 151-1 8-4 4-5 2-4 1-23-5-2-4-5-1-5 3-7 4-3z" fill="#D2CBBA"/>
<path transform="translate(1521,209)" d="m0 0 9 1 6 4 4 7 1 5-4 10-7 5-4 1-1 101h-2v-102l-7-1-5-5-3-6v-9l6-8z" fill="#7DC0B1"/>
<path transform="translate(591,384)" d="m0 0h11l7 4 5 7 1 8-4 10-7 5-3 1h-8l-8-4-5-7-1-9 3-8 7-6z" fill="#E88049"/>
<path transform="translate(965,321)" d="m0 0h7l4 4 1 6-3 5-4 1-1 57-4 8-7 6-5 2-47 1-4 8-7 3-7-1-6-5-1-2v-10l5-6 2-1h10l6 5 1 6 46-1 10-5 4-6 1-3 1-56-4-1-3-4 1-8z" fill="#E88049"/>
<path transform="translate(50,95)" d="m0 0 8 1 6 3 4 5 2 6-1 8-3 6-4 4-6 2h-8l-7-3-5-6-2-9 2-8 5-6z" fill="#5D70D1"/>
<path transform="translate(1588,335)" d="m0 0 8 2 7 6 2 5v7l-2 5h-2l-1 4-5 3-4 1-1 74h-2v-74l-9-3-5-6-1-3v-8l4-8 7-4z" fill="#82C1B1"/>
<path transform="translate(593,76)" d="m0 0h7l8 4 4 6 1 8-3 8-7 6h-11l-6-3-4-5-2-7-26 1-9 3-5 4-4 10h-2l1-7 4-6 9-6 4-1 28-1 3-7 5-5z" fill="#66BDAE"/>
<path transform="translate(140,126)" d="m0 0 2 1 1 53 7 4 2 6h57l-1 3h-55l-4 6-4 3h-3v70h-2l-1-9 1-61-5-1-4-4-2-4-12 1-8 5-4 7-1 4-1 56-2-1v-56l3-8 5-6 8-4 4-1h9l2-6 7-4z" fill="#8DBEAF"/>
<path transform="translate(156,713)" d="m0 0 7 1 3 3v2h29l8 3 7 6 4 9 1 17 6 4 4 6-1 6-3 5-9 3-6-3-3-3-1-9 4-6 6-2-1-16-3-8-8-7-3-1-31-1-2 4-3 2-7-1-2-2v-3h-32v-3h32l1-4z" fill="#75C2B3"/>
<path transform="translate(422,789)" d="m0 0 3 1 1 6-2 3 1 46 5 8 8 5 85 1 1-5 6-5h8l6 5 2 5-1 6-4 5-5 2-7-1-5-4-1-5h-79l-9-2-8-6-5-10v-45h-2l1-4-1-5z" fill="#E2DDCF"/>
<path transform="translate(1870,263)" d="m0 0h11l6 4 4 5 1 3v7l-3 6-7 6-3 1h-7l-6-3-5-5-2-5v-7l3-6 6-5z" fill="#E87E48"/>
<path transform="translate(1694,555)" d="m0 0 2 1v13l-3 9-7 8-6 3-82 1-5 5h-2l-1 130h8l-2 4-6 6-4-2-7-7v-1h9l-1-129-5-4-1-6 4-5 6-1 5 3 1 4 82-1 8-5 4-5 2-6z" fill="#D1CAB9"/>
<path transform="translate(533,271)" d="m0 0 6 1 4 5v6l-4 5-3 2-1 46-4 8-7 6-7 3h-189v-2l42-1h145l10-4 5-6 2-6v-44l-6-5-1-6 3-5z" fill="#B6AC9E"/>
<path transform="translate(1124,336)" d="m0 0h2l1 83 6 3 3 5-1 9-4 4-5 1v59l4 1 2 3-1 6-5 3-6-2-1-2v-6l3-3h2v-59l-5-2-4-4-1-6 3-6 4-3h3z" fill="#81B7A8"/>
<path transform="translate(967,76)" d="m0 0 9 2 6 5 2 5v8l-3 6-6 5-3 1h-7l-8-4-3-4-2-8 3-9 6-5z" fill="#E87F49"/>
<path transform="translate(1023)" d="m0 0h3v36l104-1 8-4 4-5 2-6 1-20h2v22l-4 8-7 6-7 3h-103v33l-3 1v-34h-54v-3h54z" fill="#E6E1D3"/>
<path transform="translate(766,473)" d="m0 0h9l8 5 3 7v7l-3 6-4 4-6 2-9-1-6-5-3-6v-8l5-8z" fill="#5D70D1"/>
<path transform="translate(272,888)" d="m0 0h252v3h-252z" fill="#B6AB9C"/>
<path transform="translate(1731,44)" d="m0 0 6 2 2 3 76 1 10 5 6 7 2 5v61h-2l-1-60-4-8-5-4-4-2h-78l-3 4h-6l-4-3v-2h-59v-3h59l1-4z" fill="#D2CBBA"/>
<path transform="translate(254,874)" d="m0 0 9 1 7 6 2 5v7l-3 6-5 4-9 2-7-3-5-6-2-7 3-8 5-5z" fill="#66BEAF"/>
<path transform="translate(1036,490)" d="m0 0 9 3 5 5 2 6-1 8-6 7-5 2h-7l-6-3-4-5-2-9 3-7 6-5z" fill="#66BEAF"/>
<path transform="translate(834,262)" d="m0 0 7 3 3 3 1 7-3 6-7 3-7-2-5-6v-2l-34 1-8 3-6 7-2 4-1 64v48l-3-1v-107l3-9 7-8 10-4h34l2-5 5-4z" fill="#CFC8B7"/>
<path transform="translate(1803,437)" d="m0 0 9 2 6 7 1 3v7l-3 6-5 4-2 1h-10l-6-4-3-4-1-3v-7l3-6 5-4z" fill="#66BEAF"/>
<path transform="translate(224)" d="m0 0h2l1 107 3 4 76 1v2l-76 1-3 3-1 57h-2l-1-57-3-3-67-1-1-2 67-1 4-4z" fill="#DDD7C9"/>
<path transform="translate(610,248)" d="m0 0h31l9 3 5 4 4 6 3 10 5 3 2 4-1 7-5 4h-2v93l-3 9-6 7-5 3-4 1h-28v-2l28-1 8-4 5-6 2-8v-91l-6-4-1-2v-8l4-4h3l-2-10-7-8-9-3-30-1z" fill="#66BEAF"/>
<path transform="translate(832,566)" d="m0 0 9 2 4 6v6l-4 6-4 2h-6l-5-3-1-4h-2v-3l-44 1-5 5-5 1-5-3-1-7 4-5h7l4 5 45 1v-3h2l2-4z" fill="#5D70D1"/>
<path transform="translate(710,563)" d="m0 0h8l7 4 3 5 1 6-3 8-5 4-7 2-8-3-5-6-1-2v-8l4-6z" fill="#5D6ED3"/>
<path transform="translate(1226)" d="m0 0h3l1 118 4 8 7 5 3 1 76 1v3h-69l-11-2-8-6-5-8-1-4z" fill="#E9E4D7"/>
<path transform="translate(1692,491)" d="m0 0 8 1 6 4 3 6-1 9-5 6-4 2h-8l-6-3-4-6-1-6 3-8 5-4z" fill="#5D70D1"/>
<path transform="translate(966,259)" d="m0 0 8 1 5 3 3 5v10l-4 6-6 3h-8l-6-4-3-4-1-8 4-8 4-3z" fill="#5D70D1"/>
<path transform="translate(480,783)" d="m0 0 6 4 4 5-6 7-4 3v-9l-50 1-5 5-2-1 2-2v-6h-5l2 6-3 2-2-4h-153v-3l152-1 3-4h7l3 2v3h51z" fill="#D1CAB9"/>
<path transform="translate(1056,183)" d="m0 0h57v3l-61 1-8 5-5 8-1 66 5 2 1 2v6l-5 5-7-1-3-3v-7l3-4h3v-63l4-10 9-8z" fill="#D1CAB9"/>
<path transform="translate(1976,179)" d="m0 0 1 4h-24l-8 3-7 8-1 3-1 73 5 3 2 7-3 6-4 2-4-1-5-4v-3h-35v-2h34l2-5 5-3v-69l3-10 5-6 10-5z" fill="#E8E3D6"/>
<path transform="translate(1318,259)" d="m0 0 9 2 6 7 1 6-3 8-5 4-3 1h-7l-6-4-3-3-1-3v-8l4-6 4-3z" fill="#5D6ED3"/>
<path transform="translate(1523,360)" d="m0 0h2v144h56v3h-56v38h-2v-38h-43v-1l43-1z" fill="#D5CEBE"/>
<path transform="translate(718,171)" d="m0 0h9l6 4 3 4 1 7-3 7-3 3-6 2-8-1-5-4-3-7 2-9 5-5z" fill="#5D70D1"/>
<path transform="translate(477,400)" d="m0 0h102v2l-102 1-8 3-5 5-3 6-1 33v106l3 10 4 5 8 4 44 1-1 4v-2h-43l-10-5-6-9-1-2-1-123 1-23 5-8 6-5z" fill="#D1CAB9"/>
<path transform="translate(592,742)" d="m0 0h9l6 4 2 4v10l-5 6-4 2h-7l-6-4-3-4-1-6 3-8z" fill="#E87F49"/>
<path transform="translate(766,653)" d="m0 0h9l6 4 2 4v10l-5 6-2 1h-11l-5-4-2-4v-9l4-6z" fill="#E87E48"/>
<path transform="translate(101,294)" d="m0 0h2l1 9-1 158h-2v-51l-32 1-8 4-5 6-2 6-1 17-2-1v-17l4-9 8-7 4-2 8-1h26z" fill="#D1CAB9"/>
<path transform="translate(595,271)" d="m0 0 6 1 4 4v8l-3 4-3 1-1 94-3-1v-93l-5-2-2-3v-8l4-4z" fill="#E8E3D6"/>
<path transform="translate(1523,590)" d="m0 0h2v202h9l-6 7-3 3-4-2-6-8h8z" fill="#D1CABA"/>
<path transform="translate(863,745)" d="m0 0 7 6 3 4-9 9h-1v-8h-136v-3h136z" fill="#B6AB9C"/>
<path transform="translate(593,567)" d="m0 0h8l5 4 2 7-3 6-5 4h-2v37l-2 1-1-38-6-3-2-3v-3l-36-1-1 2v-4h36l1-4z" fill="#DAD4C5"/>
<path transform="translate(1500,545)" d="m0 0h77v3h-52v39h56l-1 3h-57l-64-1v-1h64v-40h-25z" fill="#DDD7C8"/>
<path transform="translate(123,480)" d="m0 0h91l9 2 8 6 5 10v79l-2 1-1-80-4-8-5-4-5-2-96-1z" fill="#E4DFD1"/>
<path transform="translate(1893,50)" d="m0 0h87v3l-89 1-7 4-4 5-2 4-1 57h-3v-55l4-9 4-5 7-4z" fill="#E8E3D6"/>
<path transform="translate(965,321)" d="m0 0h7l4 4 1 6-3 5-4 1-1 57-4 8-7 6-5 2h-47v-2l45-1 10-5 4-6 1-3 1-56-4-1-3-4 1-8z" fill="#B6AB9C"/>
<path transform="translate(713,742)" d="m0 0 6 1 5 3 3 6-1 8-4 5-4 2h-7l-5-3-4-5v-8l4-6z" fill="#5D6ED3"/>
<path transform="translate(1437,213)" d="m0 0 7 1 6 5 1 2v9l-5 6-5 2-7-1-6-5-1-2v-9l5-6z" fill="#E8814A"/>
<path transform="translate(1428,49)" d="m0 0h1v5l-2-1-80 1-8 5-5 8-1 56h-3v-53l3-8 4-6 6-4 6-2z" fill="#D0C9B8"/>
<path transform="translate(1606,50)" d="m0 0h35v2l-3 1-34 1-8 5-4 7-1 3-1 148h-2v-150l4-8 7-6z" fill="#D2CBBA"/>
<path transform="translate(1476,340)" d="m0 0h9l6 5 1 2v9l-5 6-5 2-7-1-5-5-2-5 1-6 5-6z" fill="#66BEAF"/>
<path transform="translate(433,753)" d="m0 0h150v3h-150z" fill="#B5AA9C"/>
<path transform="translate(1035,341)" d="m0 0h3v148h-3z" fill="#D9D3C3"/>
<path transform="translate(1800,267)" d="m0 0h7l5 3 3 4v9l-5 6-7 2-7-3-3-3-1-3v-7l4-6z" fill="#5D6FD2"/>
<path transform="translate(833,588)" d="m0 0h2l1 21 3 7 5 6 7 3h119l10-5 5-10 1-19h2v19l-3 8-7 7-7 3h-120l-9-4-6-7-3-8z" fill="#E8E3D6"/>
<path transform="translate(1653,64)" d="m0 0h2v143l-3 8-7 8-6 3h-42l1-2 40-1 8-5 4-5 2-7z" fill="#D1CAB9"/>
<path transform="translate(1980,123)" d="m0 0h9l6 5 1 9-3 6-7 3-7-1-5-5-1-9 3-5z" fill="#5D6FD2"/>
<path transform="translate(530,849)" d="m0 0h8l6 5 2 5-1 6-4 5-5 2-7-1-5-4-2-5 1-6 5-6z" fill="#5D71D1"/>
<path transform="translate(737,183)" d="m0 0h78l11 4 7 8 2 6v61h-2l-1-61-4-8-9-6-82-1z" fill="#E9E4D7"/>
<path transform="translate(1318,287)" d="m0 0 3 1v171l8 1-6 7-4 3-9-9v-1l8-1v-27l-46-1v-2h47l-1-122z" fill="#DBD5C5"/>
<path transform="translate(472,270)" d="m0 0 7 6 3 3-2 4-7 7h-1v-9h-149v-2h149z" fill="#E8E3D6"/>
<path transform="translate(210,755)" d="m0 0 9 1 5 6 1 6-4 7-9 3-6-3-3-3-1-9 4-6z" fill="#67BDAE"/>
<path transform="translate(221,269)" d="m0 0h8l6 5 1 2v7l-4 6-4 2h-7l-6-5-1-2v-8l5-6z" fill="#5D70D1"/>
<path transform="translate(1731,77)" d="m0 0 3 3-1 190h-2z" fill="#E8E3D6"/>
<path transform="translate(385,201)" d="m0 0h7l-2 1 1 31 4 8 7 5 3 1 120 1v2h-121l-8-4-6-7-3-10v-27z" fill="#D1CAB9"/>
<path transform="translate(1033,318)" d="m0 0h7l6 4 1 2v10l-5 5-2 1h-7l-6-4-1-2v-10l5-5z" fill="#E88049"/>
<path transform="translate(1123,173)" d="m0 0 6 1 6 5 1 8-3 5-4 3-5 1-7-3-3-4v-9l4-5z" fill="#E88049"/>
<path transform="translate(1330,123)" d="m0 0 6 1 5 4 2 7-3 7-4 3-5 1-7-3-3-4-1-5 3-7 4-3z" fill="#5D6ED3"/>
<path transform="translate(314,341)" d="m0 0h6l6 4 2 5-1 7-5 5-2 1h-7l-6-5-1-2v-7l3-5z" fill="#E88049"/>
<path transform="translate(1873,124)" d="m0 0h6l6 5 1 7-3 5-4 3h-7l-5-5-1-4h-28v-2h28l1-5z" fill="#73BAAB"/>
<path transform="translate(1132,504)" d="m0 0h123l-1 3h-122z" fill="#E1DCCD"/>
<path transform="translate(316,205)" d="m0 0h2v69l4 2 1 6-4 4-1 55h-2v-55l-4-2-1-1v-6l3-3h2z" fill="#A0B2A3"/>
<path transform="translate(100,544)" d="m0 0h6l6 5 1 2v8l-4 5-2 1h-8l-5-3-2-4v-7l5-6z" fill="#E87E48"/>
<path transform="translate(51,131)" d="m0 0h2l1 130 3 8 5 6 7 3 19 1v2h-19l-7-3-7-6-4-9z" fill="#E9E4D7"/>
<path transform="translate(834,262)" d="m0 0 7 3 3 3 1 7-3 6-7 3-7-2-4-5v-8l4-5z" fill="#5D6ED3"/>
<path transform="translate(1215,656)" d="m0 0 7 6 3 4-9 9h-1v-8h-120v-2h120z" fill="#D2CBBA"/>
<path transform="translate(1383,545)" d="m0 0h114l-2 3h-109z" fill="#E8E3D6"/>
<path transform="translate(385,181)" d="m0 0h7l6 5 1 7-3 6-7 3-7-2-3-4-1-8 5-6z" fill="#5D6FD2"/>
<path transform="translate(326,665)" d="m0 0h80l10 5 6 8 2 7v59h-2l-1-59-3-8-5-6-7-3-80-1z" fill="#E8E3D6"/>
<path transform="translate(1436,41)" d="m0 0 9 1 4 5v8l-5 6-6 1-6-3-3-4v-7l3-5z" fill="#5D6ED3"/>
<path transform="translate(1933,325)" d="m0 0 6 1 5 5v9l-4 5-4 1-8-2-3-4v-9l5-5z" fill="#E8814A"/>
<path transform="translate(2020,171)" d="m0 0h7l5 4 1 2v8l-4 5-2 1h-7l-6-5-1-7 3-5z" fill="#E8824A"/>
<path transform="translate(1731,44)" d="m0 0 6 2 2 3v5l-3 4h-6l-4-3v-2h-59v-3h59l1-4z" fill="#D4CEBD"/>
<path transform="translate(1157,314)" d="m0 0h7l6 3 4 5 1 2v10l-3 5-7-6-3-5-3-3-5-3-3-3v-2z" fill="#6CBCAD"/>
<path transform="translate(533,879)" d="m0 0 7 2 4 5v6l-4 6-2 1h-7l-5-3-2-4 1-7 5-5z" fill="#66BEAF"/>
<path transform="translate(1822,133)" d="m0 0h5l-1 3-9 2-6 4-3 4-2 6v115h-5l2-1v-115l3-7 6-7z" fill="#B7AEA0"/>
<path transform="translate(480,783)" d="m0 0 6 4 4 5-6 7-4 3v-9l-50 1-5 5-2-1 2-2v-6h-5l2 6-3 2-3-4 1-6 2-2h7l3 2v3h51z" fill="#D2CBBA"/>
<path transform="translate(420,745)" d="m0 0h6l5 4 2 4-1 6-5 5-6 1-5-3-3-4v-7l5-5z" fill="#5D6ED3"/>
<path transform="translate(1874,344)" d="m0 0h3v101h-3z" fill="#E8E3D6"/>
<path transform="translate(713,478)" d="m0 0 6 1 5 6v6l-4 6-2 1h-7l-5-4-1-2v-8l5-5z" fill="#5D6ED3"/>
<path transform="translate(658,289)" d="m0 0h3v93l-3 9-6 7-5 3-4 1h-28v-2l28-1 8-4 5-6 2-8z" fill="#D1CAB9"/>
<path transform="translate(328,112)" d="m0 0h45l8 4 6 7 3 8v50h-3l-1-52-4-8-7-5-3-1-44-1z" fill="#D1CAB9"/>
<path transform="translate(101,738)" d="m0 0h2l1 37 4 8 6 5 4 2 88 1v2h-87l-9-4-6-7-3-8z" fill="#D2CBBA"/>
<path transform="translate(1874,460)" d="m0 0h3v112l-2 5h-1z" fill="#E8E3D6"/>
<path transform="translate(1404,351)" d="m0 0m-3 1h3v2l-8 4-4 5-2 6-1 43-4 10-8 7-5 2h-51v-2l50-1 8-4 5-6 2-8 1-43 6-10z" fill="#E8E3D6"/>
<path transform="translate(1148,320)" d="m0 0 4 1 3 3 1 8 3 2h5l6 5-1 3-4 2h-9l-6-4-4-5-1-8z" fill="#66BEAF"/>
<path transform="translate(1086,496)" d="m0 0 6 1 6 6-1 7-6 5h-7l-5-5-1-7 4-5z" fill="#68BDAE"/>
<path transform="translate(1176,328)" d="m0 0h72l8 3 8 9 2 6 1 15-9 9h-2l1-7 5-4h2l-2-16-4-6-5-4-6-2-71-1z" fill="#E9E4D7"/>
<path transform="translate(1934,270)" d="m0 0 7 3 2 7-3 6-4 2-4-1-5-4v-3h-35v-2h34l2-5z" fill="#DBD4C6"/>
<path transform="translate(140,288)" d="m0 0h2l1 46 3 8 6 5 8 3 63 1v2h-65l-9-4-7-8-2-5z" fill="#B6AB9C"/>
<path transform="translate(967,35)" d="m0 0h1v7l-1-3h-91l-1-3z" fill="#E8E3D5"/>
<path transform="translate(1804,290)" d="m0 0 3 1h-2v76h9v2l-8 7-3 2-9-9v-2h9v-76z" fill="#B5AB9C"/>
<path transform="translate(2020,42)" d="m0 0h6l6 5 1 5-2 5-3 3-7 1-6-4-1-2v-7l4-5z" fill="#66BEAF"/>
<path transform="translate(767,570)" d="m0 0h7l4 5 45 1 1-3v8l-1-3-44 1-5 5-5 1-5-3-1-7z" fill="#90C0B0"/>
<path transform="translate(1438,238)" d="m0 0h2v18l-3 8-7 7-7 3-65 1h-23l-2 2 1-5 88-1 8-4 5-6 2-5z" fill="#D0C9B8"/>
<path transform="translate(1338,224)" d="m0 0h88l-1 3h-85l-9 3-6 5-3 6-1 18-3-1 1-17 4-8 7-6z" fill="#D2CBBA"/>
<path transform="translate(114,553)" d="m0 0h25l10 3 6 5 5 10v82l-2 1-1-82-5-10-8-5-4-1-27-1z" fill="#E8E3D6"/>
<path transform="translate(1703,545)" d="m0 0h87l1 3h-88z" fill="#E8E3D6"/>
<path transform="translate(458,444)" d="m0 0 2 1v111l3 10 4 5 8 4 44 1-1 4v-2h-43l-10-5-6-9-1-2-1-116z" fill="#D0CAB9"/>
<path transform="translate(365,350)" d="m0 0 90 1-1 2h-126v-2z" fill="#B6AC9D"/>
<path transform="translate(959,327)" d="m0 0 1 4h-49l-7 3-5 4-3 6-1 6-1 46h-2v-49l4-10 8-7 6-2z" fill="#E9E4D7"/>
<path transform="translate(1601,545)" d="m0 0h85v3h-85z" fill="#E9E4D7"/>
<path transform="translate(0,719)" d="m0 0h84v3h-84z" fill="#B6AB9C"/>
<path transform="translate(1276,504)" d="m0 0h54l9 3 7 6 3 5 1 4 1 17h-3l-1-17-4-8-5-4-4-2-58-1z" fill="#E4DFD1"/>
<path transform="translate(1124,441)" d="m0 0h2v59l4 1 2 3-1 6-5 3-6-2-1-2v-6l3-3h2z" fill="#A1B0A1"/>
<path transform="translate(1264,516)" d="m0 0 2 1 1 13 5 9 6 4 3 1 60 1v3h-55l-8-2-9-6-5-10z" fill="#E9E4D7"/>
<path transform="translate(1597,504)" d="m0 0h83v3h-83z" fill="#D9D3C4"/>
<path transform="translate(531,241)" d="m0 0h6l5 4 1 2v6l-5 5-5 1-6-3-2-4 1-7z" fill="#E8824B"/>
<path transform="translate(595,271)" d="m0 0 6 1 4 4v8l-3 4-9 1-5-5v-8l4-4z" fill="#5D71D1"/>
<path transform="translate(533,271)" d="m0 0 6 1 4 5v6l-4 5-2 1h-6l-5-4-1-6 3-5z" fill="#5D71D1"/>
<path transform="translate(1694,555)" d="m0 0 2 1v13l-3 9-7 8-6 3-83 1v-3l82-1 8-5 4-5 2-6z" fill="#DED8C9"/>
<path transform="translate(732,408)" d="m0 0h30v2l-27 1-10 3-7 8-1 2-1 9v45h-3v-51l3-8 6-7z" fill="#B6AB9C"/>
<path transform="translate(212,800)" d="m0 0h2l1 71 3 8 1 3 10 5h13v5l-14-2-8-4-6-8-2-5z" fill="#B6AB9C"/>
<path transform="translate(1500,545)" d="m0 0h77v3h-79z" fill="#E8E3D6"/>
<path transform="translate(1588,335)" d="m0 0 8 2 7 6 2 5v7l-1 3-4-2-9-10-8-7 1-3z" fill="#66BEAF"/>
<path transform="translate(712,767)" d="m0 0h5l-1 2v52l8 1-2 4-6 6-4-1-8-8v-1h9z" fill="#B6AB9C"/>
<path transform="translate(694,663)" d="m0 0h1v5h-30l-9 4-5 7-1 3-1 63h-2v-63l4-8 8-7 6-2h29z" fill="#D0C8B8"/>
<path transform="translate(315,657)" d="m0 0 6 1 4 4 1 6-3 5-7 2-5-3-3-5 2-6z" fill="#70BEAF"/>
<path transform="translate(595)" d="m0 0h3v76h-3z" fill="#E8E3D6"/>
<path transform="translate(787,880)" d="m0 0 7 6 3 4-9 9h-1v-8h-42l1-3h41z" fill="#B6AB9C"/>
<path transform="translate(965,321)" d="m0 0h7l4 4 1 6-3 5-4 2-6-1-4-5 1-8z" fill="#5D6ED3"/>
<path transform="translate(845,272)" d="m0 0h109v2l-6 1-103-1z" fill="#D1C9B9"/>
<path transform="translate(2022,192)" d="m0 0h2v71l-4 8-8 7-6 2h-13v-2l16-2 6-4 4-5 2-5z" fill="#E9E4D7"/>
<path transform="translate(967,153)" d="m0 0h2l1 106h-3z" fill="#B7AC9D"/>
<path transform="translate(742,36)" d="m0 0h34l-2 1v2l-35 1-8 4-6 10-1 27h-2v-28l4-8 7-6z" fill="#E8E3D6"/>
<path transform="translate(1523,343)" d="m0 0 5 1 4 4v8l-5 4-7-1-4-5 1-7 3-3z" fill="#E87F48"/>
<path transform="translate(138,272)" d="m0 0h6l5 5v6l-5 5h-6l-5-4v-8z" fill="#E8844C"/>
<path transform="translate(895,568)" d="m0 0 4 2 6 6-2 4-7 7h-1v-9h-50v-2h50z" fill="#D2CBBA"/>
<path transform="translate(593,567)" d="m0 0h8l5 4 2 7-3 6-3 3-4-2-3-4 5-1v-5l-5-1-2 5-6-5 2-4z" fill="#5D6ED3"/>
<path transform="translate(1738,496)" d="m0 0 4 2 6 6-1 4-7 7h-2v-8h-29v-3h29z" fill="#E2DDCE"/>
<path transform="translate(1983,189)" d="m0 0h3v28h8l-2 4-6 6-4-1-7-7v-2h8z" fill="#E9E4D7"/>
<path transform="translate(1647,443)" d="m0 0h2v8l39-1v5l-1-2-37 1-1 8-4-2-6-6 1-4z" fill="#E3DDCF"/>
<path transform="translate(243,53)" d="m0 0 4 2 6 6-1 4-7 7-4-2-7-7 6-7z" fill="#E9E4D7"/>
<path transform="translate(1691,539)" d="m0 0h7l4 4v8l-5 4-7-1-3-4v-7z" fill="#E88049"/>
<path transform="translate(49,474)" d="m0 0h7l4 5v6l-4 4h-8l-4-5 1-7z" fill="#E58B58"/>
<path transform="translate(727,83)" d="m0 0 4 2 3 6-1 6-5 5-8 1-6-4 1-4 4-2 1 3 6-2v-4l-2-1 1-4z" fill="#E87F48"/>
<path transform="translate(1983,326)" d="m0 0 4 2 7 7-6 7-3 3h-2v-8h-38v-2h38z" fill="#D2CBBA"/>
<path transform="translate(1728,271)" d="m0 0h8l4 5-1 7-3 3h-7l-5-5 1-7z" fill="#E87E48"/>
<path transform="translate(1587,580)" d="m0 0 6 1 4 4v6l-4 4-6 1-5-4-1-6 4-5z" fill="#5D6ED3"/>
<path transform="translate(1982,173)" d="m0 0 7 1 3 4v6l-5 5-7-1-3-3v-8z" fill="#72BFB0"/>
<path transform="translate(1346,539)" d="m0 0h6l5 5-1 7-5 4-6-1-4-6 1-5z" fill="#5D74CF"/>
<path transform="translate(121,190)" d="m0 0h9l-1 3-12 1-8 5-4 7-1 4-1 56-2-1v-56l3-8 5-6 8-4z" fill="#D2CBBA"/>
<path transform="translate(1690,344)" d="m0 0h7l5 4 1 4-3 6-6 2-6-3-1-2v-7z" fill="#75BFB1"/>
<path transform="translate(1123,265)" d="m0 0 6 1 3 3 1 5-3 5-3 2-7-1-3-4v-6l4-4z" fill="#5D6ED3"/>
<path transform="translate(712,498)" d="m0 0h4v65l-4-1z" fill="#B8AD9E"/>
<path transform="translate(1035,265)" d="m0 0 5 1 4 4v6l-5 5-7-1-3-3v-7l3-4z" fill="#5D6ED3"/>
<path transform="translate(1586,218)" d="m0 0h6l5 5-1 7-4 3h-6l-4-3-1-6 3-5z" fill="#E8905E"/>
<path transform="translate(370,934)" d="m0 0 7 6 3 4-9 9h-1l-1-8-86-1v-1l86-1z" fill="#E9E4D7"/>
<path transform="translate(51,490)" d="m0 0h2l1 46 3 8 8 7 3 1 23 1 1 2h-24l-8-4-6-7-3-7z" fill="#E9E4D7"/>
<path transform="translate(1036,202)" d="m0 0 2 1v62h-3v-62z" fill="#D3CCBC"/>
<path transform="translate(1985,59)" d="m0 0h1v63h-3v-61z" fill="#E8E3D6"/>
<path transform="translate(166,719)" d="m0 0h29l8 3 7 6 4 9 1 18h-3l-1-16-3-8-8-7-3-1-31-1z" fill="#B6AB9C"/>
<path transform="translate(272,888)" d="m0 0h64l-1 3h-63z" fill="#B5AC9D"/>
<path transform="translate(574,851)" d="m0 0 7 6 3 4-9 9h-1v-8h-28v-3h28z" fill="#E2DCCE"/>
<path transform="translate(711,658)" d="m0 0h6l5 5-1 7-3 3h-7l-4-4v-7z" fill="#D0C9B8"/>
<path transform="translate(1268,361)" d="m0 0 4 1 2 2 1 5-3 7-4 2h-6l-5-4 2-4 6-3 2-5z" fill="#6478CC"/>
<path transform="translate(75,407)" d="m0 0h26l1 3-33 1-8 4-5 6-2 6-1 17-2-1v-17l4-9 8-7 4-2z" fill="#E9E4D7"/>
<path transform="translate(595,108)" d="m0 0h3v61l-3-1z" fill="#E8E3D6"/>
<path transform="translate(1318,287)" d="m0 0 3 1v40l-1 101h-1l-1-122z" fill="#CFC7B6"/>
<path transform="translate(1477,218)" d="m0 0h6l5 5-1 7-4 3-7-1-4-6 2-5z" fill="#6E7FD1"/>
<path transform="translate(1873,328)" d="m0 0 7 1 3 4-1 7-3 3h-6l-5-5 1-7z" fill="#E58B58"/>
<path transform="translate(1872,445)" d="m0 0h6l4 3 1 6-3 5-7 1-5-5v-6z" fill="#6FBBAC"/>
<path transform="translate(1006,504)" d="m0 0h15v3l-18 1-8 4-5 8-1 3-1 36h-2v-36l3-8 5-6 8-4z" fill="#E6E0D3"/>
<path transform="translate(533,692)" d="m0 0h2v33h8l-2 4-6 6-4-2-6-6v-2h8z" fill="#E8E3D6"/>
<path transform="translate(663,152)" d="m0 0h1l1 14 3 8 8 7 3 1 30 1v3h-27l-9-3-6-5-4-7-1-4v-14z" fill="#E8E3D6"/>
<path transform="translate(1711,278)" d="m0 0h13v2l-12 1-10 5-4 6-1 3-1 49h-2v-49l5-10 9-6z" fill="#E9E4D7"/>
<path transform="translate(464,859)" d="m0 0h58v3h-56z" fill="#D7D0C0"/>
<path transform="translate(962,135)" d="m0 0 5 1 2 3-3 2v4l5-1h4l2 4-5 4-5 1-6-3-3-7 3-7z" fill="#66BEAF"/>
<path transform="translate(647,891)" d="m0 0h1v56h9l-2 4-6 6-5-2-6-8h9z" fill="#CCC5B4"/>
<path transform="translate(101,474)" d="m0 0 6 1 3 4-1 7-4 3h-5l-4-4-1-5 2-4z" fill="#CFC7B7"/>
<path transform="translate(1106,429)" d="m0 0h8v2l-14 3-7 6-3 6-1 50h-2v-50l4-8 7-6z" fill="#E9E4D7"/>
<path transform="translate(1693,445)" d="m0 0 6 1 3 3v6l-4 5-7-1-3-3v-8z" fill="#D6CFC0"/>
<path transform="translate(711,591)" d="m0 0h7l-2 1v54h-3v-54z" fill="#B6AB9C"/>
<path transform="translate(1586,498)" d="m0 0h6l4 4v7l-3 3h-7l-4-4v-6z" fill="#E68B57"/>
<path transform="translate(1080,141)" d="m0 0h26l11 4 7 8 2 5v15h-2l-1-14-4-8-5-4-4-2-32-1v-2z" fill="#B8AFA0"/>
<path transform="translate(778,36)" d="m0 0h55v3h-56z" fill="#E8E3D6"/>
<path transform="translate(357,753)" d="m0 0h56v3h-54z" fill="#B4AA9C"/>
<path transform="translate(660,85)" d="m0 0h6l4 4v6l-3 4h-8l-3-4v-6z" fill="#E58C59"/>
<path transform="translate(722,298)" d="m0 0h2v30h8l-6 7-4 3-9-9v-1l8-1z" fill="#E8E3D6"/>
<path transform="translate(1123,322)" d="m0 0 7 1 2 2v8l-3 3h-7l-4-5 1-6z" fill="#E8824B"/>
<path transform="translate(1832,285)" d="m0 0h1l1 33 5 10 8 5 5 1 16 1v2h-18l-9-4-5-4-4-7-1-4v-32z" fill="#D2CBBA"/>
<path transform="translate(255,785)" d="m0 0 6 1 3 4-1 6-4 4-5-1-4-4v-6z" fill="#72BFB0"/>
<path transform="translate(1087,548)" d="m0 0h2v20h8l-2 4-6 6-5-2-6-7v-1h9z" fill="#E7E2D5"/>
<path transform="translate(1811,537)" d="m0 0 7 6 3 4-9 9h-1v-8h-16l-2-3h18z" fill="#E8E3D6"/>
<path transform="translate(1044,272)" d="m0 0h73v2l-9 1h-64z" fill="#CFC8B7"/>
<path transform="translate(596,629)" d="m0 0h2v20h8l-2 4-6 6-4-2-7-7v-1l8-1z" fill="#E8E3D6"/>
<path transform="translate(1382,133)" d="m0 0h51l-1 3h-48z" fill="#E9E4D7"/>
<path transform="translate(1876,168)" d="m0 0h1v51l-3-2v-47h2z" fill="#E8E2D5"/>
<path transform="translate(1731,44)" d="m0 0 6 2 2 3v5l-3 4h-6l-4-3-1-5 2-4z" fill="#76C1B3"/>
<path transform="translate(141,202)" d="m0 0h1v70h-2l-1-9 1-60z" fill="#B9AE9F"/>
<path transform="translate(1983)" d="m0 0h3v47h-3z" fill="#E8E3D6"/>
<path transform="translate(158,728)" d="m0 0h2l1 21 4 8 6 5 5 2 26 1v2h-25l-10-4-6-7-3-7z" fill="#E8E3D6"/>
<path transform="translate(1024,39)" d="m0 0h1v38l-4 8-7 6-5 2h-24v-2l22-1 9-4 5-7 2-6z" fill="#B7AD9D"/>
<path transform="translate(1874,580)" d="m0 0h2l1 18 8 1-6 7-4 3-9-9v-1h8z" fill="#E8E3D6"/>
<path transform="translate(552,487)" d="m0 0h31v2l-30 1-10 4-5 6-2 6-1 10h-2v-10l4-10 7-6z" fill="#E9E4D7"/>
<path transform="translate(1873,272)" d="m0 0 7 1 2 3-1 7-2 2h-7l-3-4 1-7z" fill="#D0C8B8"/>
<path transform="translate(1907,133)" d="m0 0h66l-1 3h-66z" fill="#B6AB9C"/>
<path transform="translate(49,106)" d="m0 0h6l3 3v7l-3 3h-7l-3-5 1-5z" fill="#CCC7B7"/>
<path transform="translate(594,395)" d="m0 0h6l3 3v6l-4 4-6-1-3-4 1-6z" fill="#E8E3D6"/>
<path transform="translate(595,170)" d="m0 0 3 2v43l-3 2z" fill="#E8E3D5"/>
<path transform="translate(831,86)" d="m0 0h6l4 5-1 5-4 3-6-1-3-5 2-5z" fill="#73C1B2"/>
<path transform="translate(657,753)" d="m0 0h45v3h-44z" fill="#B6AB9C"/>
<path transform="translate(1036,668)" d="m0 0h1l1 29 8 1-6 7-4 3-9-9v-1l8-1z" fill="#D6D0C0"/>
<path transform="translate(610,248)" d="m0 0h31l9 3 5 4 4 6 2 10h-3l-2-9-7-8-9-3-30-1z" fill="#D2CBBA"/>
<path transform="translate(0,480)" d="m0 0h43v3h-43z" fill="#E1DBCD"/>
<path transform="translate(727,753)" d="m0 0h45l-1 3h-44z" fill="#B7AE9F"/>
<path transform="translate(1595,446)" d="m0 0 3 1 1 2v7l-4 5-2 1h-8l-3-3 3-3h7v-7z" fill="#E87E48"/>
<path transform="translate(2021,128)" d="m0 0 6 1 3 5-2 5-3 2-5-1-3-3 1-7z" fill="#E88D5B"/>
<path transform="translate(1731)" d="m0 0h3v36l-1 8h-2z" fill="#E9E4D7"/>
<path transform="translate(712,685)" d="m0 0 4 1v56h-3z" fill="#B6AB9C"/>
<path transform="translate(234,630)" d="m0 0 2 1 1 17 4 9 6 5 6 2 17 1 1 2h-18l-8-3-6-5-4-7-1-4z" fill="#E7E1D4"/>
<path transform="translate(1874,220)" d="m0 0 3 2v39l-3 1z" fill="#E8E3D6"/>
<path transform="translate(1732,313)" d="m0 0h1v23l-4 8-7 6-8 3h-12l1-2 14-2 7-4 4-5 2-5 1-21z" fill="#E8E3D6"/>
<path transform="translate(770,679)" d="m0 0 2 2v12l8 1-6 7-4 3-9-9v-1l8-1z" fill="#D1CAB9"/>
<path transform="translate(458,444)" d="m0 0 2 1-1 111h-1l-1-110z" fill="#D3CCBC"/>
<path transform="translate(1933,437)" d="m0 0 1 3-4 6-6 5-5 2-36 1v-3l36-1 8-5z" fill="#E2DDCF"/>
<path transform="translate(223,185)" d="m0 0 6 1 2 2v6l-3 3h-6l-3-3v-6z" fill="#E7E1D4"/>
<path transform="translate(552,91)" d="m0 0h28v2l-26 1-9 3-5 4-4 10h-2l1-7 4-6 9-6z" fill="#B7AC9D"/>
<path transform="translate(586,573)" d="m0 0 2 2 1 4 8 8-2 1-6-3-2-3v-3l-36-1-1 2v-4h36z" fill="#CDC8B7"/>
<path transform="translate(892,468)" d="m0 0 2 1-1 6-6 9-10 5h-32v-2l32-1 8-4 5-7z" fill="#E9E4D7"/>
<path transform="translate(966,86)" d="m0 0 6 1 2 2v6l-3 3h-6l-3-4 1-5z" fill="#CEC6B6"/>
<path transform="translate(595,420)" d="m0 0h3v54l-2 1z" fill="#E9E4D7"/>
<path transform="translate(533,271)" d="m0 0 6 1-3 3 2 6-3 3-6-2-3 3-1-6 3-5z" fill="#DBD5C5"/>
<path transform="translate(1898,177)" d="m0 0 4 2 4 4-2 4-4 4-4-2-4-4 2-4z" fill="#F0B872"/>
<path transform="translate(835,36)" d="m0 0h37l1 3h-38z" fill="#E8E3D6"/>
<path transform="translate(533,571)" d="m0 0 5 1 2 2v6l-3 3-7-1-2-6z" fill="#E6E1D4"/>
<path transform="translate(1023)" d="m0 0h3v37h-3z" fill="#C8C0B0"/>
<path transform="translate(1829,273)" d="m0 0h6l3 3v6l-2 2h-7l-3-4 1-5z" fill="#E18755"/>
<path transform="translate(1933,288)" d="m0 0h3v36h-3z" fill="#E9E4D7"/>
<path transform="translate(1934,270)" d="m0 0 7 3 2 7-3 5-4-1v-3l1-5-5 1h-3l-1-4z" fill="#5D6ED3"/>
<path transform="translate(1330,86)" d="m0 0 3 1v36h-3z" fill="#D7D0C0"/>
<path transform="translate(102,714)" d="m0 0 5 2 1 7-2 3-5 1-4-2-1-4z" fill="#E7E2D5"/>
<path transform="translate(959,327)" d="m0 0 1 4h-53l3-3z" fill="#E8E3D5"/>
<path transform="translate(1035,281)" d="m0 0h3v36h-3z" fill="#D9D3C3"/>
<path transform="translate(1445,135)" d="m0 0 6 2 7 8 3 9v18l-3 1-1-22-4-8-5-4-3-2z" fill="#E8E3D6"/>
<path transform="translate(1343,133)" d="m0 0h35l1 3h-36z" fill="#E8E3D6"/>
<path transform="translate(1150,318)" d="m0 0 6 5 5 3 4 4 3 5 3 3-1 2-6-5-7-1-2-2-1-8-5-5z" fill="#E0DACC"/>
<path transform="translate(1460,175)" d="m0 0h1v37l-3-1v-34z" fill="#E8E3D6"/>
<path transform="translate(1074,141)" d="m0 0h6l-2 1v2h-96v-1h92z" fill="#D3CDBC"/>
<path transform="translate(595,86)" d="m0 0 5 1 2 2v6l-3 3h-5l-3-3v-6z" fill="#B6AB9C"/>
<path transform="translate(1521,220)" d="m0 0h6l3 3v5l-3 3h-6l-3-5 2-5z" fill="#D1CAB9"/>
<path transform="translate(1898,152)" d="m0 0 4 2 4 5-7 7-7-6 2-4z" fill="#F0B872"/>
<path transform="translate(254,884)" d="m0 0h6l3 4-1 5-3 2h-5l-3-4 1-5z" fill="#E6E1D3"/>
<path transform="translate(767,483)" d="m0 0h7l2 2v6l-3 3h-5l-3-3v-6z" fill="#D2CBBB"/>
<path transform="translate(1897,203)" d="m0 0 4 1 5 6-6 6-4-2-4-5z" fill="#F0B872"/>
<path transform="translate(1436,129)" d="m0 0h6l3 3-1 6-2 2h-6l-2-2v-7z" fill="#E79161"/>
<path transform="translate(711,572)" d="m0 0h7l2 3v5l-4 3-5-1-2-2v-6z" fill="#CFC8B7"/>
<path transform="translate(1586,345)" d="m0 0 4 1v2l4 2 2 5-4 2h-6l-3-4 1-5z" fill="#D0C9B8"/>
<path transform="translate(1801,447)" d="m0 0h6l3 5-2 5-1 1h-6l-2-2v-7z" fill="#E6E1D4"/>
<path transform="translate(1316,268)" d="m0 0h7l2 2v6l-4 3-5-1-2-3 1-6z" fill="#CCC4B3"/>
<path transform="translate(256,905)" d="m0 0h2l1 23 5 8 5 4 11 3v1h-8l-8-4-5-6-3-7z" fill="#E8E3D6"/>
<path transform="translate(243,56)" d="m0 0 4 2 4 5-6 6-4-2-4-5z" fill="#F0B872"/>
<path transform="translate(433,753)" d="m0 0h30l4 2-1 1h-33z" fill="#B9AE9F"/>
<path transform="translate(1898,200)" d="m0 0 4 2 6 6-1 4-7 7-4-2-7-7 6-7zm-1 3-5 6 6 7 4-2 4-5-6-6z" fill="#E9E4D7"/>
<path transform="translate(120,719)" d="m0 0h31v3h-31z" fill="#B6AB9C"/>
<path transform="translate(1692,500)" d="m0 0 7 1 1 7-4 3-5-1-2-3 1-5z" fill="#E6E1D3"/>
<path transform="translate(657,389)" d="m0 0 1 2-6 7-5 3-4 1h-28v-2l28-1 8-4z" fill="#D2CBBA"/>
<path transform="translate(1875,295)" d="m0 0 2 1v31h-3v-31z" fill="#E9E4D7"/>
<path transform="translate(1206,203)" d="m0 0 7 6 3 3-2 4-6 6-4-1-7-7 2-4zm0 3-6 6 2 4 5 4 7-7-6-7z" fill="#D2CBBA"/>
<path transform="translate(1898,149)" d="m0 0 4 2 6 6-1 4-7 7-4-2-7-7 6-7zm0 3-6 6 2 4 5 4 7-7-6-7z" fill="#E9E4D7"/>
<path transform="translate(1585,443)" d="m0 0h8l-2 4-5 3-3 5-4 1v-7l4-5z" fill="#E8844C"/>
<path transform="translate(618,332)" d="m0 0 4 1 7 7-2 4-6 6-4-1-7-7 2-4zm1 2-6 6 2 4 5 4 7-7-6-7z" fill="#E8E3D6"/>
<path transform="translate(694,663)" d="m0 0h1v5h-30l-9 4-4 2 5-6 8-3h29z" fill="#CEC6B6"/>
<path transform="translate(243,28)" d="m0 0 4 2 4 3v2h2l-1 5-7 7-4-2-7-7 1-3zm0 2-6 6 2 4 4 4 4-2 4-4-2-4-4-4z" fill="#E9E4D7"/>
<path transform="translate(770,660)" d="m0 0 5 2 1 6-3 3h-5l-3-3 1-6z" fill="#CAC2B2"/>
<path transform="translate(986,591)" d="m0 0h2v19l-3 8-7 7-8 3v-3l10-5 5-10z" fill="#E5E0D2"/>
<path transform="translate(1180,203)" d="m0 0 4 2 7 7-1 3-8 7-4-2-6-6 2-4zm0 3-6 7 7 7 7-6-2-4-4-4z" fill="#D2CBBA"/>
<path transform="translate(1033,501)" d="m0 0h7l2 3-1 5-2 2h-5l-3-4 1-5z" fill="#B6AB9C"/>
<path transform="translate(965,268)" d="m0 0h6l3 3-1 5-2 2-7-1-1-6z" fill="#CBC7B6"/>
<path transform="translate(1158,179)" d="m0 0 5 1 2 3-1 5-3 2-5-1-2-3 1-5z" fill="#6D7ACE"/>
<path transform="translate(619,306)" d="m0 0 4 2 6 6-1 4-7 7-4-2-7-7 6-7zm0 2-6 6 1 4 4 4 4-1 5-6-7-7z" fill="#E9E4D7"/>
<path transform="translate(1123,281)" d="m0 0 4 1-1 40h-2z" fill="#B6AB9C"/>
<path transform="translate(610,753)" d="m0 0h29v3h-29z" fill="#B6AB9C"/>
<path transform="translate(1348,555)" d="m0 0h2l1 15 3 8 5 5 6 3 5 2v1h-6l-8-5-6-7-2-7z" fill="#E7E2D5"/>
<path transform="translate(1155,203)" d="m0 0 7 6 3 3-2 4-6 6-4-2-6-5-1-3zm0 3-6 6 2 4 5 4 7-7-6-7z" fill="#D2CBBA"/>
<path transform="translate(220,175)" d="m0 0h5l-6 7-9 9h-1v-6l7-8z" fill="#D1C9B9"/>
<path transform="translate(337,602)" d="m0 0 4 1 7 7-2 4-6 6-4-1-7-7 2-4zm0 2-6 6 2 4 4 4 4-2 4-4-2-5-4-3z" fill="#E7E1D4"/>
<path transform="translate(721,179)" d="m0 0 5 1 2 2v5l-4 3-5-2-1-1 1-7z" fill="#D2CBBA"/>
<path transform="translate(989,517)" d="m0 0 1 3-1 3-1 36h-2v-36l2-5z" fill="#E8E3D6"/>
<path transform="translate(619,357)" d="m0 0 4 2 6 6-2 4-7 7-7-6-3-4zm0 2-6 6v3l6 5 4-2 4-5-7-7z" fill="#E7E2D5"/>
<path transform="translate(242,79)" d="m0 0 5 1 6 6-1 4-7 7-4-2-6-6 1-4zm1 2-6 6 2 4 4 4 4-2 4-4-2-4-4-4z" fill="#E9E4D7"/>
<path transform="translate(422,789)" d="m0 0 3 1 1 6-2 3v20l-2-1v-19h-2l1-4-1-5z" fill="#D6CFC0"/>
<path transform="translate(779,408)" d="m0 0h38v3h-38z" fill="#BBB0A1"/>
<path transform="translate(544,248)" d="m0 0h39v2l-21 1-18-1z" fill="#CEC7B7"/>
<path transform="translate(1830,129)" d="m0 0 6 1 2 5-3 4h-5l-3-3 1-5z" fill="#E78C58"/>
<path transform="translate(1983,146)" d="m0 0h3v27h-3z" fill="#E9E4D7"/>
<path transform="translate(222,108)" d="m0 0h6l2 3-1 5-2 2-5-1-2-2v-5z" fill="#6B82CB"/>
<path transform="translate(1400,638)" d="m0 0 4 2 6 6-1 4-6 6-4-1-6-5-1-4zm1 2-7 7 6 7h3v-2l4-2 1-4z" fill="#CCC4B4"/>
<path transform="translate(891,404)" d="m0 0 5 1 2 2v5l-2 2-7-1-1-6z" fill="#E6E1D4"/>
<path transform="translate(100,275)" d="m0 0h5l3 4-2 5-1 1h-5l-2-2v-6z" fill="#CFC7B7"/>
<path transform="translate(1898,175)" d="m0 0 4 2 6 6-2 4-6 6-4-1-7-7 6-8zm0 2-6 6 2 4 4 4 4-2 4-4-2-4-4-4z" fill="#E9E4D7"/>
<path transform="translate(1652)" d="m0 0h3v38h-2z" fill="#D5CEBD"/>
<path transform="translate(225,765)" d="m0 0h14l8 3 6 5 4 8 1 4-3-1-4-9-6-5-5-2-15-1z" fill="#E8E3D6"/>
<path transform="translate(436,858)" d="m0 0 28 1 1 3h-21l-8-2z" fill="#DFD9CA"/>
<path transform="translate(337,627)" d="m0 0 4 2 7 7-6 7-2 2-4-1-7-7 2-4zm1 2-7 7 6 7 4-1 4-4-1-4z" fill="#E3DED0"/>
<path transform="translate(1694,555)" d="m0 0 2 1v13l-3 9-7 8-7 3 2-4 6-4 4-5 2-6z" fill="#E5E0D2"/>
<path transform="translate(1052,504)" d="m0 0h26v3h-26z" fill="#E3DDCF"/>
<path transform="translate(594,750)" d="m0 0h5l2 2v6l-3 2-5-1-1-1v-6z" fill="#B6AB9C"/>
<path transform="translate(1375,638)" d="m0 0 4 2 6 6-2 4-6 6-4-1-6-6 1-4zm0 2-6 6 2 4 4 4 4-2 4-4-2-4-4-4z" fill="#D2CBBA"/>
<path transform="translate(1455,587)" d="m0 0h68v1l-64 1-6 1z" fill="#CEC7B6"/>
<path transform="translate(986,572)" d="m0 0 5 2 1 5-3 3-6-1-1-6z" fill="#CDC5B5"/>
<path transform="translate(316,186)" d="m0 0 5 2 1 5-3 3-6-1-1-6z" fill="#D2CBBA"/>
<path transform="translate(1350,638)" d="m0 0 7 6 3 4-9 9-7-6-3-4 7-8zm0 2-7 7 6 7 4-1 4-4-1-4z" fill="#D2CBBA"/>
<path transform="translate(1693,445)" d="m0 0 6 1 3 3v6l-1 2-4-2-1-4-5-2v-3z" fill="#5D6ED3"/>
<path transform="translate(1328,145)" d="m0 0h7l-2 1v20l-1 3h-2v-23z" fill="#CFC8B7"/>
<path transform="translate(594,484)" d="m0 0h6l2 3-1 4-2 2-6-1-1-6z" fill="#CEC6B5"/>
<path transform="translate(770,418)" d="m0 0h1l1 37-1 17 2 1h-5l2-1-1-20z" fill="#D5CFBE"/>
<path transform="translate(594,245)" d="m0 0h5l2 2v5l-3 3-4-1-2-2v-5z" fill="#CFC7B7"/>
<path transform="translate(712,750)" d="m0 0 6 1 1 6-4 3-5-2v-6z" fill="#B6AB9C"/>
<path transform="translate(1357,545)" d="m0 0h23l1 3h-24z" fill="#E7E2D5"/>
<path transform="translate(84,476)" d="m0 0 7 6 17 17-3 1-21-21z" fill="#E87E48"/>
<path transform="translate(965,133)" d="m0 0h2l7 8 4 3-1 3-3-3-4 2-5-1 1-5 2-2-5-4z" fill="#D1CAB9"/>
<path transform="translate(338,576)" d="m0 0 7 6 3 4-9 9-7-6-3-4zm0 2-7 7 6 7 4-1 5-6-7-7z" fill="#E9E4D7"/>
<path transform="translate(1822,133)" d="m0 0h5l-1 3-9 2-6 4-3 4-2 5h-2l1-6 7-8z" fill="#B6AB9C"/>
<path transform="translate(419,786)" d="m0 0h7l2 4-3 1-5-1 2 6-3 2-3-4 1-6z" fill="#5D6ED3"/>
<path transform="translate(1874,144)" d="m0 0h3v22l-3 1z" fill="#E7E2D5"/>
<path transform="translate(61,480)" d="m0 0h22v3h-22z" fill="#E2DDCF"/>
<path transform="translate(460,414)" d="m0 0 1 3-1 28-3-1 1-28z" fill="#CBC3B3"/>
<path transform="translate(769,347)" d="m0 0h3v54l-3-1z" fill="#D4CDBD"/>
<path transform="translate(1802,274)" d="m0 0 5 1 1 1v5l-2 2h-5l-2-3 1-4z" fill="#C0C3B2"/>
<path transform="translate(1106,429)" d="m0 0h8v2l-14 3-7 6-3 4-1-3 7-8z" fill="#E7E2D5"/>
<path transform="translate(1098,504)" d="m0 0h21v3h-21z" fill="#E2DDCF"/>
<path transform="translate(316,347)" d="m0 0 5 2v6l-5 2-3-2v-6z" fill="#CEC7B6"/>
<path transform="translate(1982,47)" d="m0 0h5l2 4-1 4-4 1-4-2v-5z" fill="#74C0B1"/>
<path transform="translate(1246,27)" d="m0 0 4 1 4 4 4-2 3-3h2l-1 4-7 6-7-6z" fill="#E9E4D7"/>
<path transform="translate(1247,79)" d="m0 0 4 2 3 3 4-2 3-3h2l-1 4-6 6-4-2-5-5z" fill="#E9E4D7"/>
<path transform="translate(1994,50)" d="m0 0h20v3h-21z" fill="#E7E2D5"/>
<path transform="translate(101,550)" d="m0 0 5 1 1 6-2 2h-5l-2-6z" fill="#CEC6B6"/>
<path transform="translate(1437,221)" d="m0 0 5 1 2 4-3 4-5-1-1-1v-5z" fill="#E9E4D7"/>
<path transform="translate(1982,130)" d="m0 0h5l2 2-1 5-4 2-4-3 1-5z" fill="#C8C5B5"/>
<path transform="translate(1651,47)" d="m0 0h5l2 2v5l-5 2-4-4z" fill="#E9E4D7"/>
<path transform="translate(1263,424)" d="m0 0h5l3 3v7h-4v-6l-5 1-2-3z" fill="#E87E48"/>
<path transform="translate(1330,130)" d="m0 0 5 1 1 5-3 3-5-1-1-5z" fill="#B6AB9C"/>
<path transform="translate(532,856)" d="m0 0 5 1 1 1v5l-2 2-5-1-1-1v-5z" fill="#E7E1D4"/>
<path transform="translate(1262,359)" d="m0 0h5l-2 4-7 7h-2l1-7z" fill="#5E7ECB"/>
<path transform="translate(1698,101)" d="m0 0 4 1 5 4 6-5h2l-2 4-5 5-4-1-6-6z" fill="#E9E4D7"/>
<path transform="translate(222,276)" d="m0 0h5l2 2-1 5-1 1h-5l-2-5z" fill="#E6E1D4"/>
<path transform="translate(925,91)" d="m0 0h27v2l-24 1z" fill="#B3AB9C"/>
<path transform="translate(1698,83)" d="m0 0 4 2 5 4 6-6h2l-1 4-6 6-4-2-6-6z" fill="#E9E4D7"/>
<path transform="translate(1705,50)" d="m0 0h20l1 3h-19z" fill="#CCC4B4"/>
<path transform="translate(1437,47)" d="m0 0 5 1 1 1v5l-5 2-3-3 1-5z" fill="#E2DDCF"/>
<path transform="translate(544,490)" d="m0 0m-1 1m-2 1h2l-2 4-4 7-2 13h-2v-10l4-10z" fill="#E8E3D6"/>
<path transform="translate(1478,348)" d="m0 0h5l2 2-1 5-5 1-3-3 1-4z" fill="#CEC6B5"/>
<path transform="translate(1034,325)" d="m0 0h5l2 5-2 3h-5l-2-5z" fill="#CBC3B2"/>
<path transform="translate(362,318)" d="m0 0 7 6 2 4-7 7h-3l2-4 4-5-6-7z" fill="#B6AB9C"/>
<path transform="translate(1123,180)" d="m0 0 5 1 1 5-3 3-4-1-1-1v-5z" fill="#CBC3B3"/>
<path transform="translate(967,133)" d="m0 0 6 1 4 4 1 3 2 2-4 1-9-9z" fill="#65BCAF"/>
<path transform="translate(1698,66)" d="m0 0 4 1 4 4 4-2 3-3h2l-2 4-7 6-8-8z" fill="#E9E4D7"/>
<path transform="translate(829,405)" d="m0 0 7 6 2 3-1 1h-6l-3-4v-5z" fill="#E7E2D4"/>
<path transform="translate(1583,337)" d="m0 0 4 2 16 16-1 3-7-7-4-5-8-7z" fill="#5D6ED3"/>
<path transform="translate(1537,476)" d="m0 0 4 2 5 4 7-6-1 4-5 5-5-1-5-5z" fill="#E9E4D7"/>
<path transform="translate(721,88)" d="m0 0 5 1 1 5-2 2h-5l-1-7z" fill="#A4A7A7"/>
<path transform="translate(832,573)" d="m0 0 5 1 1 5-2 2-5-1-1-5z" fill="#C4C3B3"/>
<path transform="translate(1587,543)" d="m0 0 5 1 1 5-2 2-5-1-1-5z" fill="#CDC5B4"/>
<path transform="translate(1932,332)" d="m0 0h5l2 2-1 5-5 1-3-5z" fill="#CFC8B7"/>
<path transform="translate(832,269)" d="m0 0 5 1 1 5-2 2-5-1-1-5z" fill="#B6AB9C"/>
<path transform="translate(139,187)" d="m0 0 5 1 1 5-2 2-5-1-1-5z" fill="#E5E0D2"/>
<path transform="translate(1698,118)" d="m0 0 4 2 4 3 4-2 3-3h2l-2 4-7 6-8-8z" fill="#E9E4D7"/>
<path transform="translate(968,108)" d="m0 0h1l1 25h-3v-24z" fill="#B6AB9C"/>
<path transform="translate(1247,44)" d="m0 0 7 6h2l5-5 2-1-1 4-6 6-4-2-6-7z" fill="#E9E4D7"/>
<path transform="translate(420,751)" d="m0 0h5l2 5-3 3-4-1-1-1v-5z" fill="#E1DBCD"/>
<path transform="translate(1129,503)" d="m0 0 3 1-1 6-5 3-4-1 2-4h3z" fill="#62A0BC"/>
<path transform="translate(1593,444)" d="m0 0 2 1-3 4-2 4-2 2-5 2h-3l4-4 2-4 6-4z" fill="#E5E0D2"/>
<path transform="translate(1124,426)" d="m0 0 4 1 1 1v5l-1 1h-5l-2-5z" fill="#E6E1D3"/>
<path transform="translate(1537,424)" d="m0 0 4 2 3 3 4-2 5-3-2 5-4 4-4-1-6-6z" fill="#E9E4D7"/>
<path transform="translate(344,318)" d="m0 0 4 2 5 5-1 4-3 4h-3l2-4v-4l-4-4z" fill="#B4AB9C"/>
<path transform="translate(597,218)" d="m0 0h1v18h-3v-16z" fill="#E7E2D5"/>
<path transform="translate(1137,183)" d="m0 0h17v3h-17z" fill="#D2CBBA"/>
<path transform="translate(719,82)" d="m0 0h5l-6 7-4 4h-2l2-7z" fill="#E87E48"/>
<path transform="translate(211,762)" d="m0 0 5 1 1 5-2 2-5-1-1-4z" fill="#CDC5B5"/>
<path transform="translate(713,484)" d="m0 0 4 1 1 1v5l-1 1h-5l-2-4 1-3z" fill="#CEC7B6"/>
<path transform="translate(1007,430)" d="m0 0 5 2 2 3 4-1 4-4h2l-2 4-5 5-4-1-6-7z" fill="#D2CBBA"/>
<path transform="translate(1538,504)" d="m0 0h43v1l-41 1-4 1z" fill="#CCC5B4"/>
<path transform="translate(1007,395)" d="m0 0 4 2 3 3 4-1 4-4h2l-2 4-5 5-4-1-6-6z" fill="#D2CBBA"/>
<path transform="translate(396,318)" d="m0 0 4 2 5 5-1 4-6 6h-2l2-4 3-3-1-4-4-4z" fill="#B6AB9C"/>
<path transform="translate(1158,269)" d="m0 0 4 1 1 5-2 2-5-1-1-4z" fill="#E5DFD2"/>
<path transform="translate(712,685)" d="m0 0 4 1v15l-1 5-2-1z" fill="#BCB2A3"/>
<path transform="translate(1008,447)" d="m0 0 6 5 4-1 4-4h2l-2 4-5 5-4-1-6-7z" fill="#D2CBBA"/>
<path transform="translate(1983,326)" d="m0 0 4 2 7 7-3 3-8-8z" fill="#B6AB9C"/>
<path transform="translate(387,187)" d="m0 0 4 1 1 1v5l-1 1h-5l-1-1v-5z" fill="#AAAD9E"/>
<path transform="translate(139,109)" d="m0 0 5 1 1 4-3 3-4-1-1-5z" fill="#E9E4D7"/>
<path transform="translate(1246,62)" d="m0 0 4 1 4 4 4-2 3-3h2l-2 4-5 5-4-2-5-5z" fill="#E9E4D7"/>
<path transform="translate(1688,450)" d="m0 0 3 1 5 5 1 4-6-1-3-3z" fill="#5D6ED3"/>
<path transform="translate(379,318)" d="m0 0 7 6 2 4-7 7h-2l2-4 3-3-2-4-3-3z" fill="#B6AB9C"/>
<path transform="translate(1537,459)" d="m0 0 4 2 3 3 4-2 3-3h2l-2 4-5 5-4-2-5-5z" fill="#E9E4D7"/>
<path transform="translate(1537,442)" d="m0 0 4 2 3 3 4-2 3-3h2l-2 4-5 5-4-2-5-5z" fill="#E9E4D7"/>
<path transform="translate(1008,412)" d="m0 0 8 6 5-5 3 1-8 8-7-6-2-3z" fill="#D2CBBA"/>
<path transform="translate(1267,359)" d="m0 0 4 2-4 2-2 5-6 3-3 2-1-7 1 4 8-7z" fill="#CCC4B4"/>
<path transform="translate(1318,287)" d="m0 0 3 1v23h-3z" fill="#D5CEBE"/>
<path transform="translate(832,485)" d="m0 0h5l1 5-2 2-5-1-1-4z" fill="#B6AB9C"/>
<path transform="translate(1407,224)" d="m0 0h19l-1 3h-20z" fill="#C9C1B0"/>
<path transform="translate(2033,50)" d="m0 0h15v3h-15z" fill="#E9E4D7"/>
<path transform="translate(1582,337)" d="m0 0 5 5 8 7-1 2-4-3v-2l-6-2-3-3-3-2z" fill="#87BEAE"/>
<path transform="translate(2022,177)" d="m0 0 5 2-1 5h-5l-2-4z" fill="#E7E2D4"/>
<path transform="translate(218,176)" d="m0 0h3l-2 4-5 4-4 4 1-6z" fill="#66BEAF"/>
<path transform="translate(1875,130)" d="m0 0 4 2-1 5-4 1-2-2 1-5z" fill="#E3DED0"/>
<path transform="translate(1264,502)" d="m0 0 4 1 1 5-4 2-3-2 1-5z" fill="#CDC5B5"/>
<path transform="translate(477,400)" d="m0 0m-4 1h4v2l-8 3-5 5-2 3h-2l2-5 7-6z" fill="#D2CBBA"/>
<path transform="translate(53,423)" d="m0 0 1 4-1 17-2-1v-17z" fill="#E8E3D6"/>
<path transform="translate(315,109)" d="m0 0 5 1 1 4-2 2-5-1v-5z" fill="#E9E4D7"/>
<path transform="translate(720,905)" d="m0 0 4 2 5 5-2 4-5 5-2-1 5-5-1-4-4-4z" fill="#D0C8B8"/>
<path transform="translate(69,646)" d="m0 0 4 2 3 3 4-1 5-4-2 4-5 5-4-2-5-5z" fill="#D2CBBA"/>
<path transform="translate(1983,330)" d="m0 0 7 6v4l-5-2-2-2z" fill="#E8E3D6"/>
<path transform="translate(428,788)" d="m0 0 1 3h6l-1 2-5 2-4 4-2-1 2-2v-5z" fill="#9F9FB9"/>
<path transform="translate(1523,348)" d="m0 0 4 1 1 4-2 2-5-1 1-5z" fill="#C5BDAC"/>
<path transform="translate(533,271)" d="m0 0h2l-2 4-6 6h-2l2-6 3-3z" fill="#5D72D1"/>
<path transform="translate(544,94)" d="m0 0m-1 1m-2 1h2l-2 4-4 7-1 4h-2l1-7 4-6z" fill="#B5AD9E"/>
<path transform="translate(532,886)" d="m0 0 5 1v5l-5 1-1-1v-5z" fill="#D2CBBA"/>
<path transform="translate(423,845)" d="m0 0h2l5 8 6 4-1 3-8-6-4-7z" fill="#E4DED0"/>
<path transform="translate(69,629)" d="m0 0 4 2 3 3 4-2 3-3h2l-2 4-6 5-8-8z" fill="#D2CBBA"/>
<path transform="translate(985,198)" d="m0 0 5 4 4-2 3-2v3l-5 5-4-2-4-5z" fill="#E9E4D7"/>
<path transform="translate(586,577)" d="m0 0 7 6 4 5-7-2-3-4z" fill="#5D6ED3"/>
<path transform="translate(1123,281)" d="m0 0 4 1v10l-1 5-2-1z" fill="#C1B7A8"/>
<path transform="translate(1731,275)" d="m0 0 4 1 1 4-2 2-5-1 1-5z" fill="#C7BEAE"/>
<path transform="translate(819,728)" d="m0 0 4 2 3 3-1 4-4 4h-2l2-4 2-3-4-4z" fill="#B6AB9C"/>
<path transform="translate(806,728)" d="m0 0 4 2 3 3-1 4-4 4h-2l2-4 2-3-4-4z" fill="#B6AB9C"/>
<path transform="translate(793,728)" d="m0 0 4 2 3 3-1 4-4 4h-2l2-4 2-3-4-4z" fill="#B6AB9C"/>
<path transform="translate(94,718)" d="m0 0h2l-2 5-7 6v-4z" fill="#E87F49"/>
<path transform="translate(69,611)" d="m0 0 4 2 3 4 4-2 5-4-2 4-5 5-4-2-5-5z" fill="#D2CBBA"/>
<path transform="translate(1127,500)" d="m0 0 4 2-4 6-5-1 2-4z" fill="#B3C9BA"/>
<path transform="translate(828,394)" d="m0 0 3 1-3 4 3 3v2l-4-1-4-5z" fill="#E87E48"/>
<path transform="translate(1404,351)" d="m0 0m-3 1h3v2l-8 4-4 5h-2l2-5z" fill="#E9E4D7"/>
<path transform="translate(966,326)" d="m0 0 5 1 1 3-3 3-4-2z" fill="#D1CABA"/>
<path transform="translate(595,277)" d="m0 0 5 1-1 5h-5l-1-5z" fill="#C1C4B3"/>
<path transform="translate(984,212)" d="m0 0 4 1 4 2 3-3 3 1-6 6-4-2z" fill="#E9E4D7"/>
<path transform="translate(1448,587)" d="m0 0h6v2l-5 1-22-1v-1z" fill="#E8E3D6"/>
<path transform="translate(595,573)" d="m0 0 5 1 1 1v5l-4-1-3-3z" fill="#E3DED0"/>
<path transform="translate(1693,543)" d="m0 0 4 1 1 4-2 2-4-1-1-4z" fill="#CFC8B7"/>
<path transform="translate(771,450)" d="m0 0h1l-1 22 2 1h-5l2-1-1-20z" fill="#C0BAAA"/>
<path transform="translate(985,185)" d="m0 0 5 4 4-2 3-2-1 4-3 3-5-1-4-5z" fill="#E9E4D7"/>
<path transform="translate(107,705)" d="m0 0h3l-2 4-6 5-3-1z" fill="#E87E48"/>
<path transform="translate(830,404)" d="m0 0 4 1 6 7-2 2-8-8z" fill="#B6AB9C"/>
<path transform="translate(533,246)" d="m0 0 4 2-1 5-5-1 1-5z" fill="#E9E4D7"/>
<path transform="translate(2022,48)" d="m0 0 4 1 1 3-3 3-4-2 1-4z" fill="#CBC3B2"/>
<path transform="translate(1422,587)" d="m0 0h26v1h-21v2h-4z" fill="#C9C1B0"/>
<path transform="translate(289,405)" d="m0 0 8 4 3-4h2l-2 4-3 3-4-1-4-4z" fill="#E9E4D7"/>
<path transform="translate(985,225)" d="m0 0 4 2 3 2 4-4 2 1-5 6-4-1-4-4z" fill="#D4CDBE"/>
<path transform="translate(1988,49)" d="m0 0 6 1-4 4-1-3-2-1zm-5 5 1 2 3 1-4 4-1-6z" fill="#CDBDA5"/>
<path transform="translate(1086,503)" d="m0 0 5 1-1 5-5-1z" fill="#D0C9B8"/>
<path transform="translate(139,277)" d="m0 0 5 1-1 5-5-1z" fill="#E9E4D7"/>
<path transform="translate(130,112)" d="m0 0 7 6 5 6-5-2-7-8z" fill="#E87E48"/>
<path transform="translate(1587,585)" d="m0 0 5 1-1 4-4 1-1-5z" fill="#B6AB9C"/>
<path transform="translate(1347,544)" d="m0 0 5 1-1 5-4-1-1-4z" fill="#E5DFD2"/>
<path transform="translate(289,445)" d="m0 0 4 2 3 2 4-4h2l-2 4-3 3-4-2z" fill="#E9E4D7"/>
<path transform="translate(1586,345)" d="m0 0 4 1v2l4 2 1 4-4-2-5-5z" fill="#E4DFD1"/>
<path transform="translate(1926,278)" d="m0 0 8 6 1 3-5-1-3-3z" fill="#5D6ED3"/>
<path transform="translate(658,277)" d="m0 0 4 1 1 4-5 1-1-5z" fill="#CEC6B6"/>
<path transform="translate(1893,563)" d="m0 0 4 3 4-1 4-2-3 5-4 2-5-5z" fill="#E4DED1"/>
<path transform="translate(997,507)" d="m0 0 2 1-5 5-4 5v-4l4-5z" fill="#E4DED1"/>
<path transform="translate(1106,429)" d="m0 0h8v2l-14 2 2-3z" fill="#E9E4D7"/>
<path transform="translate(1035,270)" d="m0 0 4 1-1 5h-4l-1-4z" fill="#C9C1B0"/>
<path transform="translate(646,752)" d="m0 0 5 1-1 4h-4l-1-4z" fill="#B6AB9C"/>
<path transform="translate(1400,638)" d="m0 0h2l-2 4-6 6h-2l2-4z" fill="#E3DDCF"/>
<path transform="translate(1123,270)" d="m0 0 4 1v4l-4 1-1-5z" fill="#B6AB9C"/>
<path transform="translate(289,432)" d="m0 0 4 2 3 2 4-4h2l-2 4-5 3z" fill="#E9E4D7"/>
<path transform="translate(839,412)" d="m0 0 4 2 4 5h-4l-4-4z" fill="#E88049"/>
<path transform="translate(833,403)" d="m0 0 5 1 2 3-1 4-6-6z" fill="#E8E3D5"/>
<path transform="translate(1690,344)" d="m0 0h5l-6 7-2 1 1-5z" fill="#AFC4B4"/>
<path transform="translate(535,277)" d="m0 0 3 2-1 4-3 1-3-3z" fill="#C7BFAF"/>
<path transform="translate(1822,133)" d="m0 0h5l-1 3-10 2 2-4z" fill="#BAAFA0"/>
<path transform="translate(289,419)" d="m0 0 4 2 4 1 3-3 2 1-7 6z" fill="#E9E4D7"/>
<path transform="translate(770,406)" d="m0 0 3 1 1 3-2 2-4-1v-4z" fill="#D2CBBA"/>
<path transform="translate(1124,326)" d="m0 0 4 1-1 5-4-1-1-2z" fill="#E3DED0"/>
<path transform="translate(141,260)" d="m0 0h1v12h-2l-1-9z" fill="#B6AB9C"/>
</svg>
