<?xml version="1.0" encoding="UTF-8"?>
<svg version="1.1" viewBox="0 0 1882 2048" width="479" height="521" xmlns="http://www.w3.org/2000/svg">
<path transform="translate(869,211)" d="m0 0h50l39 4 24 4 24 6 30 10 21 9 19 10 20 13 13 10 14 12 13 13 9 11 15 20 10 15 10 18 14 29 13 32 11 29 10 27 19 51 12 29 12 26 10 20 12 21 9 14 13 19 11 14 13 15 10 11 7 8 9 10 13 17 13 19 12 21 7 15 8 22 4 17 3 22v18l-4 26-5 17-11 24-8 13-10 14-11 13-9 10-11 11-11 9-16 12-12 7-11 8-5 3 8 3 26 7 25 9 21 9 16 8 17 9 19 12 17 12 22 18 26 26 11 14 10 13 11 18 13 24 12 23 9 20 14 37 18 45 13 36 16 47 17 52 10 33 15 48 15 47 15 49 6 24 4 21 1 9v28l-4 18-6 15-8 12-11 11-13 8-16 7-17 5-16 3-24 2h-170l-4-5-10-15-11-12-9-8-13-8-6-4 1-12 7-47 8-51 11-75 14-95 8-54 12-82 6-40 7-49 1-13v-11l-2-18-5-16-8-16-8-11-9-10-13-10-17-9-16-5-19-3h-911l-19 3-15 5-14 7-13 10-7 6-11 14-8 14-5 15-3 13-1 9v15l10 73 7 49 13 88 9 61 10 67 12 81 5 34 6 36 3 22v5l-19 12-13 12-7 8-9 14-4 6h-166l-20-1-20-3-19-5-17-7-14-9-11-10-7-10-6-12-4-14-2-12v-24l3-23 7-30 12-39 13-40 12-38 16-52 12-38 20-61 16-44 16-41 13-30 14-30 15-30 13-23 10-16 14-18 13-15 24-26 14-11 15-11 24-15 22-12 25-11 30-11 34-9-4-4-18-12-10-6-13-10-16-15-15-15-9-11-11-15-11-19-8-19-6-21-3-18v-23l4-25 8-27 10-22 14-24 12-17 10-13 13-15 14-15 9-11 7-8 14-19 12-18 9-15 10-18 10-19 14-32 15-38 17-46 16-43 12-29 11-24 11-21 7-11 13-18 10-13 9-10 7-8 12-11 11-9 14-10 18-11 19-10 23-9 21-7 28-7 24-4zm22 248-27 10-30 13-29 14-18 10-25 15-18 12-14 10-13 10-13 11-8 7-17 16-14 15-11 13-14 19-9 13-11 13-11 14-13 17-14 20-9 14-10 16-8 16-3 5v2l5-2 8-7 17-14 12-10 17-13 19-14 9-6 2 21 5 38 7 40 8 36 9 32 10 29 9 22 8 16 8 15 8 12 9 12 13 16 24 24 13 10 21 13 16 10 24 12 23 9 20 5 8 1h21l21-4 14-5 24-11 20-11 25-16 11-7 15-14 7-6 7-8 10-11 10-13 12-18 12-22 9-20 11-30 10-34 10-44 9-55 5-37v-7l16 11 11 8 14 11 16 13 11 9 13 11 5 4 1-2-9-19-15-25-13-19-12-16-10-13-18-22-11-15-10-14-11-14-10-11-7-8-10-10-8-7-14-12-14-11-18-13-25-16-15-9-18-10-23-12-29-14-25-10-12-4z" fill="#446469"/>
<path transform="translate(435,1204)" d="m0 0h915l10 3 10 7 7 8 5 10 2 9-1 16-8 51-7 48-5 33-13 91-10 66-7 47-11 75-12 80-6 41-4 30-1 3h27l13 2 9 4 9 6 7 8 6 13 1 4v32l-4 11-7 11-10 8-13 5-4 1h-881l-12-4-9-6-7-7-6-10-3-12v-25l3-13 6-10 6-7 12-7 10-3 23-1h11l-3-29-10-67-16-108-12-82-17-114-7-49-8-54-9-59-1-9v-13l3-10 6-10 9-8 10-5zm437 94-29 4-24 5-28 8-17 6-8 4-1 1-2 13-4 13-8 17-8 11-9 10-10 9-12 8-1 1v23l2 35 5 53 5 36 7 33 9 27 8 16 12 18 12 14 9 9 11 9 17 12 13 8 35 14 22 8 13 4h7l33-11 17-8 15-6 14-8 17-12 14-12 14-14 13-18 9-16 6-14 6-20 5-22 6-36 4-39 3-48 1-21v-14l-16-12-5-5h-2l-2-4h-2l-2-4-7-8-8-14-5-12-4-17-2-7-8-4-30-10-28-7-21-4-17-2zm-261 511-8 7-3 6 1 9 6 8 4 2 22 1h501l41-1 6-4 4-6 1-9-5-10-6-3z" fill="#446469"/>
<path transform="translate(883,1340)" d="m0 0h10l1 1v185l-1 1h-129l-2-2-4-31-2-21-2-41 3-5 8-7 7-8 9-11 9-14 10-21 3-9 7-3 18-5 29-6z" fill="#46666B"/>
<path transform="translate(899,1528)" d="m0 0h123l1 1-1 13-6 31-6 20-6 14-7 11-8 10-9 10-10 9-17 12-20 12-19 8-18 6-1-1-1-152 1-3z" fill="#46666A"/>
</svg>
