<?xml version="1.0" encoding="UTF-8"?>
<svg version="1.1" viewBox="0 0 2000 2000" width="500" height="499" xmlns="http://www.w3.org/2000/svg">
<path transform="translate(394,532)" d="m0 0h3v164l-17 14-11 9-14 12-5 4-1 2 4 2 14 11 16 13 13 10 16 13 28 22 11 9 14 11 20 16 14 11 16 13 13 10 14 11 16 13 28 22 16 13 13 10 16 13 13 10 11 9 18 14 16 13 28 22 16 13 17 13 17 14 17 13 13 11 16 12 17 14 9 7 14 11 15 12 14 11 16 13 28 22 16 13 13 10 16 13 17 13 3 2 10-9 10-8 16-13 13-10 17-14 10-8 16-13 10-8 14-11 17-14 14-11 11-9 16-13 14-11 11-9 15-12 11-9 16-13 14-11 17-14 14-11 32-26 14-11 17-14 9-7 16-13 10-8 16-13 14-11 11-9 15-12 11-9 14-11 13-11 13-10 17-14 14-11 16-13 14-11 13-11 14-11 11-9 14-11 13-11 12-9v-2l-8-7-11-10-14-11-12-9-2-3v-162l5 2 12 10 28 22 15 12 14 11 16 13 13 10 15 13 14 12 12 11 8 7 10 9 12 11 9 9 9 11 12 17 9 16 9 19 9 27 4 20 2 27v748l-2 22-4 19-7 20-9 19-7 11-10 14-12 14-9 9-13 10-13 9-16 9-19 8-21 6-21 3-29 1h-1243l-53-1-21-3-27-9-21-10-18-12-11-9-10-9-8-8-13-17-9-14-8-16-6-15-6-21-2-10-2-24v-748l3-28 6-24 6-17 9-20 8-14 11-16 9-11 11-12 9-9 8-7 12-11 8-7 11-10 11-9 12-11 13-10 17-14 14-11 11-9 14-11 16-13 11-9zm-104 323-1 10v673l3-1 7-8 267-267v-2l4-2 16-16v-2l4-2v-2l4-2 16-16v-2l4-2v-2l4-2 12-12v-2l4-2v-2l4-2 15-15 6-7 8-7 3-4-2-4-17-14-28-22-16-13-17-13-13-11-12-9-16-13-17-13-17-14-28-22-16-13-17-13-17-14-13-10-16-13-13-10-16-13-13-10-16-13-17-13-12-10-17-13-11-9zm1389 0-13 11-13 10-17 14-14 11-11 9-16 13-14 11-11 9-16 13-14 11-32 26-14 11-17 14-16 13-14 11-16 13-14 11-17 14-10 8-16 13-9 7-16 13-14 11-13 11-17 13v4l199 199 5 6 8 7 7 7 7 8 4 4h2v2l5 5h2l2 4 119 119 8 7 5 6 4 2v-653l-1-27zm-908 382-349 349v2l-4 2-12 12v2l-3 1-5 6-6 5v1l89 1h1e3l98-1-6-7-139-139-3-4h-2l-1-3-8-7-16-17-10-9-3-4h-2l-2-4-8-8h-2l-1-3-5-5h-2l-2-4-16-16h-2l-2-4-40-40h-2l-2-4-99-99-5 1-11 9-14 11-17 14-9 7-16 13-14 11-17 14-10 8-16 13-14 11-17 14-9 7-11 8-12 6-11 3h-24l-13-4-14-8-13-11-14-11-15-12-14-11-15-12-14-11-16-13-13-10-16-13-9-7-15-12-14-11-9-7z"/>
<path transform="translate(522,166)" d="m0 0h926l14 1 13 4 11 7 10 10 8 14 3 12v531l-13 11-10 8-16 13-14 11-17 14-10 8-16 13-14 11h-3v-555l-817 1v551l-5-1-13-11-13-10-15-12-14-11-16-13-17-13-17-14-4-3v-518l1-15 4-11 6-10 9-10 12-8 12-4z"/>
<path transform="translate(976,404)" d="m0 0h44l36 4 22 4 24 6 22 8 20 9 14 8 18 12 10 8 14 12 13 13 9 11 10 14 9 15 9 19 8 24 4 17 4 29v43l-4 27-5 21-7 21-8 16-8 14-10 13-7 8-14 14-16 12-19 10-14 5-16 4-13 2-20 1-22-3-15-6-11-7-6-5-9-12-6-12-3-11-1-8-2 1-5 14-10 16-9 10-9 8-14 8-13 4-10 2-17 1-17-2-15-4-16-8-13-9-7-7-10-13-6-10-7-17-5-19-3-29v-13l2-29 3-18 6-21 9-22 8-14 10-14 14-15 7-7 14-10 8-5 15-6 13-4 6-1 19-1 16 1 12 3 13 7 10 9 7 10 4 7 1-1 2-27 1-2h74v13l-4 36-6 69-2 30-2 24v21l4 20 4 9 5 5 8 3h8l10-2 10-6 6-5 10-14 6-13 6-17 5-23 3-29v-32l-4-30-7-24-8-18-8-14-12-16-14-15-16-13-17-10-20-9-27-8-27-4-14-1h-25l-21 2-22 4-23 7-21 9-19 11-14 10-15 13-18 18-13 17-10 15-12 23-8 21-6 21-4 21-2 28v20l3 32 6 24 7 20 8 17 10 16 11 14 17 17 18 13 18 10 20 9 18 6 27 5 23 2h47l25-2 29-5 27-8 24-9 5-3h3v63l-12 6-28 8-36 7-31 3-17 1h-44l-34-3-29-6-29-9-20-8-25-13-15-10-16-12-12-11-11-10-7-8-12-15-11-17-7-12-10-23-7-21-6-26-3-21-1-11-1-26 2-32 4-28 8-30 9-24 11-23 12-20 14-19 9-11 7-7 2-3h2l2-4 8-8 8-7 13-11 19-13 21-12 21-10 22-8 15-4 23-5 29-4zm10 184-12 2-12 6-10 9-7 8-10 18-8 22-4 17-2 20v23l3 17 6 16 8 11 9 7 10 4 4 1h12l15-4 11-7 9-9 9-14 7-16 4-14 4-18 2-24v-29l-3-14-7-14-8-9-10-6-8-2z" fill="#010101"/>
</svg>
