<?xml version="1.0" encoding="UTF-8"?>
<svg version="1.1" viewBox="0 0 2048 580" width="939" height="266" xmlns="http://www.w3.org/2000/svg">
<path transform="translate(1590,78)" d="m0 0h177l66 3 35 3 27 4 21 5 14 6 9 7 7 10 6 16 5 21 5 35 3 33 2 37v102l-2 26-4 19-6 16-7 13-8 10-12 12-14 9-14 6-16 4-14 2-47 2-82 2-200 3-170 2-33 1-241 3h-69l-70 1h-202l-52-1-22-1-11-3-9-6-9-13-6-12-8-24-9-45-2-21-3-7-9-6-16-9-14-9-20-12-24-16-18-13-17-12-14-11-12-11-7-8-4-5-5-5-6-7-3-7v-3l8 1 15 4 23 2 27 1h39l57-1 5-5 3-15 5-37 4-33 5-25 3-8 5-5 5-3 19-4 35-4 63-5 58-3 31-1h154l63 1 41 1h77l120-3 118-2 105-1z" fill="#FBFBFB"/>
<path transform="translate(219,87)" d="m0 0h11l23 5 26 9 25 12 16 10 14 11 20 20 12 17 8 15 7 19 5 20 2 14v24l-6 18-12 23-13 18-13 14-7 8-9 9-14 11-10 7-1 2 9 3 13 9 10 10 8 13 5 13 2 12v24l-3 9-5 5-18 4-28 3-32 2h-80l-31-2-34-4-9-2-6-4-4-6-1-8v-16l2-14 5-15 7-12 9-10 10-8 13-7-5-5-12-9-13-11-7-7-7-8-13-14-9-13-9-15-9-21-2-7v-23l3-18 5-19 8-19 8-14 8-11 9-11 10-10 17-13 14-9 17-9 20-8 22-7z" fill="#FAE8E3"/>
<path transform="translate(1590,78)" d="m0 0h177l66 3 35 3 27 4 21 5 14 6 9 7 7 10 6 16 5 21 5 35 3 33 2 37v102l-2 26-4 19-6 16-7 13-8 10-12 12-14 9-14 6-16 4-14 2-47 2-82 2-200 3-170 2-33 1-241 3h-69l-70 1h-202l-52-1-22-1-11-3-9-6-9-13-6-12-8-24-9-45-2-21-3-7-9-6-16-9-14-9-20-12-24-16-18-13-17-12-14-11-12-11-7-8-4-5-5-5-6-7-3-7v-3l8 1 15 4 23 2 27 1h39l57-1 5-5 3-15 5-37 4-33 5-25 3-8 5-5 5-3 19-4 35-4 63-5 58-3 31-1h154l63 1 41 1h77l120-3 118-2 105-1zm50 16-60 1-289 9-36 1h-385l-64 2-49 3-46 5-36 6-9 3-5 9-4 15-3 13-5 38-4 46-42 2h-84l-26-3-11-4-2 1 7 8 12 11 20 15 35 23 21 13 32 19 10 6 19 11 8 5 2 7 3 27 4 24 6 22 6 15 7 12 8 8 10 5 57 1h106l240-2 69-1 674-9 23-2 17-4 13-5 13-7 11-9 11-13 9-16 6-17 4-18 2-21 1-16v-85l-3-40-3-26-6-31-3-10-7-14-5-6-10-6-16-6-36-7-35-4-49-3-36-1z" fill="#040405"/>
<path transform="translate(219,87)" d="m0 0h11l23 5 26 9 25 12 16 10 14 11 20 20 12 17 8 15 7 19 5 20 2 14v24l-6 18-12 23-13 18-7 8h-2l2-5 7-15 5-19v-26l-4-16-5-12-6-11-19-10-21-8-22-6-30-5-13-1h-38l-26 3-24 5-19 6-20 8-11 6-6 9-6 13-4 15-1 6v22l4 18 8 18 1 4-4-2-7-8-10-14-9-15-9-21-2-7v-23l3-18 5-19 8-19 8-14 8-11 9-11 10-10 17-13 14-9 17-9 20-8 22-7z" fill="#5D6A85"/>
<path transform="translate(146,371)" d="m0 0 11 6 23 12 1 65 3 3 6-1 1-2 1-58 7 1 19 7h13l18-6 5-2h3l1 57 1 3 6 1 3-2 1-65 19-10 13-8 9 3 11 7 10 9 6 7 7 12 4 11 2 12v24l-3 9-5 5-18 4-28 3-32 2h-80l-31-2-34-4-9-2-6-4-4-6-1-8v-16l2-14 5-15 7-12 9-10 10-8z" fill="#5D6A85"/>
<path transform="translate(204,195)" d="m0 0h38l21 2 26 5 21 6 20 8 17 9 5 8 6 13 4 14 1 5v26h-1l-1-25-3-6-10-6-11-7-15-8-26-10-21-5-21-3-11-1h-36l-21 2-23 4-17 5-20 8-19 9-11 7-5 2-3 11-1 21h-1v-22l4-18 5-12 7-12 5-4 17-8 20-7 18-5 30-5z" fill="#FAD3CB"/>
<path transform="translate(161,239)" d="m0 0h33l5 3h52l5-3h33l6 4 4 6v11l-4 11-7 6-5 3-4 1h-13l-9-3-5-4-4-6-3-12-1-1h-39l-4 13-4 6-5 4-4 2-6 1h-11l-10-4-6-5-4-10-1-4v-8l4-7 4-3z" fill="#4A5365"/>
<path transform="translate(1564,260)" d="m0 0h14l10 24 5-11 5-12 1-1h13l1 1v50h-11l-1-27-6 12-3 5h-9l-4-8-3-8-2-1v27h-10l-1-1v-49z" fill="#FE4938"/>
<path transform="translate(772,270)" d="m0 0h12l12 2v39l-4 9-5 3-4 1h-11l-9-2v-11h18l3-5-8 2h-7l-7-3-3-5-1-5v-12l4-8 6-4z" fill="#07080A"/>
<path transform="translate(717,382)" d="m0 0h10v3l7-3h10l3 2 6-1 2-1h10l5 3 3 5v32h-12v-28h-10v24l-1 5h-11l-1-1-1-28h-8v29h-12l-1-1v-37z" fill="#0A0C0F"/>
<path transform="translate(780,382)" d="m0 0h10v3l7-3h10l5 2 4 5 1 3v19l-3 6-6 5-4 1h-10l-2-1v12l-1 1h-11l-1-1v-50z" fill="#08090B"/>
<path transform="translate(1173,148)" d="m0 0h11l1 1v53h-10l-3-3-6 3h-8l-6-3-3-3-2-7v-14l3-8 5-5 3-1h15z" fill="#07080A"/>
<path transform="translate(1026,369)" d="m0 0h12v53l-1 1h-9l-1-4-8 4h-8l-6-3-3-4-2-6v-15l4-9 7-4h15z" fill="#07080A"/>
<path transform="translate(97,227)" d="m0 0h3l-1 4-7 15-4 15-1 6v22l4 18 8 18 1 4-4-2-7-8-10-14-9-15-9-21-1-3v-9l8-8h2l2-4 17-13z" fill="#4B5467"/>
<path transform="translate(1097,258)" d="m0 0h12v53h-11l-1-3-6 3h-11l-5-3-4-9v-15l3-8 5-4 5-2h9l4 1z" fill="#07080A"/>
<path transform="translate(721,258)" d="m0 0h12l1 4v27l-1 22h-11v-3l-6 3h-12l-6-5-2-6v-17l3-7 4-4 6-2h9l3 1z" fill="#07080A"/>
<path transform="translate(920,270)" d="m0 0h13l4 26 6-25 1-1h10l2 5 4 19h1l3-20 1-4h13l-2 10-4 18-4 13h-15l-4-17v-4h-2v8l-3 13h-15l-9-37z" fill="#07080A"/>
<path transform="translate(193,396)" d="m0 0 6 1 19 7h13l18-6 5-2h3v24l-5 3-16 5-11 1-14-2-15-5-3-2z" fill="#495265"/>
<path transform="translate(1430,258)" d="m0 0h10v53h-9l-1-3-8 3h-10l-7-6-2-9v-10l2-8 5-5 4-2h15v-12z" fill="#FE4938"/>
<path transform="translate(1499,270)" d="m0 0 2 1 4 21v5h2l1-9 3-14 1-3h11l5 24 1 2 4-24 1-2h12l-1 7-8 31-1 2h-14l-5-19h-1l-3 16-1 3h-14l-9-35v-5z" fill="#FE4938"/>
<path transform="translate(350,228)" d="m0 0 5 2 16 12 13 11 2 1v2h2v7l-6 18-12 23-13 18-7 8h-2l2-5 7-15 5-19v-26l-4-16-5-12-3-6z" fill="#4B5467"/>
<path transform="translate(409,423)" d="m0 0h10l7 4 4 6 1 3v31l-4 8-5 4-7 2-8-1-6-4-4-5-2-6v-27l4-9 7-5zm2 11-4 4v28l3 3 4 1 5-3 1-4v-24l-5-5z" fill="#B7D5D8"/>
<path transform="translate(408,287)" d="m0 0h10l6 3 6 7 1 3v32l-5 8-6 4h-13l-6-4-4-5-2-6v-26l3-8 5-5zm3 11-4 4v28l3 3h6l3-2 1-4v-24l-4-5z" fill="#B7D5D8"/>
<path transform="translate(385,355)" d="m0 0h9l8 4 5 7 1 5v24l-2 8-6 7-9 3-8-1-8-6-3-6v-32l4-7 5-4zm2 11-4 5v26l3 4 5 1 5-4v-28l-4-4z" fill="#B6D4D7"/>
<path transform="translate(755,161)" d="m0 0h16l6 3 4 5 2 9v8l-3 9-6 5-6 2h-10l-8-3-5-6-2-9 1-12 3-6 5-4z" fill="#070809"/>
<path transform="translate(1597,161)" d="m0 0h14l7 3 5 6 1 4v14l-3 8-3 3-8 3h-11l-8-3-4-5-2-5v-16l3-6 6-5z" fill="#060708"/>
<path transform="translate(995,270)" d="m0 0h10l8 3 5 5 2 7v12l-3 8-4 4-6 2h-15l-8-5-3-7v-17l3-6 5-4z" fill="#060709"/>
<path transform="translate(1458,271)" d="m0 0h16l8 5 3 9v13l-3 7-4 4-6 2h-13l-8-4-4-8-1-11 2-9 4-5z" fill="#FE4938"/>
<path transform="translate(1235,148)" d="m0 0h11v16l7-3h12l5 4 2 6v30l-1 1h-11l-1-1v-28h-13v29h-11l-1-1v-52z" fill="#08090C"/>
<path transform="translate(1701,148)" d="m0 0h12v16l7-3h11l4 2 3 5v34h-11l-1-1-1-27-1-1h-11v29h-12z" fill="#040506"/>
<path transform="translate(1186,258)" d="m0 0h12l1 15 8-3h7l6 3 3 5v33h-12l-1-28h-12v28h-12z" fill="#050506"/>
<path transform="translate(146,371)" d="m0 0 11 6 23 12v11l-1 15-6-2-24-12-22-14-1-3 8-6z" fill="#495365"/>
<path transform="translate(301,372)" d="m0 0 9 3 11 7 3 2-1 3-13 8-21 12-17 8h-2v-26l20-10z" fill="#495365"/>
<path transform="translate(1322,258)" d="m0 0h11v16l7-3h11l5 3 2 4v33h-11l-1-28-7-1-6 1v25l-1 3h-10l-1-6v-46z" fill="#FE4938"/>
<path transform="translate(1e3 161)" d="m0 0h20l7 4 2 5v31l-1 1h-10l-1-4-8 4h-7l-6-4-2-4v-10l3-5 4-2h16l-3-4-16-1v-10z" fill="#08090C"/>
<path transform="translate(862,270)" d="m0 0h12l7 3 3 3 1 3v32h-11v-3l-6 3h-11l-4-2-3-9 2-10 4-3 4-1h13l-2-3-12-1h-5v-10l1-1z" fill="#060708"/>
<path transform="translate(966,161)" d="m0 0h16l5 3 3 4 1 3v13h-24l3 5h20l-1 10-9 3h-12l-8-4-3-4-2-5v-15l3-7 6-5z" fill="#07080A"/>
<path transform="translate(971,382)" d="m0 0h16l5 3 3 3 1 3v14h-24l3 5h20v9l-5 3-5 1h-12l-8-4-4-7-1-5v-10l3-9 6-5z" fill="#08090B"/>
<path transform="translate(861,382)" d="m0 0h16l6 4 2 3 1 6v8l-1 2h-23l3 5 4 1 15-1v10l-5 2-5 1h-12l-6-3-4-4-2-5v-17l4-8z" fill="#060708"/>
<path transform="translate(1242,270)" d="m0 0h10l8 3 3 3 1 3v14l-1 1h-22l3 5h19v9l-6 3h-18l-6-4-3-5-2-7v-8l3-10 6-5z" fill="#080A0C"/>
<path transform="translate(1755,161)" d="m0 0h15l6 3 3 5v15h-23l1 5 6 1 15-1v9l-5 3-5 1h-11l-7-3-4-4-2-4-1-12 2-10 4-5z" fill="#08090B"/>
<path transform="translate(895,161)" d="m0 0h16l5 3 4 6v13l-1 1h-23l3 5h20l-1 10-9 3h-11l-8-3-4-5-2-7v-11l3-9 6-5z" fill="#08090B"/>
<path transform="translate(1294,260)" d="m0 0h15l3 1v11l-13-1-5 2-1 5 16 4 5 3 2 4v11l-4 7-7 4h-18l-6-3v-9l18 1 4-4-1-3-16-5-4-4-1-3v-9l3-7 6-4z" fill="#FE4938"/>
<path transform="translate(1288,161)" d="m0 0h16l6 4 3 5v13l-1 1h-23l3 5 6 1 13-1v10l-9 3h-12l-8-4-3-5-2-5v-13l3-8 6-5z" fill="#08090B"/>
<path transform="translate(1118,161)" d="m0 0h16l6 4 3 6v12l-1 1h-23l4 6h9l9-1v10l-5 2-5 1h-11l-8-4-4-6-1-3v-15l3-7 6-5z" fill="#060709"/>
<path transform="translate(1064,161)" d="m0 0h11l1 3 5-3h13l6 4 2 5v31l-1 1h-11l-1-1v-28h-9l-3 1-1 28h-12z" fill="#0B0C0F"/>
<path transform="translate(157,274)" d="m0 0 10 5 15 4 2 5v9l-3 5-9 6-3 1h-13l-10-5-4-5-2-9 3-7 7-6z" fill="#FFA1AC"/>
<path transform="translate(788,161)" d="m0 0h12l1 29h10v-29h13v40l-1 1h-10l-5-1-2 1h-9l-7-4-2-4z" fill="#090A0C"/>
<path transform="translate(291,274)" d="m0 0 1 2 6 2 7 6 2 5-1 9-7 8-8 3h-13l-8-4-6-7-1-2v-9l4-6 16-2z" fill="#FFA1AC"/>
<path transform="translate(1624,271)" d="m0 0h20l6 4 2 3 1 6-1 28-10-1-1-3-6 2-1 1h-9l-5-4-2-6 1-9 4-4 2-1h16l-2-4-3-1h-14v-9z" fill="#FE4938"/>
<path transform="translate(1377,161)" d="m0 0h12l7 3 3 5 1 5v9l-19 1h-4l1 5 2 1h9l8-1 1 1v7l-3 3-7 2h-11l-6-3-5-6-2-8v-9l3-9 5-4z" fill="#FE4938"/>
<path transform="translate(1480,161)" d="m0 0h13l7 4 3 7v11l-19 1h-4l1 4 3 2h17v8l-6 3-4 1h-11l-6-3-5-6-1-3v-17l4-8z" fill="#FE4938"/>
<path transform="translate(1370,271)" d="m0 0h19l5 3 3 4v33h-10l-1-3-6 2-1 1h-8l-5-3-2-3v-13l4-4 2-1h16l-2-4-3-1h-14v-8z" fill="#FE4938"/>
<path transform="translate(1736,271)" d="m0 0h14l6 3 3 4 1 4v10l-1 1h-23l2 5 3 2 17-1v9l-8 3h-15l-7-5-3-6-1-12 2-9 4-5z" fill="#FE4938"/>
<path transform="translate(694,150)" d="m0 0h14l9 19v2h2l1-5 8-15 1-1h12l-2 6-8 15-6 12-1 19h-12l-1-1-1-19-12-23-4-7z" fill="#08090C"/>
<path transform="translate(1834,270)" d="m0 0h17l1 1v11h-16v4h9l8 3 2 4v8l-3 7-5 3h-21l-2-2v-10h19l-1-3-14-2-4-4-1-2v-8l3-5 3-3z" fill="#080A0C"/>
<path transform="translate(899,382)" d="m0 0h19v11l-15 1-1 4h12l6 3 1 3v10l-3 5-5 3-2 1h-14l-6-1-1-2v-10l18 1v-3l-15-3-3-4-1-9 3-6z" fill="#08090B"/>
<path transform="translate(934,382)" d="m0 0h20v11l-15 1-2 3 12 1 6 3 1 2v11l-3 6-7 3h-14l-6-2v-11h17l1-3h-7l-10-3-2-4v-10l5-6z" fill="#07080A"/>
<path transform="translate(1142,260)" d="m0 0h39v11h-13v40h-13v-40h-13z" fill="#060708"/>
<path transform="translate(842,161)" d="m0 0h13l7 26 6-24 1-2h13l-7 24-6 16-1 1h-13l-3-8-10-29z" fill="#060608"/>
<path transform="translate(1339,161)" d="m0 0h18l1 1v9l-4 1h-7l-5 1-1 3 14 2 3 1 3 7-1 8-5 6-5 2h-13l-6-2-1-3v-7h17l1-3-14-3-4-4-1-8 3-7z" fill="#FE4938"/>
<path transform="translate(1547,161)" d="m0 0h18l1 2v9h-9l-7 1 1 3 12 2 5 3 1 3v8l-3 5-5 4-3 1h-14l-4-1-1-2v-9h16l2-4-11-1-6-3-2-3v-10l4-5z" fill="#FE4938"/>
<path transform="translate(1668,271)" d="m0 0h18l1 3v7l-2 1h-11l-3 1v2l2 1 13 2 3 4 1 9-3 6-6 4h-18l-3-2v-10l14 1 4-1v-3l-13-2-5-3-1-1v-12l5-5z" fill="#FE4938"/>
<path transform="translate(826,262)" d="m0 0h11v8h11v11h-11l1 18h10v11l-1 1h-14l-5-3-3-4-1-4v-19h-4v-11h5z" fill="#07080A"/>
<path transform="translate(1207,152)" d="m0 0h11v9h11v11h-11l1 18h11v9l-1 2-3 1h-9l-7-3-3-3-1-3v-21l-5-1v-10l6-1z" fill="#070809"/>
<path transform="translate(1674,152)" d="m0 0h10v9h11v11h-10v18h11v10l-4 2h-9l-7-3-3-4-1-4v-19l-4-1v-10l5-1z" fill="#08080A"/>
<path transform="translate(1643,148)" d="m0 0h10l2 1v8h-10l-1 4h10v10l-1 1h-9v30h-12v-30h-4v-11l3-1 3-7 5-4z" fill="#060708"/>
<path transform="translate(1699,262)" d="m0 0h10l1 1 1 7 10 1v10h-11l1 17 3 2h7v8l-3 3-7 1-7-2-6-7-2-21-2-1v-10l4-1z" fill="#FE4938"/>
<path transform="translate(1514,152)" d="m0 0h9l1 8 10 1v10l-2 1h-8v17l1 1h9v9l-1 2-4 1h-8l-5-3-4-4-1-3-1-20-3-1v-10h5v-6z" fill="#FE4938"/>
<path transform="translate(1417,161)" d="m0 0h16l1 4-1 7h-10l-5 2-1 3v9l1 4h10l6-1 1 1v8l-6 3-13 1-6-3-4-5-1-3v-19l4-7z" fill="#FE4938"/>
<path transform="translate(445,354)" d="m0 0 5 1 3 3v51l-4 4-5-1-3-4v-49z" fill="#B7D5D8"/>
<path transform="translate(445,287)" d="m0 0h5l3 3v51l-3 4h-6l-3-4v-45l2-8z" fill="#B6D4D7"/>
<path transform="translate(265,391)" d="m0 0h3v63l-1 3-6 1-3-2v-62z" fill="#FAFBFB"/>
<path transform="translate(1054,258)" d="m0 0h12v53h-12z" fill="#08090B"/>
<path transform="translate(892,258)" d="m0 0h12v53h-12z" fill="#08090C"/>
<path transform="translate(938,148)" d="m0 0h11l1 1v52h-12z" fill="#08090B"/>
<path transform="translate(1026,270)" d="m0 0h10l1 2 12-2v12l-12 1v28h-12v-40z" fill="#090A0C"/>
<path transform="translate(1036,161)" d="m0 0h11v2l6-2h7v11l-11 2-1 28h-12z" fill="#08090B"/>
<path transform="translate(823,382)" d="m0 0h11v2l7-2h6v11l-12 1v29h-12z" fill="#050607"/>
<path transform="translate(421,355)" d="m0 0h5l3 2v53l-4 3-5-1-2-2v-52z" fill="#B7D5D8"/>
<path transform="translate(375,423)" d="m0 0h5l3 3v51l-4 4-5-1-2-3v-51z" fill="#B7D5D8"/>
<path transform="translate(181,391)" d="m0 0 9 2 1 1v59l-4 4-5-2-1-19z" fill="#FCFCFC"/>
<path transform="translate(1441,161)" d="m0 0h10l1 2 5-1 7-1v11l-9 1-2 1-1 28h-10l-1-1z" fill="#FE4938"/>
<path transform="translate(1766,271)" d="m0 0h10l1 2 5-1 7-1v10l-9 2-2 1-1 27h-11z" fill="#FE4938"/>
<path transform="translate(740,270)" d="m0 0h12l1 1v40h-12l-1-1z" fill="#101217"/>
<path transform="translate(1806,270)" d="m0 0h12v41h-12z" fill="#050607"/>
<path transform="translate(803,270)" d="m0 0h12v41h-12z" fill="#060708"/>
<path transform="translate(697,382)" d="m0 0h12v41h-11l-1-1z" fill="#0A0B0E"/>
<path transform="translate(210,269)" d="m0 0 6 1 6 4 8-1 5-4h5l3 3-1 7-8 6-3 1h-12l-8-4-5-6 1-5z" fill="#4B5467"/>
<path transform="translate(1045,371)" d="m0 0h13v20l-1 14h-11l-1-8z" fill="#07080A"/>
<path transform="translate(1463,281)" d="m0 0h6l4 3 1 10-2 5-4 2-7-1-3-4v-10z" fill="#FCEDEE"/>
<path transform="translate(1419,281)" d="m0 0h6l4 3v14l-5 3-6-1-3-3-1-8 3-7z" fill="#FCECEC"/>
<path transform="translate(995,282)" d="m0 0h10l3 3v11l-4 4h-9l-2-3v-13z" fill="#F3F5F6"/>
<path transform="translate(1601,172)" d="m0 0h7l3 2 1 3v8l-3 5-1 1h-7l-4-5v-10z" fill="#F6F7F8"/>
<path transform="translate(1162,172)" d="m0 0h9l2 1v16l-3 2h-7l-4-4v-10z" fill="#F2F3F3"/>
<path transform="translate(759,172)" d="m0 0h8l3 3v12l-4 4h-7l-3-4v-13z" fill="#F6F7F8"/>
<path transform="translate(1015,393)" d="m0 0h10l1 1v16l-1 1h-10l-3-3v-11z" fill="#F3F6F6"/>
<path transform="translate(1085,282)" d="m0 0h11l1 1v16l-3 1h-8l-3-3v-12z" fill="#F2F5F6"/>
<path transform="translate(794,393)" d="m0 0h7l4 3v12l-3 3h-10l-1-1v-16z" fill="#F2F4F5"/>
<path transform="translate(710,282)" d="m0 0h11v17l-2 1h-9l-2-4v-12z" fill="#F7F8F9"/>
<path transform="translate(773,282)" d="m0 0h10l1 1v12l-2 1h-10l-1-1v-12z" fill="#FAFBFB"/>
<path transform="translate(830,150)" d="m0 0h9v18h-9z" fill="#0A0B0E"/>
<path transform="translate(1377,183)" d="m0 0h23l-2 4 1 1v7h-1l-1-5-8 1h-9l-4-4z" fill="#FCE4E5"/>
<path transform="translate(1046,411)" d="m0 0h11l1 1v10l-1 1h-11l-1-1v-10z" fill="#13161C"/>
<path transform="translate(1480,183)" d="m0 0h23l-4 2 3 4v8h-1v-7l-17 1-5-4z" fill="#FCE2E2"/>
<path transform="translate(108,339)" d="m0 0 6 1 7 6v2l4 2 7 7 8 7 3 4-5-2-16-13-10-9z" fill="#FCFBFB"/>
<path transform="translate(802,258)" d="m0 0h14v7l-1 2h-12l-1-1z" fill="#0C0D11"/>
<path transform="translate(1115,300)" d="m0 0h11v11h-11z" fill="#08090B"/>
<path transform="translate(1805,258)" d="m0 0h13v9h-13z" fill="#08090B"/>
<path transform="translate(740,258)" d="m0 0h13v9h-13z" fill="#020303"/>
<path transform="translate(697,369)" d="m0 0h12l1 1v8h-13z" fill="#101317"/>
<path transform="translate(341,336)" d="m0 0h2l-2 4-13 13-14 11h-3l8-7 11-9 8-8z" fill="#FCFCFC"/>
<path transform="translate(1376,295)" d="m0 0h10l-1 5-2 1h-7l-2-4z" fill="#FDD6D9"/>
<path transform="translate(1742,281)" d="m0 0 7 2v4h-13l1-4z" fill="#FCD5D5"/>
<path transform="translate(1630,295)" d="m0 0h10l1 3-1 2-9 1-1-1z" fill="#FDD8DB"/>
<path transform="translate(1378,172)" d="m0 0h9l2 2v3h-12v-4z" fill="#FCDBDD"/>
<path transform="translate(864,393)" d="m0 0h8l3 3v2h-13l1-4z" fill="#DCE4E7"/>
<path transform="translate(1482,172)" d="m0 0h8l2 2v3h-12v-3z" fill="#FCDEDF"/>
<path transform="translate(1006,186)" d="m0 0h11l-1 4-1 1h-9z" fill="#E3E8EB"/>
<path transform="translate(865,295)" d="m0 0h8l-1 5h-10v-4z" fill="#EAF0F1"/>
<path transform="translate(1369,281)" d="m0 0h12l5 3v3h-15l3-2h9v-2l-14-1z" fill="#FDC0C3"/>
<path transform="translate(1242,282)" d="m0 0h9l3 2v2h-13z" fill="#F2F5F6"/>
<path transform="translate(1121,172)" d="m0 0h8l3 2v2h-13v-2h2z" fill="#F0F4F5"/>
<path transform="translate(969,172)" d="m0 0h8l3 2v2h-13z" fill="#F3F4F5"/>
<path transform="translate(1292,172)" d="m0 0h7l3 2v2h-13z" fill="#F8FAFA"/>
<path transform="translate(899,172)" d="m0 0h7l3 2v2h-13z" fill="#FAFAF9"/>
<path transform="translate(975,393)" d="m0 0h7l3 2v2h-12z" fill="#F6F7F8"/>
<path transform="translate(1758,172)" d="m0 0h7l3 2v2h-12z" fill="#FAF9F9"/>
<path transform="translate(1637,282)" d="m0 0 4 2v3h-15v-1l12-1z" fill="#FDC0C2"/>
<path transform="translate(1393,186)" d="m0 0 5 1 1 1v7h-1l-1-5h-7l3-1z" fill="#FCD4D1"/>
<path transform="translate(292,273)" d="m0 0 1 2 6 1 6 6-1 2-7-6-5-2z" fill="#F9D4CB"/>
</svg>
