<?xml version="1.0" encoding="UTF-8"?>
<svg version="1.1" viewBox="0 0 1882 2048" width="479" height="521" xmlns="http://www.w3.org/2000/svg">
<path transform="translate(861,98)" d="m0 0h41l40 3 37 3 46 8 50 12 36 12 20 7 30 12 31 15 16 8 20 11 22 13 23 15 14 10 18 13 17 14 11 9 11 10 8 7 16 15 24 24 7 8 9 10 9 11 10 12 13 17 13 18 12 18 12 19 13 23 13 24 13 27 15 36 18 53 10 37 8 43 4 27 4 38 2 31v37l-3 42-5 42-7 40-9 38-11 35-13 37-12 28-13 29-13 23-16 28-13 21-14 20-14 19-14 17-9 11-9 10-7 8-11 12-7 8-1 4 6 20 18 49 13 37 11 30 11 31 13 35 9 25 32 88 7 20 13 34 14 40 8 21 4 14v17l-4 12-6 8-8 7-10 5-8 2h-12l-16-4-15-6-29-10-19-7-25-9-34-12-28-10-19-5h-9l-13 4-10 6-6 7-9 15-10 17-11 19-10 17-16 27-14 24-24 40-7 8-10 6-11 4h-16l-13-5-8-6-7-8-7-14-10-29-11-30-11-31-13-35-8-22-22-60-16-44-10-28-14-37-12-34-13-36-3-9-41 2h-44l-26-1-14-1-9 25-17 46-9 26-14 37-9 26-10 26-10 29-16 44-9 25-8 21-11 31-15 40-9 25-5 9-7 8-12 7-9 3h-17l-12-5-9-7-7-8-13-23-28-48-10-17-12-20-14-24-8-14-8-12-4-5-9-6-11-4-14-1-19 5-31 11-30 11-40 14-42 15-18 6-6 1h-10l-11-3-7-4-10-9-5-7-4-12v-13l5-18 11-29 12-34 13-35 17-47 20-55 15-42 8-21 13-35 16-45 7-19 9-26 7-17 7-22-1-6-11-12-12-13-9-11-10-11-7-9-12-15-12-16-18-27-10-17-8-13-12-22-8-17-8-16-13-29-11-30-9-27-8-28-6-26-6-31-3-26-4-41v-100l2-16 2-24 7-43 8-36 7-24 8-25 7-20 11-28 10-23 14-29 8-16 10-19 18-27 11-16 13-18 11-14 13-16 12-14 12-13 15-16 8-8 8-7 9-9 11-9 10-9 11-8 14-11 11-9 19-13 10-7 22-14 26-15 23-12 19-9 15-7 27-11 29-11 36-11 38-9 38-7 32-4 33-3z" fill="#FDD262"/>
<path transform="translate(861,98)" d="m0 0h41l40 3 37 3 46 8 50 12 36 12 20 7 30 12 31 15 16 8 20 11 22 13 23 15 14 10 18 13 17 14 11 9 11 10 8 7 16 15 24 24 7 8 9 10 9 11 10 12 13 17 13 18 12 18 12 19 13 23 13 24 13 27 15 36 18 53 10 37 8 43 4 27 4 38 2 31v37l-3 42-5 42-7 40-9 38-11 35-13 37-12 28-13 29-13 23-16 28-13 21-14 20-14 19-14 17-9 11-9 10-7 8-11 12-7 8-1 4 6 20 18 49 13 37 11 30 11 31 13 35 9 25 32 88 7 20 13 34 14 40 8 21 4 14v17l-4 12-6 8-8 7-10 5-8 2h-12l-16-4-15-6-29-10-19-7-25-9-34-12-28-10-19-5h-9l-13 4-10 6-6 7-9 15-10 17-11 19-10 17-16 27-14 24-24 40-7 8-10 6-11 4h-16l-13-5-8-6-7-8-7-14-10-29-11-30-11-31-13-35-8-22-22-60-16-44-10-28-14-37-12-34-13-36-3-9-41 2h-44l-26-1-15-1-13-2-35-5-27-5-44-10-21-5-16-5-17-6-55-22-6-4-7-8-29-29-8-7 4 5 18 18 4 5 5 4 5 7-5-2-10-5-19-10-10-6-12-6v-3l3-5 5-4 2-3 7 2 1-8 56-56 4 1 16 8 17 9 33 15 31 11 36 10 30 7 26 5 26 4 29 3 15 1h12l5-2 4-2 2-4h2l2-4 1-3-3-1-5-7 4 2 9 3 7-8 8-7 6-7 4-1 2-4 8-8h2v-3l3-1 1-3 4-2 2-5 1-1-7-1-24 1-39 1-23 1-9-8-7-8v-2l-4-2-13-12-10-9-3-3-5-2v-2l-4-2-12-12v-2l-4-2v-2l-4-2-4-4v-2l-4-2-20-20-3-6-8-8-7-6-6-7-42-42-4-3v-2h-2v-2l-5-1-7-8-14-15-8-7-92-92-5-4-2-5-3-3 2-4 6-7 8-7 13-13-5 4-14 14-5 4-5 6-35 35-8 7-2 1 2-4 31-31 6-9 8-5 12-12h2l2-4 10-11 8-7 22-22 8-7 16-16 8-7 11-12 6-5 7-9 14-14 7-8 9-10 6-7 8-7 3-4 6-7 5-4 7-8 7-7h2v-2h2l2-4 6-6h3v-2l8-7 13-14 8-7 12-12h2v-2l8-7 38-38 7-8 19-19 6-7 9-9h2l2-4 13-13 1-2h2l-7-8-8-7-51-51-3-2v-2l-4-2-3-7v-3l4 2 72 72 2 3h3l6-7 8-7 11-11 7-8 3-3h2l2-4 5-1 1-4 8-8 8-7 7-6h2l2-4 10-9 15-14 13-13 7-8 8-8 7-8 16-16 7-8 17-17 2-4 3-3v-2l-2-1v-2l4 1 7-3 5-6 8-7 9-9 8-7 15-14 5-6 8-7 10-10 3-4h2l1-3 6-5 14-16 5-6 9-7 1-2h2v-2h2v-2l5-5 2-3 3 1-6 7-7 8-41 41-1 3-8 7-29 29-11 9-21 21-6 4-6 8-21 21-7 8-14 15-15 16-36 36 7-6 42-42 7-8 14-15 9-10 20-20h3v2l3-1 3 3 6 3 52 52 5 6 6 5 26 26 7 8 5 4 7 8 6 5v2l3 1 5 6 8 7 15 15 7 8 12 12 1 2-3 6-9 9-1 2h-2l-2 4-7 7-8 7-7 7-7-2-36-5-49-7-34-5-36-6-19-3-15-3-11-4-7-6-12-21-11-22-11-19 1-4 1-2-8 7-14 14-8 7-10 9-32 32 2 1 3 5 115 115 8 7 13 13 7 8 137 137 11 9 16 15 11 11 9 11 10 11 2 1v2h2l4 6 6 5v2h2l-4-7-11-11-8-7-9-10-7-8-15-15-8-7-10-9-8-8-8-7-19-19v-2l-4-2v-2l-4-2v-2l-4-2v-2l-4-2-12-12v-2l-4-2-3-3v-2l-4-2-7-8v-2l5-3 6-6h2v-2l8-7 17-17 8-7 18-18 8-7 10-9 7-7 6-5 5-5 15-16 6-9 2-5 1-12-2-11-6-10 1-5 9-9 3-5 8-8 7-8 7-7 1-2h2v3l4-1-3-3v-2l8-5 29-29 8-7 13-12 30-30 5-1 7 10 10 21 8 18 12 36 6 21 4 19 4 21 4 28 2 28 1 13v13h-4l-17-17-10-8v-2l-5-2-22-22-1-3-4-4h-3l6 5 7 8 15 15v2h2l12 12 8 7 14 14 9 11 9 9 7 8 4 1 10-10 6-5 5-6h2v-2h2v-2l8-7 3-1 2-13-3-37-4-34-7-40-8-32-10-30-16-40-4-9-7-15-5-13-5-8-3-5 1-6 13-15 15-15 6-8-4 2-22 22-7 8-5 4h-1l-2-7-4-5-3-6-10-15-7-10-8-12-13-16v-2l-4-2-5-6v-2h-2l-3-4v-2h-2l-7-9-1-3h-2v-2l-4-2-9-10-14-14v-2l-4-2-6-7-11-9-7-5-5-6-11-8-14-10-6-4-2-3 1-5 4-6h2l2-4 1-3 8-7 2-3-7 6h-2l-2 4-10 10-5 2-1-3-5-2-19-12-15-9-14-8-24-12-9-4-29-12-19-7-8-3-17-6-14-4-15-5-26-6-31-6-4-3 6-8 54-54 7-8 10-10 1-3-12 12-7 8-61 61-5 4h-6l-1-2-23-2-13-1-9-1h-53l-17 1-6 1h-16l-7-8-2-1v-2l-4-2-5-6-8-7-23-23v-2l-4-2-17-17-7-8-5-5-3-5v-3l35-7 39-5 33-3z" fill="#FDD262"/>
<path transform="translate(1374,1279)" d="m0 0 2 1 6 20 18 49 13 37 11 30 11 31 13 35 9 25 32 88 7 20 13 34 14 40 8 21 4 14v17l-4 12-6 8-8 7-10 5-8 2h-12l-16-4-15-6-29-10-19-7-25-9-34-12-28-10-19-5h-9l-13 4-10 6-6 7-9 15-10 17-11 19-10 17-16 27-14 24-24 40-7 8-10 6-11 4h-16l-13-5-8-6-7-8-7-14-10-29-11-30-11-31-13-35-8-22-22-60-16-44-10-28-14-37-12-34-13-36-1-9 2-2 19-2h11l3-2 15-2 1-3-16-16-8-7-15-15-7-6-45-45-16-14 2-4 42-42h3l2-4 29-29 2 1-24 24-3 5-46 46 1 4 5 5 8 7 7 8 25 25v2l4 2 33 33 2 1v2h2l16 16h17l70-17 20-6 22-8 24-10 37-17 15-7 3-1 1 3-5 5h-4l-1 4-21 21-2 3h-3l-1 4-5 6h-3v3l8-7 5-6 8-7 13-12 9-11 9-9 8-7 8-9 8-7 5-5 4-2 1 5 7-1v-4l10-5 11-8 14-10 13-10 14-11 10-9 10-8 16-15 13-11z" fill="#C16953"/>
<path transform="translate(653,1245)" d="m0 0v3l-9 10-10 10-7 8-20 18-8 8-8 7-51 51 1 6 1 2-5-1-3-1-8 8-2 5 15 8 18 10 22 11-7-8-6-5-7-8-17-17h3l5 4v2l4 2 12 12v2l4 2 22 22 8 4 17 6 20 8 12 5 22 8 14 4 27 6 39 9 37 6 21 3 13 2-1 6-12 34-13 35-11 31-11 29-9 26-10 26-10 29-16 44-9 25-8 21-11 31-15 40-9 25-5 9-7 8-12 7-9 3h-17l-12-5-9-7-7-8-13-23-28-48-10-17-12-20-14-24-8-14-8-12-4-5-9-6-11-4-14-1-19 5-31 11-30 11-40 14-42 15-18 6-6 1h-10l-11-3-7-4-10-9-5-7-4-12v-13l5-18 11-29 12-34 13-35 17-47 20-55 15-42 8-21 13-35 16-45 7-19 9-26 7-17 7-22 5-1 6 4 16 16 11 9 9 8 11 9 16 13 11 9 17 12 14 9 7 4 5-1 6-5h2l1-4 8-8h2l2-4 32-32 7-8 25-25 8-7 6-4 7-8 12-12 4-2 7-8z" fill="#DC7B65"/>
<path transform="translate(861,98)" d="m0 0h41l40 3 37 3 46 8 50 12 36 12 20 7 30 12 31 15 16 8 20 11 22 13 23 15 14 10 18 13 17 14 11 9 11 10 8 7 16 15 24 24 7 8 9 10 9 11 10 12 13 17 13 18 12 18 12 19 13 23 13 24 13 27 15 36 18 53 10 37 8 43 2 13v6l-12 11-7 6-5 3-12 11-14 14-7 8-10 10-8 7-8 8-8 7-11 10-30 30h-2l1 3 8 7 9 9 7 8 11 11-4 1-2-1v-2l-4-2-1-3-4-2-15-14v-2l-4-2-3-3-1-3-8 7-12 12-9 11-9 10-36 36-8 7-9 10-10 9-4 5-5 5-8 6-3 3-4 2-7 7-11 9-14 14-8 10-3 3h-2l-2 4-5 4h-2l-7-9-8-8-8-7-9-10-7-8-15-15-8-7-10-9-8-8-8-7-19-19v-2l-4-2v-2l-4-2v-2l-4-2v-2l-4-2-12-12v-2l-4-2-3-3v-2l-4-2-7-8v-2l5-3 6-6h2v-2l8-7 17-17 8-7 18-18 8-7 10-9 7-7 6-5 5-5 15-16 6-9 2-5 1-12-2-11-6-10 1-5 9-9 3-5 8-8 7-8 7-7 1-2h2v3l4-1-3-3v-2l8-5 29-29 8-7 13-12 30-30 5-1 7 10 10 21 8 18 12 36 6 21 4 19 4 21 4 28 2 28 1 13v13h-4l-17-17-10-8v-2l-5-2-22-22-1-3-4-4h-3l6 5 7 8 15 15v2h2l12 12 8 7 14 14 9 11 9 9 7 8 4 1 10-10 6-5 5-6h2v-2h2v-2l8-7 3-1 2-13-3-37-4-34-7-40-8-32-10-30-16-40-4-9-7-15-5-13-5-8-3-5 1-6 13-15 15-15 6-8-4 2-22 22-7 8-5 4h-1l-2-7-4-5-3-6-10-15-7-10-8-12-13-16v-2l-4-2-5-6v-2h-2l-3-4v-2h-2l-7-9-1-3h-2v-2l-4-2-9-10-14-14v-2l-4-2-6-7-11-9-7-5-5-6-11-8-14-10-6-4-2-3 1-5 4-6h2l2-4 1-3 8-7 2-3-7 6h-2l-2 4-10 10-5 2-1-3-5-2-19-12-15-9-14-8-24-12-9-4-29-12-19-7-8-3-17-6-14-4-15-5-26-6-31-6-4-3 6-8 54-54 7-8 10-10 1-3-12 12-7 8-61 61-5 4h-6l-1-2-23-2-13-1-9-1h-53l-17 1-6 1h-16l-7-8-2-1v-2l-4-2-5-6-8-7-23-23v-2l-4-2-17-17-7-8-5-5-3-5v-3l35-7 39-5 33-3z" fill="#FDD262"/>
<path transform="translate(603,215)" d="m0 0v3l-15 15v2l12 3 14 2 14-1 20-5 9-4h2v-2l7-5h4l-2 5-6 9-1 8-4 20v24l5 24 4 9 4 6-1 3-4-1-10-6-9-3-11-3-6-1h-24l-12 2-7 3-2 2-8-4 3 5 34 34 8 7 44 44 5 7 4 3-2 4-4 7-5 17-2 8-1 10v28l1 12 1 3 2 1v2l-3 3-1 2h-2l-2 4h-2l-2 4-7 8-8 7-1 4-36 36-8 7-12 12-8 7-9 9h-2l-2 4h-2l-2 4-8 8-5 2-4 5-6 5-7 8-23 23-1-3 11-11 7-8 6-5 5-8-1-4-16-17-14-13-8-6v-2l-4-2-15-14-6-8-8-7-12-11-3-1 1 8 3 7 4 10 4 6 1 6-6-1-8-5-22-7-11-1-25 4-17 5-17 9-5 2-3-3 8-11 7-18 3-12 1-6v-20l-2 3-8 16-4 10-5 13-7 16-8 20-4 14-5 16-6 26-5 20-3 26-3 22-1 6-1 15-1 4h-2l1 6-5-2-2-4h-3l-1-3-3-3-6-8-5-5-3-4-6-7-23-23-8-7-14-14-8-5-1 1 2 1v2l5 2 7 8 5 6 5 5 5 4 8 7 7 8 3 2 2 5 20 20 7 9 4 2 7 10 2 3 1 10-1 20 1 22 2 24 2 11 2 1v2l2 1-1 2h-3v3l8-7 4-5 5-4 2 1-6 7h-2l-2 4-11 11-7 8-10 11-7 8-26 26-7 8 5-4 6-4 22-22 3-4h2l2-4 9-10 1-3 5-3 4-1 3 5 4 21 2 11 2 9 1 7 3 7 7 25 9 27 5 13 5 12 7 17 19 38v2h2l6 12 3 4v2h2l4 9 4 5 2 6 3 1 6 9-1 3 4 1 2 2-3 6h-2l-2 4-8 7h-2l-2 4-4 4h-2l-2 4-23 23h-3l2 5 12 11 5 5 3 5 13 13 5 3 7 8 16 16 7 8 6 5 7 8 11 11 5 3 7 6v-2h-2v-2h-2v-2h-2v-2h-2l-5-5-4-6-6-7-33-33-7-6-7-8-28-28v-6l7-8 21-21 4-5 5-4 5-5 4-2 7 4 10 14 11 13 7 9 11 11v2h2l6 8 5 5 1 3h2l7 8 5 4 7 8 11 9 5 5 11 10 20 15 15 11 20 12 5 4 11 6 5 2 4-2-1 3h-2l-2 4-16 17-5 6-7 6-5 6-7 6-5 6-5 4h-2l-1 3-6 1h-2v7l-8 7-5 3-4-2-12-7-11-8-10-7-11-9-13-11-22-18-10-9-8-7-10-9-4-4-6-2-3-6-9-10-13-14-9-11-10-11-7-9-12-15-12-16-18-27-10-17-8-13-12-22-8-17-8-16-13-29-11-30-9-27-8-28-6-26-6-31-3-26-4-41v-100l2-16 2-24 7-43 8-36 7-24 8-25 7-20 11-28 10-23 14-29 8-16 10-19 18-27 11-16 13-18 11-14 13-16 12-14 12-13 15-16 8-8 8-7 9-9 11-9 10-9 11-8 14-11 11-9 6-3 3 2 2 4 5 5 1 3 4 2 16 16 8 7 7 6v6l-6 8-6 5-2 3h-2l-2 4-16 16-3 5-12 12-7 8-9 10-16 16-5 6-8 7-51 51-2 4-13 12h-2v2h-3l-2 4-8 6 1 4 8 8v2h2l6 7 2 1v2h2v2h2l3 5 8 5 4 3 3 1 1-2 18-1 16-4 9-3 7-3 6-4 5-4 4 1-3 7-5 7-3 7h2l2-7 5-5h2l2-6 8-11 11-13 9-11 4-5 4-4h2l2-4 20-20h2l-6-10-6-8-1-5 7 4 12 9 4-1 10-7 5-5 9-8 14-10 6-4h2v-2l8-6 6-4 3-3-1-4-5-4-6-8-5-3-7-6-4-1-9 6-4-1 1-4h2l2-5 3-4-2-6-2-5 8 6 1 3 2-1-3-5 2-9 4-13 1-1v-19l-2-16-2-4h-3l2-6-11 11-8 7-3 3-2-1 19-19 2-1v-6l-6-9-2-2v-3l7 1 8 5 7-1 5-4 2 1-6 7 8-7z" fill="#FDD262"/>
<path transform="translate(1568,694)" d="m0 0h2l5 46 2 31v37l-3 42-5 42-7 40-9 38-11 35-13 37-12 28-13 29-13 23-16 28-13 21-14 20-14 19-14 17-9 11-9 10-7 8-11 12-7 8-1 3-9 6-15 14-12 11-10 8-14 12-32 24-12 8-8 5h-3v4l-8 2v-6l-6 4-7 8-9 8-7 8-12 11-13 15-12 11-4 4h-2l-2 4-9 9-4 2 2-5h3l2-4 3-3 1-3 3-1 7-8 16-16 1-3 5-2 3-4h-3l-15 7-41 19-28 11-30 10-40 10-34 8h-17l-11-11-5-4v-2h-2v-2l-4-2-67-67-5-6-8-7-2-2 1-4 47-47 3-5 22-22 7-8 7-7 8-7 26-26 7-9 12-11 7-8 45-45 7-8 12-11 33-33 8-7 17-17 8-7 11-11v3l-16 16-8 7-15 15-7 8-61 61v3l3 2v3h2v2l5 2 49 49 5 1 8-7 13-8 16-11 10-7 9-7 10-8 9-8 7-5 22-22h2l2-4 12-12h2l2-4 3-4h2l2-4 3-4h2l2-4 3-4h2l2-4 5-7 5-5 12-17 6-10h2l1-2 13 12 14 14 12 11 10 8 1 3-11 14-6 8-12 15-9 11-9 10-7 8-9 10-25 25-6 5h-2l-1 3-7 5-4 4h-2v2l-16 12-6 5h-2v2l-11 8-15 10h-2v2l-8 4-7 4h-2l6 9 24 24 7 8 21 21 3 4 1 2h6l9-10 18-18 8-7 47-47 8-7 7-7 8-7 41-41 7-8 15-16 7-6v4l2-4-1-4h-2l-19-19-7-8-15-16-16-16-6-4-14-12-33-33-7-8-40-40-5-6-2-1v-3l4 2 18 18 8 7 20 20 8 4v-2l4-4 4-8 10-19h2l1-5 6-12 6-13 7-15 10-29 4-12 3-7 4-14 6-23 3-18 2-10v-7l1-3-9 6-28 28-5 4-6 7-8 7-7 8-8 7-13 13-8 7-32 32-2-1 43-43 6-5 7-8 4-4h2l2-4 8-7 9-10 10-9 35-35 7-9 12-13 11-11 3-1v4l3 1 7 8 14 13 7 6v2l5-1-8-7-9-9-7-8-8-8-3-2v-3l8-7 21-21h2l2-4 16-15 8-7 8-8 8-7 9-9 7-8 17-17 6-5 5-3h2l1-3 11-9z" fill="#FDD262"/>
<path transform="translate(1053,122)" d="m0 0v3l-7 8-10 10-7 8-51 51-3 5 3 2 45 9 22 6 14 5 17 5 7 3 6 2 19 7 24 10 19 8 13 7 17 9 15 9 14 9 9 6 5 2v3l8-6 13-13 5-4 2 1-6 6h-2l-2 4h-2l-1 4-2 3h-2l-2 4-2 3 1 7 4 2 12 8 13 10 7 6v2l5 2 11 10 5 4 5 6 2 1v2l3 1 7 8 17 17v2h2l8 10v2h2l3 4v2h2l7 9 5 5 8 10 14 20 16 24 4 7 3 7 8-7 11-12 17-17 3 1-9 11-16 16-10 13 1 5 6 11 5 11 16 36 10 25 12 36 8 32 7 40 4 34 3 37-1 10-5 5-4 2-2 4h-2v2h-2v2h-2l-2 4h-2l-1 3-5 4-8 8h-2l-1 3-5-2-16-17-13-15-15-15-8-7-6-5v-2h-2l-7-8-15-15v-2l-3-1v-2l-4-2 1-2 5 3v2l3 1 3 5 19 19 5 3v2l4 2 15 14 9 9h2v-13l-2-31-4-33-3-14-2-12-6-26-8-27-10-28-9-19-8-16-5-8-6 2-37 37-8 7-13 12-23 23-6 2 4 5-1 2-4-1v-3h-2l-2 4-11 11-7 8-4 4-3 5-8 8 1 6 5 8 2 14-1 9-5 10-11 12-7 8-3 3h-2l-2 4h-2l-1 3-8 7-8 8-8 7-10 9-17 17-8 7-17 17h-2v2l-8 7-2 2h-3l9 11 23 23 6 5 6 7 23 23 8 7 13 13 8 7 10 9 15 15 7 8 8 9 8 7 9 10v3h-2l-5-5-5-6v-2h-2v-2l-4-2-10-11-9-11-18-18-11-9-16-15-96-96v-2l-4-2-35-35-7-8-12-12-8-7-112-112v-3l-3-1 40-40 8-7 10-9 13-13h2l-1 6 9 16 12 23 10 18 6 8 10 5 13 3 16 3 45 7 34 5 57 8 28 4 7 2 13-13 8-7 3-4h2l2-4 8-8 2-6-3-3v-2l-4-2-12-12-7-8-14-14-7-6-5-6-6-5-6-7-8-7-12-13-12-12-5-4v-2l-4-2v-2l-4-2v-2l-3-1-7-8-40-40-5-4v-2l-6-2-4-3h-2v-2l-5 3-24 24-7 8-14 15-9 10-42 42-2-1 45-45 7-8 8-8 7-8 14-15 15-15 3-5 5-4 8-7 17-17 11-9 33-33h2l1-4 46-46 5-7h2v-2l-2-1-2 4-3 4h-2v2h-2v2h-2l-1 3-11 9-4 2v-2l-5-2-17-10-14-8-12-6-19-10-17-8-25-10-17-6-18-6-26-7-20-4-17-3-21-3-15-2-14-1-6-1-9 8-1 6 1 2-6-3v-4l4-1 2-4 12-12 11-9 46-46 8-7 60-60 7-8z" fill="#FDD161"/>
<path transform="translate(359,526)" d="m0 0 3 1v20l-2 12-8 22-6 9-3 5 3 1 11-6 10-5 17-5 11-2h13l1 5-6 13h-2l-1 4-12 36-6 19-2 10-6 26-4 22-3 31-1 12-1 38v7l-1 7-9 5h-2l1 4 5-3 12-12 8-7 19-19 8-7 16-15 13-13 8-7 2-1-2 4-29 29-8 7-13 12-27 27-4 7 1 5 7 8v2l5 2 13 12 7 10 5 5 5 2-2 3-7-5v-2l-4-2-6-4-5-5-3-5-12-11-4-2 3 6 3 4 2 28v9l4 16 2 10 8 27 6 20 5 12 3 10 5 12 9 20 9 19 12 22 6 10 7 11 6 9 1 5h1l8-7 8-9 7-8 24-24 8-7 30-30 7-8 8-7 13-13v3l-28 28 2 4 2 2 2 5 10 9 91 91 8 7 11 12 4 4v2l5 1v2h2l44 44v2l4 2 5 6 8 7 8 8 3 6 25 25 5 4 7 8 14 14 5 2 9 9 8 7 10 9 5 5 5 6 8 7 23-1 41-1 27-1 4 2-3 2-2 5-4 1-1 4h-3v3l-8 7-4 5-6 4-9 10-5 5-4 2-1 3-6-2-4-2v1l5 5-1 4-6 7-5 4-5 1h-12l-26-2-32-4-21-4-39-8-36-10-30-10-19-8-18-8-19-10-16-8-3-2-4 1-54 54-2 7-2-2 1-5 57-57 8-7 9-9 8-7 10-9 7-8 11-11 2-4-8 9-5 3-15 15-3 4-5 3-17 16-21 21-7 8-33 33-4 5h-2l-1 4-8 6-5 1-1-2 8-5 3-4h2v-7l8-2 10-10h2l2-4h2l2-4h2l2-4h2l2-4h2l2-4h2l2-4h2l2-4 7-7 7-8 4-5-3 1-11-6-6-4-20-12-14-10-16-12-11-9-10-9-8-7-10-9-3-3v-2l-4-2-8-8v-2h-2l-4-6-8-8v-2h-2l-7-8-8-8-7-9-12-15-5-7v-2l-4-2-4-1-5 4h-2l-2 4-4 2-2 4-4 4h-2l-2 4-20 20-1 2v6l3 3v2l4 2 24 24v2l3 1 5 5v2l4 2 38 38 2 4 5 5 1 3h2v2h2v2h2v2h2v2l-4-2-5-5-5-3-16-16v-2l-4-2-9-9-7-8-16-16-2-3-5-3-14-14-3-5-10-10-6-5v-4l5-3 17-17 6-7 7-6 5-5 7-6 4-5v-4l-4-2-1-5-5-7-4-4-4-7-3-5-1-5h-2l-9-15v-3h-2l-22-44-5-13-5-12-6-17-6-16-11-38-2-4-1-9-2-7-3-20-3-12-4-1-3 3h-3l-1 4-10 11-7 8-23 23-5 3-4 4-2-1 7-7 7-8 26-26 8-10 9-9 7-8 12-12 2-4-3 3h-2l-2 4-8 8h-2v-3h3l-1-5-3-1-2-11-2-28-1-25 1-18-2-6-8-12-5-3-9-11-18-18-1-4-7-6-5-6-3-2v-2l-5-2-5-5v-2l-4-2-10-11v-2l-5-2v-2l-4-2 3-1 9 6 19 19 8 7 24 24 2 4 3 3v2l4 2 5 7v2l3 1v3h3l5 5 2 1-1-6h2l1-21 2-12 4-33 4-20 7-27 3-12 5-16 3-10 3-8 5-13 3-7 2-1 3-11 3-7 10-23 3-4z" fill="#FDD262"/>
<path transform="translate(891,642)" d="m0 0h3l2 6 146 146 3 2v2l5 2 4 6 42 42-2 5-7 7-9 14v15l4 30 9 50v6l-7-2h-7l-10 3-11 8-7 7-7 8-7 4-7 1 4-15 1-7v-19l-4-5-3-1h-11l-8 4-6 9-1 4v12l3 10 6 8 7 5-2 5-10 16-8 11-4 5-4 3h-2l-3-22-2-44-1-9-3-2-9 1-6 4-4 10-4 25-5 14-6 11-7 9-5 4-3-1-3-3 4-23 4-22v-16l-4-8-5-3h-10l-8 4-10 10-9 11-6 10-1-3 3-11 1-12-2-1v-6l-1-1h-16l-1 1-3 16-6 25-2 8h-2l-2 5-3 1-9-1h-3l-3 19h-1v-16l6-28 7-28-1-2h-20l-2 5-3 6-2 1-5-11-7-3h-9l-10 4-6 4-7 7-9 15-9 20-6 11-7 10-8 8-11 7-11 3h-9l-10-3-10-7-6-8-4-12-1-5v-22l4-23 5-13h2l2-6 2-5h2l1-4 5-5 8-7 1-2 14-6 4-1h15l4 2 3 5 1 8-5 20-2 5v4l11-1 7-5 6-10 2-4v-15l-4-10-7-6-13-5-5-1h-16l-17 4-15 6 1-11 3-19 1-11v-15l-7-14h-3l-13 13-5 4-2 3-2-1 7-9h2l2-4 90-90 8-7 7-8 5-3 8-8h2l1-4 30-30 8-7 13-13 1-2h2l2-4 15-16 28-28z" fill="#E3BD59"/>
<path transform="translate(737,114)" d="m0 0 4 5 3 5 9 9 7 8 43 43 7 6 4 4v2l4 2v2l4 2 1 2h16l6-1 17-1h53l17 2 20 1 10 2 4 2-6 7-37 37-11 9-15 15h-2l1 5-4 1-11 11-2 3h-2l-2 4-25 25-7 8-9 9-7 8-59 59-8 7-12 12-8 7-16 15-4 5-5 2 3 5 4 5-10-4-8 7-6 7h-2l-2 4-29 29-4-2-1-3-1-12v-28l2-14 5-19 3-6 4-5-1-3-5-5-11-12-41-41-8-7-25-25-7-8 1-2 8 4 4-3 5-2 12-2h24l15 3 6 3 9 3 7 5 3 1-1-5-5-8-4-13-3-16v-24l4-20 1-8 9-14-7 3-4 2v2l-8 4-18 5-13 2-13-1-17-3-3-2 2-4 14-14-5 4-12 12h-2l2-4 2-3-5 4-7 1-8-5-7-2 3 5 6 9v6l-10 9-11 11 7-6 13-12 4-3-2 6 3 1 3 9 1 11v19l-4 10-3 10 1 5 2 4h-3l-5-5-3-2 4 7-2 5-4 6-2 1v3l4-1 8-5h5v2l6 5 6 4 5 6v2l4 2 3 3-1 4h-2l-2 4-6 4-5 4h-2v2l-8 5-16 12-9 8h-2l-1 3-9 6v2h-5l-16-12-2-1 2 6 9 12 1 4-5 4-18 18-1 2h-2l-2 4h-2l-2 4-9 10-9 11-9 12-5 9h-2l-2 4-3 2-2 6h-2l3-9 6-8 1-4-5 1-5 5-8 4-18 6-10 2-18 1-4 1-6-5-7-4-2-5h-2v-2h-2v-2l-3-1-5-5v-2h-2l-7-8-3-3 1-4 8-6 2-3h3v-2l11-9 5-6 3-5 8-7 47-47h2l2-4 6-5 7-8 12-12 7-8 9-10 7-7 2-4h2l2-4 13-13 6-7h2l1-3h2l2-4 3-4v-6l-10-9-12-11-15-15-1-3-4-2v-3l-3-1 1-3 16-11 20-13 20-12 23-13 30-15 25-11 30-12 19-7 36-11z" fill="#FDD262"/>
<path transform="translate(1374,1279)" d="m0 0 2 1 6 20 18 49 13 37 11 30 11 31 13 35 9 25 32 88 7 20 13 34 14 40 8 21 4 14v17l-4 12-6 8-8 7-10 5-8 2h-12l-16-4-15-6-29-10-19-7-25-9-34-12-28-10-19-5h-9l-10 3-3-1 1-1-3-1 2-11h-6v-6-2l-3-9-2-3-3-9-9-24-5-13-3-10-3-5-6-18-4-10-4-12-4-13-3-7-3-13-4-10-4-13-3-9v-4h-2l-7-20-6-15 1-8 6-3 3-2h4v-2l13-6h2l1-3 7-3 4-2h4v-2l9-5h3v-2l9-5 10-6 14-8 5-4 6-2h2v-2h-3v-3h-2v-2h-2v-2h-2v-2h-2v-2h-2v-2h-2v-2h-2v-2h-2v-2h-2l-7-8-10-10h-8l-1 3-11 5-4 1-5 5-2-1 15-14 5-5 3-1 1 5 7-1v-4l10-5 11-8 14-10 13-10 14-11 10-9 10-8 16-15 13-11z" fill="#DF644D"/>
<path transform="translate(1568,694)" d="m0 0h2l5 46 2 31v37l-3 42-5 42-7 40-9 38-11 35-13 37-12 28-13 29-13 23-16 28-13 21-14 20-14 19-14 17-9 11-9 10-7 8-11 12-7 8-1 3-9 6-15 14-12 11-10 8-14 12-32 24-12 8-8 5h-3v4l-8 2v-6l-5 2 3-5 2-1-1-4 3-1h5l9-10 18-18 8-7 47-47 8-7 7-7 8-7 41-41 7-8 15-16 7-6v4l2-4-1-4h-2l-19-19-7-8-15-16-16-16-6-4-14-12-33-33-7-8-40-40-5-6-2-1v-3l4 2 18 18 8 7 20 20 8 4v-2l4-4 4-8 10-19h2l1-5 6-12 6-13 7-15 10-29 4-12 3-7 4-14 6-23 3-18 2-10v-7l1-3-9 6-28 28-5 4-6 7-8 7-7 8-8 7-13 13-8 7-32 32-2-1 43-43 6-5 7-8 4-4h2l2-4 8-7 9-10 10-9 35-35 7-9 12-13 11-11 3-1v4l3 1 7 8 14 13 7 6v2l5-1-8-7-9-9-7-8-8-8-3-2v-3l8-7 21-21h2l2-4 16-15 8-7 8-8 8-7 9-9 7-8 17-17 6-5 5-3h2l1-3 11-9z" fill="#FDD262"/>
<path transform="translate(1399,864)" d="m0 0h2v11l-2 11-6 29-3 11-6 19-3 8-5 14-8 22-6 13-3 7-2 1-1 5-7 14-1 3h-2l-2 6-8 15-5 9-3 1v2l-5-1-10-9-19-19-8-7-14-14-2-1v3l4 2 12 13 38 38 7 8 30 30 11 9 8 6 23 23 7 8 15 16 9 8v2h2l2 5-4 4v-4l-14 14-7 8-15 16-39 39-8 7-7 7-8 7-47 47-8 7-18 18-3 4h-8l-1-4-9-10-20-20-7-8-20-20-3-5v-2l11-6 3-2h3v-2l16-10 10-8h2v-2l4-1 1-3 16-12 3-1v-2l5-2 1-3 7-5 5-5 12-11 23-23 7-8 11-13 10-12 11-14 7-9 10-13v-3l-4-2-11-10-8-7-21-21-5-4-3 1-2 5-7 11-12 16h-2l-2 4-5 7-5 5-8 9-8 10-8 7-29 29h-2l-1 3-10 8h-2l-1 3-14 11-12 9-22 15-14 9-7 6-6-2-49-49-4-2v-2h-2l-1-3-3-2 1-4 66-66 7-8 8-7 7-8 10-9 9-9 3-5 8-9 8-7 11-12 8-8 7-8 18-18 3-5 6-4 14-14 5-3 36-36 8-7 9-9h2l2-4h2l2-4 7-7 6-5 7-8 12-11 22-22z" fill="#FDD262"/>
<path transform="translate(359,526)" d="m0 0 3 1v20l-2 12-8 22-6 9-3 5 3 1 11-6 10-5 17-5 11-2h13l1 5-6 13h-2l-1 4-12 36-6 19-2 10-6 26-4 22-3 31-1 12-1 38v7l-1 7-9 5h-2l1 4 5-3 12-12 8-7 19-19 8-7 16-15 13-13 8-7 2-1-2 4-29 29-8 7-13 12-27 27-4 7 1 5 7 8v2l5 2 13 12 7 10 5 5 5 2-2 3-7-5v-2l-4-2-6-4-5-5-3-5-12-11-4-2 3 6 3 4 2 28v9l4 16 2 10 8 27 6 20 5 12 3 10 5 12 9 20 9 19 12 22 6 10 7 11 6 9 1 5h1l8-7 8-9 7-8 24-24 8-7 30-30 7-8 8-7 13-13v3l-28 28 4 8-5-3-2-2-60 60-9 11-8 9v7l3 3 1 3 4 4 12 16 12 13 12 14 8 8v2l3 1 7 8 5 4v2l4 2 8 8 11 9 14 12 16 11 10 7 11 7 14 9 15 9 11 7 2 4-8 7-13 13-4 5-11 9-6 7-9 4-11-6-6-4-20-12-14-10-16-12-11-9-10-9-8-7-10-9-3-3v-2l-4-2-8-8v-2h-2l-4-6-8-8v-2h-2l-7-8-8-8-7-9-12-15-5-7v-2l-4-2-4-1-5 4h-2l-2 4-4 2-2 4-4 4h-2l-2 4-20 20-1 2v6l3 3v2l4 2 24 24v2l3 1 5 5v2l4 2 38 38 2 4 5 5 1 3h2v2h2v2h2v2h2v2l-4-2-5-5-5-3-16-16v-2l-4-2-9-9-7-8-16-16-2-3-5-3-14-14-3-5-10-10-6-5v-4l5-3 17-17 6-7 7-6 5-5 7-6 4-5v-4l-4-2-1-5-5-7-4-4-4-7-3-5-1-5h-2l-9-15v-3h-2l-22-44-5-13-5-12-6-17-6-16-11-38-2-4-1-9-2-7-3-20-3-12-4-1-3 3h-3l-1 4-10 11-7 8-23 23-5 3-4 4-2-1 7-7 7-8 26-26 8-10 9-9 7-8 12-12 2-4-3 3h-2l-2 4-8 8h-2v-3h3l-1-5-3-1-2-11-2-28-1-25 1-18-2-6-8-12-5-3-9-11-18-18-1-4-7-6-5-6-3-2v-2l-5-2-5-5v-2l-4-2-10-11v-2l-5-2v-2l-4-2 3-1 9 6 19 19 8 7 24 24 2 4 3 3v2l4 2 5 7v2l3 1v3h3l5 5 2 1-1-6h2l1-21 2-12 4-33 4-20 7-27 3-12 5-16 3-10 3-8 5-13 3-7 2-1 3-11 3-7 10-23 3-4z" fill="#E4BE59"/>
<path transform="translate(1053,122)" d="m0 0v3l-7 8-10 10-7 8-51 51-3 5 3 2 45 9 22 6 14 5 17 5 7 3 6 2 19 7 24 10 19 8 13 7 17 9 15 9 14 9 9 6 5 2v3l8-6 13-13 5-4 2 1-6 6h-2l-2 4h-2l-1 4-2 3h-2l-2 4-2 3 1 7 4 2 12 8 13 10 7 6v2l5 2 11 10 5 4 5 6 2 1v2l3 1 7 8 17 17v2h2l8 10v2h2l3 4v2h2l7 9 5 5 8 10 14 20 16 24 4 7 3 7 8-7 11-12 17-17 3 1-9 11-16 16-10 13 1 5 6 11 5 11 16 36 10 25 12 36 8 32 7 40 4 34 3 37-1 10-5 5-4 2-2 4h-2v2h-2v2h-2l-2 4h-2l-1 3-5 4-8 8h-2l-1 3-5-2-16-17-13-15-15-15-8-7-6-5v-2h-2l-7-8-15-15v-2l-3-1v-2l-4-2 1-2 5 3v2l3 1 3 5 19 19 5 3v2l4 2 15 14 9 9h2v-13l-2-31-4-33-3-14-2-12-6-26-8-27-10-28-9-19-8-16-5-8-6 2-37 37-8 7-13 12-23 23v-3l30-30 8-7 13-12 7-8 24-24 7-8 39-39-4 3h-2l-2 4-8 8h-2l-1 3-8 7-11 11h-4l-4-1-6-7-6-11-6-12-4-5v-3h-2l-7-12-5-5-8-11-1-4-4-2-10-13v-2h-2l-7-9-6-7-6-5-4-4v-2l-4-2-5-4v-2l-4-2-4-4v-2l-5-2v-2h-2v-2h-2v-2h-2v-2h-2v-2l-4-2v-2l-4-2-3-2v-2l-5-2-7-6v-2l-4-2-6-4v-2l-5-2-6-5-8-1-8 8-8 7-7 8-15 16-3 3-4 2-20 20-2-1 35-35h2l1-4 46-46 5-7h2v-2l-2-1-2 4-3 4h-2v2h-2v2h-2l-1 3-11 9-4 2v-2l-5-2-17-10-14-8-12-6-19-10-17-8-25-10-17-6-18-6-26-7-20-4-17-3-21-3-15-2-14-1-6-1-9 8-1 6 1 2-6-3v-4l4-1 2-4 12-12 11-9 46-46 8-7 60-60 7-8z" fill="#E4BE59"/>
<path transform="translate(603,215)" d="m0 0v3l-15 15v2l12 3 14 2 14-1 20-5 9-4h2v-2l7-5h4l-2 5-6 9-1 8-4 20v24l5 24 4 9 4 6-1 3-4-1-10-6-9-3-11-3-6-1h-24l-12 2-7 3-2 2-8-4 3 5 34 34 8 7 44 44 5 7 4 3-2 4-4 7-5 17-2 8-1 10v28l1 12 1 3 2 1v2l-3 3-1 2h-2l-2 4h-2l-2 4-7 8-8 7-1 4-36 36-8 7-12 12-8 7-9 9h-2l-2 4h-2l-2 4-8 8-5 2-4 5-6 5-7 8-23 23-1-3 11-11 7-8 6-5 5-8-1-4-16-17-14-13-8-6v-2l-4-2-15-14-6-8-8-7-12-11-3-1 1 8 3 7 4 10 4 6 1 6-6-1-8-5-22-7-11-1-25 4-17 5-17 9-5 2-3-3 8-11 7-18 3-12 1-6v-26l-3-16-6-15v-4l7 1 16 8h7l2-3 5 3 4 3 3 1 1-2 18-1 16-4 9-3 7-3 6-4 5-4 4 1-3 7-5 7-3 7h2l2-7 5-5h2l2-6 8-11 11-13 9-11 4-5 4-4h2l2-4 20-20h2l-6-10-6-8-1-5 7 4 12 9 4-1 10-7 5-5 9-8 14-10 6-4h2v-2l8-6 6-4 3-3-1-4-5-4-6-8-5-3-7-6-4-1-9 6-4-1 1-4h2l2-5 3-4-2-6-2-5 8 6 1 3 2-1-3-5 2-9 4-13 1-1v-19l-2-16-2-4h-3l2-6-11 11-8 7-3 3-2-1 19-19 2-1v-6l-6-9-2-2v-3l7 1 8 5 7-1 5-4 2 1-6 7 8-7z" fill="#FDD162"/>
<path transform="translate(733,115)" d="m0 0 4 1 1 6 4 2 9 11 62 62 3 5 1 4-25 4-35 7-17 4-24 7-19 6-21 7-8 4h-4l-3 2-1-7 4-8 6-9-7 3-4 2v2l-8 4-18 5-13 2-13-1-17-3-3-2 2-4 14-14-5 4-12 12h-2l2-4 2-3-5 4-7 1-8-5-7-2 3 5 6 9v6l-10 9-11 11 7-6 13-12 4-3-2 6 3 1 3 9 1 11v19l-4 10-3 10 1 5 2 4h-3l-5-5-3-2 4 7-2 5-4 6-2 1v3l4-1 8-5h5v2l6 5 6 4 5 6v2l4 2 3 3-1 4h-2l-2 4-6 4-5 4h-2v2l-8 5-16 12-9 8h-2l-1 3-9 6v2h-5l-16-12-2-1 2 6 9 12 1 4-5 4-18 18-1 2h-2l-2 4h-2l-2 4-9 10-9 11-9 12-5 9h-2l-2 4-3 2-2 6h-2l3-9 6-8 1-4-5 1-5 5-8 4-18 6-10 2-18 1-4 1-6-5-7-4-2-5h-2v-2h-2v-2l-3-1-5-5v-2h-2l-7-8-3-3 1-4 8-6 2-3h3v-2l11-9 5-6 3-5 8-7 47-47h2l2-4 6-5 7-8 12-12 7-8 9-10 7-7 2-4h2l2-4 13-13 6-7h2l1-3h2l2-4 3-4v-6l-10-9-12-11-15-15-1-3-4-2v-3l-3-1 1-3 16-11 20-13 20-12 23-13 30-15 25-11 30-12 19-7 36-11z" fill="#FDD363"/>
<path transform="translate(598,1303)" d="m0 0 4 1 16 8 17 9 33 15 31 11 36 10 30 7 26 5 26 4 29 3 15 1h15l-6 8-34 34-3 5-4 4h-2l-2 4h1l15-15 7-8 14-14 7-8 21-21 4 1 1 4 4 2 5 3 6 1 42 42 7 6 24 24 8 7 10 9 1 4-2 2-15 2-4 2h-10l-19 2-3 4-1-3-41 2h-44l-26-1-15-1-13-2-35-5-27-5-44-10-21-5-16-5-17-6-55-22-6-4-7-8-29-29-8-7 4 5 18 18 4 5 5 4 5 7-5-2-10-5-19-10-10-6-12-6v-3l3-5 5-4 2-3 7 2 1-8z" fill="#FDD262"/>
<path transform="translate(809,564)" d="m0 0h3l6 7 8 7 59 59 4 3v2h-2l-2 4-30 30v2h-2l-1 3-8 7-14 14-7 8-39 39h-2v2l-8 7-12 12-7 6-7 8-7 7h-2v2l-5 3-6 7h-2v2l-8 7-9 10-8 7-3 5-8 8h-2l-2 4-3 1-2 4-2 2h-3l-7-8-51-51-2-1v-2l-4-2-13-12-3-2v-2l-4-2-12-11-9-9-8-7-12-13-6-10-1-4v-14l4-12 6-8 6-5 4-1 8 7 7 8 100 100 8 7 14 14 2 1v2l3 1v2l4-1-2-5-12-11-32-32-6-5-7-8-50-50-11-9-10-10-7-8-3-5 10 1 3-2 21-3 29-4 33-5 21-3 40-6 26-5 9-3 8-7 12-19 15-29 8-18z" fill="#E3BE59"/>
<path transform="translate(1070,1548)" d="m0 0 5 2 28 28 7 8 33 33 3 2v2l4 2 1 3 4 1v2l4 2 8 7 46 46v2l4 2 13 14 7 8 7 6 3 2-1 6-22 22-4 5h-2l-2 4h-2l-2 4-7 8-4 3h-2l-2 4-4 4h-2l-1 3-8 7h-2l-2 4-3 3h-3l-2 4h-2l-2 4h-2l-2 4h-2l-2 4h-2l-2 4-4 4h-2l-2 4h-2l-2 4h-2l-1 4-6 4-2 3h-2l-2 4h-2l-2 4-4 4h-2l-2 4h-2l-2 4h-2l-2 4h-2l-1 3h-5l-1-3-2-1-2-6h-2l-2-12-3-5v-3h-3l-2-9-2-2v-7l-4-1-1-12-3-6v-4l-4-1-2-7-2-3v-9l-4-2-1-9-4-5 1-8-4-1-1-9-2-7-3-11-5-13-3-9-6-12-3-8-1-7-3-5-3-9 1-2-2-1-4-12-1-7h-2l-3-9-2-3-1-8-2-1 1-6 8-7 5-5h2l2-4 5-5 5-6 7-6 7-8 12-13 3-3h2v-2z" fill="#BD5642"/>
<path transform="translate(1121,142)" d="m0 0h7l33 13 31 15 16 8 20 11 22 13 23 15 14 10 18 13 17 14 11 9 11 10 8 7 16 15 24 24 7 8 9 10 9 11 10 12 13 17 13 18 12 18 12 19 13 23 13 24 13 27 15 36 4 12-1 3-10-10-3-2v-2l-4-2-5-6-8-7-63-63h-4-3-2l-23 23-7 8-5 4h-1l-2-7-4-5-3-6-10-15-7-10-8-12-13-16v-2l-4-2-5-6v-2h-2l-3-4v-2h-2l-7-9-1-3h-2v-2l-4-2-9-10-14-14v-2l-4-2-6-7-11-9-7-5-5-6-11-8-14-10-6-4-2-3 1-5 4-6h2l2-4 1-3 8-7 2-3-7 6h-2l-2 4-10 10-5 2 6-7 10-11h2l2-4 5-4 3-4-1-4-12-12-12-11-14-15-73-73v-2l-4-2-4-5-7-6-4-5z" fill="#FDD262"/>
<path transform="translate(708,1549)" d="m0 0h5l10 10 8 7 5 5v2l3 1v2h2l5 6v2l4 2 8 7 2 4 4 2 6 7 2 7-1 8-7 19-4 2-3 9-3 10-2 2-5 15v6l-3 1-7 21h-2l-1 8-4 14-3 1-1 7-2 2-1 8-4 7-5 14-2 6-6 16-2 3-2 6-2 10-3 4-3 9-2 7-1 4h-2l-1 13-4 2-1 7-5 8-4 1-2-1v-2l-4-2-8-8-6-8-2-4-4-2-10-11-32-32-11-9-45-45v-2l-4-2-4-5-5-4 2-6 1-2h2v-2h2l2-4 3-1 1-3 14-14h2v-2l7-6 27-27 7-8 5-5h2l2-4 18-18 10-8 4-4h2l2-4 3-4h2l2-4 14-15 17-17 3-4h2l2-4 7-7z" fill="#BD5642"/>
<path transform="translate(1073,464)" d="m0 0h3v2l3-1 3 3 6 3 52 52 5 6 6 5 26 26 7 8 5 4 7 8 6 5v2l3 1 5 6 8 7 15 15 7 8 12 12 1 2-3 6-9 9-1 2h-2l-2 4-7 7-8 7-7 7-7-2-36-5-49-7-34-5-36-6-19-3-15-3-11-4-7-6-12-21-11-22-11-19 1-4 4-7 5-2 47-47 7-8 14-15 9-10z" fill="#FDD262"/>
<path transform="translate(349,1551)" d="m0 0 4 1 4 3v2h3l6 7 7 6v2h2v2h2l4 5 7 5 29 29v2l4 2 8 7 47 47 7 8 7 7 9 7 23 23 5 4 1 3-4 7-6 5-6 2-7-10-5-5-5-4-13-5-14-1-19 5-31 11-30 11-40 14-42 15-18 6-6 1h-10l-11-3-7-4-10-9-5-7-4-12v-13l5-18 11-29 12-34 3-6 3-1 1-6 4-9 5-8 8-9 4-4 3-1 5-6 6-5 5-5 3-1v-2h2v-2l7-6 5-6 6-5 4-4 5-3z" fill="#DF644D"/>
<path transform="translate(1431,1548)" d="m0 0 4 1 44 44 3 5 5 5 2 3 4 1 16 42 14 40 8 21 4 14v17l-4 12-6 8-8 7-10 5-8 2h-12l-16-4-15-6-29-10-19-7-25-9-34-12-28-10-19-5h-9l-10 3-3-1 1-1-3-1 2-11h-2l1-3 8-7 20-20h2l2-4 4-2v-2h2l2-4 7-6 5-5 4-5 8-7 7-8 8-7 9-7 15-15 7-8 3-3h2l1-3 7-6 1-2h2l2-4 5-5 14-15z" fill="#DF644D"/>
<path transform="translate(712,463)" d="m0 0 1 2h5l5 3 7 6 5 5v2l4 2 15 15 7 8 25 25 8 7 5 6 15 15 1 8-3-1v-2h-3l-2 7-7 15-13 26-10 17-8 11-7 6-13 4-36 6-37 6-22 3-33 5-17 2-21 3-5 2-9-2-16-15-13-13v-2l-4-2-2-2 5-5 4-5 5-2 8-8 5-6 8-7 9-9 8-7 12-12 8-7 30-30v-3l7-7 6-5 5-7 4-4h2l2-5 8-7 25-25 1-2h2l2-4 10-10z" fill="#FDD262"/>
<path transform="translate(517,1378)" d="m0 0 5 1 9 6 24 13 18 9v2h2v2l4 2 11 10v2h2v2h2v2h2v2h2v2l4 1 4 4v4l4 2 7 6 8 7 8 8 5 4 7 8 3 5 12 12 7 8 38 38v5l-7 8-8 7-6 5-6 7h-2v2l-10 10h-2l-2 4h-2l-1 4-13 13-4 6-5 4-1 2h-2l-1 3-5 4-8 7-8 8-8 7-14 14h-2l-2 4-20 20-6 7-8 7-16 16h-2l-1 3-8-1-29-29-1-4 4-4 7-17 5-12 8-25 4-10 7-21h2l1-6 3-8 4-11 5-13 4-12 4-10 4-11 10-29 4-10 4-13-2-4-6-2v-2l-5-1-8-4-3-1v-2l-6-1-17-8-8-5-8-4-3-1-3-3-14-8-6-4-5-2 4-7h2l2-4 22-22z" fill="#BD5642"/>
<path transform="translate(480,1419)" d="m0 0 8 2 7 5 11 6 3 2v2l6 1 5 3 8 5 19 9 4 1v2l5 1 7 4 4 1v2l6 1 3 5-3 10-4 12-4 10-9 27-4 10-6 16-5 13-4 11-5 14h-2l-1 7-4 12-3 7-8 24-6 16-6 13-3 8-5 3-20-20v-2l-3-1-4-6-17-17v-2l-4-2-4-4v-2l-4-2-4-3v-2l-4-2-8-8-6-5-7-8-10-10-6-5-7-8-18-18-2-4-4-2-5-6 1-4 2-4 2-1 1-3h2l2-4h2l2-4h2l1-4 6-5 3-3h2v-3l5-2v-2l4-4h3l1-4 6-5 6-7 6-5 6-7h2l1-3 7-6 5-5 8-7h2v-2l8-7 4-2 2-4 15-15z" fill="#DE644D"/>
<path transform="translate(966,571)" d="m0 0h2l-1 6 9 16 12 23 10 18 6 8 10 5 13 3 16 3 45 7 34 5 57 8 28 4 5 2v3l-5 5-14 13-2 3h-2l-2 4-6 7-7 6-18 18-5 6h-2v2h-2v2l-8 7-15 15-8 7-16 16h-2l-2 4-12 12-5 2-7 1-5-5-6-5v-2h-2v-2h-2l7 8 9 9 3 5-4-2-35-35-7-8-12-12-8-7-112-112v-3l-3-1 40-40 8-7 10-9z" fill="#E3BD59"/>
<path transform="translate(1257,1373)" d="m0 0 5 1 16 16v2h2v2h2v2h2v2h2v2h2v2h2v2h2v2h2v2h2v3h3v2l-8 3-5 4-14 8-10 6-7 4h-2v2l-10 5h-2v2l-8 3-7 3-3 3-10 5h-3v2l-7 3-6 2v8l7 17 5 14v4h2l4 13 7 22 2 7 4 13 2 3 3 11 6 17 3 8 5 15 3 5 3 10 5 13 7 19 4 9 2 6 3 10 2 2-1 4v2l5 1-1 9-1 2 4 1-2 1v2l-10 6-5 5-8 1-3-2 1-5 5-6-7 5-5-1-6-9-6-6v-2l-4-2-8-10-5-5-7-8-5-4-4-5-2-1v-2h-2v-2h-2v-2l-4-2v-2l-4-2-8-8v-2l-4-2-4-4v-2l-4-2-4-4v-2l-4-2-12-11-7-6v-2l-4-2-4-5-7-6-7-8-5-4-6-7-5-5-9-8v-2l-4-1-2-1-3-5-7-7v-2l-3-1 2-4h2l2-4 73-73 7-8 3-3 4-2 7-8 5-6 8-7 13-12 9-11 9-9 8-7 6-5h2l1-3 13-5 3-3z" fill="#BD5642"/>
<path transform="translate(1374,1279)" d="m0 0 2 1 6 20 18 49 13 37 11 30 11 31 13 35 9 25 32 88 3 9v3l-4-1-4-6-5-5-1-4-4-2-40-40h-3l-13 13-9 11-4 4h-2l-1 3-7 6-5 5-5 6h-2l-2 4-11 11h-2l-2 4-14 11-6 7h-2l-2 4-7 6-6 7h-2l-2 4h-2l-1 3-5 5h-2v2l-5 4-29 29-7 3 1-5 9-10 10-10 7-6 1-2h2l2-4 8-7 12-12h2l2-4 8-7 10-9 5-2 2-4 2-3h2l2-4 27-27h2l2-4 10-10 1-2h2l2-4 4-5h2l3-6h2l2-4h2v-2h2l2-5-1-4-6-5-7-8-8-8-7-8-9-9-5-4-5-5v-2l-3-1-8-8v-2l-4-2-5-6-6-5-17-17-8-7-24-24-4-5v-2h-3v-3h-2v-2h-2v-2h-2v-2h-2v-2h-2v-2h-2v-2h-2v-2h-2v-2h-2l-7-8-10-10h-8l-1 3-11 5-4 1-5 5-2-1 15-14 5-5 3-1 1 5 7-1v-4l10-5 11-8 14-10 13-10 14-11 10-9 10-8 16-15 13-11z" fill="#DF644D"/>
<path transform="translate(910,267)" d="m0 0 16 2 12 1 24 3 13 3 17 3 18 4 11 3 17 5 18 6 26 10 20 9 16 8 16 9 14 7 15 9 12 7-2 5-11 11-3 4h-2l-1 3-6 5-7 8-11 11h-2l-2 4-12 12-8 7-15 14-11 10-5 5-5 1-10-10-8-7-1-3-4-2v-2l-4-2-25-25-7-8-50-50-8-7-7-8-12-12-8-7-7-8-8-7-12-12-2-4 1-6z" fill="#FDD262"/>
<path transform="translate(401,1288)" d="m0 0 1 2 4 2 13 10 9 7 4 4 11 9 9 7 14 11 9 8 16 12 4 2v2l5 2 3 2v2l4 1 3 1v2l3 1-2 5-8 7-3 1-2 4-6 7-4 1-2 4h-2l-1 3-6 5-2 4-5 4-8 10-7 6-5 5-4 5h-2v2l-8 7-11 11-8 7-7 8-22 22h-2l-2 4-9 10-3 3h-2v2l-8 7-6 5h-2v2h-7l-15-15-3-2v-2l-4-2-5-5-3-2v-10l11-31 8-21 13-35 16-45 7-19 9-26 5-6 4-3h2l-1-8 4-4 1-4h-2l1-3 3-1z" fill="#DF644D"/>
<path transform="translate(359,526)" d="m0 0 3 1v20l-2 12-8 22-6 9-3 5 3 1 11-6 10-5 17-5 11-2h13l1 5-6 13h-2l-1 4-12 36-6 19-2 10-6 26-4 22-3 31-1 12-1 38v7l-1 7-9 5h-2l1 4 5-3 12-12 8-7 19-19 8-7 16-15 13-13 8-7 2-1-2 4-29 29-8 7-13 12-27 27-4 7 1 5 7 8v2l5 2 13 12 7 10 5 5 5 2-2 3-7-5v-2l-4-2-6-4-5-5-3-5-12-11-5-5-4-3-4-1-2 4-7 7-8 7-11 11-7 8-14 13h-2v2l-7 6-3 5-9 10-7 8-23 23-5 3-4 4-2-1 7-7 7-8 26-26 8-10 9-9 7-8 12-12 2-4-3 3h-2l-2 4-8 8h-2v-3h3l-1-5-3-1-2-11-2-28-1-25 1-18-2-6-8-12-5-3-9-11-18-18-1-4-7-6-5-6-3-2v-2l-5-2-5-5v-2l-4-2-10-11v-2l-5-2v-2l-4-2 3-1 9 6 19 19 8 7 24 24 2 4 3 3v2l4 2 5 7v2l3 1v3h3l5 5 2 1-1-6h2l1-21 2-12 4-33 4-20 7-27 3-12 5-16 3-10 3-8 5-13 3-7 2-1 3-11 3-7 10-23 3-4z" fill="#E4BE59"/>
<path transform="translate(1433,823)" d="m0 0 1 4 3 1 7 8 14 13 7 6v2l4 1-1 13-6 32-5 23-8 30-3 7-4 13-13 34-9 22-10 24-8 17-7 11-6 11-11 17 1 7 40 40v2l4 2v2l4 2 8 10-1 2-10-9-9-9-7-8-15-16-16-16-6-4-14-12-33-33-7-8-40-40-5-6-2-1v-3l4 2 18 18 8 7 20 20 8 4v-2l4-4 4-8 10-19h2l1-5 6-12 6-13 7-15 10-29 4-12 3-7 4-14 6-23 3-18 2-10v-7l1-3-9 6-28 28-5 4-6 7-8 7-7 8-8 7-13 13-8 7-32 32-2-1 43-43 6-5 7-8 4-4h2l2-4 8-7 9-10 10-9 35-35 7-9 12-13 11-11z" fill="#E4BE59"/>
<path transform="translate(1568,694)" d="m0 0h2l5 46 2 31v37l-3 42-5 42-7 40-2 9h-2v-2l-4-2-10-8v-2l-4-2-13-13-8-7-49-49-8-7-9-9-7-8-8-8-3-2v-3l8-7 21-21h2l2-4 16-15 8-7 8-8 8-7 9-9 7-8 17-17 6-5 5-3h2l1-3 11-9z" fill="#FDD262"/>
<path transform="translate(567,969)" d="m0 0v3l-28 28 4 8-5-3-2-2-60 60-9 11-8 9v7l3 3 1 3 4 4 12 16 12 13 12 14 8 8v2l3 1 7 8 5 4v2l4 2 8 8 11 9 14 12 16 11 10 7 11 7 14 9 15 9 11 7 2 4-8 7-13 13-4 5-11 9-6 7-9 4-11-6-6-4-20-12-14-10-16-12-11-9-10-9-8-7-10-9-3-3v-2l-4-2-8-8v-2h-2l-4-6-8-8v-2h-2l-7-8-8-8-7-9-12-15-5-7v-2l-4-2-4-1-5 4h-2l-2 4-4 2-2 4-4 4h-2l-2 4-20 20-1 2v6l3 3v2l4 2 24 24v2l3 1 5 5v2l4 2 38 38 2 4 5 5 1 3h2v2h2v2h2v2h2v2l-4-2-5-5-5-3-16-16v-2l-4-2-9-9-7-8-16-16-2-3-5-3-14-14-3-5-10-10-6-5v-4l5-3 17-17 6-7 7-6 5-5 7-6 9-11 5-5 11-10h2l2-4h2l2-4 6-5 6-7 11-9 10-10 7-9 27-27 8-7 30-30 7-8 8-7z" fill="#E3BD59"/>
<path transform="translate(1188,1071)" d="m0 0v3l-16 16-8 7-15 15-7 8-61 61v3l3 2v3h2v2l5 2 49 49 5 1 8-7 13-8 16-11 10-7 9-7 10-8 9-8 7-5 22-22h2l2-4 12-12h2l2-4 3-4h2l2-4 3-4h2l2-4 3-4h2l2-4 5-7 5-5 12-17 6-10h2l1-2 13 12 14 14 12 11 10 8 1 3-11 14-6 8-12 15-9 11-9 10-7 8-9 10-25 25-6 5h-2l-1 3-7 5-4 4h-2v2l-16 12-6 5h-2v2l-11 8-15 10h-2v2l-8 4-7 4h-2l6 9 24 24 7 8 21 21 3 4v2l-4-2-12-12v-2l-4-2v-2l-3-1-7-8-1-3-4-2v-2l-4-2-5-6-12-12-8-7-16-16-8-7-16-15-8-9-8-7-15-16-13-13v-2l-4-2-15-15-4-3v-3l-3-1-1-2-4-1 18-18 7-8 12-11 33-33 8-7 17-17 8-7z" fill="#E4BE59"/>
<path transform="translate(648,1253)" d="m0 0 1 3 4 1 15 7 29 11 35 11 26 7 16 4 47 8 14 1 2 4 4 2 9 11 39 39-1 4-6 7-5 4-5 1h-12l-26-2-32-4-21-4-39-8-36-10-30-10-19-8-18-8-19-10-16-8-3-2-4 1-54 54-2 7-2-2 1-5 57-57 8-7 9-9 8-7 10-9 7-8z" fill="#E3BD59"/>
<path transform="translate(1133,1247)" d="m0 0h2v2l4 2 4 4v2l3 1 7 8 5 4 5 5 13 12 6 5 1 5-19 11-28 14-16 7-12 5-20 8-35 12-21 6-26 6-32 6-46 5h-14l-8-7-5-5-1-4 48-48 3-5 22-22 7-8 7-7 8-7 8-8v3l-13 13-8 7-15 16-9 9 16-2 31-7 20-5 29-9 25-9 13-5 23-10 17-9z" fill="#E3BD59"/>
<path transform="translate(1238,299)" d="m0 0 2 1-3 4h-2l-2 4-2 3 1 7 4 2 12 8 13 10 7 6v2l5 2 11 10 5 4 5 6 2 1v2l3 1 7 8 17 17v2h2l8 10v2h2l3 4v2h2l7 9 5 5 8 10 14 20 16 24 4 7 2 3v6l-3 3-5 3-4 2-2 4-8 8h-2l-1 3-8 7-11 11h-4l-4-1-6-7-6-11-6-12-4-5v-3h-2l-7-12-5-5-8-11-1-4-4-2-10-13v-2h-2l-7-9-6-7-6-5-4-4v-2l-4-2-5-4v-2l-4-2-4-4v-2l-5-2v-2h-2v-2h-2v-2h-2v-2h-2v-2l-4-2v-2l-4-2-3-2v-2l-5-2-7-6v-2l-4-2-6-4v-2l-5-2-6-5-7-2 5-4 6-7 8-7 10-10 3-4h2l2-4h2l2-4 6-7 4-6z" fill="#E4BE59"/>
<path transform="translate(886,451)" d="m0 0 8 1 10 5 5 4 10 15 15 30 13 27 11 23 6 12v3l-6 4-9 9-8 7-3 5-5 2-12 12-7 8-7 7-7 6-6 7-4-1-9-10-76-76-2-1 1-3 7 7 6 1 1-7 16-33 11-24 7-16 7-11 7-7 8-4z" fill="#E3BD59"/>
<path transform="translate(532,282)" d="m0 0v3l-8 8h-2v2l-7 6-7 8-4 5-5 5-3 5-20 20-7 8-8 9h-2l-2 4-5 4-5 6-7 6-7 8-34 34h-2l-1 3-11 9-7 7h-2v2l-8 7-5 4-1 6 4 4v2l4 2v2l4 2 8 7 5-3 4-2 2-6 5-6 1-3h2l2-5 8-11 1-3h2l2-4 3-4h2l1-4 8-9 1-2h2l2-5h2l1-4 4-4h2l2-4h2l2-5 5-6 5-5 7-8h2l2-4h2l2-4 4-4h2l2-4h2l1-3 8-7 10-9h2l2-4h2l1-3 7-5h2v-2l11-8 10-8 8-4 9-1 5 6 3 3 1 4-6 9-2 1v3l4-1 8-5h5v2l6 5 6 4 5 6v2l4 2 3 3-1 4h-2l-2 4-6 4-5 4h-2v2l-8 5-16 12-9 8h-2l-1 3-9 6v2h-5l-16-12-2-1 2 6 9 12 1 4-5 4-18 18-1 2h-2l-2 4h-2l-2 4-9 10-9 11-9 12-5 9h-2l-2 4-3 2-2 6h-2l3-9 6-8 1-4-5 1-5 5-8 4-18 6-10 2-18 1-4 1-6-5-7-4-2-5h-2v-2h-2v-2l-3-1-5-5v-2h-2l-7-8-3-3 1-4 8-6 2-3h3v-2l11-9 5-6 3-5 8-7 47-47h2l2-4 6-5 7-8 12-12 7-8 9-10 10-10 8-7 4-5h2l2-4 12-12z" fill="#E3BD59"/>
<path transform="translate(733,115)" d="m0 0 4 1 1 6 4 2 9 11 62 62 3 5 1 4-25 4-35 7-17 4-24 7-19 6-21 7-8 4h-4l-3 2-1-7 4-8 6-9-7 3-4 2v2l-8 4-18 5-13 2-13-1-17-3-3-2 2-4 14-14 3-5 51-51 7-8 10-10 5-7 1-4 8-4h2v-2l30-8z" fill="#FDD262"/>
<path transform="translate(526,406)" d="m0 0 7 2 14 7 19 7 12 2 12 1h26l18-2 21-6 8-5h3l4 5 4 3-2 4-4 7-5 17-2 8-1 10v28l1 12 1 3 2 1v2l-3 3-1 2h-2l-2 4h-2l-2 4-7 8-8 7-2 2-4-1-2-1-9-1h-31l-21 4-21 7-20 11-4 3h-2l2-4 10-17 8-21 5-20v-31l-4-24-5-17-9-16z" fill="#FDFDFD"/>
<path transform="translate(603,215)" d="m0 0v3l-15 15v2l12 3 14 2 14-1 20-5 9-4h2v-2l7-5h4l-2 5-6 9-1 8-4 20v24l5 24 4 9 4 6-1 3-4-1-10-6-9-3-11-3-6-1h-24l-12 2-7 3-2 2-8-4 3 5 34 34 8 7 44 44-4 5-12 5-20 5-13 1h-26l-20-2-18-6-18-8-8-4 4 9 8 15 5 17 4 24v31l-6 23-5 13-1-3 6-18 3-13 1-9v-18l-1-13-4-21-5-13-8-15-7-11-6-8-1-5 7 4 12 9 4-1 10-7 5-5 9-8 14-10 6-4h2v-2l8-6 6-4 3-3-1-4-5-4-6-8-5-3-7-6-4-1-9 6-4-1 1-4h2l2-5 3-4-2-6-2-5 8 6 1 3 2-1-3-5 2-9 4-13 1-1v-19l-2-16-2-4h-3l2-6-11 11-8 7-3 3-2-1 19-19 2-1v-6l-6-9-2-2v-3l7 1 8 5 7-1 5-4 2 1-6 7 8-7z" fill="#FDD363"/>
<path transform="translate(672,1137)" d="m0 0h2v2h2l44 44v2l4 2 5 6 8 7 8 8 3 6 25 25 5 4 7 8 14 14 5 2 9 9 8 7 10 9 5 5 5 6 8 7 23-1 41-1 27-1 4 2-3 2-2 5-4 1-1 4h-3v3l-8 7-4 5-6 4-9 10-5 5-4 2-1 3-6-2-4-2-6-4-30-30-9-11-4-4-20-2-41-7-32-8-19-6-20-6-25-9-21-9-5-3h-5l4-8 3-5 7-8 39-39 5-3 11-11-5-6-7-6-7-8-10-10-3-2v-2l-4-2-8-8z" fill="#FCD162"/>
<path transform="translate(810,206)" d="m0 0h6l12 13 8 8 5 6v2h2l7 8 11 11 10 8 4 5-1 1-37 4-29 3-26 5-17 4-11 3-15 4-25 8-22 8-16 6-10 4-4-1-4-16-2-11v-24l3-15 1-3 6-4v2l5-3 17-6 24-8 26-7 16-4 28-6z" fill="#E4BE59"/>
<path transform="translate(1015,956)" d="m0 0h11l5 3 3 4v19l-3 15-2 6 9-2 9-8 7-8 8-7 10-5 5-1h7l7 3 4 8-2 8 2 10 3-4h3l3 3-1 4-1 2 1 9 2 10 1 7 2 3 2 4h1v12h2l-1 3-5 2-2 7 2 1h-7l-5-3-5-5-2-3v-4l-8 7-7 6-4 2h-16l-6-3-7-8-3-10v-23l3-12-9 4-8-1-2 6-10 17-12 16-12 12-4 2h-9l-4-4-8-17-3-9-2-7-7 17-7 9-9 10-5 2h-15v-2l-4-2-4-5-2-6v-17l2-13 1-17 1-2v-8l-5 1-8 11-4 8-3 5h-2l-1 2 1-7-3-3-1-4 7-11 15-16 7-5 3-1h10l5 3 3 4 2 5v16l-5 26-1 9-2 9 3 4 5-2 5-6 7-11 6-14 3-14 2-15 4-10 5-4 5-2h6l4 3 1 9 2 44 2 16v6l4-3h2l2-4 7-9 11-17 3-5v-2l-8-6-6-9-2-8v-12l3-8 6-7z" fill="#F5D89B"/>
<path transform="translate(1399,864)" d="m0 0h2v11l-2 11-6 29-3 11-6 19-3 8-5 14-8 22-6 13-3 7-2 1-1 5-7 14-1 3h-2l-2 6-8 15-5 9-3 1v2l-5-1-10-9-19-19-8-7-14-14-5-2-6-4-4-3-10 9-16 16h-3l-2 4-14 14-7 8-5 4-7 8-4 2 6-7 4-5 8-7 11-12 8-8 7-8 18-18 3-5 6-4 14-14 5-3 36-36 8-7 9-9h2l2-4h2l2-4 7-7 6-5 7-8 12-11 22-22z" fill="#FDD261"/>
<path transform="translate(271,1098)" d="m0 0 7 4 8 7 14 14 3 4v2l4 2 35 35v2l4 2 4 4 1 3 1-3 4 1 6-4 2-3h2l2-4 4-4h2l2-4 2 1-7 8-14 14h-3l2 5 12 11 5 5 3 5 13 13 5 3 7 8 16 16 7 8 6 5 7 8 11 11 5 3 14 15 4 1 3 2v2l3 1 5 6 5 5 4 1 41 41v3h-2v7l-8 7-5 3-4-2-12-7-11-8-10-7-11-9-13-11-22-18-10-9-8-7-10-9-4-4-6-2-3-6-9-10-13-14-9-11-10-11-7-9-12-15-12-16-18-27-10-17-8-13-10-18v-10l-4-4z" fill="#FDD262"/>
<path transform="translate(1257,284)" d="m0 0 4 1 8 7 136 136 2 1v2h2l5 5 9 10 9 9 3 5-5 5h-2l-2 4h-2l-2 4h-2l-2 4h-2l-2 4-4 4h-2l-2 4-8 8h-2l-6-9-3-6-10-15-7-10-8-12-13-16v-2l-4-2-5-6v-2h-2l-3-4v-2h-2l-7-9-1-3h-2v-2l-4-2-9-10-14-14v-2l-4-2-6-7-11-9-7-5-5-6-11-8-14-10-6-4-2-3 1-5 4-6h2l2-4 1-3 8-7z" fill="#FDD261"/>
<path transform="translate(563,677)" d="m0 0 5 3 14 15 97 97 8 7 14 14 2 1v2l3 1v2l4-1 1-3 2 2-4 5-8 7-3 5-8 8h-2l-2 4-3 1-2 4-2 2h-3l-7-8-51-51-2-1v-2l-4-2-13-12-3-2v-2l-4-2-12-11-9-9-8-7-12-13-6-10-1-4v-14l4-12 6-8 6-5z" fill="#E4BE59"/>
<path transform="translate(528,1729)" d="m0 0 5 1 4 4 1 3 6 4 5 6 5 5v2l3 1 8 8v2l4 2v2l4 2 4 4v2h3l5 5v2l5 2v2l4 2 8 7 14 14 8 7 16 16 6 7 4 3v2h2l7 8 4 4v2l4 2 6 8 1 8-6 10-3 1-2 4h-2l-1 3-3 2-2 4-11 4h-12l-9-6-4-2-7-4h-3l-4-7-5-5-6-15-5-8-1-8h-3v-2h-2l-2-2v-5l-5-7-3-2v-6l-4-1-3-8-5-10-4-2-1-6-3-2-3-8-5-3-3-7-5-5-1-4-1-6h-2v-2l-4-2-1-7-3-5-3-3-3-4 1-4 4-5z" fill="#BD5642"/>
<path transform="translate(1211,1400)" d="m0 0 2 3-5 5h-4l-1 4-21 21-2 3h-3l-1 4-5 6-6 1-1 4-13 11-5 3-11 11h-2l-1 3-6 5-7 8-13 13h-2l-1 3-8 7-7 8-8 7-3 1-2 4-2 2-5-1-3-3-3-1v-2l-4-2-9-10-15-15-7-8-16-17-6-6v-2l16-4 70-17 20-6 22-8 24-10 37-17 15-7z" fill="#BD5742"/>
<path transform="translate(794,972)" d="m0 0h9l7 3 6 11 6-11 2-1h18l2 5-5 18-7 30-2 8v17l7 2h2v2l4 1-2 4-7 4h-11l-6-2-8-7-3-6-2 1-3 7-3 3-5 2-8 3h-8v-2l-8-1-6-4-5-8-2-6v-5l-5 5-7 10-9 10-10 7-6 2v2l-6 2h-23l-14-4-13-7-2-2v-7l2-13h-2l1-11h2v-3h3v-15l1-7h1l1 16 5 17 6 9 10 7 10 3h9l13-4 11-8 7-7 9-15 9-19 7-14 7-9 7-7 10-5z" fill="#F5D89A"/>
<path transform="translate(458,478)" d="m0 0 4 1-3 7-5 7-8 16-4 15v17l1 7 6 7 4 4h-3l-4-4-3-1 1 8 3 7 4 10 4 6 1 6-6-1-8-5-22-7-11-1-25 4-17 5-17 9-5 2-3-3 8-11 7-18 3-12 1-6v-26l-3-16-6-15v-4l7 1 16 8h7l2-3 5 3 4 3 3 1 1-2 18-1 16-4 9-3 7-3 6-4z" fill="#FEFEFE"/>
<path transform="translate(996,1472)" d="m0 0h5l3 2v2l3 1 7 8 24 24 7 8v2l4 2 8 8v2l4 2 4 5 1 6-11 11h-2l-1 3-6 5-5 5-4 5-1 2h-2l-2 4-5 6h-2l-1 3-4 4h-2v2h-2l-2 4-9 6v-4h-2v-2h-2l-4-8 1-2h-2l-2-2-3-14-6-12-2-7-2-6-3-1-3-16-1-5-4-1v-5l-4-9v-2h-2l-2-3-1-8-5-2-3-7-2-1-1-9 2-2 19-2h11l2-1z" fill="#BD5642"/>
<path transform="translate(586,1413)" d="m0 0 5 2 9 5 17 6 20 8 12 5 22 8 14 4 27 6 8 2v2l8 1 22 5 26 5-2 4-11 12-4 2-2 4h-2v2h-2v2l-8 7-16 16h-2l-2 4-4 4h-2v2l-5 5-5 1-5-3-46-46-3-4v-2h-2l-7-8-18-18-8-6-6-7-2-1v-2h-2v-2h-2l-1-2-5-3-1-4h-2v-2h-2v-2l-3-1v-2h-2l-6-8z" fill="#BD5642"/>
<path transform="translate(1251,1727)" d="m0 0 3 2-1 6-3 8h-2l-1 4-2-1 1 4-4 8-4 5-1 4h-3l-1 4-2 5-4 6-3 7-5 11h2l-2 6-8 13-10 17-13 22-10 17-11 17-7 6-14 7h-15l-10-3v-2h-2v-2l-4-1-1-2-6-2-3-6-4-6 1-4 5-4v-2l4-1 1-3 5-5h2v-2l7-6 5-6 8-7 4-5 8-7 13-13h2l2-4h2l1-3 5-5h2l2-4h2l1-3 8-7 12-12 4-5h2l2-4 10-10 5-7h2l2-4 15-15h2l2-4z" fill="#BD5642"/>
<path transform="translate(1374,1279)" d="m0 0 2 1 6 20 9 24v8l-4 9h-2l-1 4-5 3-4 5h-3l-1 3-5 5-6 5h-2v2l-6 2-2 4-3 3h-3v2l-7 5-3 3-5 3-3 3h-2v2l-5 3-10 7-5 4-5-1-1-3h-2v-2l-4-2-1-3h-2v-2h-2v-2h-2v-2h-2v-2h-2v-2l-4-2-7-7-7-8 1-5 11-7 17-12 26-20 26-22 15-14 13-11z" fill="#BD5642"/>
<path transform="translate(307,415)" d="m0 0 4 1 4 6 4 4v2l4 2 12 12v2l3 1 8 8 4 1 8-3 13-11 8-7 4-4h2l-1 5-14 13h-2v2h-3l-2 4-8 6 1 4 1 2-7 4-12 11-10 9h-2v2l-5 1-1 3-4 1-2 4h-2l-2 4h-2v3l-7 6-2 3h-2l-1 3h-2v2l-8 7-11 12-5 6h-2v2h-2v2h-2l-2 4-4 4h-2l-2 4-7 8-6 7-7 5-3 4h-3l-1 3-1-2 5-16 7-20 11-28 10-23 14-29 8-16 10-19 12-18z" fill="#FDD362"/>
<path transform="translate(1227,670)" d="m0 0v3l-9 9 1 6 5 8 2 14-1 9-5 10-11 12-7 8-3 3h-2l-2 4h-2l-1 3-8 7-8 8-8 7-10 9-17 17-8 7-17 17h-2v2l-8 7-2 2h-3l9 11 23 23 6 5 6 7 23 23 8 7 13 13 8 7 10 9 15 15 7 8 8 9 8 7 9 10v3h-2l-5-5-5-6v-2h-2v-2l-4-2-10-11-9-11-18-18-11-9-16-15-96-96 2-4h2l2-4 37-37 8-7 16-15 63-63 7-8z" fill="#E3BD59"/>
<path transform="translate(784,1472)" d="m0 0 16 2 18 2 4 1-1 6-12 34-13 35-11 31-3 7h-2l-2 6-5 3-5-2-15-15v-2l-3-1-6-7-4-3v-2h-2v-2l-3-1-5-5v-2l-4-2-7-8-3-4 4-6 12-12h2l2-4 4-4h2l2-4 21-21 7-8 7-7z" fill="#BD5642"/>
<path transform="translate(542,1369)" d="m0 0 4 2 4 3v2l4 2 12 12v2l4 2 18 18-1 2 2 5 3 1v2h2l3 3v2h2v2h2l3 5 4 2v2h2v2h2v2l4 2v2l4 2v2l4 2 12 11 17 17v2h2l7 9 44 44 8 1 2-4 3-1v-2l7-6 25-25h2v-2h2v-2l8-7 7-7 6-8-10-1-25-5-21-5v-1l9 1 22 5 29 5 4 2-4 2-2 4-7 7-3 4h-2l-2 4-21 21-5 6-8 7-8 9-4 4-1 3 9 9 5 6 7 6v2h2l5 5 1 3 4 2 7 8 11 11 5 2 4-2 3-6 2 1-9 24-2-2-3-9-8-7-7-8-7-5-5-6v-2h-2l-4-5-5-5-16-15-6-2-2 4-8 7-5 5-9 10-19 19-8 10h-2l-2 4-12 12-10 8-21 21-6 7-28 28h-2l-2 4h-2l-2 4h-2v2l-8 7-6 7-7 6-1 2h-2v2h-2l-2 8 6 5 4 5 49 49 11 9 28 28v2l4 2 10 11 5 5 9 11 8 7v2h6l5-10 1-5 3-2 1-10 1-3h2l1-10 3-5 2-7 2-2 2-10 4-9 6-16 2-6 6-17 3-4 1-8 3-4 1-5 2-1 6-22h2l3-13 3-9h3l1-9 4-12 2-2 4-12 2-7 4-2-1 6-7 18-10 29-16 44-9 25-8 21-11 31-15 40-9 25-5 9-7 8-9 5 1-4 7-6 6-7 3-6-1-8-7-9-13-13v-2h-2l-5-5-15-16-6-5-5-5-1-3-4-2-18-18-6-4-3-3-7-6v-2h-3l-6-7-6-5-1-4-4-2-6-5-7-8-5-4-5-5v-3l-4-2-1-2h-4l-7 8-1 4 8 9 2 10 3 2v2h2l2 4v5l5 4 3 6 1 3 5 3 3 8 3 2 1 6 5 3 4 9 3 8 3 1 1 6 5 5 3 4 1 7h2v2h3l3 10 5 8 5 13h2l4 7 3 4 5 2 9 4 4 3 4 4-8-1-12-6-10-9-8-13-15-26-14-24-29-49-14-24-4-7-1-9 5-5 5-6 4-1 9 8v2l4 2 8 7 4 4v2l4 2v2l4 2h1v-2h-2l-7-8-22-22v-5l-6-1-2-3h7l25-25h2l2-4 3-1 2-4 40-40h2l1-3 8-7 5-5h2l1-3 4-1 1-3 3-3h2l2-4 4-2 2-4 7-8 6-7 2-1 1-3 8-7 6-7h2v-2l5-5h2l1-3 8-7 7-6 5-6v-5l-44-44-7-8-8-8-3-5-7-8-8-7-8-8-8-6-5-4-2-5-3-3-3-1v-2h-2v-2h-2v-2h-2v-2h-2l-5-6-10-8v-2h-2v-2l-5-2 3-1 8 4-7-8-6-5-7-8-17-17z" fill="#C16953"/>
<path transform="translate(401,1288)" d="m0 0 1 2 4 2 13 10 9 7 4 4 11 9 9 7 14 11 9 8 16 12 4 2v2l5 2 3 2v2l4 1 3 1v2l3 1-2 5-8 7-3 1-2 4-6 7-4 1-2 4h-2l-1 3-5 4-5 1-1-3-4-1-9-7-3-1v-2l-5-2-3-3-4-2v-2l-6-2-1-3-4-1v-2l-4-2v-2l-4-2-11-8v-2l-4-2v-2h-2l-2-4-3-3v-2l-4-2-2-5h-2l-7-11-1-4 1-11 1-2h-2l2-4 3-1-1-8 4-4 1-4h-2l1-3 3-1z" fill="#BD5642"/>
<path transform="translate(737,114)" d="m0 0 4 5 3 5 9 9 7 8 43 43 7 6 4 4v2l4 2v2l4 2 1 2h16l6-1 17-1h53l17 2 20 1 10 2-3 6-6 5-2 3h-2l-2 4h-2l-2 4-3 4h-2l-2 4-4 4h-2l-1 3h-2l-1 4h-2l-2 4-6 3-12 12-8 7-3 3-8-7-11-10-2-1v-2l-4-2-12-11-12-13-7-8-19-19-7-8-64-64-7-9-2-1-2-7z" fill="#E4BE59"/>
<path transform="translate(656,234)" d="m0 0 4 1-2 10-3 12-2 14v13l5 26 4 13-6-1-10-4-15-4-22-1-14 2-13 4-5-1-3-3v-7l5-17 1-16-3-21-2-5 1-5 6-7 3-1 10 3 12 2h19l14-3z" fill="#FEFEFE"/>
<path transform="translate(535,283)" d="m0 0 5 2 19 19v2h2l3 6-1 2-5-6-9 1-9 5-14 11-4 3h-2v2l-9 6-5 6-8 7-6 5h-2l-2 4-6 5-5 5-4 5-6 5-7 8-3 4h-2l-2 4-4 5-5 6h-2l-2 4h-2l-1 4h-2l-2 5h-2l-2 4-7 8-1 3-5 5-2 3h-2l-1 4-9 13-1 2h-2l-1 4-4 5-3 6-8 6-5-3-8-7-4-4v-2l-4-2-1-4 2-5 11-10h2v-2l8-7 10-9 8-7 8-8h2l2-4 21-21 2-3h2l2-4h2l2-4 5-4 5-5 4-5 15-15 7-8 16-16 4-7 3-1 2-4 7-7 7-8h2v-2l8-7z" fill="#FDD362"/>
<path transform="translate(1475,1143)" d="m0 0h1l-1 7-13 21-14 20-14 19-14 17-9 11-9 10-7 8-11 12-7 8-1 3-9 6-15 14-12 11-10 8-14 12-32 24-12 8-8 5h-3v4l-8 2v-6l-5 2 3-5 2-1-1-4 3-1h5l9-10 18-18 8-7 47-47 8-7 7-7 8-7 41-41 7-8 15-16 7-6v4l2-4v-3l14-14 1-2h2l2-4 16-16z" fill="#FDD262"/>
<path transform="translate(1038,1008)" d="m0 0h2l-2 12v23l3 10 7 8 5 2h16l9-6 8-8h2l3 7 5 5 4 2 10 1 9-3 9-6 7-9 4-11h2l1 2v7l-3 8-8 9-10 5-12 2-2 14-6 12-8 7-9 5-8 1-10-2-21-10-21-12-24-13-6-4-14 2-4-4 9-2 8-7 7-7 12-17 11-20h8z" fill="#E3BD59"/>
<path transform="translate(207,674)" d="m0 0 5 1 9 7 17 17 8 7 24 24 2 4 3 3v2l4 2 5 7v2l3 1v3h3l5 5 5 3 12 11 8 7 33 33 1 4 5-3 12-12 8-7 19-19 8-7 16-15 13-13 8-7 2-1-2 4-29 29-8 7-13 12-27 27-4 7 1 5 7 8v2l5 2 13 12 7 10 5 5 5 2-2 3-7-5v-2l-4-2-6-4-5-5-3-5-12-11-5-5-4-3-4-1-2 4-7 7-8 7-11 11-7 8-14 13h-2v2l-7 6-3 5-9 10-7 8-23 23-5 3-4 4-2-1 7-7 7-8 26-26 8-10 9-9 7-8 12-12 2-4-3 3h-2l-2 4-8 8h-2v-3h3l-1-5-3-1-2-11-2-28-1-25 1-18-2-6-8-12-5-3-9-11-18-18-1-4-7-6-5-6-3-2v-2l-5-2-5-5v-2l-4-2-10-11v-2l-5-2v-2l-4-2z" fill="#E4BE59"/>
<path transform="translate(1200,331)" d="m0 0 3 1-6 7-7 8-41 41-1 3-8 7-29 29-11 9-21 21-6 4-6 8-21 21-7 8-14 15-15 16-37 37-8 7-19 19-8 7-10 9-32 32 2 1 3 5 115 115 8 7 13 13 7 8 53 53-1 2-7-6-5-1-33-33-1-4-5-2-151-151v-5h-3l-2 5-36 36-7 8-2 3h-2l-2 4-18 18-8 7-24 24-1 3-8 7-4 4-5 3-7 8-15 14-24 24h-2l-2 4-54 54-1 2h-2l-2 4-6 7h-2l-2 4-8 8-7 8-17 17h-2v2l-8 7-11 11-8 7-8 8h-2l-2 4h-2l-2 4h-2l-2 4-24 24-5 4-5 6-35 35-8 7-2 1 2-4 31-31 6-9 8-5 12-12h2l2-4 10-11 8-7 22-22 8-7 16-16 8-7 11-12 6-5 7-9 14-14 7-8 9-10 6-7 8-7 3-4 6-7 5-4 7-8 7-7h2v-2h2l2-4 6-6h3v-2l8-7 13-14 8-7 12-12h2v-2l8-7 38-38 7-8 19-19 6-7 9-9h2l2-4 13-13 1-2h2l-7-8-8-7-51-51-3-2v-2l-4-2-3-7v-3l4 2 72 72 2 3h3l6-7 8-7 11-11 7-8 3-3h2l2-4 5-1 1-4 8-8 8-7 7-6h2l2-4 10-9 15-14 13-13 7-8 8-8 7-8 16-16 7-8 17-17 2-4 3-3v-2l-2-1v-2l4 1 7-3 5-6 8-7 9-9 8-7 15-14 5-6 8-7 10-10 3-4h2l1-3 6-5 14-16 5-6 9-7 1-2h2v-2h2v-2l5-5z" fill="#F0D294"/>
<path transform="translate(1251,1367)" d="m0 0h2l1 5 7-1v-4l3 1 1 4 14 15 2 1v2h2v2h2v2h2v2h2v2h2l5 5v2h2l4 5 6 5 6 7 6 5 5 5v2l4 2 15 15 6 4 6 7 6 5 5 5v2l4 2v2l4 2 11 11v2l4 2v2l4 2 8 8v2l4 2v2l3 1 8 10 11 11v2l6-1 11-11 8-7 3-5 2-4 18 51 11 30 5 14v3l-4-1-4-6-5-5-1-4-4-2-40-40h-3l-13 13-9 11-4 4h-2l-1 3-7 6-5 5-5 6h-2l-2 4-11 11h-2l-2 4-14 11-6 7h-2l-2 4-7 6-6 7h-2l-2 4h-2l-1 3-5 5h-2v2l-5 4-29 29-7 3 1-5 9-10 10-10 7-6 1-2h2l2-4 8-7 12-12h2l2-4 8-7 10-9 5-2 2-4 2-3h2l2-4 27-27h2l2-4 10-10 1-2h2l2-4 4-5h2l3-6h2l2-4h2v-2h2l2-5-1-4-6-5-7-8-8-8-7-8-9-9-5-4-5-5v-2l-3-1-8-8v-2l-4-2-5-6-6-5-17-17-8-7-24-24-4-5v-2h-3v-3h-2v-2h-2v-2h-2v-2h-2v-2h-2v-2h-2v-2h-2v-2h-2v-2h-2l-7-8-10-10h-8l-1 3-11 5-4 1-5 5-2-1 15-14 5-5z" fill="#DC7C65"/>
<path transform="translate(1472,428)" d="m0 0 4 2 14 25 13 24 13 27 15 36 3 9-1 3-7-8-10-9-19-19-8-7-14-15-11-11-8-7-13-13-3-4 1-4 8-8 8-7 13-13z" fill="#FDD263"/>
<path transform="translate(952,1487)" d="m0 0 2 1 3 7 4 2 3 11h2l5 12-1 4 4 1 4 13 1 8 3 1 6 18 5 10 2 10 1 3h2l1 4 2 6h2v2h2l1 3h3l-5 6 4-2 3-2-3 6h-2v7l3 1 2 10 3 5v5h2l2 7 5 15 3 10 3 4 1 7 4 10 4 8 2 5 3 10 4 9 3 11 2 9 1 7 3 1v8l4 5 1 9 4 4-1 7 2 1 2 3 1 6 3 1 3 9 1 5 1 8 3 1 1 7 3 4v7h3l4 8 1 4v8h2l2 3v3l3 1v3h5l-4 5-2 1 2 5 2 3 1 4 3 1 2 6 7 3v2l4 1v2h2v2l5 1 16 2v1h-16l-13-5-8-6-7-8-7-14-10-29-11-30-11-31-13-35-8-22-22-60-16-44-10-28-14-37-12-34-12-33z" fill="#DF6950"/>
<path transform="translate(458,478)" d="m0 0 4 1-3 7-5 7-8 16-4 15v17l1 7 6 7 4 4h-3l-4-4-3-1 1 8 3 7 4 10 4 6 1 6-6-1-8-5-22-7-11-1-25 4-17 5-17 9-5 2-3-3 8-11 7-18 3-12 1-6v-26l-3-16-6-15v-4l7 1 16 8h7l2-3 5 3 4 3 3 1 1-2 18-1 16-4 9-3 7-3 6-4zm-99 14-1 1v6l3 8 4 15v24l-3 15-4 15-1 1v6l6-1 13-5 12-3 14-1 15 2 19 5 12 4 1-5-8-19-3-14-8-10-8-8h-2l-2-4-12-12h-2l-1-3h-2v-2l-9-7-15-2-12-5z" fill="#F6D99C"/>
<path transform="translate(674,421)" d="m0 0 6 4 19 19 8 7 5 5 4-2 10-9 12-11h2l-2 4-13 12-5 6-5 2 3 5 4 5-10-4-8 7-6 7h-2l-2 4-29 29-4-2-1-3-1-12v-28l2-14 5-19 3-6z" fill="#FCD264"/>
<path transform="translate(801,1266)" d="m0 0 4 2 8 8 8 7 10 9 5 5 5 6 8 7 23-1 41-1 27-1 4 2-3 2-2 5-4 1-1 4h-3v3l-8 7-4 5-6 4-9 10-5 5-4 2-1 3-4-2-8-7-4-4v-2h-2l-6-7-6-5-7-8-9-9-3-5-6-7-7-6-5-5-11-12-8-7-7-7z" fill="#E4BE59"/>
<path transform="translate(754,1040)" d="m0 0h2l3 11 5 8 8 4 5 1v2l12-2 5-3 5-2 5-7 1 3-7 8-5 3-7 2-16 1-24 14-22 12-18 8-7 2h-9l-12-4-9-7-6-8-3-11v-5h2l-1-4 5 2 13 6 11 3h23l6-1v-2l9-5 9-7 8-9 7-11z" fill="#E3BD59"/>
<path transform="translate(271,1098)" d="m0 0 7 4 8 7 14 14 3 4v2l4 2 35 35v2l4 2 4 4 1 3 1-3 4 1 6-4 2-3h2l2-4 4-4h2l2-4 2 1-7 8-14 14h-3l2 5 2 3h-5l-4 2-1 3-5 5-3 5-4 3h-3l-12-16-18-27-10-17-8-13-10-18v-10l-4-4z" fill="#FDD262"/>
<path transform="translate(313,1516)" d="m0 0 6 1 7 6v2h2v2l4 2 2 4 4 1v2l4 1 2 3-1 7-10 10-5 4-13 13-4 5-4 2-5 6-4 4h-2l-1 3-5 4h-2v2h-3l-2-3v-6l17-46 7-19h2l2-6z" fill="#DF654E"/>
<path transform="translate(717,919)" d="m0 0h16l11 3 10 5 6 7 3 8v15l-6 11-5 5-5 4-11 1-1-5 5-16 2-12-2-7-1-3-4-1h-15l-11 4-4 2h-3l-1 3-8 7-6-2-4-2 1-6h-2l-1 6-3 3h-2l-1 4-7-3v3l-5-2 3-5 8-7 9-7 3-3 14-6z" fill="#F5D89A"/>
<path transform="translate(972,1285)" d="m0 0 2 1-24 24-3 5-46 46 1 4 5 5 8 7 7 8 25 25v2l4 2 33 33 2 1v2h2l16 16 12 1v1l-11 2 7 8 9 9 7 8 16 17 3 3v2l4 2 9 10 2 1v2l4 1 3 3 5-1 8-8h2l2-4h2l2-4 11-11 8-7 15-15 6-7 8-7 10-10 5-3 11-9 1-3 3 1v1l2 1-8 6-15 16-66 66-4 5 6 7 6 6v3l4 2 7 8 19 19-1 2-2-1v-2l-4-1v-2h-2v-2l-4-2v-2l-4-2-8-8v-2l-4-2-16-16-5-3-2-6-4-2-4-5-17-17-14-15-24-24v-2l-8-1-12 1 1-2 15-2 1-3-16-16-8-7-15-15-7-6-45-45-16-14 2-4 42-42h3l2-4z" fill="#C16953"/>
<path transform="translate(207,674)" d="m0 0 5 1 9 7 17 17 8 7 24 24 2 4 3 3v2l4 2 5 7v2l3 1v3h3l5 5 5 3 12 11 8 7 33 33 1 4 5-3 12-12 8-7 19-19 8-7 16-15 13-13 8-7 2-1-2 4-29 29-8 7-13 12-27 27-4 7 1 5 7 8v2l5 2 13 12 7 10 5 5 5 2-2 3-7-5v-2l-4-2-6-4-5-5-3-5-12-11-5-5-4-3-4-1-2 4-7 7-8 7-11 11-7 8-14 13h-2v2l-7 6-3 5-9 10-7 8-23 23-5 3-4 4-2-1 7-7 7-8 26-26 8-10 9-9 7-8 12-12 11-12 5-5h2l2-4 7-8 6-4 1-4-5-3-2-4h-2l-5-5-1-3h-2l-14-14v-2h-2l-6-7-8-7-10-9-6-5-1-2-5-3-9-11-18-18-1-4-7-6-5-6-3-2v-2l-5-2-5-5v-2l-4-2-10-11v-2l-5-2v-2l-4-2z" fill="#CFAB6B"/>
<path transform="translate(1547,711)" d="m0 0 2 1-33 33-6 7-8 7-16 16h-2l-1 4-10 10-2 46v15l3 5 11 11 7 8 5 4v2l4 2 48 48 8 7 1 2-4-2-10-8v-2l-4-2-13-13-8-7-49-49-8-7-9-9-7-8-8-8-3-2v-3l8-7 21-21h2l2-4 16-15 8-7 8-8 8-7 9-9 7-8 17-17z" fill="#E4BE59"/>
<path transform="translate(605,316)" d="m0 0h24l15 3 6 3-2 5-11 6-6 2-1 4-6 2-11 5-4 1 3 5 11 12 26 26v2l4 2 5 6 5 5 4 6 13 13h-3l-9-8-7-9-46-46-8-7-25-25-7-8 1-2 8 4 4-3 5-2z" fill="#E4BE59"/>
<path transform="translate(889,643)" d="m0 0 2 1-7 8-31 31-7 8-2 3h-2l-2 4-18 18-8 7-24 24-1 3-8 7-4 4-5 3-7 8-15 14-24 24h-2l-2 4-54 54-1 2h-2l-2 4-6 7h-2l-2 4-8 8-7 8-17 17h-2v2l-8 7-11 11-8 7-8 8h-2l-2 4h-2l-2 4h-2l-2 4-24 24-5 4-5 6-35 35-8 7-2 1 2-4 31-31 6-9 8-5 12-12h2l2-4 10-11 8-7 22-22 8-7 16-16 8-7 11-12 6-5 7-9 14-14 7-8 9-10 6-7 8-7 3-4 6-7 5-4 7-8 7-7h2v-2h2l2-4 6-6h3v-2l8-7 13-14 8-7 12-12h2v-2l8-7 38-38 7-8 19-19 6-7 9-9 8-7 10-10z" fill="#EFD193"/>
<path transform="translate(603,215)" d="m0 0v3l-15 15v2l12 3 14 2 14-1 20-5 9-4h2v-2l7-5h4l-2 5-6 9-1 8-4 20v24l5 24 4 9 4 6-1 3-4-1-10-6-9-3-11-3-6-1h-24l-12 2-7 3-2 2-8-4 3 6-9 3-8 5-4-1 1-4h2l2-5 3-4-2-6-2-5 8 6 1 3 2-1-3-5 2-9 4-13 1-1v-19l-2-16-2-4h-3l2-6-11 11-8 7-3 3-2-1 19-19 2-1v-6l-6-9-2-2v-3l7 1 8 5 7-1 5-4 2 1-6 7 8-7zm53 19-24 6-6 1h-19l-17-3-6-2-7 6-2 3 1 6 2 7 2 17-1 16-5 17v7l4 4 7-1 15-4 17-1 14 1 15 4 13 5 3-1-4-12-5-26v-13l3-18 4-15-1-4z" fill="#F6D89B"/>
<path transform="translate(653,1245)" d="m0 0v3l-9 10-10 10-7 8-20 18-8 8-8 7-51 51 1 6 1 2-5-1-3-1-8 8-2 5 15 8 18 10 8 4 3 3-5-1-16-8-23-13-3-3-4-1-2 5-3 1-2 4-22 22-9 11-6 5 2-4 3-7-3-1 6-7 6-5 3-3h2l2-4 6-7 8-7 3-1 1-5-2-1v-2l-4-1-3-1v-2l-5-2-3-2v-2l-5-2-12-9-10-8-9-8-15-11-10-9-6-4v-2l-4-2-16-13-7-5-3 4-2-1-2 4h2l-1 7-3 1v8l-9 6 3-10 4-10 5-16 5-1 6 4 16 16 11 9 9 8 11 9 16 13 11 9 17 12 14 9 7 4 5-1 6-5h2l1-4 8-8h2l2-4 32-32 7-8 25-25 8-7 6-4 7-8 12-12 4-2 7-8z" fill="#DD6C55"/>
<path transform="translate(1247,1721)" d="m0 0 2 1-1 5 5-1 2 4-4-2-4 5-8 7-10 10-9 11h-2l-2 4-5 5-9 10-3 1-2 4-8 8-6 5-5 6-7 6-5 6-8 7-4 5-8 7-3 1-2 4-8 8h-2l-2 4h-2l-2 4h-2l-2 4h-2v2l-7 6-3 3h-2l1 3-5 3-4 2v-5l-2-1 3-1 1-3 3-3 5-6 7-6 5-6 7-6 5-6 4-3h2l1-4 7-6 1-2h2l2-4 7-6 5-6 7-6 1-2h3l1-3 14-12 5-5 4-5 4-3h2l2-4 7-8 4-4h2l2-4 5-6 8-7 10-10z" fill="#C16852"/>
<path transform="translate(571,249)" d="m0 0 3 1 3 9 1 11v19l-4 10-3 10h-3l-7-8-10-8-5-5-3-2-1-10 7-7 8-7 9-10z" fill="#FDD263"/>
<path transform="translate(802,987)" d="m0 0 5 1 4 4v11l-5 21-5 13-8 11-3 3h-5l-1-3h-2l-2-8v-12l3-16 10-19z" fill="#E2BC59"/>
<path transform="translate(1083,987)" d="m0 0h6l3 5 1 8-2 15-7 21-7 10-5 4-5-1-4-1-1-8v-11l5-22 1-2h2l2-5 4-6 5-5h2z" fill="#E2BC5A"/>
<path transform="translate(1310,944)" d="m0 0h2l-2 4-52 52-4 1-2 5-24 24-7 8-10 10-7 8-5 4-7 8-21 21-8 7-17 17-8 7-35 35-8 7-9 10-44 44-7 8-9 8-7 9-30 30-8 7-7 7-8 7-14 14-3-1 3-5 13-11 15-14 8-7 29-29 8-10 5-4 7-8 28-28 7-8 7-6 7-8 14-13 7-8 22-22 8-7 22-22 8-7 17-16 12-13 10-9 9-11 32-32 3-5v-6l2 1v2l9-6 5-5 8-9 7-8 10-10 11-9z" fill="#EECF92"/>
<path transform="translate(865,974)" d="m0 0h16l2 2v6l1 1v12l-3 11-1 5-1 4 1 5-4 1-1 2-3 1-4 4-6 2-10-1-1-4 3-8 7-28 2-13z" fill="#F6D89B"/>
<path transform="translate(1200,331)" d="m0 0 3 1-6 7-7 8-41 41-1 3-8 7-29 29-11 9-21 21-6 4-6 8-21 21-7 8-14 15-15 16-37 37-8 7-19 19-8 7-10 9-33 33-1-3 2-4 7-6 16-16 7-8 3-3h2l2-4 5-1 1-4 8-8 8-7 7-6h2l2-4 10-9 15-14 13-13 7-8 8-8 7-8 16-16 7-8 17-17 2-4 3-3v-2l-2-1v-2l4 1 7-3 5-6 8-7 9-9 8-7 15-14 5-6 8-7 10-10 3-4h2l1-3 6-5 14-16 5-6 9-7 1-2h2v-2h2v-2l5-5z" fill="#ECCD8E"/>
<path transform="translate(1188,1071)" d="m0 0v3l-16 16-8 7-15 15-7 8-61 61v3l3 2v3h2v2l5 2 57 57 8 7 9 9 8 7 13 12 5 6 7 8 24 24 7 8 21 21 3 4v2l-4-2-12-12v-2l-4-2v-2l-3-1-7-8-1-3-4-2v-2l-4-2-5-6-12-12-8-7-16-16-8-7-16-15-8-9-8-7-15-16-13-13v-2l-4-2-15-15-4-3v-3l-3-1-1-2-4-1 18-18 7-8 12-11 33-33 8-7 17-17 8-7z" fill="#CEAA6B"/>
<path transform="translate(952,1487)" d="m0 0 2 1 3 7 4 2 3 11h2l5 12-1 4 4 1 4 13 1 8 3 1 6 18 5 10 2 10 1 3h2l1 4 2 6h2v2h2l1 3h3l-5 6 4-2 3-2-3 6h-2l-1 5-2 1 1 7 2 3v5l-2 1-13-36-10-27-7-19-18-50-4-11z" fill="#DF6A52"/>
<path transform="translate(447,491)" d="m0 0 3 1-1 4-5 11-4 17-2 14h-3l-11-11v-2l-4-2-12-12-5-7v-2l10-2 13-2z" fill="#FEFEFE"/>
<path transform="translate(1457,1523)" d="m0 0 2 4 5 4-1 4 2 1 1 7 3 11 2 5 1 7h2l1 9h2v8l-4-2-9-9v-2l-4-2-8-8-8-7v-2h-2v-2h-2l-2-4h-2l1-4h2l2-5 11-11z" fill="#DF644D"/>
<path transform="translate(1263,630)" d="m0 0h2l-2 4-5 5h-2l4 5-1 2-4-1v-3h-2l-2 4-11 11-7 8-25 25-7 8-67 67-8 7-16 15-33 33-20-20v-2h2v2h2l9 9v2l10-1 7-4 7-8 4-5 8-7 16-16 8-7 15-15h2v-2h2v-2l9-9h2l2-4 17-17h2l2-4 6-7 5-5 12-11 4-5h2v-2l8-7 7-7 8-7 3-4h2l2-4 8-8 2-5 7-4h2z" fill="#EDCF91"/>
<path transform="translate(1547,711)" d="m0 0 2 1-33 33-6 7-8 7-16 16-8 7-5 4-6 8-18 18-6 7 1 5 9 8 7 8 9 9 7 8 9 9 7 8 5 4v2l4 2 48 48 8 7 1 2-4-2-10-8v-2l-4-2-13-13-8-7-49-49-8-7-9-9-7-8-8-8-3-2v-3l8-7 21-21h2l2-4 16-15 8-7 8-8 8-7 9-9 7-8 17-17z" fill="#CEAA6B"/>
<path transform="translate(526,1750)" d="m0 0 2 2 2 9 3 2v2h2l2 4v5l5 4 3 6 1 3 5 3 3 8 3 2 1 6 5 3 4 9 3 8 3 1 1 6 5 5 3 4 1 7h2v2h3l3 10 5 8 5 13h2l4 7 3 4 5 2 9 4 4 3 4 4-8-1-12-6-10-9-8-13-15-26-14-24-29-49-13-22 2-3z" fill="#DD7056"/>
<path transform="translate(663,515)" d="m0 0h1l3 12 3 9 9 17 7 11-2 1-21-12-20-9-4-2 6-7 9-11 4-4z" fill="#FDFDFD"/>
<path transform="translate(1227,670)" d="m0 0v3l-9 9-7 8-79 79-8 7-30 30-8 7-6 7 2 4 26 26 7 8 18 18 6 5 6 7 23 23 8 7 13 13 8 7 10 9 15 15 7 8 8 9 8 7 9 10v3h-2l-5-5-5-6v-2h-2v-2l-4-2-10-11-9-11-18-18-11-9-16-15-96-96 2-4h2l2-4 37-37 8-7 16-15 63-63 7-8z" fill="#BD5642"/>
<path transform="translate(542,1369)" d="m0 0 4 2 4 3v2l4 2 12 12v2l4 2 18 18-1 2 2 5 3 1v2h2l3 3v2h2v2h2l3 5 4 2v2h2v2h2v2l4 2v2l4 2v2l4 2 12 11 17 17v2h2l7 9 46 46 7 2v6l1 2-5-1-3-2-3-5-2-4-4-2-34-34-7-8-5-6-8-7-26-26-8-6-5-4-2-5-3-3-3-1v-2h-2v-2h-2v-2h-2v-2h-2l-5-6-10-8v-2h-2v-2l-5-2 3-1 8 4-7-8-6-5-7-8-17-17z" fill="#DB7A64"/>
<path transform="translate(762,1640)" d="m0 0 1 3-8 21-10 29-16 44-9 25-8 21-11 31-15 40-2 5-1-4v-6l4-4 1-10 1-3h2l1-10 3-5 2-7 2-2 2-10 4-9 6-16 2-6 6-17 3-4 1-8 3-4 1-5 2-1 6-22h2l3-13 3-9h3l1-9 4-12 2-2 4-12 2-7z" fill="#CC7D60"/>
<path transform="translate(532,282)" d="m0 0v3l-8 8h-2v2l-7 6-7 8-4 5-5 5-3 5-20 20-7 8-8 9h-2l-2 4-5 4-5 6-7 6-7 8-34 34h-2l-1 3-11 9-7 7-2-1 8-8 2-5 10-9 46-46h2l2-4 6-5 7-8 12-12 7-8 9-10 10-10 8-7 4-5h2l2-4 12-12z" fill="#E3BD59"/>
<path transform="translate(964,208)" d="m0 0 2 2-43 43-11 9-15 15h-2l1 5-4 1-11 11-2 3h-2l-2 4-25 25-7 8-9 9-7 8-59 59-8 7-12 12-5 4-2-1 19-19h2v-2l8-7 46-46 1-2h2l2-4 17-17 5-6 4-4h2l2-4 13-13h2l2-4 14-15 9-10 2-3 9-9 8-7 7-7h2l15-15 4-5 5-5 6-7 6-5 6-7z" fill="#EACB8D"/>
<path transform="translate(972,1285)" d="m0 0 2 1-24 24-3 5-46 46 1 4 5 5 8 7 7 8 25 25v2l4 2 33 33 2 1v2h2l16 16 12 1v1l-12 3-3-2-2-5-10-9-15-14-12-12-7-6-45-45-16-14 2-4 42-42h3l2-4z" fill="#CDA066"/>
<path transform="translate(1270,1014)" d="m0 0 4 2 19 19 7 8 22 22 7 5 5 5v2l4 2 17 17 3 2v2l4 2 13 12 7 8 37 37v2l4 2v2l4 2 8 10-1 2-10-9-9-9-7-8-15-16-16-16-6-4-14-12-33-33-7-8-40-40-5-6-2-1z" fill="#CFAA6B"/>
<path transform="translate(534,1365)" d="m0 0 5 2 2 4 4 1 21 21 4 5 5 4 5 7-5-2-10-5-19-10-10-6-12-6v-3l3-5 5-4z" fill="#FBD267"/>
<path transform="translate(1475,779)" d="m0 0 2 1-10 9-30 30h-2l1 3 8 7 9 9 7 8 11 11-4 1-2-1v-2l-4-2-1-3-4-2-15-14v-2l-4-2-3-3-1-3-8 7-12 12-9 11-9 10-36 36-8 7-9 10-8 7v-3l4-5 8-7 12-12 8-7 18-18 5-6 6-5 2-3h2l1-4 2-1 3-5 9-11h2l2-4 4-4h2l2-5 1-6-1-5 6 4h2l10-10 6-5 5-6h2v-2h2v-2l8-7 3-1 2-4z" fill="#F6D89B"/>
<path transform="translate(737,114)" d="m0 0 4 5 3 5 9 9 7 8 43 43 7 6 4 4v2l4 2v2l4 2 5 5 5 4 5 5 12 14 21 21 11 9 8 8 5 7-1 2-8-7-11-10-2-1v-2l-4-2-12-11-12-13-7-8-19-19-7-8-64-64-7-9-2-1-2-7z" fill="#CFAB6B"/>
<path transform="translate(1433,463)" d="m0 0 3 1-5 6-8 7-13 13-7 8-7 10-8 7-36 36-8 6-38 38-8 7-13 12-23 23v-3l30-30 8-7 13-12 7-8 24-24 7-8 44-44 12-11 7-8z" fill="#CC9F65"/>
<path transform="translate(653,1245)" d="m0 0v3l-9 10-10 10-7 8-20 18-8 8-8 7-51 51 1 6 1 2-5-1-3-1-8 8-2 5 15 8 18 10 8 4 3 3-5-1-16-8-23-13-3-3-5-2v-3l7-1 6-5h2l1-4 8-8h2l2-4 32-32 7-8 25-25 8-7 6-4 7-8 12-12 4-2 7-8z" fill="#CEA96B"/>
<path transform="translate(701,1193)" d="m0 0h2l-2 4-45 45-7 8-5 6-5 3-15 15-3 4-5 3-17 16-21 21-7 8-33 33-4 5h-2l-1 4-8 6-5 1-1-2 8-5 3-4h2v-7l8-2 10-10h2l2-4h2l2-4h2l2-4h2l2-4h2l2-4h2l2-4h2l2-4 7-7 7-8 5-5 5-4 7-8 12-10 7-8 14-14 11-9 7-8z" fill="#F3D597"/>
<path transform="translate(1053,122)" d="m0 0v3l-7 8-10 10-7 8-55 55-7 8-38 38-8 7-14 12-6 5-1 6 1 2-6-3v-4l4-1 2-4 12-12 11-9 46-46 8-7 60-60 7-8z" fill="#CEAA6B"/>
<path transform="translate(567,969)" d="m0 0v3l-28 28 4 8-5-3-2-2-60 60-9 11-10 12-6 7h-2v2l-5 4-5 5-14 13-10 8-8 7-1-3 5-7 8-7 7-6h2l2-4h2l2-4 6-5 6-7 11-9 10-10 7-9 27-27 8-7 30-30 7-8 8-7z" fill="#CFAB6C"/>
<path transform="translate(1038,1008)" d="m0 0h2l-1 7-2 1v-2l-6 2-8 15-9 12-11 13-8 7-10 5-7-1-2-3 9-2 8-7 7-7 12-17 11-20h8z" fill="#CFA969"/>
<path transform="translate(1250,286)" d="m0 0 2 1-6 6h-2l-2 4h-2v2l-8 7-6 9-7 8-6 7-21 21h-2l-2 4-7 6-8 7-11 10-7 8-15 16-3 3-4 2-20 20-2-1 35-35h2l1-4 46-46 5-7h2v-2l8-7 11-11 3-4h2l1-3 8-7 6-7z" fill="#CDA166"/>
<path transform="translate(813,560)" d="m0 0 4 2 72 72 2 3 3 1-1 4-6 2v-2h2l-7-8-8-7-51-51-3-2v-2l-4-2-3-7zm82 76 2 1z" fill="#F0D396"/>
<path transform="translate(1408,802)" d="m0 0h2v2l4 1 8 6v2h2l4 5-1 6-3 5-7 6-7 8h-4l-1-2 1-29 1-9z" fill="#E4BE59"/>
<path transform="translate(1200,331)" d="m0 0 3 1-6 7-7 8-41 41-1 3-8 7-29 29-11 9-21 21-6 4-6 8-21 21-7 8-3 2v-3l16-17 14-14 2-4 3-3v-2l-2-1v-2l4 1 7-3 5-6 8-7 9-9 8-7 15-14 5-6 8-7 10-10 3-4h2l1-3 6-5 14-16 5-6 9-7 1-2h2v-2h2v-2l5-5zm-166 168m-1 1m-1 1m-1 1m-1 1m-1 1m-1 1 1 2-2-1z" fill="#F3D699"/>
<path transform="translate(350,468)" d="m0 0 1 2-3 5-4 2-6 7-10 8-12 12h-2v2l-5 5h-2l-1 3-6 5-3 4h-2l-2 4-14 14-3 4h-2l-2 4-29 29-10 8-2-1 5-6 8-6 12-15 7-6 1-2h2v-2h2v-2l14-14 7-8 3-3h2v-2l5-4 7-8h2v-3l7-6 6-6 5-1v-2l9-7 11-11z" fill="#E3BD59"/>
<path transform="translate(1347,1626)" d="m0 0 3 3-4 5h-2l-2 4-7 6-6 7h-2l-2 4h-2l-1 3-5 5h-2v2l-5 4-29 29-7 3 1-5 9-10 10-10 7-6 1-2h2l2-4 8-7 12-12h2l2-4 8-7z" fill="#DC7A65"/>
<path transform="translate(1434,1184)" d="m0 0 1 3-1 2h-2l-2 4h-2l-2 4-7 7h-2l-2 4-66 66-8 7-77 77-2 1-3 6-3-3 6-7 25-25 8-7 47-47 8-7 7-7 8-7 41-41 7-8 15-16z" fill="#CFAA6B"/>
<path transform="translate(1e3 1470)" d="m0 0 5 1 16 16 7 8 16 17 3 3v2l4 2 9 10 2 1v2h2l4 5 4 1h4v7l11 11 2 1v2l4 2 7 8 19 19-1 2-2-1v-2l-4-1v-2h-2v-2l-4-2v-2l-4-2-8-8v-2l-4-2-16-16-5-3-2-6-4-2-4-5-17-17-14-15-24-24v-2l-8-1-12 1 1-2z" fill="#DB7964"/>
<path transform="translate(1475,1143)" d="m0 0h1l-1 7-13 21-14 20-2 1-2-1v-2h-2l-5-5v-3l14-14 1-2h2l2-4 16-16z" fill="#FAD16A"/>
<path transform="translate(1129,1124)" d="m0 0m-1 1m-1 1m-1 1m-1 1m-1 1m-1 1m-1 1m-1 1m-1 1m-1 1m-1 1m-1 1m-1 1m-1 1m-1 1m-1 1m-1 1m-1 1m-1 1m-1 1m-1 1m-1 1m-1 1m-1 1m-1 1m-1 1m-1 1m-1 1 1 3-8 8-7 8-45 45-7 8-9 8-7 9-30 30-8 7-7 7-8 7-14 14-3-1 3-5 13-11 15-14 8-7 29-29 8-10 5-4 7-8 28-28 7-8 7-6 7-8 14-13z" fill="#EFD298"/>
<path transform="translate(496,1694)" d="m0 0 6 4 7 8 4 3v2l4 2 6 7-1 6-3 3h-5l-8-7-3-2v-2l-5-2-4-3v-2l-3-1-1-3 3-9z" fill="#BD5642"/>
<path transform="translate(1433,823)" d="m0 0 1 4-5 5-6 7h-2l-2 4-7 7-7 8-15 14-26 26-5 4-6 7-8 7-7 8-8 7-13 13-8 7-32 32-2-1 43-43 6-5 7-8 4-4h2l2-4 8-7 9-10 10-9 35-35 7-9 12-13 11-11z" fill="#CEAA6B"/>
<path transform="translate(945,1309)" d="m0 0h2l-2 4-4 5-5 3-41 41v2l8 7 4 5-4 1-8-6-2-4-4 1-22 22-2 3h-2l-2 4-18 18-7 8-12 12v-3l3-4h2l2-4h2l2-5 34-34 7-8 4-4h2l2-4h2l2-4 1-3-3-1-5-7 4 2 9 3 7-8 8-7 6-7 4-1 2-4 8-8h2v-3l3-1 1-3 4-2 5-5z" fill="#F5D79A"/>
<path transform="translate(1242,1714)" d="m0 0 4 2 4 3 4-1 5-4 2 1-6 7v4l6 1 4 1-9 14-12 21-20 34-2 3h-3l1-4 3-7 4-8 3-5 2-5 2-4h3l1-5 4-5 3-9v-2h2l1-3h2l1-6 3-9-4-1h-3l1-5z" fill="#C8755B"/>
<path transform="translate(1257,277)" d="m0 0h3l3 7 10 10 4 3v2l4 2v2l4 2v2l4 2v2l4 2v2l4 2v2l4 2v2l3 1 5 6 8 7 3 3v2l4 2 44 44v2l4 2v2l4 2 3 3v2l4 2v2l4 2v2l5 2 22 22 1 4-6-4v-2h-2v-2l-4-2-140-140-7-5z" fill="#CFAB6C"/>
<path transform="translate(898,641)" d="m0 0 6 5 7 8 9 9 7 6 5 6 7 6 5 6 7 6v2l4 2 5 6 6 5 7 8 10 10 8 7 33 33 8 7 11 12 30 30 3 5-4-2-35-35-7-8-12-12-8-7-112-112z" fill="#BD5642"/>
<path transform="translate(513,391)" d="m0 0 7 4 12 9 9 6 16 7 11 4 23 3h38v1l-13 1h-26l-20-2-18-6-18-8-8-4 4 9 8 15 5 17 4 24v31l-6 23-5 13-1-3 6-18 3-13 1-9v-18l-1-13-4-21-5-13-8-15-7-11-6-8z" fill="#F6D99C"/>
<path transform="translate(575,319)" d="m0 0 9 4 18 18v2h2l7 8 12 13 26 26v2l4 2 5 6 5 5 4 6 13 13h-3l-9-8-7-9-46-46-8-7-25-25-7-8z" fill="#CEA76A"/>
<path transform="translate(641,894)" d="m0 0 3 1-23 23h-2v2l-8 7-11 11-8 7-8 8h-2l-2 4h-2l-2 4h-2l-2 4-24 24-5 4-5 6-35 35-8 7-2 1 2-4 31-31 6-9 8-5 12-12h2l2-4 10-11 8-7 22-22 8-7 16-16 8-7z" fill="#EACB8E"/>
<path transform="translate(207,674)" d="m0 0 5 1 9 7 17 17 8 7 24 24 2 4 3 3v2l4 2 5 7v2l3 1v5l-4-2-9-11-18-18-1-4-7-6-5-6-3-2v-2l-5-2-5-5v-2l-4-2-10-11v-2l-5-2v-2l-4-2z" fill="#E2BD59"/>
<path transform="translate(720,933)" d="m0 0h13v1l-16 3-10 6-5 5-10 12-4 6h-2l-2 6-6 14-4 15-1 7v21l1 9-2-2-2-9v-22l4-23 5-13h2l2-6 2-5h2l1-4 5-5 8-7 1-2 14-6z" fill="#CA9460"/>
<path transform="translate(383,429)" d="m0 0h2l-1 5-14 13h-2v2h-3l-2 4-8 6 1 4 1 2-7 4-12 11-10 9h-2v2l-5 1-1 3-4 1 3-5 7-8h2v-2l8-7 7-7 4-7v-6l10-2 14-12 8-7z" fill="#F6D99C"/>
<path transform="translate(1273,1698)" d="m0 0 2 2 5 1-1 9-1 2 4 1-2 1v2l-10 6-5 5-8 1-3-2 1-5 5-6-5 2 6-7z" fill="#C26A53"/>
<path transform="translate(1340,723)" d="m0 0 5 2 1 3 3 1 3 5 19 19 5 3v2l4 2 15 14 9 9 8 7 16 16 6 8v4l-5-2-16-17-13-15-15-15-8-7-6-5v-2h-2l-7-8-15-15v-2l-3-1v-2l-4-2z" fill="#CEAA6B"/>
<path transform="translate(1121,142)" d="m0 0 3 1v2l4 2 7 6 1 4 4 2 7 9 8 7 67 67 7 8 9 9 2 1v2h2v2h2l9 9v2l-4-2-7-6-5-6-8-7-16-17-73-73v-2l-4-2-4-5-7-6-4-5z" fill="#CFAB6B"/>
<path transform="translate(1188,1071)" d="m0 0v3l-16 16-8 7-15 15-7 8-61 61-1 2-6 1 6-7 12-12 7-8 12-11 33-33 8-7 17-17 8-7z" fill="#EDC460"/>
<path transform="translate(904,992)" d="m0 0 4 1v8l-4 2-6 9-14 24-6 14-5 16-3 2-9-1-1-2h10l3-10 6-17 7-20h2l2-5 6-11z" fill="#CDA167"/>
<path transform="translate(890,1366)" d="m0 0 4 1 1 4-7 3-13 12-31 31-7 8-26 26-8 7-12 12-1 3-6-1 5-4 14-14 8-7 30-30 7-8 14-14 7-8z" fill="#CFAA6B"/>
<path transform="translate(572,243)" d="m0 0 1 2-5 7-5 4-7 8-13 12 1 8-1 2 4 2 8 7 13 12v2h2l4 9h-3l-10-10v-2h-2l-7-8-12-12-6-5 1-4h4l1-4 7-6 12-12 8-7z" fill="#CFAB6C"/>
<path transform="translate(1300,1047)" d="m0 0 7 6 17 17 7 8 30 30 11 9 3 3h-4l-1 2v-2l-4-2-11-10-8-7-21-21-5-4-4-9-2-4h-2l-7-8-6-6z" fill="#F6D99C"/>
<path transform="translate(1469,427)" d="m0 0h2l-2 4-18 18-8 7-2 2 1 4 9 10 11 11 8 7 15 15 7 8 13 12 18 18 8 7 2 4h2l-1 3-10-10-3-2v-2l-4-2-5-6-8-7-65-65-3-2 2-4 7-7 8-7 11-11h2l2-4z" fill="#CEAA6B"/>
<path transform="translate(1227,670)" d="m0 0v3l-9 9-7 8-79 79-8 7-30 30-8 7-3 3-2-1 38-38 8-7 16-15 63-63 7-8z" fill="#BD5642"/>
<path transform="translate(510,1372)" d="m0 0 5 3-2 5-3 2 1 1 4-4 2 1-3 4h-2l-2 4-22 22-9 11-6 5 2-4 3-7-3-1 6-7 6-5 3-3h2l2-4 6-7 8-7 3-1 1-5-2-1z" fill="#C16852"/>
<path transform="translate(468,1295)" d="m0 0 6 3v2l3 1 5 6 5 5 4 1 41 41v3l-5-1-8-7-7-8-6-5v-2l-4-2v-2h-2l-5-5-1-3-4-2v-2l-4-2-6-8-5-5-3-2z" fill="#E4BE59"/>
<path transform="translate(1390,504)" d="m0 0v3l-44 44-7 8-24 24-7 8-13 12-10 9-15 15-2-1 10-10 7-8h2v-2l8-7 5-5h2v-2l8-7 11-11 5-6 4-4h2l2-4 4-5 6-5 9-11 8-7 8-8 8-7 7-8z" fill="#F4D699"/>
<path transform="translate(964,208)" d="m0 0 2 2-43 43-11 9-15 15h-2l1 5-4 1-11 11-2-2 7-7 5-6 2-3 9-9 8-7 7-7h2l15-15 4-5 5-5 6-7 6-5 6-7z" fill="#F4D79A"/>
<path transform="translate(1374,1279)" d="m0 0 2 1 2 9-4 2-4-1-6 1v2l-6 4-1 2h-3l-2 4-8 7-4 1-1 3-5 4h-2l-1 3-6 4-15 12-6 4-8 6-5 2 5-5 13-10 14-11 10-9 10-8 16-15 13-11z" fill="#DE6A53"/>
<path transform="translate(1251,1367)" d="m0 0h2l1 5 7-1v-4l3 1 1 4 14 15 2 1v2h2v2h2v2h2v2h2v2h2l5 5 1 5h-3v-2h-2v-2h-2v-2h-2v-2h-2v-2h-2v-2h-2v-2h-2v-2h-2l-7-8-10-10h-8l-1 3-11 5-4 1-5 5-2-1 15-14 5-5z" fill="#D87E64"/>
<path transform="translate(491,1687)" d="m0 0 8 6 23 23 5 4 1 3-4 7-6 5-6 2-7-10-5-5-4-5 7 1v2l4 2 6 5 1 2h5l1-3h2v-6l-1-3-4-2-4-4v-2l-4-2-4-5-8-7-6-6z" fill="#C26A53"/>
<path transform="translate(679,134)" d="m0 0 1 2-8 10-13 13-7 8-66 66h-2l2-4 75-75 2-3h2l2-4 9-9z" fill="#CFAB6C"/>
<path transform="translate(431,896)" d="m0 0h3v2h2l6 7 36 36 5 4 7 8 44 44h-3l-51-51-8-7-18-18-7-6v-2l-3-1-8-10-5-5z" fill="#CEA96A"/>
<path transform="translate(1078,1183)" d="m0 0 5 2 1 4h2v2l5 2 52 52 4 6h-3l-13-12-12-13-14-14v-2l-4-2-15-15-4-3v-3l-3-1z" fill="#CDA368"/>
<path transform="translate(1274,983)" d="m0 0v3l-15 15 6 7v3l-4-2-4-3-10 9-16 16h-3l-2 4-14 14-7 8-5 4-7 8-4 2 6-7 4-5 8-7 11-12 8-8 7-8 18-18 3-5 6-4z" fill="#C8764E"/>
<path transform="translate(708,1787)" d="m0 0h2l-3 11-10 27-11 29-2 5-1-4v-6l4-4 1-10 1-3h2l1-10 3-5 2-7 2-2 2-10 3-7 4-2z" fill="#C9795D"/>
<path transform="translate(841,1308)" d="m0 0 4 2 3 3 3 5 13 13v2l4 2v2l4 2 4 4v2h2l7 8 3 3v2l-4-2-6-4-30-30-8-10z" fill="#FCD46F"/>
<path transform="translate(841,1305)" d="m0 0 7 6 8 7 37 37 2 4h-4l-10-9-3-3v-2h-2l-6-7-6-5-7-8-9-9-3-5-4-4z" fill="#CEA568"/>
<path transform="translate(931,1026)" d="m0 0 7 1 3 2 5 1-2 5-7 10-6 5-3-1-3-3 1-8 2 2z" fill="#F9CF61"/>
<path transform="translate(1139,1035)" d="m0 0h2l1 2v7l-3 8-8 9-10 5-12 2-8-1-4-4 13 1 9-3 9-6 7-9z" fill="#CFAA6B"/>
<path transform="translate(618,721)" d="m0 0 7 6v2l4 2 8 8v2l4 2v2l4 2 8 8 7 8 7 7 2 1v2l4 2 19 19v2l4 2 17 17h-3l-15-14-31-31-6-5-7-8-34-34z" fill="#BD5642"/>
<path transform="translate(737,1064)" d="m0 0 2 3-10 7-9 4h-2v2l-5 2h-21l-12-3-13-7-6-5 2-1 16 8 11 3h23l10-3 8-5h2v-2z" fill="#CDA569"/>
<path transform="translate(1088,1862)" d="m0 0h2l4 10v3l5-1 3 7 1 4 3 1 2 6 7 3v2l4 1v2h2v2l5 1 16 2v1h-16l-13-5-8-6-7-8-7-14z" fill="#DD7156"/>
<path transform="translate(311,416)" d="m0 0 4 2 11 9 7 6v2l4 2 13 12 2 4-3 2-5-3-6-5-7-8-15-15-5-6z" fill="#E4BE59"/>
<path transform="translate(803,547)" d="m0 0 7 6 10 9 6 7 8 7 11 11v2l4 2 4 5 4 3v2l4 2 26 26 4 6-4-2-82-82-2-1z" fill="#BD5843"/>
<path transform="translate(802,987)" d="m0 0 5 1-3 2-5 4-6 9-2 4-2 8h-2l-3 13-1 19-2-1-1-6v-12l3-16 10-19z" fill="#C36E4C"/>
<path transform="translate(957,1026)" d="m0 0 2 3v9l-4 8-11 12-4 5-8 3-12 1-1-2 13-2 13-13 5-8 6-15z" fill="#D0AB69"/>
<path transform="translate(436,1316)" d="m0 0 4 2 6 5 5 2 13 11 11 9 5 4 17 12 14 9 5 4 1 5-8 6 1-4 4-4-1-3-10-4v-2l-5-2-3-2v-2l-5-2-12-9-10-8-9-8-15-11-8-7z" fill="#DD6C55"/>
<path transform="translate(813,560)" d="m0 0 4 2 31 31-2 4-4-2-19-19-3-2v-2l-4-2-3-7z" fill="#EFD194"/>
<path transform="translate(543,1008)" d="m0 0 4 2 99 99 8 7 2 4-7-6-10-9-91-91-5-4z" fill="#BD5843"/>
<path transform="translate(1024,1232)" d="m0 0v3l-9 10-26 26-8 7-7 7-8 7-14 14-3-1 3-5 13-11 15-14 8-7z" fill="#EACB8E"/>
<path transform="translate(1228,1388)" d="m0 0 2 1-8 8-8 7-10 11-7 8-8 7-6 6h-2l-2 4-9 9-4 2 2-5h3l2-4 3-3 1-3 3-1 7-8 16-16 1-3 5-2 3-4-4-1 2-2 9-3 8-7z" fill="#D5A76D"/>
<path transform="translate(763,939)" d="m0 0 2 1 2 6v12l-3 10-2 3h-2l-2 4h-2l-1 3-4 2-11-1 4-2 7-4 5-5 6-11z" fill="#CB9A63"/>
<path transform="translate(398,1279)" d="m0 0 4 1 8 6v2l4 2 10 9 8 6 1 2 3 1 6 7 2 1v2h2v2l4 1v2l4 2 14 12 5 6-4-2-13-11-22-18-10-9-8-7-10-9-4-4-5-2z" fill="#E3BD59"/>
<path transform="translate(1310,944)" d="m0 0h2l-2 4-52 52-3 1v-3l7-6 5-5 12-14 12-12 11-9z" fill="#ECCD8F"/>
<path transform="translate(813,198)" d="m0 0 5 4 3 4v2l4 2 19 19 6 8h-2l3 5v3l-8-8v-2h-2l-9-11-13-13-3-5-1-4z" fill="#F6D89B"/>
<path transform="translate(754,1040)" d="m0 0h2l1 9h-2l-2 5-7 8-6 6-2-1-1-2-4 2v2l-10 6-4-1 9-5 9-7 8-9 7-11z" fill="#CEAA6B"/>
<path transform="translate(1250,996)" d="m0 0 2 1v2l3 1-4 7-23 23-7 8-10 10-7 8-5 4-4 4 1-4 10-10 9-11 32-32 3-5z" fill="#ECCE90"/>
<path transform="translate(293,884)" d="m0 0v3l-10 11-7 8-23 23-5 3-4 4-2-1 7-7 7-8 31-31z" fill="#E2BC5A"/>
<path transform="translate(1073,462)" d="m0 0v3l-26 26-7 8-14 15-9 10-42 42-2-1 45-45 7-8 8-8 7-8 14-15z" fill="#BD5843"/>
<path transform="translate(666,223)" d="m0 0h4l-2 5-6 9-2 4-1-3v-3l-12 2-15 4-6 1h-19l-12-2v-2l12 1 13 1 17-3 16-5 6-2v-2z" fill="#F6D99C"/>
<path transform="translate(576,1318)" d="m0 0v3l-38 38-4 5h-2l-1 4-8 6-5 1-1-2 8-5 3-4h2v-7l8-2 10-10h2l2-4h2l2-4h2l2-4h2l2-4h2l2-4h2l2-4z" fill="#F6D99C"/>
<path transform="translate(320,850)" d="m0 0 2 1-6 7h-2l-2 4-11 11-7 8-10 11-7 8-20 20v-3l13-14 2-3h2l2-4 6-7 5-4 7-8 15-16 6-7z" fill="#F6D99C"/>
<path transform="translate(613,561)" d="m0 0h2l-2 4-13 13-8 7-13 13-8 7-13 13h-2l2-4 31-31 8-7 15-14z" fill="#EDCE91"/>
<path transform="translate(562,309)" d="m0 0 8 6 1 3 4 1 4 7-9 3-8 5-4-1 1-4h2l2-5 3-4-2-6z" fill="#F6D99C"/>
<path transform="translate(1264,269)" d="m0 0 2 1-4 5 3-3 2 1-4 4-1 5-2-1v-4l-3 1v4l2 2-6 4-3-1-7 6h-2l-2 4-10 10-5 2 6-7 10-11h2l2-4 5-4 3-4 1-4 6-2z" fill="#F6D99C"/>
<path transform="translate(1475,1143)" d="m0 0 1 3-2 3h-2l-2 4-6 7-7 6-3 3h-2v2l-10 10h-2l4 7-5-2-3-4 15-15 1-2h2l2-4 16-16z" fill="#CFAB6B"/>
<path transform="translate(570,675)" d="m0 0 4 1 5 5 12 11 11 11v3l4 2 8 8-2 2-11-11-11-9-10-10-7-8z" fill="#CDA368"/>
<path transform="translate(841,696)" d="m0 0v3l-13 13-3 5-5 5-8 7-20 20-3 1 1-4 30-30 8-7z" fill="#C7885A"/>
<path transform="translate(552,620)" d="m0 0h2l-2 4-50 50-1-3 11-11 7-8 6-5 6-10 3 1 1-3 8-6z" fill="#E9CA8C"/>
<path transform="translate(934,596)" d="m0 0 3 1-3 3-3 5-36 36-1-3 2-4 7-6 16-16 7-8 3-3h2l2-4z" fill="#EDCE8F"/>
<path transform="translate(738,434)" d="m0 0h2l-2 4-13 12-5 6-5 2 3 5 4 5-10-4-8 7-6 7h-2l-2 4h-2l2-4 7-8h2v-2h2l2-5 3-6 5-2 12-11z" fill="#F1D394"/>
<path transform="translate(775,402)" d="m0 0v3l-17 16-9 9-8 7-7 8-15 15-1 2 3 1 4 6-4-2-6-6v-3l5-2 2-4 11-11 8-7 16-15 9-9 8-7z" fill="#C16A4B"/>
<path transform="translate(1086,1049)" d="m0 0h2v4h-2l-1 5-8 7-7 3h-12l-8-3-2-3 5 1h16l9-6z" fill="#C98E5D"/>
<path transform="translate(1347,1274)" d="m0 0 2 1-4 3zm-4 4 2 1-83 83-1-3 10-9z" fill="#F2CB67"/>
<path transform="translate(672,1137)" d="m0 0h2v2h2l44 44v2l4 2 5 6 8 7 8 8 1 3-4-2-4-5-7-6-5-5-4-5-6-5-5-6-7-6-7-8-10-10-3-2v-2l-4-2-8-8z" fill="#BD5642"/>
<path transform="translate(890,644)" d="m0 0 3 1-6 8-35 35-8 6 2-4 15-16 28-28z" fill="#D3A35E"/>
<path transform="translate(542,1369)" d="m0 0 4 2 4 3v2l4 2 12 12v2l4 2 18 18-3 2-7-3-5-2v-2l-5-2 3-1 8 4-7-8-6-5-7-8-17-17z" fill="#CFAB6B"/>
<path transform="translate(844,978)" d="m0 0h1l-1 9-11 48-2 14h-1v-16l6-28 6-24z" fill="#BD5642"/>
<path transform="translate(592,1873)" d="m0 0 3 1 4 7 4 1 4 7 3 4 5 2 9 4 4 3 4 4-8-1-12-6-10-9-8-13z" fill="#DD785C"/>
<path transform="translate(542,269)" d="m0 0 2 1-4 4-1 3-4 1 1 5-5 1-15 14-5 6-12 12-4 2 1-3h2l2-4 13-13 6-7h2l1-3h2l2-4 3-4 1-5h2l-1-4 4 2v2z" fill="#F5D89B"/>
<path transform="translate(408,871)" d="m0 0 5 1 6 10h3v2l3 1 3 3v5l5 2-1 2 5 5-1 2-5-4v-2l-4-2-4-5-5-5-8-5-2-5z" fill="#DFB95D"/>
<path transform="translate(465,570)" d="m0 0 7 6 17 17 9 7 21 21-1 2-9-9-8-7-10-8v-2l-4-2-15-14-7-9z" fill="#CC9D65"/>
<path transform="translate(1083,988)" d="m0 0h5l-1 2-6 3-8 11-6 16-2 13v14h-2l-1-7v-11l5-22 1-2h2l2-5 4-6z" fill="#BF6247"/>
<path transform="translate(442,544)" d="m0 0 4 2 22 22 2 4h-3l-4-1-10-10-2-5-4-2-5-6z" fill="#E0BA5C"/>
<path transform="translate(572,243)" d="m0 0 1 2-5 7-5 4-7 8-13 12 1 8-3-1-3-6 3-5 6-5 12-12 8-7z" fill="#CFAB6B"/>
<path transform="translate(723,1745)" d="m0 0h1v6l-11 29-3 7h-2v2h-2l3-10 3-11 3-7 5-12z" fill="#C7745A"/>
<path transform="translate(575,1409)" d="m0 0 5 2 7 3 2 5 3 1v2h2l3 3v2h2v2h2l3 5 4 2v2h2v2h2v2l4 2 1 4-4-2-5-5v-2l-4-2-3-3-3-1v-2h-2v-2h-2v-2h-2v-2h-2l-5-6-10-8z" fill="#D89F70"/>
<path transform="translate(1199,940)" d="m0 0 7 6 16 16 7 8 8 9 8 7 9 10v3h-2l-5-5-5-6v-2h-2v-2l-4-2-10-11-9-11-18-18z" fill="#BD5642"/>
<path transform="translate(1144,1113)" d="m0 0 2 1-70 70-2-1 18-18 7-8 12-11z" fill="#BE5B44"/>
<path transform="translate(966,571)" d="m0 0h2l-2 4-4 2-1 3-8 7-15 14-8 7-31 31-1 2-3-1 40-40 8-7 10-9z" fill="#BD5642"/>
<path transform="translate(686,964)" d="m0 0 1 2-8 17-4 14-2 11v21l1 9-2-2-2-9v-22l3-16 2-3 5-11 5-10z" fill="#BD5642"/>
<path transform="translate(1356,1292)" d="m0 0 2 1-8 8-8 7-26 22-16 12-5 4-2-1 9-8 8-6 4-2v-2l11-8 3-1v-2l10-8 2-3 3-1 5-5z" fill="#E4BE59"/>
<path transform="translate(487,231)" d="m0 0 7 6 18 18 11 9 8 7 1 4-4-2-8-7-13-12-15-15-1-3-4-2z" fill="#CFAB6C"/>
<path transform="translate(1034,964)" d="m0 0 2 1 1 8v19l-2 9-3 3-4-1 4-14 1-7z" fill="#CEA96B"/>
<path transform="translate(543,631)" d="m0 0 2 1-6 7-2 2 9 7 11 11 2 1v2l4 2 4 4 3 5-1 2-16-15-13-13v-2l-4-2-2-2 5-5z" fill="#CCA167"/>
<path transform="translate(725,469)" d="m0 0 5 2 4 4v2l4 2 7 8 18 18v2l4 2 4 5 12 12h-3l-26-26-7-8-10-10-7-6-5-5z" fill="#BD5642"/>
<path transform="translate(641,894)" d="m0 0 3 1-23 23h-2v2l-8 7-11 11-6 4 2-4 24-24 8-7z" fill="#EBCC8F"/>
<path transform="translate(752,1584)" d="m0 0 6 2 10 10 5 2 4-2 3-6 2 1-7 18-4-5-8-7-7-8z" fill="#C46E56"/>
<path transform="translate(933,982)" d="m0 0 3 4 1 9-2 17-7 31h-1l1-16 5-26z" fill="#BD5642"/>
<path transform="translate(1018,966)" d="m0 0 4 1-1 12-1 15-3-1-2-6v-18z" fill="#D0AC6A"/>
<path transform="translate(1348,1301)" d="m0 0 2 1-14 14-4 2-1 3-6 4-15 12-6 4-8 6-5 2 5-5 13-10 14-11 10-9 10-8z" fill="#DD715B"/>
<path transform="translate(701,1193)" d="m0 0h2l-2 4-42 42-2-2z" fill="#E9CA8C"/>
<path transform="translate(567,969)" d="m0 0v3l-28 28 4 8-5-3-2-2-28 28-2-1 33-33 7-8 8-7z" fill="#BD5A44"/>
<path transform="translate(376,1156)" d="m0 0 2 1-7 8-14 14h-3l2 5 2 3h-5l-1-2-9 9v-3l7-9-1-5h2l1-3 4 1 6-4 2-3h2l2-4 4-4h2z" fill="#F6D99C"/>
<path transform="translate(982,980)" d="m0 0 3 1v27l2 28v10l-2-3-2-16-2-44z" fill="#BD5642"/>
<path transform="translate(1072,458)" d="m0 0 3 1-4 4-3 5-22 22-7 8-3 2v-3l16-17 14-14 2-4zm-38 41m-1 1m-1 1m-1 1m-1 1m-1 1m-1 1 1 2-2-1z" fill="#F0D7A5"/>
<path transform="translate(917,1050)" d="m0 0h7l1 3 2 1v2l2 1 1 6 2 1-3 1h-9l-2-7v-3z" fill="#FACF63"/>
<path transform="translate(303,1129)" d="m0 0 4 2 35 35v2l4 2 4 4v2l-4-2-8-8v-2l-4-2-23-23-7-8z" fill="#CFAB6B"/>
<path transform="translate(646 1e3)" d="m0 0 3 2 1 23 2 9-4 1-3-12v-22z" fill="#F6D99C"/>
<path transform="translate(901,284)" d="m0 0 4 2 11 11 8 7v2l3 1 7 8 13 13-1 2-10-10-8-7-7-8-8-7-12-12z" fill="#C57D55"/>
<path transform="translate(679,134)" d="m0 0 1 2-8 10-13 13-2-1 6-7h2l2-4 9-9z" fill="#CEA86B"/>
<path transform="translate(596,1303)" d="m0 0 2 1-55 55-2 7-2-2 1-5z" fill="#F1C85D"/>
<path transform="translate(532,998)" d="m0 0 2 1-1 5-30 30-8 7-2 1 2-4 31-31z" fill="#ECCD90"/>
<path transform="translate(658,517)" d="m0 0 2 1-4 6-5 5-11 12 3 2 24 11 5 4-5-1-16-8-7-3-8-2-1-3 8-8 6-5 5-7z" fill="#F6D99C"/>
<path transform="translate(993,1600)" d="m0 0 2 2 3 5 3 2h5l5-4-3 6h-2l-1 5-2 1 1 7 2 3v5l-2 1-11-30z" fill="#DF886C"/>
<path transform="translate(1159,1095)" d="m0 0m-1 1m-1 1m-1 1m-1 1m-1 1m-1 1m-1 1m-1 1m-1 1m-1 1m-1 1m-1 1m-1 1m-1 1m-1 1m-1 1m-1 1m-1 1m-1 1m-1 1m-1 1m-1 1m-1 1m-1 1 1 3-33 33-1-3z" fill="#EBCC8F"/>
<path transform="translate(1432,456)" d="m0 0h5v3 2l3 3-6 2 1-2-4 2-22 22-7 8-5 4-1-3 8-7 4-5 7-6 5-6 7-6 1-2h2l2-4 2-2z" fill="#F6D99C"/>
<path transform="translate(1125,980)" d="m0 0h1l-1 11-9 37-2 10-1 12h-2l1-15 3-16 4-16 5-21z" fill="#BD5642"/>
<path transform="translate(990,373)" d="m0 0 4 2 31 31 11 12 13 13h-3l-26-26-7-8-23-23z" fill="#BF5F46"/>
<path transform="translate(1242,1714)" d="m0 0 4 2 4 3 4-1 5-4 2 1-6 7v4l6 1 4 1-6 9-2-4-4-6-6 1 1-6z" fill="#DC8368"/>
<path transform="translate(1219,1801)" d="m0 0 2 1-13 22-14 24-4 5 1-8h2l2-5 3-5 16-26 2-5z" fill="#C97B5D"/>
<path transform="translate(863,1054)" d="m0 0 1 3 5 1 2 1-1 6-4 1-9-2-4-5 1-2h3v2l4-1z" fill="#F3D697"/>
<path transform="translate(491,1042)" d="m0 0 2 1-21 21-7 9-9 9-5 3 2-5 23-23 6-7 8-7z" fill="#F6D99C"/>
<path transform="translate(885,1029)" d="m0 0 1 3-7 15-6 19-3 2-9-1-1-2h10l3-10 6-17 3-8 2 1z" fill="#BD5642"/>
<path transform="translate(686,397)" d="m0 0 2 1-11 15-2 4-4-1-3-4v-3l6-3z" fill="#FDFDFC"/>
<path transform="translate(271,1098)" d="m0 0 7 4 8 7 14 14 3 4-1 2-12-11-8-7-5-4-6-7z" fill="#E1BB5B"/>
<path transform="translate(570,294)" d="m0 0 5 1-3 11-1 3h-3l-7-8v-2l4-1v-2z" fill="#E4BE59"/>
<path transform="translate(893,281)" d="m0 0 2 3-16 16-8 7-18 18-2-1 25-25 7-8z" fill="#CE8956"/>
<path transform="translate(762,1640)" d="m0 0 1 3-8 21-4 12h-2l-1 5-2-1 2-9 4-9 6-16 2-5z" fill="#C7765A"/>
<path transform="translate(1251,1367)" d="m0 0h2l1 5h2v2h-3l-1 3-11 5-4 1-5 5-2-1 15-14 5-5z" fill="#D19E69"/>
<path transform="translate(1017,1489)" d="m0 0 7 6 14 14 7 8v2l4 2 8 8v2l4 2 2 4-5-3-18-18-6-7v-2h-2l-7-8-8-8z" fill="#C16953"/>
<path transform="translate(1328,930)" d="m0 0 2 1-13 13-8 7-32 32-2-1 43-43 6-5z" fill="#C68057"/>
<path transform="translate(1165,1447)" d="m0 0 3 1v1l2 1-8 6-16 15h-2l-2 4h-2v2l-3 1 2-4 9-10 13-12 3-2z" fill="#DA7964"/>
<path transform="translate(373,835)" d="m0 0 7 6 8 7 7 10 5 5 5 2-2 3-7-5v-2l-4-2-6-4-5-5 1-2 4 2-13-13z" fill="#E3BD59"/>
<path transform="translate(708,1787)" d="m0 0h2l-3 11-9 24-1-4 4-20 3-7 4-2z" fill="#D08665"/>
<path transform="translate(688,1070)" d="m0 0 15 2v2l5 1v2l-8 1h-10l-4-3z" fill="#FDD367"/>
<path transform="translate(532,282)" d="m0 0v3l-8 8h-2v2l-7 6-7 8-4 5-8 8h-2l-1 3-3 1 1-4 16-15 2-3h2l2-4 12-12z" fill="#D3AE68"/>
<path transform="translate(404,1126)" d="m0 0 3 1-3 6h-2l-2 4-8 7h-2l-2 4-4 4h-2l-2 4h-2l2-4 6-7 5-5h2l2-4 6-8z" fill="#F6D99C"/>
<path transform="translate(737,1064)" d="m0 0 2 3-10 7-11 5-8 2h-16l-5-1v-1l19-1 15-4 8-5h2v-2z" fill="#BD5642"/>
<path transform="translate(519,1376)" d="m0 0 5 1v2l15 8 18 10 8 4 3 3-5-1-16-8-23-13-5-4z" fill="#DD7059"/>
<path transform="translate(444,733)" d="m0 0v3l-30 30-8 7-3 3-2-1 34-34 8-7z" fill="#CDA368"/>
<path transform="translate(527,1372)" d="m0 0 2 2-1 4 7 4 10 6 16 10-2 1-19-10-7-4-10-6 3-6z" fill="#E3BD59"/>
<path transform="translate(481,946)" d="m0 0 4 2 49 49h-3l-50-50z" fill="#BD5642"/>
<path transform="translate(801,1266)" d="m0 0 4 2 8 8 8 7 10 9 5 5 5 6-1 2-8-7-5-5-11-12-8-7-7-7z" fill="#C88B5B"/>
<path transform="translate(1250,996)" d="m0 0 2 1v2l3 1-4 7-18 18-2-2 16-16 3-5z" fill="#EED197"/>
<path transform="translate(720,1460)" d="m0 0 9 1 22 5 29 5 4 2-6 4h-2l2-5-12-1-25-5-21-5z" fill="#DB6E58"/>
<path transform="translate(787,1012)" d="m0 0 1 3-4 13-1 19-2-1-1-6v-12l3-14z" fill="#BD5642"/>
<path transform="translate(1297,602)" d="m0 0m-1 1m-1 1m-2 1 2 1-34 34h-2l7 8 1 2-4-2-7-7v-2l8-5z" fill="#EAC163"/>
<path transform="translate(576,326)" d="m0 0h5l9 10 7 7-2 3h-2l-6-8-5-3-7-6z" fill="#FBD36B"/>
<path transform="translate(1277,1701)" d="m0 0h3l-1 9-3 3-10 2 1-4h2l2-4z" fill="#BD5642"/>
<path transform="translate(1078,1183)" d="m0 0 5 2 1 4h2v2l5 2 14 14 2 4-5-2-16-16-4-3v-3l-3-1z" fill="#CD9F64"/>
<path transform="translate(672,861)" d="m0 0v3l-5 6h-2l-2 4-6 7h-2l-2 4-9 9-3-1 5-5 6-7 5-5z" fill="#EED197"/>
<path transform="translate(906 1e3)" d="m0 0 3 2-1 1-2 14-9-3 2-5 4-6z" fill="#F7CD5F"/>
<path transform="translate(393,1296)" d="m0 0h3l-1 7-3 1v8l-9 6 3-10 4-10z" fill="#D96B52"/>
<path transform="translate(862,1393)" d="m0 0v3l-19 19-7 8-12 12v-3l3-4h2l2-4h2l2-4z" fill="#F6D99C"/>
<path transform="translate(1254,1358)" d="m0 0 4 2-1 2 2 2 2-2v3l2 1h-3l1 5-8 2v-6l-5 2 3-5 2-1-1-4z" fill="#F6D99C"/>
<path transform="translate(1296,679)" d="m0 0 4 2 25 25 3 5-4-2-28-28z" fill="#C88A5B"/>
<path transform="translate(831,581)" d="m0 0 8 3 9 9-2 4-4-2-11-11z" fill="#F7CF6C"/>
<path transform="translate(879,293)" d="m0 0 1 3-3 1-2 4-25 25-1-3 15-15h2l2-4z" fill="#E8C98B"/>
<path transform="translate(1278,1388)" d="m0 0h3v2h2v2h2v2h2v2h2v2h2l5 5 1 5h-3v-2h-2v-2h-2v-2h-2v-2h-2v-2h-2v-2h-2v-2h-2v-2h-2z" fill="#D18A64"/>
<path transform="translate(474,699)" d="m0 0 1 3-11 11-7 8-9 9-1-3 3-1 2-4 3-4h2l2-4 8-8h2l2-4h2z" fill="#E9C98C"/>
<path transform="translate(1102,430)" d="m0 0m-1 1m-1 1m-1 1m-1 1m-1 1m-1 1m-1 1 1 3-17 17-7 1-3-2v-2l4 1 7-3 5-6 8-7z" fill="#EBCC8F"/>
<path transform="translate(1297,241)" d="m0 0v3l-14 13-8 7-8 8-5 4-2-1 14-14 11-9 10-10z" fill="#CFAB6C"/>
<path transform="translate(552,620)" d="m0 0h2l-2 4-17 17-4 3h-3l2-5 2-2 2 1 1-3 8-6z" fill="#EFD49C"/>
<path transform="translate(377,481)" d="m0 0 5 2 6 4 8 10v2l-5-1-6-5-6-8z" fill="#CFAB6C"/>
<path transform="translate(491,1358)" d="m0 0 4 2 11 7 9 6 2 6-8 6 1-4 4-4-1-3-10-4v-2l-5-2-3-2v-2h-2z" fill="#DC6E58"/>
<path transform="translate(674,997)" d="m0 0h1l-1 13v17l2 9 5 12 3 5-4-2-6-9-2-13v-21z" fill="#CEA76A"/>
<path transform="translate(885,981)" d="m0 0 2 3 1 2v7l4-1-7 11-4 6-1-3 4-14z" fill="#CC945D"/>
<path transform="translate(1188,1071)" d="m0 0v3l-16 16-8 7-16 16-2-1 23-23 8-7z" fill="#C1664A"/>
<path transform="translate(1253,642)" d="m0 0h2l-1 5-14 14-8 7-4 2 6-7 14-15z" fill="#CC865E"/>
<path transform="translate(657,880)" d="m0 0v3l-15 16-20 20-3 1v-2l8-7 16-16 7-8 5-6z" fill="#BD5943"/>
<path transform="translate(746,1211)" d="m0 0h2l7 8 9 9 8 7 7 7 3 5-4-2v-2l-4-2-4-4v-2l-4-2-20-20z" fill="#BD5843"/>
<path transform="translate(890,644)" d="m0 0 3 1-40 40v-3l36-36z" fill="#BD5642"/>
<path transform="translate(1263,630)" d="m0 0h2l-2 4-5 5h-2l4 5-1 2-4-1v-3h-2l-2 4-5 4v-3l5-6 1-3 7-4h2z" fill="#EFD398"/>
<path transform="translate(1374,1279)" d="m0 0 2 1 2 9-4 2-9-3 2-4z" fill="#C67158"/>
<path transform="translate(1300,594)" d="m0 0h2l-2 4-17 16-13 13-2-1 10-10 7-8h2v-2l8-7z" fill="#F1D496"/>
<path transform="translate(1108,978)" d="m0 0 3 1 4 1-1 4-4-1-2 5-6 5-2-1 2-5 2-4h2l-1-3z" fill="#F6D899"/>
<path transform="translate(1057,798)" d="m0 0h2v2h2l9 9v2l10-1h3l-4 5-3 2h-3l-7-8-9-9z" fill="#F7CD64"/>
<path transform="translate(570,675)" d="m0 0 4 1 5 5 11 10v2l-4 1-15-16z" fill="#CCA167"/>
<path transform="translate(532,284)" d="m0 0 2 1-27 27-3 4h-2l-2 4-2-1 4-5h2l2-4 7-7 7-8h2v-2l8-7z" fill="#E8C15A"/>
<path transform="translate(1054,1201)" d="m0 0v3l-12 12-7 8-9 8h-2l1-3 5-4 5-5z" fill="#EFD194"/>
<path transform="translate(848,1052)" d="m0 0h2l-2 6-8 7-6 2h-11l-3-2 14-1 8-5z" fill="#C05743"/>
<path transform="translate(749,1676)" d="m0 0 1 3-9 25-3-2 3-11 2-7h3z" fill="#CD8161"/>
<path transform="translate(1017,1666)" d="m0 0h2l5 10 4 14v6l-2-2-9-25z" fill="#E5A17A"/>
<path transform="translate(970,1284)" d="m0 0m-1 1 1 3-18 18-3-1 3-5 13-11z" fill="#ECCD90"/>
<path transform="translate(1088,1862)" d="m0 0h2l4 10v3l5-1v10l1 5-4-5-6-14z" fill="#DE896C"/>
<path transform="translate(1195,1421)" d="m0 0v3l-12 12h-2l-2 4-9 9-4 2 2-5h3l2-4 3-3 1-3 6-3z" fill="#E3BF84"/>
<path transform="translate(1067,1011)" d="m0 0 2 1-3 12-1 9v14h-2l-1-7v-11l4-16z" fill="#BD5642"/>
<path transform="translate(710,457)" d="m0 0h3l1 5h-2v2l-8 7-6 7h-2l-2 4h-2l2-4 7-8h2v-2h2l2-5z" fill="#F2D497"/>
<path transform="translate(460,1284)" d="m0 0 5 3 11 11v2h-2v-2l-6-2-7-6-3-4h2z" fill="#F5D89B"/>
<path transform="translate(1340,723)" d="m0 0 5 2 1 3 3 1 3 5 19 19h-3l-21-21v-2l-3-1v-2l-4-2z" fill="#BD5642"/>
<path transform="translate(693,482)" d="m0 0v3l-32 32-1-2 5-5z" fill="#C47251"/>
<path transform="translate(592,1873)" d="m0 0 3 1 4 7 4 1 4 7 2 2-1 4-6-5-8-13z" fill="#E18364"/>
<path transform="translate(1121,142)" d="m0 0 3 1v2l4 2 7 6 1 4 4 2 1 2-3 1-6-7-7-6-4-5z" fill="#DCB75F"/>
<path transform="translate(671,1884)" d="m0 0 2 3-8 9-9 5 1-4 7-6 5-5z" fill="#CF8263"/>
<path transform="translate(482,1350)" d="m0 0 5 2 16 11 11 7 3 1v3l-4-2-12-7-11-8-8-6z" fill="#E3BD59"/>
<path transform="translate(393,779)" d="m0 0 2 1-22 22-3 1v-3l8-7 10-10z" fill="#F6D99C"/>
<path transform="translate(560,257)" d="m0 0 2 1-11 11-8 7 1 8-3-1-3-6 1-3 7-4 5-4 5-5z" fill="#E3BD5A"/>
<path transform="translate(794,996)" d="m0 0v3l-3 8-2 8-2-2-2 3-2-4 6-11z" fill="#C88C5C"/>
<path transform="translate(1429,470)" d="m0 0v3l-18 18-10 13h-2l2-5 7-7 7-8z" fill="#E7C15A"/>
<path transform="translate(1056,477)" d="m0 0v3l-10 10-7 8-3 2v-3zm-22 22m-1 1m-1 1m-1 1m-1 1m-1 1m-1 1 1 2-2-1z" fill="#F0D397"/>
<path transform="translate(739,438)" d="m0 0m-1 1m-1 1m-1 1m-1 1m-1 1m-2 1 2 1-15 15-1 2 3 1 4 6-4-2-6-6v-3l8-5z" fill="#E9BF63"/>
<path transform="translate(955,338)" d="m0 0 4 2 27 27-1 2-22-22-8-7z" fill="#C0674A"/>
<path transform="translate(738,1702)" d="m0 0 2 1-2 9-5 12h-2l2-10 2-8h2z" fill="#C8765B"/>
<path transform="translate(1416,1397)" d="m0 0 2 2 7 20v3h-3l-1-4-1-3 1-2-3-1v-4l-2-1z" fill="#E59E79"/>
<path transform="translate(496,1717)" d="m0 0 7 1v2l4 2 5 5v2h-3v-2l-3 1-4-5-6-5z" fill="#E07056"/>
<path transform="translate(752,1584)" d="m0 0 5 2 7 8 8 7v2h5l-2 6-4-5-8-7-7-8z" fill="#DC7D66"/>
<path transform="translate(436,1316)" d="m0 0 4 2 6 5 5 2 13 11v2l-4-2-12-9-11-9z" fill="#DE6A54"/>
<path transform="translate(720,933)" d="m0 0h13v1l-16 3-11 7-2-1 1-4 11-5z" fill="#BD5642"/>
<path transform="translate(236,701)" d="m0 0 4 2 21 21v2h2l-1 2-6-5-5-5-8-9-3-2v-2l-3-1z" fill="#CFAB6C"/>
<path transform="translate(847,325)" d="m0 0h2l-1 4-14 14-2-2 7-8 7-6z" fill="#EDCE90"/>
<path transform="translate(901,284)" d="m0 0 4 2 11 11 6 5-1 3-8-7-12-12z" fill="#C88E5D"/>
<path transform="translate(570,230)" d="m0 0 9 2-1 5-4 3h-2l-3-6z" fill="#FEFEFE"/>
<path transform="translate(661,1066)" d="m0 0 5 2 13 6 6 2-2 3-5-1-11-6-6-5z" fill="#CEA96B"/>
<path transform="translate(1048,1062)" d="m0 0 5 1 16 1-2 2h3v2h-12l-8-3z" fill="#CFAB6C"/>
<path transform="translate(1139,1031)" d="m0 0 3 3-1 3v-2h-2l-1 7-6 10-6 6-2-1 7-8 5-11z" fill="#E4BE59"/>
<path transform="translate(712,463)" d="m0 0v3l-9 10-7 6-2-1 2-3h2l2-4 10-10z" fill="#DDAC60"/>
<path transform="translate(804,1052)" d="m0 0 1 3-7 8-5 3-4 1h-14l-2-2h12l8-3 6-3z" fill="#BD5642"/>
<path transform="translate(1238,980)" d="m0 0 7 6 9 10v3h-2l-5-5-5-6v-2h-2z" fill="#CA9662"/>
<path transform="translate(315,496)" d="m0 0v3l-3 1-2 4h-2v3l-7 6-2 3h-2l-1 3h-2v2l-3 1v-2h2l2-4 8-9h2l2-4h2l2-4z" fill="#F6D99C"/>
<path transform="translate(432,1259)" d="m0 0h5l7 7 2 4 4 4v2l-4-2-14-14z" fill="#E4C06B"/>
<path transform="translate(240,936)" d="m0 0 2 1-17 17-7 6-2-1 1-2h2l1-3 8-7z" fill="#D5B066"/>
<path transform="translate(787,750)" d="m0 0 2 1-10 10-4 5-5 3-5 5-2-1 7-7 4-5 5-3z" fill="#C16C4D"/>
<path transform="translate(575,1409)" d="m0 0 5 2 7 3 2 5 3 1-1 2h-3l-11-10-2-1z" fill="#DB7761"/>
<path transform="translate(1204,1408)" d="m0 0 3 1-9 10v3l-4 1-12 12v-3l21-21z" fill="#D48F67"/>
<path transform="translate(419,884)" d="m0 0 4 2 5 5v2l5 2-1 2 5 5-1 2-5-4v-2l-4-2-4-5z" fill="#DDB860"/>
<path transform="translate(1391,411)" d="m0 0 7 6 16 16 1 4-6-4v-2h-2l-3-5-13-13z" fill="#DFBA5C"/>
<path transform="translate(1415,437)" d="m0 0 4 2 16 16-1 2-8-7-11-11z" fill="#CFAB6C"/>
<path transform="translate(682,968)" d="m0 0 1 3-5 10-2 6-2-1 1-7 4-10z" fill="#CEA669"/>
<path transform="translate(684,853)" d="m0 0v3l-2 1zm-4 4 2 1-15 15-5 4-2 3-2-1 7-9 5-3z" fill="#D59C5C"/>
<path transform="translate(1205,588)" d="m0 0 4 2 21 21-1 2-17-17-7-6z" fill="#C0684B"/>
<path transform="translate(1170,1883)" d="m0 0h2l-2 5-7 8-5 3h-2v-3l5-3 5-5h2z" fill="#CA7A5D"/>
<path transform="translate(770,1617)" d="m0 0 2 1-8 22-2-3 1-4 2-4 3-8z" fill="#CD7F61"/>
<path transform="translate(558,1341)" d="m0 0v3l-15 15-2 7-2-2 1-5z" fill="#E5C05E"/>
<path transform="translate(347,817)" d="m0 0h5l1 4-6 5-4 2 2-6z" fill="#F6D99C"/>
<path transform="translate(468,1295)" d="m0 0 6 3v2l3 1 5 6 5 5 4 5-4-2-12-12-3-2z" fill="#D6B165"/>
<path transform="translate(653,1245)" d="m0 0v3l-9 10-11 11-2-1 10-10 7-8z" fill="#BD5642"/>
<path transform="translate(265,1641)" d="m0 0h1l-1 9-6 15h-2l3-11z" fill="#E49A77"/>
<path transform="translate(841,1308)" d="m0 0 4 2 3 3 2 5-4 1-6-7z" fill="#F1D395"/>
<path transform="translate(445,908)" d="m0 0 4 2 4 3v2l4 2 10 11-1 2-10-10v-2l-4-2-1-3-4-2z" fill="#E4BE59"/>
<path transform="translate(908,266)" d="m0 0 2 2-9 8-1 6 1 2-6-3v-4l6-4z" fill="#CA9661"/>
<path transform="translate(1009,1644)" d="m0 0 4 2 2 8 2 5v7l-2-3-6-16z" fill="#E6A07B"/>
<path transform="translate(1286,1350)" d="m0 0 2 1-16 11-8 5h-3l-1 2v-3l6-3z" fill="#E1BB5B"/>
<path transform="translate(368,803)" d="m0 0 2 1-8 7-5 6h-3l-1-4 11-6z" fill="#F6D99C"/>
<path transform="translate(279,741)" d="m0 0 7 6 7 8 4 3v2l-5-2-2-4h-3l-1-3-3-3-4-5z" fill="#F6D99C"/>
<path transform="translate(981,1471)" d="m0 0h10v1l-8 2-2 1h-18v-1l8-2z" fill="#E2B35A"/>
<path transform="translate(1312,1332)" d="m0 0 3 1-11 8-8 6-5 2 5-5 13-10z" fill="#DD6C56"/>
<path transform="translate(801,1266)" d="m0 0 4 2 8 8 8 7 4 4-1 2-8-8-8-7-7-7z" fill="#BD5642"/>
<path transform="translate(940,1057)" d="m0 0 2 2-6 5-4 2-12 1-1-2 13-2z" fill="#BD5642"/>
<path transform="translate(688,432)" d="m0 0 4 2 4 3v2l4 2 3 4-1 2-10-9-4-4z" fill="#C88C5D"/>
<path transform="translate(590,1421)" d="m0 0 4 1 3 3v2h2v2h2l-1 4h-2v-2h-2v-2h-2v-2h-2v-2h-2z" fill="#D28D66"/>
<path transform="translate(358,1177)" d="m0 0h2l-1 5 6 8-1 2-10-9v-4z" fill="#CFAB6B"/>
<path transform="translate(1053,436)" d="m0 0 4 2 16 16-1 2-10-10-8-7z" fill="#C37250"/>
<path transform="translate(1034,1224)" d="m0 0v3h-2l-2 4-13 14-2-1 9-10 7-8z" fill="#C26F4E"/>
<path transform="translate(268,1097)" d="m0 0 3 1 5 7-1 7-3-4-4-9z" fill="#F6DBA2"/>
<path transform="translate(763,939)" d="m0 0 2 1 2 6v12l-2 6-1-3v-12z" fill="#BD5642"/>
<path transform="translate(620,914)" d="m0 0m-1 1m-1 1m-1 1m-1 1m-1 1m-1 1m-1 1m-1 1m-1 1m-1 1m-1 1m-1 1m-1 1m-1 1m-1 1 1 3-11 10v-3z" fill="#F0D294"/>
<path transform="translate(1568,692)" d="m0 0v3l-11 10-8 6 2-4h2l2-4 5-5 5-2 1-3z" fill="#CB9C64"/>
<path transform="translate(534,556)" d="m0 0 2 1-10 7-7 5h-2l1-4 3-3v2z" fill="#F6D99C"/>
<path transform="translate(519,1376)" d="m0 0 5 1v2l13 7 1 3-5-2-10-6-4-3z" fill="#D76F59"/>
<path transform="translate(641,1256)" d="m0 0v3l-9 9-7 8h-2l2-4z" fill="#CB9B64"/>
<path transform="translate(1233,616)" d="m0 0 4 2 11 11 1 3-4-2-12-12z" fill="#C88A5C"/>
<path transform="translate(676,547)" d="m0 0 4 5 7 11 2 6-7-3v-2h3l-9-14z" fill="#F6D99C"/>
<path transform="translate(760,413)" d="m0 0m-1 1m-1 1m-1 1m-1 1 1 3-9 9-5 4-2-1z" fill="#EDCE91"/>
<path transform="translate(394,1223)" d="m0 0 7 6 14 14h-3l-18-18z" fill="#F6D99C"/>
<path transform="translate(783,527)" d="m0 0 7 6 6 4v2l3 1 2 5-4-2v-2l-3-1v-2l-4-2-7-7z" fill="#C4704C"/>
<path transform="translate(1028,1696)" d="m0 0 3 1 4 13 1 4-1 4-7-19z" fill="#E29774"/>
<path transform="translate(803,1475)" d="m0 0 15 1 4 1-1 6-2-4h-5v-2h-11z" fill="#CB735A"/>
<path transform="translate(505,1031)" d="m0 0 2 1-5 5-3-1z" fill="#CCA167"/>
<path transform="translate(1035,968)" d="m0 0h1l1 5v13l-1 5-2-2z" fill="#BD5642"/>
<path transform="translate(662,406)" d="m0 0 7 6 11 12h-3l-9-8-6-8z" fill="#C57352"/>
<path transform="translate(393,1296)" d="m0 0h3l-1 7-5 2-2 1 2-8z" fill="#DD6952"/>
<path transform="translate(519,623)" d="m0 0 5 2 7 8 3 3v2l-4-2-7-7z" fill="#C88B5C"/>
<path transform="translate(879,293)" d="m0 0 1 3-3 1-2 4-8 8-1-3z" fill="#E9CA8C"/>
<path transform="translate(532,1366)" d="m0 0v3l-6 5-1 3h-5-4v-3l7-1z" fill="#CFAB6B"/>
<path transform="translate(1364,1287)" d="m0 0 5 1 1 2-6 1v2l-6 4-1 2-3-1 8-8z" fill="#DE654E"/>
<path transform="translate(339,830)" d="m0 0h2l-2 4-5 5-7 6 2-4 6-8z" fill="#F6D99C"/>
<path transform="translate(474,699)" d="m0 0 1 3-11 11-2-2 5-5h2l2-4h2z" fill="#EACB8D"/>
<path transform="translate(738,434)" d="m0 0h2l-2 4-13 12-2 1 2-4z" fill="#EFD093"/>
<path transform="translate(464,351)" d="m0 0h2l-2 4-8 8h-2l-1 3-1-2 7-8z" fill="#D5B066"/>
<path transform="translate(532,282)" d="m0 0v3l-8 8h-2v2l-5 4-2-1 10-10z" fill="#CFAB6C"/>
<path transform="translate(688,1842)" d="m0 0h2l-3 10-3 7-1-4v-6l4-4z" fill="#D6926C"/>
<path transform="translate(352,1184)" d="m0 0 1 2-2 3h-2l-1 3-8 8-2-1 9-10z" fill="#CFAB6C"/>
<path transform="translate(906 1e3)" d="m0 0h1v7l-1 5-7-2v-2l6-2v-5z" fill="#E2BD5A"/>
<path transform="translate(1328,930)" d="m0 0 2 1-13 13h-3l1-3 9-7z" fill="#CA9460"/>
<path transform="translate(600,704)" d="m0 0h2v2l4 2 8 8-2 2-12-12z" fill="#BD5642"/>
<path transform="translate(570,675)" d="m0 0 4 1 5 5 3 4-2 2-9-9z" fill="#BD5642"/>
<path transform="translate(519,1747)" d="m0 0h5l2 2v6l-4-1-3-5z" fill="#C76E55"/>
<path transform="translate(791,1469)" d="m0 0 1 2 24 4v1l-16-1-10-2z" fill="#E3BD59"/>
<path transform="translate(507,1369)" d="m0 0 6 2 3 3 1 5-8 6 1-4 4-4-1-3-6-4z" fill="#DC7A65"/>
<path transform="translate(1078,1183)" d="m0 0 5 2 1 4h2v2h2l4 6-4-2-6-5v-3l-3-1z" fill="#C98455"/>
<path transform="translate(541,995)" d="m0 0 2 1-4 4 4 8-5-3-2-2-4 3 2-4 5-5z" fill="#C16A4C"/>
<path transform="translate(1057,798)" d="m0 0h2v2h2l5 5 5 6-1 2-13-13z" fill="#E7C789"/>
<path transform="translate(658,517)" d="m0 0 2 1-4 6-10 10-2-1 9-10z" fill="#CA8C5E"/>
<path transform="translate(725,469)" d="m0 0 5 2 4 4v2l4 2-3 2-6-7-4-3z" fill="#C88A5C"/>
<path transform="translate(1425,1422)" d="m0 0 2 3 3 8v3h-3l-3-9z" fill="#E19473"/>
<path transform="translate(1114,419)" d="m0 0m-1 1m-1 1m-1 1m-1 1m-1 1m-1 1m-1 1 1 3-11 10v-3z" fill="#EFD194"/>
<path transform="translate(675,1039)" d="m0 0h2l7 14-4-2-6-9z" fill="#CFAB6C"/>
<path transform="translate(391,855)" d="m0 0 6 5 3 3 5 2-2 3-7-5v-2l-4-2z" fill="#D5B066"/>
<path transform="translate(430,1309)" d="m0 0 4 2 14 12h-3l-7-6-4-2z" fill="#DC7863"/>
<path transform="translate(569,317)" d="m0 0 4 2 2 4-1 1h-6z" fill="#FEFEFE"/>
<path transform="translate(272,1626)" d="m0 0 1 4-4 9-3 1 3-10 1-3z" fill="#E18F70"/>
<path transform="translate(543,631)" d="m0 0 2 1-6 7-2 2 5 5-5-2-3-3 5-5z" fill="#BF6047"/>
<path transform="translate(1177,560)" d="m0 0 4 2 8 8-1 2-8-7-3-3z" fill="#C7895B"/>
<path transform="translate(714,456)" d="m0 0h1l2 6 5 6-5-2-4-1-1-3h2l-1-5z" fill="#E5C587"/>
<path transform="translate(471,342)" d="m0 0v3l-13 13v-3l8-9z" fill="#F6D99C"/>
<path transform="translate(519,1733)" d="m0 0m-1 1 1 2-1 6-1 3-4-6 2-4z" fill="#DD876A"/>
<path transform="translate(974,1549)" d="m0 0h2l4 10v6l-2-2-4-12z" fill="#E6A07B"/>
<path transform="translate(1348,1301)" d="m0 0 2 1-9 9-2 3-4-1z" fill="#DD725C"/>
<path transform="translate(643,533)" d="m0 0 3 2-8 7-3-1z" fill="#E1BF82"/>
<path transform="translate(712,463)" d="m0 0v3l-12 11-2 1 2-4 10-10z" fill="#BD5642"/>
<path transform="translate(1219,1801)" d="m0 0 2 1-7 12-2-2 4-8z" fill="#C7765A"/>
<path transform="translate(952,1476)" d="m0 0h9l-4 2-5 2v7l-2-3v-6z" fill="#DD7860"/>
<path transform="translate(802,987)" d="m0 0 5 1-9 6v-2l-2-1z" fill="#BD5642"/>
<path transform="translate(733,441)" d="m0 0h2l-1 3-8 7-6 5 2-4z" fill="#BF5844"/>
<path transform="translate(1196,1840)" d="m0 0 1 3-6 10-1-4 1-4h2l2-4z" fill="#CB7D5F"/>
<path transform="translate(496,1717)" d="m0 0 7 1v2l3 1v2l-7-2z" fill="#C96F57"/>
<path transform="translate(568,1404)" d="m0 0 5 1 8 4 2 4-10-4v-2l-5-2z" fill="#E0AF5B"/>
<path transform="translate(436,1263)" d="m0 0 4 2 6 5 4 4v2l-4-2-10-10z" fill="#D1AC6A"/>
<path transform="translate(339,1196)" d="m0 0 1 3 2-1-2 4-4 3h-2l1-5z" fill="#E4BE59"/>
<path transform="translate(1083,1053)" d="m0 0 3 2-2 4-3 3-2-1 1-5z" fill="#CFAB6C"/>
<path transform="translate(892,639)" d="m0 0h2l-1 3-6 2v-2z" fill="#F8E6BF"/>
<path transform="translate(799,542)" d="m0 0 4 2v2l4 2 6 7-4-2-5-5-2 1z" fill="#D6AC61"/>
<path transform="translate(670,502)" d="m0 0h2l-2 4-6 5-3-2 1-3v2l5-3z" fill="#EBCC8F"/>
<path transform="translate(762,1640)" d="m0 0 1 3-3 8-2-4 1-5z" fill="#CA7A5D"/>
<path transform="translate(1e3 1620)" d="m0 0 3 4 2 3v5l-2 1-3-8z" fill="#E59E79"/>
<path transform="translate(891,1371)" d="m0 0h6l5 6-8-2-1-3z" fill="#E4BE59"/>
<path transform="translate(1333,1314)" d="m0 0 4 1-3 3h-2l-1 3-4 1 2-4z" fill="#DD6C56"/>
<path transform="translate(629,540)" d="m0 0 6 2-6 7-4 3 2-4 3-4z" fill="#F4D79A"/>
<path transform="translate(968,1532)" d="m0 0h2l4 11v5l-2-3-4-11z" fill="#E7A27C"/>
<path transform="translate(956,1499)" d="m0 0 3 3 3 6v7l-2-3-4-11z" fill="#E69F7A"/>
<path transform="translate(793,1464)" d="m0 0h2l-2 4-3 5-6-1 5-4z" fill="#D39969"/>
<path transform="translate(1015,980)" d="m0 0 2 2 2-2v7l-1 5-2-1-1-4z" fill="#BD5642"/>
<path transform="translate(649,886)" d="m0 0v3l-5 5-3-1 5-5z" fill="#F7E0B1"/>
<path transform="translate(1259,637)" d="m0 0 2 1-1 4 7 7h-3l-8-8v-2z" fill="#BD5642"/>
<path transform="translate(710,457)" d="m0 0h3l1 5h-2v2l-4-1z" fill="#F7E4BD"/>
<path transform="translate(1495,1615)" d="m0 0 2 2 3 10-5-5-1-4z" fill="#E08C6E"/>
<path transform="translate(775,1471)" d="m0 0 9 1-4 4-4 1 2-5z" fill="#D98565"/>
<path transform="translate(1255 1e3)" d="m0 0 4 1 6 7-4-2-4-3-4 1z" fill="#EACB8D"/>
<path transform="translate(1211,1400)" d="m0 0 2 3-6 5v-3l-2-2z" fill="#CB6F59"/>
<path transform="translate(1032,1222)" d="m0 0 2 1zm-1 1 1 3-6 6h-2l1-3 5-4z" fill="#F8E2B6"/>
<path transform="translate(1465,1158)" d="m0 0 1 3-4 5h-5l5-6z" fill="#F6D99C"/>
<path transform="translate(1475,1146)" d="m0 0 1 2-6 10-2-4 4-5h2z" fill="#F6DA9D"/>
<path transform="translate(762,945)" d="m0 0h1v12l-3 3 1-10z" fill="#FCD268"/>
<path transform="translate(362,832)" d="m0 0 5 2 4 5-6-2h-2z" fill="#F6D99C"/>
<path transform="translate(1340,723)" d="m0 0 5 2 1 3 3 1-1 3-1-2-3-1v-2l-4-2z" fill="#CA8754"/>
<path transform="translate(887,629)" d="m0 0 8 6-1 3-4-1-1-4z" fill="#CEA76A"/>
<path transform="translate(1077,457)" d="m0 0h2l-1 4-4 3h-2l-2 1 2-4z" fill="#D19868"/>
<path transform="translate(717,457)" d="m0 0 1 4 5 5 2 3-4-2-6-6v-3z" fill="#BD5642"/>
</svg>
