<?xml version="1.0" encoding="UTF-8" standalone="no"?>
<svg
   version="1.1"
   viewBox="0 0 866.3931 1157.8325"
   width="324.6055"
   height="433.46353"
   id="svg252"
   sodipodi:docname="phone.svg"
   inkscape:version="1.3.2 (091e20e, 2023-11-25, custom)"
   xmlns:inkscape="http://www.inkscape.org/namespaces/inkscape"
   xmlns:sodipodi="http://sodipodi.sourceforge.net/DTD/sodipodi-0.dtd"
   xmlns="http://www.w3.org/2000/svg"
   xmlns:svg="http://www.w3.org/2000/svg">
  <defs
     id="defs252">
    <pattern
       patternUnits="userSpaceOnUse"
       width="324.60549"
       height="433.46354"
       patternTransform="translate(54.918664,74.711038)"
       preserveAspectRatio="xMidYMid"
       id="pattern503"
       inkscape:label="pattern503">
      <rect
         style="fill:none;fill-rule:evenodd;stroke:#000000;stroke-width:1;stroke-opacity:1"
         id="rect503"
         width="323.6055"
         height="432.46353"
         x="0.50000024"
         y="0.50000024" />
    </pattern>
  </defs>
  <sodipodi:namedview
     id="namedview252"
     pagecolor="#ffffff"
     bordercolor="#000000"
     borderopacity="0.25"
     inkscape:showpageshadow="2"
     inkscape:pageopacity="0.0"
     inkscape:pagecheckerboard="0"
     inkscape:deskcolor="#d1d1d1"
     inkscape:zoom="1.0104898"
     inkscape:cx="216.23177"
     inkscape:cy="286.98953"
     inkscape:window-width="1920"
     inkscape:window-height="1052"
     inkscape:window-x="-8"
     inkscape:window-y="-8"
     inkscape:window-maximized="1"
     inkscape:current-layer="svg252" />
  <path
     d="m 301.30574,323.43797 h 228 l 16,1 4,4 v 171 l -1,6 2,11 14,2 2,1 1,14 16,6 13,8 6,5 3,6 1,9 -2,8 -4,6 -9,6 -14,6 -11,3 -19,2 h -7 l -1,17 16,-8 8,-2 h 14 l 11,4 8,6 6,12 v 8 l -4,11 -11,15 -5,6 -7,6 -1,2 4,2 10,7 6,7 3,8 -2,10 -6,10 -8,10 -8,9 -11,4 -8,2 h -5 v 48 l -3,4 -4,1 h -36 l -32,-1 -7,10 -11,18 -12,17 -12,13 -12,11 -15,10 -14,7 -15,5 -13,30 -4,9 v 4 l 23,10 5,5 -6,21 -7,26 -1,10.00003 10,10 -2,10 -5,16 -8,26 -18,56 -7,21 -4,11 -3,5 -9,2 -18,1 -230.999997,-1 -1,-1 1,-8 11,-26 14.999997,-37 11,-27 15,-36 12,-31.00003 17,-42 6,-11 7,-6 h 2 l 2,-5 11,-29 8,-22 4,-1 14,1 7,-14 7,-18 -7,-31 -5,-37 -3,-38 -1,-30 v -52 l 2,-14 5,-17 11,-33 20,-55 10,-32 9,-24 5,-8 6,-1 7,4 7,10 1,-1 1,-7 1,-38 v -114 z m -6,203 -4,13 -4,9 -1,5 2,1 8,-1 2,-3 -1,-8 -1,-16 z m -8,31 -1,1 v 17 l -1,12 h 4 l 3,-12 2,-10 v -4 z m -2,37 -2,7 -3,18 v 8 l 3,9 3,3 5,-1 1,-4 -2,-3 v -3 l 5,-3 -1,-9 -4,-19 -3,-3 z"
     fill="#62bbd1"
     id="path1" />
  <path
     d="m 275.30574,474.43797 7,1 6,5 7,12 2,16 -1,18 -4,13 -4,9 -1,10 v 17 l -1,11 -2,5 v 10 l -3,18 v 8 l 3,9 5,6 7,5 v 142 l 2,6 2,1 172,1 -2,4 -9,15 -12,18 -7,9 -9,10 -13,12 -15,10 -14,7 -15,5 -13,30 -4,9 v 4 l 23,10 5,5 -6,21 -7,26 -1,10.00003 10,10 -2,10 -5,16 -8,26 -18,56 -7,21 -4,11 -3,5 -9,2 -18,1 -230.999997,-1 -1,-1 1,-8 11,-26 14.999997,-37 11,-27 15,-36 12,-31.00003 17,-42 6,-11 7,-6 h 2 l 2,-5 11,-29 8,-22 4,-1 14,1 7,-14 7,-18 -7,-31 -5,-37 -3,-38 -1,-30 v -52 l 2,-14 5,-17 11,-33 20,-55 10,-32 9,-24 5,-8 z"
     fill="#ea9969"
     id="path2" />
  <path
     d="m 582.30574,286.43797 h 26 l 96,2 2,4 v 4 l 105,1 v 27 h 55 v 175 h -235 l -1,-26 h -53 l -1,-1 v -175 l 4,-3 z"
     fill="#f5f6f3"
     id="path3" />
  <path
     d="m 175.30574,931.43797 1,4 12,2 33,9 31,9 36,12 44,17 20,9 9,4 7,3.00003 v 2 l 4,-1 5,5 5,4 1,5 -7,23 -8,26 -18,56 -7,21 -4,11 -3,5 -9,2 -18,1 -230.999997,-1 -1,-1 1,-8 11,-26 14.999997,-37 11,-27 15,-36 12,-31.00003 17,-42 6,-11 7,-6 h 2 z"
     fill="#21202c"
     id="path4" />
  <path
     d="m 416.30574,2.4379678 h 18 l 18,4 17,8.0000002 12,9 5,4 v 2 h 2 l 9,12 9,17 4,16 1,6 v 19 l -4,18.000002 -8,16 -7,11 -8,10 -8,13 -7,15 -6,20 -5,24 -3,5 v 50 l -16,11 -7,6 -7,2 -8,-2 -6,-4 -10,-7 -5,-4 -5,-1 2,-6 v -8 l -1,-6 v -26 l -5,-22 -5,-23 -8,-20 -9,-15 -15,-20 -8,-16 -4,-13 -2,-19.000002 2,-16 5,-16 8,-16 9,-11 11,-10 13,-8 15,-6.0000002 z"
     fill="#e9b430"
     id="path5" />
  <path
     d="m 106.30574,263.43797 h 17 l 17,3 18,6 15,8 12,9 11,10 3,5 -10,9 -14,11 -16,13 -13,11 -11,9 -13,11 -8,6 -1,2 5,2 17,13 13,10 16,12 21,16 13,10 3,4 -11,12 -9,8 -15,10 -11,5 -18,5 -13,2 H 99.305743 l -18,-4 -15,-6 -15,-8 -14,-11 -11,-12 -10,-15 -6.9999998,-15 -4,-13 -3,-18 v -17 l 3,-19 4.9999998,-15 8,-16 10,-14 12,-12 14,-10 15,-8 18,-6 z"
     fill="#e9c056"
     id="path6" />
  <path
     d="m 301.30574,323.43797 h 228 l 16,1 4,4 v 171 l -1,6 2,11 14,2 2,1 1,14 16,6 13,8 6,5 3,6 1,9 -2,8 -4,6 -9,6 -14,6 -11,3 -28,3 -2,-5 -8,-8 -5,-3 h -6 l -16,7 -7,1 -1,17 -1,1 h -15 l -1,-1 -1,-15 -14,-6 -5,-3 -4,-16 -1,-10 5,-3 -1,-4 -9,1 -8,-12 -3,-4 1,-4 2,-5 h -4 l -5,3 -15,-11 2,-2 3,-1 4,-13 7,-14 -1,-5 -6,-7 -3,-2 2,-4 6,-6 h 2 v -2 l 5,1 9,9 5,-2 14,-7 11,-3 1,-1 1,-16 h 17 l 1,16 9,3 16,7 6,2 8,-8 4,-2 1,-3 v -92 l -4,-4 -48,-1 h -149 l -26,1 -3,2 -1,5 v 156 l -1,16 -7,10 h -1 l -2,-10 -1,-18 1,-16 -2,-16 -1,-3 2,-9 1,-38 v -114 z"
     fill="#c62b31"
     id="path7" />
  <path
     d="m 582.30574,286.43797 h 26 l 96,2 2,4 v 4 l 105,1 v 17 l -1,30 v 127 l -1,1 -34,1 v 18 h -1 l -1,-16 h -10 v 8 h -1 v -11 h -31 l -23,-1 1,-2 12,-1 1,-2 h 56 l 2,1 v 2 l 5,-1 4,-1 8,3 11,1 -1,-65 h -3 l -1,59 h -81 l -2,-1 -1,-57 -2,-6 h -12 v -1 h 10 v -60 l -129,-1 v -1 l 58,-1 3,-1 45,1 h 16 l -6,-2 2,-1 v -2 l -7,-1 -18,-1 -98,-1 -1,2 -1,82 v 58 h 74 l 70,1 38,1 v 18 l -1,1 h -117 l -3,-1 -1,-16 -6,-1 v 24 l 2,1 h -4 l -1,-26 h -53 l -1,-1 v -175 l 4,-3 z"
     fill="#e1f5fb"
     id="path8" />
  <path
     d="m 322.30574,367.43797 h 122 l 87,1 4,3 1,3 v 59 l -1,25 -3,8 -7,7 -6,-2 -16,-7 -9,-3 -1,-1 v -16 h -17 v 16 l -2,2 -16,5 -9,5 -5,2 -10,-10 -4,-1 v 2 l -8,7 -1,3 10,10 -1,6 -5,8 -6,-2 -36,-17 -37,-18 -23,-11 -11,-6 -2,-2 v -71 l 4,-4 z"
     fill="#b3d9ed"
     id="path9" />
  <path
     d="m 517.30574,582.43797 h 6 l 8,6 7,7 v 4 h 2 l -1,16 2,1 h -2 l -2,5 -16,16 -4,7 -1,4 v 9 l 3,8 4,5 8,4 7,2 2,7 -1,3 -8,7 -10,9 -4,6 -1,4 1,13 3,6 5,6 h -113 l -20,-1 -7,1 h -40 l -34,-1 -3,-4 v -71 l 1,-3 6,-5 5,2 12,9 2,1 -1,5 v 4 h 3 l 3,-6 9,2 21,5 1,5 1,3 h 4 v -8 l 20,-4 6,-2 h 4 l 2,6 4,1 -3,-9 15,-10 7,-5 4,4 3,1 -3,-10 2,-3 v -6 l 3,-4 h 2 l 3,-11 3,-10 h 2 l 4,-20 3,-7 h 5 l 14,6 1,1 1,15 h 15 l 1,-15 1,-2 14,-5 z"
     fill="#79bbe0"
     id="path10" />
  <path
     d="m 297.30574,631.43797 4,2 6,9 1,91 3,4 4,1 h 212 l 21,2 2,4 -1,48 -3,4 -4,1 h -36 l -32,-1 -1,1 h -173 l -4,-4 -1,-4 v -142 l -9,-7 3,-2 2,-1 1,-4 z"
     fill="#282d3a"
     id="path11" />
  <path
     d="m 106.30574,263.43797 h 17 l 17,3 18,6 15,8 12,9 11,10 3,5 -10,9 -14,11 -16,13 -13,11 -11,9 -13,11 -8,6 -10,-3 -46.999997,-18 -40,-15 -7,-3 1,-5 7,-14 10,-14 12,-12 14,-10 15,-8 18,-6 z"
     fill="#e14729"
     id="path12" />
  <path
     d="m 301.30574,323.43797 h 228 l 16,1 4,4 v 171 l -1,7 h -2 l -4,-10 -3,-5 v -7 l 7,-7 1,-6 -3,-1 -6,-7 v -96 l -4,-4 -48,-1 h -149 l -26,1 -3,2 -1,5 v 156 l -1,16 -7,10 h -1 l -2,-10 -1,-18 1,-16 -2,-16 -1,-3 2,-9 1,-38 v -114 z"
     fill="#292e3b"
     id="path13" />
  <path
     d="m 196.30574,877.43797 18,1 9,3 33,10 43,15 25,10 27,11 8,3 23,10 5,5 -6,21 -7,26 -2,9.00003 -4,1 v -2 l -9,-3.00003 -7,-3 -25,-11 -47,-18 -41,-13 -47,-13 -16,-4 1,-9 10,-26 8,-22 z"
     fill="#d0ebf5"
     id="path14" />
  <path
     d="m 327.30574,986.43797 6,1 21,9 15,7.00003 6,2 7,5 1,5 -7,23 -8,26 -18,56 -7,21 -4,11 -3,5 -9,2 -18,1 -44,-1 -10,-1 2,-1 2,-4 4,-5 5,-11 2,-8 10,-21 6,-13 9,-24 7,-19 4,-6 9,-26 5,-16 2,-5.00003 v -6 l 3,-5 h 2 z"
     fill="#1d1920"
     id="path15" />
  <path
     d="m 401.30574,11.437968 h 14 l 11,4 9,2 12,5 5,5 2,11 2,4 v 6 l -7,16 -2,17 -3,12 h 5 l 1,4 v 2 l 3,-2 -2,6.000002 -7,8 -5,5 -5,6 -1,3 -7,4 -8,8 -7,4 -4,3 -2,-1 -2,-4 8,-11 3,-6 4,-3 h 4 l -8,-7 -4,-5 -2,-1 4,5 v 8 l -6,8 -6,4 -2,2 -6,-1 -7,-3 -2,-4 v -11 l -2,-5 -3,3 -2,8 -3,1 -2,-1 v -3 l -9,-2 v -2 h -4 l -3,-8 -2,-9.000002 -2,-6 -2,-4 v -19 l 4,-12 1,-4 1,-6 1,-2 h 2 l 2,-4 3,-1 2,-4 4,-5 h 2 v -2 l 13,-9 11,-5 z"
     fill="#f1c67b"
     id="path16" />
  <path
     d="m 810.30574,314.43797 h 1 v 10 h 55 v 175 h -2 l -1,-24 -1,-48 -5,1 -2,5 h 3 v 58 h -83 l -1,-19 35,-1 v -127 z"
     fill="#ddf2fa"
     id="path17" />
  <path
     d="m 563.30574,605.43797 h 14 l 11,4 8,6 6,12 v 8 l -4,11 -11,15 -5,6 -7,6 -1,2 4,2 10,7 6,7 3,8 -2,10 -6,10 -8,10 -8,9 -11,4 -8,2 -5,-1 -1,-2 -21,-2 -9,-9 -2,-5 -1,-13 3,-7 9,-10 10,-9 h 2 l -1,-9 -12,-4 -6,-5 -4,-7 -1,-4 v -9 l 3,-8 9,-10 9,-9 3,-5 11,-7 z"
     fill="#c57851"
     id="path18" />
  <path
     d="m 493.30574,37.437968 4,4 9,17 4,16 1,6 v 19 l -4,18.000002 -8,16 -7,11 -8,10 -8,13 -7,15 -6,20 -5,24 -3,5 v 50 l -16,11 -7,6 -7,2 -8,-2 -6,-4 -10,-7 -5,-4 -5,-1 2,-6 v -8 l -1,-6 v -26 l -4,-17 v -5 l 15,1 h 16 l 13,-2 8,-5 3,-6 10,-37 8,-19 8,-12 13,-18 8,-14 4,-11.000002 2,-10 v -26 l -2,-13 z"
     fill="#e0883d"
     id="path19" />
  <path
     d="m 337.30574,361.43797 h 160 l 37,1 5,5 v 92 l -2,4 -4,1 1,-6 1,-25 v -59 l -2,-4 -2,-1 -95,-1 h -114 l -10,2 -1,2 v 71 l 10,6 16,8 31,15 23,11 34,16 -3,10 -3,8 -4,2 14,10 6,-4 4,2 -2,5 -1,4 3,7 -3,1 -1,-3 -4,-1 -4,-5 -9,-7 -7,-4 -8,-4 -13,-4 -6,-1 h -27 l -15,5 h -4 v 2 l -5,3 -5,2 -9,9 -4,1 v 2 h -2 l -2,4 -9,11 -2,-1 2,-5 3,-6 1,-16 v -156 l 2,-6 3,-2 z"
     fill="#79bbe0"
     id="path20" />
  <path
     d="m 220.30574,303.43797 3,1 10,15 7,16 5,17 1,24 -1,15 -6,22 -6,14 -7,11 -4,1 -12,-10 -13,-10 -21,-16 -30,-23 -9,-7 5,-5 10,-9 14,-11 13,-11 11,-9 14,-12 11,-9 z"
     fill="#419dd0"
     id="path21" />
  <path
     d="m 586.30574,339.43797 h 129 l 1,1 v 47 l -1,13 -10,1 h -91 l -28,-1 z"
     fill="#41afaf"
     id="path22" />
  <path
     d="m 476.30574,444.43797 h 17 l 1,16 9,3 16,7 6,2 8,-8 5,-2 7,8 2,1 v 6 l -7,7 v 7 l 6,12 v 3 h 2 l 2,10 14,2 2,1 1,14 16,6 13,8 6,5 2,5 h -2 v 9 l -3,8 -5,3 -24,7 -9,3 h -12 l -2,-2 -4,-17 -1,-15 1,-7 -2,-1 v -2 l -6,-2 h -5 -3 l -2,-1 v -2 h -2 l -1,-7 v -10 l -3,-12 -7,-10 -9,-7 v -2 l -5,-1 -12,-2 -11,1 -8,3 -3,2 h -3 v 2 l -8,7 -4,1 -2,-1 v 2 l -3,1 -3,-3 h -3 v 2 h -3 l -2,5 v 6 l -1,5 v 2 l -7,1 v -2 h -2 v -11 l 4,-10 h 3 v -5 l 1,-4 -1,-2 -1,-5 -6,-7 -3,-2 2,-4 6,-6 h 2 v -2 l 5,1 9,9 5,-2 14,-7 11,-3 1,-1 z"
     fill="#d73432"
     id="path23" />
  <path
     d="m 275.30574,474.43797 7,1 6,5 7,12 2,16 -1,18 -4,13 -4,9 -1,10 v 17 l -1,11 -2,5 v 10 l -3,18 v 8 l 3,9 5,6 7,5 v 142 l 2,6 2,1 172,1 -2,4 -5,8 h -14 l -15,-2 -21,-3 h -34 l -21,2 -27,3 -20,4 -4,4 h -2 l -4,18 -1,3 -4,-1 -4,-6 -4,-14 -2,-10 v -10 l 2,-9 v -11 l -2,-24 -9,-34 -6,-21 -9,-24 -6,-13 -6,-14 -1,-11 4,-8 5,-8 4,-15 3,-21 4,-29 2,-9 9,-17 3,-11 1,-11 -3,-13 -1,-5 -3,-1 -7,-10 1,-3 z"
     fill="#c67850"
     id="path24" />
  <path
     d="m 111.30574,377.43797 2,4 5,11 7,20 7,19 15,44 v 5 l -16,4 -7,1 H 99.305743 l -18,-4 -15,-6 -15,-8 -14,-11 -7,-8 2,-1 2,-4 8,-7 12,-11 11,-9 10,-9 11,-9 13,-12 z"
     fill="#3fa54c"
     id="path25" />
  <path
     d="m 602.30574,406.43797 h 93 l 11,1 1,1 -1,57 h -120 v -58 z"
     fill="#40a64d"
     id="path26" />
  <path
     d="m 386.30574,739.43797 4,1 1,9 1,28 h 8 l 7,1 97,-1 h 34 l 10,-1 1,1 v 15 l -3,4 -4,1 h -36 l -32,-1 -1,1 h -173 l -4,-4 v -23 h 3 l 4,4 8,1 11,2 5,1 5,-3 1,-3 1,-13 3,-7 2,1 v 3 h 3 l 1,-2 1,1 1,20 4,2 1,-2 6,1 2,1 -1,-10 -2,-2 v -22 l 1,-2 4,-1 1,4 1,24 2,-1 v -8 l 2,-2 2,-17 h 11 l 4,1 z"
     fill="#1d1a21"
     id="path27" />
  <path
     d="m 296.30574,588.43797 h 2 l 4,8 1,3 3,1 v 2 l 9,3 10,4 12,1 3,2 -2,4 -17,7 -2,5 -9,-1 v 2 l 6,2 18,1 10,4 5,-1 8,-8 5,1 21,8 5,1 -3,-7 v -11 l 2,-1 1,13 2,5 4,1 5,3 h 12 l 8,-5 4,-8 2,-9 2,-1 -1,17 2,3 h 5 l 7,-11 4,-5 -1,10 -6,7 v 6 l -2,5 2,5 v 3 l -4,-1 -3,-3 -11,8 -10,6 2,5 v 4 l -5,-1 -1,-6 -18,5 -12,1 1,2 v 6 l -5,1 -2,-5 v -3 l -21,-5 -9,-2 -3,6 -4,-1 v -4 l 2,-5 -5,-2 -12,-9 -8,4 v 74 l 2,3 44,1 h 30 l 8,-1 21,1 h 109 l 3,2 -193,1 h -18 l -5,-2 -3,-4 -1,-91 -7,-10 -8,2 -2,-3 1,-4 4,-2 -1,-9 -4,-19 v -3 l 4,-2 1,-2 h 2 z"
     fill="#4290bc"
     id="path28" />
  <path
     d="m 83.305743,267.43797 h 4 v 2 l -8,2 1,8 12,35 8.999997,26 5,10 2,6 v 4 h 2 l 3,4 v 2 l 8,-3 3,-1 v -2 l 4,-1 v -2 l 5,-3 6,-5 5,-3 4,-3 2,1 -11,10 -10,8 -13,11 -4,1 -94.999997,-36 -7,-3 1,-5 7,-14 10,-14 12,-12 14,-10 15,-8 z"
     fill="#d42738"
     id="path29" />
  <path
     d="m 582.30574,286.43797 h 26 l 96,2 2,4 v 4 l 105,1 v 2 l -6,2 -1,2 h -226 v 54 l 1,28 v 86 h 74 l 70,1 38,1 v 18 l -1,1 h -117 l -3,-1 -1,-16 -6,-1 v 24 l 2,1 h -4 l -1,-26 h -53 l -1,-1 v -175 l 4,-3 z"
     fill="#89b1c4"
     id="path30" />
  <path
     d="m 720.30574,407.43797 h 82 l 1,1 v 57 h -81 l -2,-1 z"
     fill="#e57e29"
     id="path31" />
  <path
     d="m 181.30574,917.43797 15,2 50,12 41,12 40,13 16,7 10,6 13,5 9,5 1,5 -4,17.00003 -4,1 v -2 l -9,-3.00003 -7,-3 -25,-11 -47,-18 -41,-13 -47,-13 -16,-4 1,-9 z"
     fill="#8bb1c4"
     id="path32" />
  <path
     d="m 416.30574,2.4379678 h 18 l 18,4 11,5.0000002 v 2 l -4,2 4,8 1,7 2,1 v 26 l -2,13 -1,16 -10,16.000002 -7,8 -2,1 2,-4 5,-6 v -2.000002 h -3 l 1,-5 -5,-1 1,-8 2,-9 1,-12 5,-11 2,-5 v -6 l -2,-4 -2,-11 -6,-5 -13,-5 -12,-3 -5,-2 h -14 l -13,5 -12,7 -3,3 h -2 v 2 h -2 l -2,4 -4,5 -5,5 h -2 l -1,10 -4,10 -1,7 v 16 l 4,9 1,6.000002 3,12 h 4 v 2 l 7,1 2,1 v 3 h 5 l 2,-10 3,-2 3,6 v 12 l 2,3 8,3 5,-1 5,-4 5,-5 2,-3 v -8 l -3,-3 v -2 l 4,2 2,4 4,2 5,6 -7,1 -3,5 -6,9 -3,4 v 2 l 2,2 -2,4 -5,4 -4,1 -1,-4 h -19 l -9,-3 -5,-2 v -2 h -4 l -6,-8 -1,-3 h 2 l -3,-15 -2,-9 -2,-13.000002 -1,-14 -4,1 -1,-12 5,-15 9,-16 12,-13 12,-9 16,-8.0000002 16,-4 z"
     fill="#eac055"
     id="path33" />
  <path
     d="m 810.30574,314.43797 h 1 v 10 h 55 v 174 h -1 l -1,-168 h -52 v 103 h 39 l 7,1 v 57 h -83 l -1,-19 35,-1 v -127 z"
     fill="#40afae"
     id="path34" />
  <path
     d="m 390.30574,226.43797 h 20 l 47,1 -2,4 v 50 l -16,11 -7,6 -7,2 -8,-2 -6,-4 -10,-7 -5,-4 -5,-1 2,-6 v -8 l -1,-6 v -26 z"
     fill="#70a5a5"
     id="path35" />
  <path
     d="m 113.30574,376.43797 5,2 17,13 13,10 16,12 21,16 13,10 3,4 -11,12 -9,8 -15,10 -11,5 -8,1 -12,-36 -10,-29 -7,-18 -5,-14 -1,-5 z"
     fill="#e14729"
     id="path36" />
  <path
     d="m 301.30574,323.43797 h 228 l 16,1 4,4 v 12 l -9,-2 h -244 v -10 z"
     fill="#376c86"
     id="path37" />
  <path
     d="m 478.30574,496.43797 h 13 l 12,6 8,9 3,8 v 13 l -4,11 -9,9 -8,4 -3,1 h -11 l -9,-3 -7,-5 -6,-9 -3,-8 v -10 l 3,-10 7,-9 10,-6 z"
     fill="#b1d8ea"
     id="path38" />
  <path
     d="m 581.30574,328.43797 98,1 27,2 -2,1 v 2 l 7,3 v 1 h -19 l -47,-1 -1,1 h -58 v 62 h 28 l 101,1 v 1 l -10,1 2,5 -12,-1 h -109 v 58 h 116 v 1 l -104,1 1,4 h -20 l -1,-2 v -56 l 1,-82 z"
     fill="#e5f7fc"
     id="path39" />
  <path
     d="m 398.30574,16.437968 8,1 5,5 3,8 v 7 l -5,15 -2,2 -1,4 h -2 l -2,6 -6,8 -5,8 -2,2 -7,-1 -1,-1 1,3 -3,1 v 2 h -3 l -1,3 -6,2 -8,-1 -3,-1 v -2 h -2 l -2,-4 v -7 l 3,-9 3,-6 4,1 h 1 v -4 l -5,-5 1,-6 10,-13 h 2 l 2,-4 4,-4 11,-7 z"
     fill="#f7debc"
     id="path40" />
  <path
     d="m 112.30574,381.43797 2,1 11,30 7,19 15,44 v 5 l -16,4 -7,1 h -23 l -1,-1 v -8 l 10,-81 1,-13 z"
     fill="#282e3b"
     id="path41" />
  <path
     d="m 297.30574,571.43797 5,3 7,2 16,12 19,12 32,15 5,3 4,1 1,11 2,4 v 3 l -8,-1 -20,-8 -4,1 -5,6 -3,2 -7,-1 -7,-3 -20,-1 -6,-4 2,-2 9,1 2,-5 17,-7 1,-3 -6,-1 -11,-2 -16,-7 -7,-9 -1,-5 h -2 v 2 h -2 l -2,6 -1,-2 -6,1 -2,2 1,-10 h 5 l 3,-15 2,1 z"
     fill="#419dd0"
     id="path42" />
  <path
     d="m 566.30574,533.43797 12,4 12,6 11,8 3,6 h -2 v 9 l -3,8 -5,3 -24,7 -9,3 h -12 l -2,-2 -4,-17 -1,-15 6,-15 6,-2 z"
     fill="#e99a69"
     id="path43" />
  <path
     d="m 662.30574,472.43797 h 61 l 38,1 v 18 l -1,1 h -117 l -3,-1 v -17 l 1,-1 z"
     fill="#d32638"
     id="path44" />
  <path
     d="m 594.30574,309.43797 h 211 v 19 l -2,1 -219,-1 v -4 l 183,1 v -9 l -183,-1 -1,-3 1,-2 z"
     fill="#b3daee"
     id="path45" />
  <path
     d="m 379.30574,880.43797 h 13 l -1,2 -15,5 -13,30 -5,11 -13,-4 -26,-11 -5,-2 v -2 l -6,-1 -13,-6 1,-5 5,-5 8,-4 49,-6 z"
     fill="#c87b51"
     id="path46" />
  <path
     d="m 563.30574,605.43797 h 14 l 11,4 8,6 6,12 v 8 l -2,-2 -1,2 h -7 l -15,3 -10,6 -8,6 -5,1 -17,-4 -12,-6 -1,-4 5,-5 h 2 l 2,-5 8,-9 5,-7 9,-4 z"
     fill="#e99969"
     id="path47" />
  <path
     d="m 337.30574,361.43797 h 160 l 37,1 5,5 v 92 l -2,4 -4,1 1,-6 1,-25 v -59 l -2,-4 -2,-1 -95,-1 h -114 l -10,2 -1,2 -1,72 h -1 l -1,97 -2,1 v -172 l 2,-6 3,-2 z"
     fill="#7bbadc"
     id="path48" />
  <path
     d="m 528.30574,694.43797 2,1 -2,3 v 5 l 6,10 7,17 6,-2 7,-8 1,-7 6,2 2,1 -1,-6 6,-7 4,-3 4,-1 h 19 l 1,-2 1,5 -4,11 -10,14 -10,11 -11,4 -8,2 -5,-1 -1,-2 -21,-2 -9,-9 -2,-5 -1,-13 3,-7 9,-10 z"
     fill="#c67851"
     id="path49" />
  <path
     d="m 557.30574,674.43797 h 10 l 10,2 11,8 6,7 2,6 -1,2 -19,1 -5,2 -7,6 -1,6 v 2 l -6,-2 -2,-1 v 7 l -8,9 -6,2 -5,-10 -4,-10 -5,-8 1,-7 9,-10 h 2 l 1,-4 5,-4 6,-2 z"
     fill="#e99969"
     id="path50" />
  <path
     d="m 281.30574,597.43797 h 3 l -2,18 -1,4 v 8 l 3,9 5,6 7,5 v 142 l 2,6 2,1 172,1 -2,4 -7,2 h -21 l -14,-2 -16,-1 h -110 l -5,-2 -3,-5 -3,-28 -1,-17 1,-26 -1,-56 -3,-7 -10,-8 -1,-10 -2,-4 -3,-2 h -12 l 2,-4 11,-10 4,-8 4,-10 z"
     fill="#c62830"
     id="path51" />
  <path
     d="m 289.30574,749.43797 2,1 3,37 2,8 2,3 4,1 h 110 l 16,1 14,2 h 27 l -4,7 h -14 l -15,-2 -21,-3 h -34 l -21,2 -27,3 -20,4 -4,4 h -2 l -4,18 -1,3 -4,-1 -4,-6 -4,-14 -2,-10 v -10 l 2,-9 v -11 l -1,-14 z"
     fill="#c87a4e"
     id="path52" />
  <path
     d="m 517.30574,582.43797 h 6 l 8,6 7,7 v 4 h 2 l -1,16 2,1 h -2 l -2,5 -16,16 -4,7 -1,4 v 9 l 3,8 4,5 8,4 7,2 2,7 -1,3 -8,7 -10,9 -4,6 -1,4 1,13 3,6 5,6 -6,-1 -4,-5 -3,3 -2,-1 -2,-17 1,-9 3,-8 5,-6 5,-4 1,-3 h 2 v -6 l -12,-11 -3,-6 -1,-6 v -8 l 3,-11 6,-9 5,-5 7,-15 v -9 l -5,-8 v -2 l -9,-2 -14,6 -4,8 -3,9 -2,1 h -18 l -2,-19 -2,-2 4,1 1,1 1,15 h 15 l 1,-15 1,-2 14,-5 z"
     fill="#8bb1c6"
     id="path53" />
  <path
     d="m 213.30574,708.43797 2,1 2,29 2,10 2,21 5,33 2,6 3,18 6,24 -1,15 -4,9 -1,6 7,3 31,10 20,7 14,6 11,3 v 2 l 5,1 31,13 8,3 -4,1 -28,-11 -19,-8 -42,-15 -32,-10 -18,-5 -1,-3 10,-23 3,-9 -7,-30 -5,-37 -3,-38 v -12 z"
     fill="#f2c882"
     id="path54" />
  <path
     d="m 716.30574,400.43797 3,3 1,4 v 57 l 83,1 v -52 l 1,-7 4,-1 v 66 h -11 l -8,-3 -9,1 v -2 l -58,-1 -1,3 -13,1 h -12 l -9,-1 4,-3 15,-1 v -59 l -1,-3 10,-2 z"
     fill="#f8f7f1"
     id="path55" />
  <path
     d="m 457.30574,512.43797 4,4 21,9 15,7 9,4 4,1 2,-1 -2,7 -9,9 -8,4 -3,1 h -11 l -9,-3 -7,-5 -6,-9 -3,-8 v -10 z"
     fill="#7abce1"
     id="path56" />
  <path
     d="m 587.30574,316.43797 h 175 l 3,1 v 7 h -178 l -1,-1 v -6 z"
     fill="#e9fafe"
     id="path57" />
  <path
     d="m 177.30574,927.43797 1,3 -1,3 h 10 l 10,4 22,3 16,4 v 2 l 11,1 13,4 12,2 11,2 8,4 1,2 7,1 v 2 l 4,2 9,4 14,3 30,14 3,-1 1,-2 7,1 6,2 v 2 h 2 l -2,12.00003 -4,1 v -2 l -9,-3.00003 -7,-3 -25,-11 -47,-18 -41,-13 -47,-13 -16,-4 v -6 z"
     fill="#70a5a5"
     id="path58" />
  <path
     d="m 808.30574,299.43797 h 3 v 9 l -1,-4 h -231 v 5 l 6,-1 h 70 v 1 l -71,1 v 4 l 181,1 2,1 v 9 h -183 v 2 l 219,1 v 1 l -124,1 -98,-1 -1,2 -1,54 h -1 l -1,-28 v -55 h 227 z m -221,17 -1,1 v 6 l 1,1 h 178 v -7 l -9,-1 z"
     fill="#d1ecf5"
     id="path59" />
  <path
     d="m 669.30574,288.43797 h 35 l 2,4 v 4 l 105,1 v 2 l -6,2 -1,2 h -142 v -1 l 19,-1 v -1 l 14,-1 -40,-1 -13,-1 1,-6 15,1 z"
     fill="#7ebcde"
     id="path60" />
  <path
     d="m 402.30574,541.43797 h 8 l 6,3 5,5 3,6 v 7 l -4,9 -8,6 -3,1 h -9 l -9,-6 v -2 h -2 l -2,-5 v -12 l 4,-6 5,-4 z"
     fill="#78bce0"
     id="path61" />
  <path
     d="m 811.30574,330.43797 h 1 v 6 h 48 v 19 h -48 v 12 l 10,-1 h 36 v 2 h -46 v 6 h 47 v 1 l -48,1 z"
     fill="#b3daee"
     id="path62" />
  <path
     d="m 395.30574,607.43797 h 19 l 6,4 3,10 -1,11 -4,5 -7,4 h -12 l -9,-5 -3,-5 v -11 l 4,-9 z"
     fill="#79bbe0"
     id="path63" />
  <path
     d="m 337.30574,361.43797 h 160 l 37,1 5,5 v 92 l -2,4 -1,-2 v -96 h -221 l -5,1 -1,7 -1,168 -2,1 v -172 l 2,-6 3,-2 z"
     fill="#3a7b9e"
     id="path64" />
  <path
     d="m 337.30574,542.43797 h 11 l 4,2 v 2 h 2 l 4,5 1,4 v 8 l -2,6 -8,6 -2,1 h -13 l -6,-4 -4,-4 -2,-5 v -8 l 5,-8 3,-3 z"
     fill="#79bce0"
     id="path65" />
  <path
     d="m 113.30574,376.43797 5,2 17,13 13,10 4,4 -4,-1 -5,-2 h -2 l 1,4 -2,3 -10,-2 1,11 5,16 14,41 6,-1 7,-1 v -2 l 7,-4 6,-4 h 2 v -2 l 8,-6 5,-5 1,-8 3,-4 4,2 2,3 -11,12 -9,8 -15,10 -11,5 -8,1 -12,-36 -10,-29 -7,-18 -5,-14 -1,-5 z"
     fill="#c82b31"
     id="path66" />
  <path
     d="m 220.30574,303.43797 3,1 10,15 7,16 5,17 1,24 -1,15 -6,22 -6,14 -7,11 -4,1 -12,-10 -5,-5 6,2 2,1 h 6 l 4,-3 3,-1 4,-7 2,-6 h 2 l 2,-5 3,-6 1,-9 2,-20 -2,-18 -4,-13 -6,-12 v -2 h -2 v -2 h -2 l -5,-6 -7,-1 v -2 l -5,2 -3,-1 11,-10 z m -16,13 2,1 z"
     fill="#4693be"
     id="path67" />
  <path
     d="m 541.30574,556.43797 2,4 3,17 3,9 h 12 l 18,-6 17,-5 3,-2 2,-7 1,-9 3,1 1,9 -2,8 -4,6 -9,6 -14,6 -11,3 -28,3 -2,-5 -8,-8 -5,-3 h -6 l -11,5 -3,-1 8,-4 7,-3 7,1 5,3 5,4 5,1 3,-4 1,-6 -3,-8 -3,-7 z"
     fill="#c87a51"
     id="path68" />
  <path
     d="m 175.30574,931.43797 1,4 12,2 33,9 31,9 36,12 44,17 20,9 9,4 7,3.00003 v 2 l 4,-1 1,3 -7,-1 -25,-12.00003 -17,-6 -18,-5 -14,-7 -19,-6 -21,-7 -17,-4 -4,-2 h -8 l 3,5 -6,-2 -10,-3 1,-4 -14,-5 v -2 l -8,-1 -5,-1 h -9 l -4,-3 1,-4 h 2 z"
     fill="#2b3a4a"
     id="path69" />
  <path
     d="m 810.30574,314.43797 h 1 v 10 h 55 v 174 h -1 l -1,-168 h -52 v 104 h -2 l 2,13 -1,3 v 21 l -2,-4 v -123 z"
     fill="#6eb1d7"
     id="path70" />
  <path
     d="m 716.30574,369.43797 h 1 l 1,27 1,-3 h 2 v -2 h 81 v 1 l -35,1 1,4 35,1 v 2 h -82 l 1,3 -1,2 19,-1 57,1 v 1 l -78,1 -2,-6 h -12 v -1 h 10 v -13 z"
     fill="#d2ecf6"
     id="path71" />
  <path
     d="m 595.30574,331.43797 h 111 l -2,1 v 2 l 7,3 v 1 h -19 l -54,-1 h -28 l -24,-1 2,-4 z"
     fill="#fdfdfe"
     id="path72" />
  <path
     d="m 182.30574,914.43797 2,1 15,2 36,8 27,7 28,8 25,9 11,4 9,2 18,10 24,12 v 4 h -2 l -3,-3 -13,-6 -10,-4 -10,-6 -21,-8 -37,-12 -39,-11 -46,-11 -15,-3 z"
     fill="#b3daee"
     id="path73" />
  <path
     d="m 228.30574,845.43797 h 1 l 2,17 1,5 -3,7 v 7 l 9,2 31,10 20,7 14,6 11,3 v 2 l 5,1 31,13 8,3 -4,1 -28,-11 -19,-8 -42,-15 -32,-10 -18,-5 -1,-3 10,-23 z"
     fill="#f7debb"
     id="path74" />
  <path
     d="m 585.30574,407.43797 h 1 v 58 h 116 v 1 l -104,1 1,4 h -20 l -1,-2 1,-46 1,-11 h 4 z"
     fill="#dff3fa"
     id="path75" />
  <path
     d="m 386.30574,739.43797 4,1 1,9 v 10 h -1 l -1,-7 -5,1 -3,-1 v -3 h -3 v 5 l -4,2 -4,-3 -1,6 -1,1 -1,9 -2,9 -3,1 -7,-1 1,-2 2,1 -1,-10 -2,-2 v -22 l 1,-2 4,-1 1,4 1,24 2,-1 v -8 l 2,-2 2,-17 h 11 l 4,1 z"
     fill="#21202c"
     id="path76" />
  <path
     d="m 517.30574,582.43797 h 6 l 8,6 7,7 v 4 h 2 l -1,16 2,1 h -2 l -2,5 -16,16 -4,7 -1,4 v 9 l 3,8 4,5 8,4 7,2 2,7 -1,3 -8,7 -10,9 -4,6 -1,4 1,13 3,6 5,6 -6,-1 -1,-4 -3,-4 -2,-8 v -8 l 4,-9 19,-19 v -6 l -11,-4 -7,-6 -4,-7 -1,-4 v -9 l 4,-10 11,-12 7,-8 v -18 l -3,-7 -8,-7 -8,-1 -14,6 -6,2 -2,16 -1,1 -13,1 -5,1 -2,-19 -2,-2 4,1 1,1 1,15 h 15 l 1,-15 1,-2 14,-5 z"
     fill="#73a7a4"
     id="path77" />
  <path
     d="m 592.30574,466.43797 h 99 l -2,2 19,2 v 1 h -109 l -2,-3 h -10 v -1 z"
     fill="#e9fafe"
     id="path78" />
  <path
     d="m 9.3057432,335.43797 5.9999998,1 39,15 37,14 20.999997,8 1,4 -5,2 2,-3 -12.999997,-4 -11,-3 -9,-3 -8,-1 -6,-1 -8,-4 v -2 l -7,-4 -14,-4 -6,-3 v -2 l -4,-1 v -3 l -9,-2 -5.9999998,-2 z"
     fill="#e9b530"
     id="path79" />
  <path
     d="m 720.30574,407.43797 h 82 l 1,1 v 57 h -81 l -2,-1 z m 21,2 -10,2 v 2 h -4 l -3,7 -2,1 -1,5 v 31 l 1,6 5,1 h 72 l 2,-1 1,-6 v -48 z"
     fill="#e08d54"
     id="path80" />
  <path
     d="m 346.30574,1125.438 2,1 -5,15 -4,11 -3,5 -9,2 -18,1 -3,-3 -1,-4 7,2 9,-6 7,-7 8,-7 6,-7 z"
     fill="#221c24"
     id="path81" />
  <path
     d="m 457.30574,512.43797 2,3 v 3 h -2 l 2,11 4,10 6,9 8,3 h 8 l 9,-3 2,-4 6,-4 3,-3 h 5 l 2,-1 -2,7 -9,9 -8,4 -3,1 h -11 l -9,-3 -7,-5 -6,-9 -3,-8 v -10 z"
     fill="#7fa9ba"
     id="path82" />
  <path
     d="m 578.30574,711.43797 2,1 v 10 l 4,2 -2,4 -9,10 -11,4 -8,2 -5,-1 -1,-2 -21,-2 -1,-2 h 24 l 12,-9 4,-4 4,1 7,5 -2,-4 -4,-5 4,-7 z"
     fill="#c62b31"
     id="path83" />
  <path
     d="m 548.30574,548.43797 h 7 l 5,5 2,8 v 12 l -3,7 -7,1 -3,-3 -2,-9 -2,-16 z"
     fill="#f8dfbd"
     id="path84" />
  <path
     d="m 214.30574,879.43797 23,6 36,12 20,7 v 3 h 5 l 3,4 -5,-1 -18,-6 -13,-4 -7,-2 -10,-2 h -8 l -8,-4 v -2 l -4,-2 -9,-4 -7,-3 z"
     fill="#e6f8fd"
     id="path85" />
  <path
     d="m 357.30574,514.43797 h 27 l 16,4 10,4 5,4 7,4 9,8 11,16 1,4 h 2 v 5 h 2 l 1,2 v 7 l -3,-3 -7,-16 -8,-11 -10,-10 -6,-3 v -2 l -5,-2 -7,-3 -8,-3 -7,-2 h -19 l -19,2 v 2 l -12,5 -10,7 -8,7 h -2 l 2,-5 10,-10 9,-3 v -2 l 14,-4 z"
     fill="#346a86"
     id="path86" />
  <path
     d="m 721.30574,401.43797 h 79 v 4 h 2 v 2 h -82 v -1 l 19,-1 h -18 z"
     fill="#fcf7f0"
     id="path87" />
  <path
     d="m 662.30574,472.43797 h 61 l 38,1 v 18 l -1,1 h -117 l -3,-1 v -17 l 1,-1 z m -4,2 -16,1 -1,1 v 14 l 4,1 h 114 l 1,-2 v -15 z"
     fill="#d4855b"
     id="path88" />
  <path
     d="m 198.30574,321.43797 2,1 -7,8 -5,2 -2,5 -11,8 -9,9 h -2 l -1,3 h -2 l -1,3 h -2 v 2 l -3,2 -1,2 h -2 v 2 l -2,1 -2,8 3,1 1,4 4,2 9,6 2,5 -4,-2 -17,-13 -9,-7 5,-5 10,-9 14,-11 13,-11 11,-9 z"
     fill="#4794bf"
     id="path89" />
  <path
     d="m 807.30574,405.43797 h 1 v 66 h -11 l -8,-3 -9,1 v -2 l -2,-1 h 25 v -53 l 1,-7 z"
     fill="#fcfbf8"
     id="path90" />
  <path
     d="m 126.30574,386.43797 5,2 16,12 5,5 -4,-1 -5,-2 h -2 l 1,4 -2,3 -10,-2 1,14 -2,-2 -8,-23 v -8 z"
     fill="#d73533"
     id="path91" />
  <path
     d="m 350.30574,611.43797 7,1 1,3 -4,5 -11,8 h -2 v 2 l -3,2 h -13 l -2,-1 -1,-7 8,-4 z"
     fill="#77bcdf"
     id="path92" />
  <path
     d="m 808.30574,299.43797 h 3 v 9 l -1,-4 -231,1 -1,52 h -1 v -55 h 227 z"
     fill="#b3daee"
     id="path93" />
  <path
     d="m 577.30574,376.43797 h 1 l 1,9 v 86 h 74 l 9,1 v 1 l -21,1 -2,1 -6,-1 v 24 l 2,1 h -4 l -1,-26 h -53 l -1,-5 z"
     fill="#b2d9ed"
     id="path94" />
  <path
     d="m 534.30574,701.43797 h 7 l 7,6 2,5 3,1 v 6 l -2,4 -7,5 h -3 l -8,-19 -1,-6 z"
     fill="#f8dfbd"
     id="path95" />
  <path
     d="m 437.30574,539.43797 5,5 4,7 9,-1 2,5 -5,3 1,10 2,7 v 10 l -1,-2 h -2 l -2,-11 1,14 -8,5 -7,9 -1,-2 6,-8 5,-6 v -13 h 1 v -8 h -2 v -5 h -2 l -7,-12 -3,-5 h 2 l 2,2 z"
     fill="#76b7d6"
     id="path96" />
  <path
     d="m 582.30574,651.43797 h 5 l -3,9 3,-1 -2,5 -10,9 -5,1 -12,-2 6,-7 10,-10 z"
     fill="#c12b32"
     id="path97" />
  <path
     d="m 400.30574,538.43797 h 10 l 7,3 5,5 4,6 v 13 l -4,8 -6,5 -7,3 h -7 l -6,-3 4,-1 h 9 l 8,-4 4,-5 2,-6 v -7 l -4,-8 -6,-4 -3,-1 h -8 l -8,3 -5,6 -1,2 v 12 l 2,7 -5,-5 -1,-3 v -10 l 4,-8 7,-6 z"
     fill="#4294c2"
     id="path98" />
  <path
     d="m 126.30574,280.43797 5,2 5,4 v 2 l 4,2 5,5 v 2 l 4,2 3,3 v 2 l 4,2 3,5 -2,1 9,8 4,2 v 2 l 5,-3 2,1 -13,11 h -2 l 2,-4 1,-3 -3,-1 v -2 h -2 l -3,-3 -1,-3 -4,-4 v -2 h -2 l -4,-6 -5,-4 -2,-5 1,-1 -1,-3 -4,-2 -9,-9 z"
     fill="#d73732"
     id="path99" />
  <path
     d="m 810.30574,314.43797 h 1 v 10 h 11 l 2,2 -5,2 -7,-1 v 107 h -2 l 2,13 -1,3 v 21 l -2,-4 v -123 z"
     fill="#77afc3"
     id="path100" />
  <path
     d="m 824.30574,341.43797 h 29 l 1,4 -1,6 h -26 l -3,-1 z"
     fill="#7cbadc"
     id="path101" />
  <path
     d="m 777.30574,314.43797 22,1 v 9 h -29 l -1,-1 v -8 z"
     fill="#7bbade"
     id="path102" />
  <path
     d="m 751.30574,330.43797 h 21 v 1 l -16,1 -7,2 6,1 1,2 10,1 v 1 h -45 l -1,-4 -10,-3 v -1 l 28,1 z"
     fill="#fefefe"
     id="path103" />
  <path
     d="m 307.30574,642.43797 h 1 l 1,90 2,3 89,2 v 1 l -53,1 h -32 l -5,-2 -3,-4 z"
     fill="#3a7b9e"
     id="path104" />
  <path
     d="m 394.30574,267.43797 36,6 5,1 v 3 h -38 l -3,1 z"
     fill="#4290bb"
     id="path105" />
  <path
     d="m 97.305743,332.43797 2,2 4.999997,12 4,10 v 4 h 2 l 3,4 v 2 l 8,-3 3,-1 v -2 l 4,-1 v -2 l 5,-3 6,-5 5,-3 4,-3 2,1 -11,10 -10,8 -13,11 -4,1 -5,-2 3,-1 -6,-17 -5.999997,-16 z"
     fill="#d43433"
     id="path106" />
  <path
     d="m 814.30574,426.43797 36,1 -4,4 h 5 l 1,2 -24,1 h -16 l -1,-1 v -6 z"
     fill="#fbfdfe"
     id="path107" />
  <path
     d="m 406.30574,289.43797 h 32 l 2,2 -8,7 -7,2 -8,-2 -6,-4 z"
     fill="#2d323f"
     id="path108" />
  <path
     d="m 517.30574,582.43797 h 6 l 8,6 7,7 v 4 h 2 l -1,16 2,1 h -2 v 2 h -2 l -2,-18 -3,-7 -8,-7 -8,-1 -14,6 -6,2 -2,16 -1,1 -13,1 -5,1 -2,-19 -2,-2 4,1 1,1 1,15 h 15 l 1,-15 1,-2 14,-5 z"
     fill="#69a2a9"
     id="path109" />
  <path
     d="m 720.30574,339.43797 h 83 v 2 l -15,1 h -68 z"
     fill="#c2e3f1"
     id="path110" />
  <path
     d="m 9.3057432,335.43797 5.9999998,1 39,15 37,14 20.999997,8 1,4 -5,2 2,-3 -7,-3 -24.999997,-10 -34,-13 -15,-6 -19.9999998,-7 z"
     fill="#d98442"
     id="path111" />
  <path
     d="m 721.30574,408.43797 h 26 l -1,2 -15,1 v 2 h -4 l -2,7 -3,1 v 42 h 5 v 1 h -7 v -55 z"
     fill="#e1883c"
     id="path112" />
  <path
     d="m 540.30574,556.43797 1,4 -2,5 5,10 1,5 -2,7 -3,3 -5,-1 -8,-7 -1,-2 5,1 3,2 1,-2 2,2 2,-5 -2,-4 -1,-3 v -9 z"
     fill="#d73132"
     id="path113" />
  <path
     d="m 357.30574,514.43797 h 6 l 3,1 h 14 v 1 l -31,3 v 2 l -12,5 -10,7 -8,7 h -2 l 2,-5 10,-10 9,-3 v -2 l 14,-4 z"
     fill="#346a86"
     id="path114" />
  <path
     d="m 88.305743,1152.438 1,2 -2,3 154.999997,1 v 1 H 79.305743 l 4,-4 z"
     fill="#4a2c38"
     id="path115" />
  <path
     d="m 645.30574,336.43797 47,1 20,1 v 1 h -126 v -1 l 58,-1 z"
     fill="#c9e7f4"
     id="path116" />
  <path
     d="m 571.30574,640.43797 3,1 -11,8 -6,4 -7,2 -7,1 -1,-3 -7,-1 -9,-10 2,-1 7,4 14,4 7,1 7,-4 z"
     fill="#e1883c"
     id="path117" />
  <path
     d="m 592.30574,466.43797 h 37 l 3,3 -9,2 h -24 l -2,-3 h -10 v -1 z"
     fill="#fbfdfe"
     id="path118" />
  <path
     d="m 195.30574,438.43797 4,2 2,3 -11,12 -9,8 -15,10 -11,5 -2,-1 3,-3 7,-1 v -2 l 7,-4 6,-4 h 2 v -2 l 8,-6 5,-5 1,-8 z"
     fill="#d33835"
     id="path119" />
  <path
     d="m 337.30574,752.43797 2,1 v 3 h 3 l 1,-2 1,1 v 12 l -2,-2 -1,-3 -3,2 -3,12 -5,5 -5,2 v -2 l -5,-2 4,-2 3,1 5,-3 1,-3 1,-13 z"
     fill="#21202c"
     id="path120" />
  <path
     d="m 632.30574,471.43797 h 21 l 9,1 v 1 l -21,1 -2,1 -6,-1 v 24 l 2,1 h -4 l -1,-26 h -34 v -1 z"
     fill="#7aafc8"
     id="path121" />
  <path
     d="m 637.30574,287.43797 32,1 -4,3 -10,2 -11,-1 -1,3 h -7 l -1,-5 z"
     fill="#70a6a7"
     id="path122" />
  <path
     d="m 101.30574,382.43797 h 2 l -2,4 -10.999997,9 -13,12 -11,9 -5,4 h -2 v -2 l 6,-5 7,-8 5,-4 3,-3 10,-6 8,-8 z"
     fill="#e8b572"
     id="path123" />
  <path
     d="m 824.30574,356.43797 h 5 l 1,3 v 3 l 9,2 v 1 l -11,1 h -14 l -1,-1 v -5 l 4,-3 v 3 l 3,1 v -3 z"
     fill="#fdfdfe"
     id="path124" />
  <path
     d="m 476.30574,444.43797 h 17 l 1,16 9,3 16,7 6,2 8,-8 4,-1 -6,7 -5,5 -6,-1 -13,-7 -13,-4 -2,-2 -1,-15 h -13 l -1,15 h -3 l 1,-1 z"
     fill="#c57852"
     id="path125" />
  <path
     d="m 422.30574,285.43797 h 25 l -5,5 h -37 l -2,-3 z"
     fill="#4392bd"
     id="path126" />
  <path
     d="m 442.30574,626.43797 h 1 v 5 l -6,7 v 6 l -2,5 2,5 v 3 l -4,-1 -3,-3 -3,1 v -2 h -2 l 1,-4 7,-8 z"
     fill="#449dce"
     id="path127" />
  <path
     d="m 359.30574,740.43797 2,1 1,20 -3,7 -4,-3 v -22 l 1,-2 z"
     fill="#1d1a22"
     id="path128" />
  <path
     d="m 697.30574,289.43797 h 8 l 1,6 -1,2 h -10 l -12,-1 -1,-3 -2,-1 h 6 v -2 h 4 l 5,1 v 4 h 2 z"
     fill="#4691ba"
     id="path129" />
  <path
     d="m 440.30574,232.43797 h 10 l 3,1 1,2 v 8 l -12,-3 -8,-3 4,-4 z"
     fill="#4390bb"
     id="path130" />
  <path
     d="m 52.305743,363.43797 11,1 6,4 -2,6 -5,1 -6,-4 v -3 l -5,-1 -3,-3 z"
     fill="#e9b532"
     id="path131" />
  <path
     d="m 384.30574,760.43797 h 1 v 18 l -10,1 -2,-2 1,-10 4,-1 1,6 1,-4 h 2 l 1,-7 z"
     fill="#21202c"
     id="path132" />
  <path
     d="m 424.30574,632.43797 4,5 4,2 -11,11 h -5 v -2 l -2,-1 2,-4 5,-4 1,-2 h 2 z"
     fill="#419bcf"
     id="path133" />
  <path
     d="m 442.30574,111.43797 h 2 l -2,4 -4,10 -3,2 h -3 v 2 h -2 v 2 l -10,6 -1,2 -7,4 -2,-1 1,-2 7,-4 9,-9 3,-2 h 3 l 1,-5 4,-2 2,-4 z"
     fill="#e9c055"
     id="path134" />
  <path
     d="m 418.30574,496.43797 7,3 -3,10 -3,8 -6,2 2,-8 2,-14 z"
     fill="#87aec1"
     id="path135" />
  <path
     d="m 536.30574,374.43797 h 1 v 87 l -2,3 h -2 l 1,-6 1,-25 z"
     fill="#8bb1c5"
     id="path136" />
  <path
     d="m 769.30574,297.43797 h 42 v 2 l -6,2 -1,2 h -21 l 1,-3 10,-1 -25,-1 z"
     fill="#8bb1c5"
     id="path137" />
  <path
     d="m 293.30574,905.43797 9,2 24,10 28,11 5,2 v 1 l -10,-1 -8,-4 -43,-18 -5,-1 z"
     fill="#b3daee"
     id="path138" />
  <path
     d="m 537.30574,682.43797 2,4 -8,7 -10,9 -4,6 -1,4 1,13 3,6 5,6 -6,-1 -1,-4 -3,-4 -2,-8 v -8 l 4,-9 19,-19 z"
     fill="#73a7a4"
     id="path139" />
  <path
     d="m 459.30574,586.43797 12,4 v 2 l 3,1 1,19 -6,3 v -20 l -2,-4 -6,-2 z"
     fill="#88afc0"
     id="path140" />
  <path
     d="m 184.30574,290.43797 5,2 7,7 3,5 -10,9 -3,-1 3,-8 1,-7 z"
     fill="#d43b36"
     id="path141" />
  <path
     d="m 393.30574,513.43797 h 2 v 2 l 7,-1 7,3 6,5 1,3 3,1 -1,2 -7,-4 -8,-4 -13,-4 -6,-1 v -1 z"
     fill="#59b0cc"
     id="path142" />
  <path
     d="m 126.30574,280.43797 5,2 5,4 v 2 l 4,2 5,5 v 2 l 4,2 3,3 v 2 l 4,2 3,5 -4,-1 -16,-16 v -2 l -4,-2 -9,-9 z"
     fill="#c57852"
     id="path143" />
  <path
     d="m 327.30574,983.43797 5,1 20,9 9,4 7,3.00003 v 2 l 4,-1 1,3 -7,-1 -25,-12.00003 -13,-5 z"
     fill="#2c4355"
     id="path144" />
  <path
     d="m 356.30574,622.43797 2,1 -1,5 -6,7 -3,2 -5,-1 1,-4 5,-5 3,-1 v -2 z"
     fill="#78bce0"
     id="path145" />
  <path
     d="m 443.30574,621.43797 1,4 -13,19 -9,9 h -3 v 2 l -3,2 -4,-1 5,-3 17,-17 z"
     fill="#315d76"
     id="path146" />
  <path
     d="m 336.30574,616.43797 1,2 -14,6 v 7 l 2,1 h -11 l -6,-4 2,-2 9,1 2,-5 z"
     fill="#419dd1"
     id="path147" />
  <path
     d="m 304.30574,630.43797 5,1 3,3 3,5 17,17 -5,-2 -9,-6 -1,-3 h -2 l -9,-11 z"
     fill="#315d75"
     id="path148" />
  <path
     d="m 548.30574,468.43797 h 1 v 31 h -1 v -7 l -5,-1 -1,-2 v -6 l 5,-6 z"
     fill="#383341"
     id="path149" />
  <path
     d="m 297.30574,769.43797 6,5 8,1 9,2 -2,2 -10,1 -12,-4 v -6 z"
     fill="#21202c"
     id="path150" />
  <path
     d="m 810.30574,314.43797 h 1 v 10 h 11 l 2,2 -5,2 -7,-1 -1,43 h -1 z"
     fill="#66a1bd"
     id="path151" />
  <path
     d="m 812.30574,342.43797 h 9 v 8 3 h -9 z"
     fill="#dff4fa"
     id="path152" />
  <path
     d="m 464.30574,588.43797 8,1 5,2 1,2 v 14 h 14 v -15 l 2,-1 -1,17 -1,1 h -15 l -1,-1 -1,-15 -7,-3 z"
     fill="#c57852"
     id="path153" />
  <path
     d="m 731.30574,471.43797 h 35 l 8,1 1,1 v 18 h -1 l -1,-16 h -10 v 8 h -1 v -11 h -31 z"
     fill="#c3e3f2"
     id="path154" />
  <path
     d="m 850.30574,342.43797 h 4 l -1,9 h -26 l -2,-1 v -2 h 24 l 1,-4 -3,-1 z"
     fill="#5aa6d0"
     id="path155" />
  <path
     d="m 311.30574,909.43797 h 3 v 2 l 5,1 31,13 8,3 -4,1 -28,-11 -14,-6 z"
     fill="#f7dcb6"
     id="path156" />
  <path
     d="m 192.30574,889.43797 h 1 v 8 l -5,15 -4,2 -1,-3 7,-20 h 2 z"
     fill="#e8f9fd"
     id="path157" />
  <path
     d="m 140.30574,449.43797 2,2 8,24 4,2 -3,2 h -4 l -8,-24 z"
     fill="#cc2d31"
     id="path158" />
  <path
     d="m 541.30574,482.43797 2,1 v 8 l 5,1 v 14 h -2 l -4,-10 -3,-5 v -7 z"
     fill="#21222e"
     id="path159" />
  <path
     d="m 363.30574,514.43797 h 21 l 16,4 10,4 5,5 -5,-1 -2,-2 -6,-2 -8,-3 -14,-3 h -19 z"
     fill="#326079"
     id="path160" />
  <path
     d="m 352.30574,620.43797 5,1 -3,3 h -2 v 2 l -5,3 -4,7 -9,-3 4,-2 3,-1 v -2 z"
     fill="#419dd1"
     id="path161" />
  <path
     d="m 448.30574,568.43797 h 1 l 2,12 v 6 l -8,5 -7,9 -1,-2 6,-8 5,-6 v -13 z"
     fill="#4294c2"
     id="path162" />
  <path
     d="m 633.30574,474.43797 h 6 l 1,1 v 7 l -1,5 -4,1 -2,2 z"
     fill="#e4f7fc"
     id="path163" />
  <path
     d="m 410.30574,657.43797 2,1 -12,6 -14,4 -10,2 h -8 l -7,-1 -5,-2 v -1 l 20,1 17,-3 15,-6 z"
     fill="#2a3848"
     id="path164" />
  <path
     d="m 532.30574,699.43797 h 8 l 8,2 5,5 -3,1 2,5 h -2 l -6,-8 -3,-2 h -7 l -1,5 -3,-3 v -4 z"
     fill="#f2c77c"
     id="path165" />
  <path
     d="m 345.30574,520.43797 4,1 -12,5 -10,7 -8,7 h -2 l 2,-5 10,-10 2,1 v 1 z"
     fill="#4295c3"
     id="path166" />
  <path
     d="m 471.30574,591.43797 4,1 1,1 1,15 h 15 l 1,-14 2,-1 -1,16 -1,1 -13,1 -5,1 -2,-19 z"
     fill="#73a7a4"
     id="path167" />
  <path
     d="m 595.30574,331.43797 h 20 v 1 l -16,1 1,1 12,1 v 2 l -26,-1 2,-4 z"
     fill="#fefefe"
     id="path168" />
  <path
     d="m 355.30574,736.43797 45,1 v 1 l -53,1 -12,-1 v -1 z"
     fill="#39789a"
     id="path169" />
  <path
     d="m 279.30574,486.43797 5,3 4,9 v 17 l -4,14 -1,-4 2,-7 1,-11 -3,-13 -1,-5 -3,-1 z"
     fill="#e1883c"
     id="path170" />
  <path
     d="m 562.30574,559.43797 h 1 l 1,6 v 13 l -5,5 h -8 l -2,-2 v -3 l 3,1 v 2 l 7,-2 2,-6 v -13 z"
     fill="#f2c77c"
     id="path171" />
  <path
     d="m 437.30574,539.43797 5,5 4,8 -2,6 -3,-4 -8,-12 2,-1 2,2 z"
     fill="#5daac3"
     id="path172" />
  <path
     d="m 425.30574,505.43797 2,1 v 2 h -2 l 2,10 2,-1 2,-6 2,1 -1,4 1,2 -1,4 -7,1 v -2 h -2 v -11 z"
     fill="#d42638"
     id="path173" />
  <path
     d="m 539.30574,491.43797 4,5 3,7 v 3 h 2 l 2,10 14,2 v 1 l -16,-1 -3,-9 -5,-13 z"
     fill="#c12d33"
     id="path174" />
  <path
     d="m 378.30574,583.43797 4,1 1,4 v 8 l -5,5 -6,1 -2,-2 3,-2 6,-2 1,-5 -2,-4 z"
     fill="#419cd0"
     id="path175" />
  <path
     d="m 421.30574,570.43797 1,3 -6,5 -7,3 h -7 l -6,-3 4,-1 h 9 l 8,-4 z"
     fill="#4296c6"
     id="path176" />
  <path
     d="m 356.30574,546.43797 4,3 2,6 -1,12 -4,6 -4,1 4,-8 1,-3 v -8 z"
     fill="#419dd1"
     id="path177" />
  <path
     d="m 328.30574,543.43797 3,1 -6,7 -2,4 v 8 l 3,9 -4,-4 -2,-5 v -10 l 5,-8 z"
     fill="#4199cb"
     id="path178" />
  <path
     d="m 305.30574,1153.438 7,2 8,-2 -2,5 h 7 v 1 l -16,1 -3,-3 z"
     fill="#21222e"
     id="path179" />
  <path
     d="m 435.30574,525.43797 4,2 -2,5 -3,4 -3,-1 -4,-4 v -2 l -3,-1 1,-2 5,3 z"
     fill="#7aa9ad"
     id="path180" />
  <path
     d="m 812.30574,355.43797 h 16 l -4,2 -4,1 v 3 l -4,-1 -1,-1 -1,1 v 5 l 8,1 v 1 h -10 z"
     fill="#e6f8fd"
     id="path181" />
  <path
     d="m 853.30574,425.43797 1,3 h -2 l -2,5 3,1 h -7 v -2 h -9 l 4,-2 3,-2 -1,-2 z"
     fill="#dff4fa"
     id="path182" />
  <path
     d="m 106.30574,263.43797 h 17 l 10,2 v 1 h -33 l -3.999997,1 h -5 l 1,-2 z"
     fill="#ce483c"
     id="path183" />
  <path
     d="m 346.30574,1125.438 2,1 -3,8 -5,1 -10,10 -2,-1 14,-16 z"
     fill="#2d2f3c"
     id="path184" />
  <path
     d="m 316.30574,938.43797 5,1 7,7 2,3 v 3 l -4,-2 -10,-9 z"
     fill="#b3daee"
     id="path185" />
  <path
     d="m 537.30574,462.43797 7,6 3,3 v 6 l -7,7 -1,7 -2,-2 v -5 l 7,-8 -1,-5 -4,-4 -4,-2 z"
     fill="#c72830"
     id="path186" />
  <path
     d="m 256.30574,627.43797 1,3 -3,6 v 9 l 4,10 5,12 -1,3 -6,-14 -4,-9 -1,-11 4,-8 z"
     fill="#e1883c"
     id="path187" />
  <path
     d="m 292.30574,634.43797 h 3 l 1,5 v 7 l -4,-1 -6,-5 3,-2 2,-1 z"
     fill="#211d25"
     id="path188" />
  <path
     d="m 292.30574,608.43797 h 5 l 2,6 -1,6 -1,2 h -2 l -3,-11 z"
     fill="#489fd0"
     id="path189" />
  <path
     d="m 809.30574,428.43797 h 2 l 1,6 h -2 l 2,13 -1,3 v 21 l -2,-4 z"
     fill="#7eb4c8"
     id="path190" />
  <path
     d="m 541.30574,556.43797 2,4 3,17 -1,3 -4,-9 -3,-7 z"
     fill="#c57852"
     id="path191" />
  <path
     d="m 339.30574,97.437968 4,2 1,7.000002 2,5 -1,5 -5,-2 -1,-6 1,-3 z"
     fill="#eac056"
     id="path192" />
  <path
     d="m 632.30574,471.43797 h 21 l 9,1 v 1 l -21,1 -2,1 -7,-2 z"
     fill="#99c5d0"
     id="path193" />
  <path
     d="m 297.30574,550.43797 2,3 -1,2 -6,1 1,3 3,2 -2,4 v -4 l -5,-2 -2,-2 1,-4 8,-1 z"
     fill="#6a9ca7"
     id="path194" />
  <path
     d="m 452.30574,550.43797 4,1 1,4 -5,3 -1,6 -2,-3 v -6 l -3,-3 z"
     fill="#74a5a9"
     id="path195" />
  <path
     d="m 431.30574,490.43797 1,4 -2,6 h -3 l -1,5 -3,3 -1,-2 6,-14 z"
     fill="#c63b38"
     id="path196" />
  <path
     d="m 814.30574,426.43797 h 9 l 1,2 h -12 v 2 l 16,3 v 1 h -16 l -1,-1 v -6 z"
     fill="#d6eff8"
     id="path197" />
  <path
     d="m 599.30574,332.43797 h 16 l 6,2 v 1 h -21 l -2,-2 z"
     fill="#e9fafe"
     id="path198" />
  <path
     d="m 88.305743,1152.438 1,2 -2,3 24.999997,1 v 1 H 79.305743 l 4,-4 z"
     fill="#3e495d"
     id="path199" />
  <path
     d="m 641.30574,473.43797 h 18 l -1,2 -16,1 -1,14 2,1 h -3 v -17 z"
     fill="#cd7f57"
     id="path200" />
  <path
     d="m 176.30574,463.43797 1,3 -15,9 -9,3 1,-3 4,-2 h 5 v -2 l 7,-4 z"
     fill="#d2433a"
     id="path201" />
  <path
     d="m 717.30574,371.43797 4,1 v 10 l -1,3 h -2 l -1,4 z"
     fill="#f2fbfd"
     id="path202" />
  <path
     d="m 793.30574,316.43797 h 5 v 7 h -8 l -1,-6 z"
     fill="#419cd0"
     id="path203" />
  <path
     d="m 328.30574,1142.438 2,4 -9,9 -1,-2 -4,1 5,-5 z"
     fill="#21202c"
     id="path204" />
  <path
     d="m 516.30574,664.43797 4,2 5,5 6,3 7,2 2,7 -2,1 -2,-6 -11,-4 -7,-6 z"
     fill="#679ca0"
     id="path205" />
  <path
     d="m 148.30574,343.43797 2,1 -11,10 -6,4 -2,-2 8,-7 5,-3 z"
     fill="#d03c37"
     id="path206" />
  <path
     d="m 372.30574,510.43797 6,1 5,2 v 1 h -20 v -2 z"
     fill="#56accb"
     id="path207" />
  <path
     d="m 413.30574,241.43797 h 9 l 18,4 v 1 h -8 l -16,-3 z"
     fill="#4392be"
     id="path208" />
  <path
     d="m 332.30574,656.43797 6,2 10,4 8,3 v 1 h -7 l -8,-3 v -2 l -6,-2 z"
     fill="#2c4557"
     id="path209" />
  <path
     d="m 357.30574,514.43797 h 6 l 3,1 h 14 v 1 l -19,2 h -6 v -2 l -2,-1 z"
     fill="#3f8cb6"
     id="path210" />
  <path
     d="m 359.30574,614.43797 h 4 l -2,9 h -2 v -2 h -5 l 2,-4 z"
     fill="#4293c0"
     id="path211" />
  <path
     d="m 535.30574,443.43797 h 2 v 18 l -2,3 h -2 z"
     fill="#7dafc6"
     id="path212" />
  <path
     d="m 637.30574,287.43797 4,1 1,1 v 6 h -6 l -1,-5 z"
     fill="#c56f4e"
     id="path213" />
  <path
     d="m 403.30574,287.43797 38,1 v 2 h -36 z"
     fill="#356a84"
     id="path214" />
  <path
     d="m 681.30574,300.43797 h 14 l -1,2 h -7 l -1,1 h -24 v -1 l 19,-1 z"
     fill="#7abce1"
     id="path215" />
  <path
     d="m 443.30574,621.43797 1,4 -9,13 -2,-1 7,-11 z"
     fill="#346985"
     id="path216" />
  <path
     d="m 535.30574,463.43797 2,1 -11,11 -6,-1 v -2 h 5 l 8,-8 z"
     fill="#cb7d55"
     id="path217" />
  <path
     d="m 403.30574,601.43797 4,2 v 2 l -12,3 -5,4 2,-4 4,-4 7,-1 z"
     fill="#419dd1"
     id="path218" />
  <path
     d="m 104.30574,360.43797 3,1 3,6 -1,4 -5,-3 -1,-4 z"
     fill="#c72730"
     id="path219" />
  <path
     d="m 222.30574,306.43797 4,2 2,5 -4,-1 -6,-1 1,-4 z"
     fill="#49a1d3"
     id="path220" />
  <path
     d="m 295.30574,555.43797 h 6 v 2 h -2 l -2,6 h -2 v -2 l -3,-2 v -3 z"
     fill="#97c9e5"
     id="path221" />
  <path
     d="m 92.305743,1153.438 5,1 1,4 h -12 l 1,-2 z"
     fill="#1d1920"
     id="path222" />
  <path
     d="m 358.30574,933.43797 h 8 l 7,4 v 2 l -5,-1 -10,-4 z"
     fill="#e1f5fb"
     id="path223" />
  <path
     d="m 237.30574,886.43797 9,2 4,2 -2,2 -6,-1 -5,-3 z"
     fill="#c6e5f2"
     id="path224" />
  <path
     d="m 537.30574,595.43797 1,4 h 2 l -1,16 2,1 h -2 l -1,2 -1,-11 z"
     fill="#396e86"
     id="path225" />
  <path
     d="m 697.30574,289.43797 h 7 v 5 l -6,1 -1,-1 z"
     fill="#c5664a"
     id="path226" />
  <path
     d="m 593.30574,467.43797 h 5 l 1,4 h -11 v -3 z"
     fill="#ecfafe"
     id="path227" />
  <path
     d="m 101.30574,382.43797 h 2 l -2,4 -10.999997,9 v -3 l 8,-8 z"
     fill="#e6b371"
     id="path228" />
  <path
     d="m 282.30574,1131.438 4,2 10,9 v 2 l -5,-2 -9,-10 z"
     fill="#242632"
     id="path229" />
  <path
     d="m 327.30574,983.43797 5,1 11,5 v 1 l -7,-1 -8,-3 z"
     fill="#2d475a"
     id="path230" />
  <path
     d="m 542.30574,614.43797 2,1 -5,6 h -2 l 2,-5 z"
     fill="#c57350"
     id="path231" />
  <path
     d="m 286.30574,588.43797 h 5 v 6 l -4,1 -2,-1 z"
     fill="#95c2d9"
     id="path232" />
  <path
     d="m 379.30574,941.43797 6,1 2,3 -1,2 h -5 l -2,-3 z"
     fill="#e5f7fc"
     id="path233" />
  <path
     d="m 446.30574,584.43797 1,2 3,1 -6,3 -8,10 -1,-2 6,-8 z"
     fill="#419cd0"
     id="path234" />
  <path
     d="m 396.30574,577.43797 13,1 3,2 -3,1 h -7 l -6,-3 z"
     fill="#419dd1"
     id="path235" />
  <path
     d="m 862.30574,492.43797 h 2 v 7 h -16 v -1 l 11,-1 z"
     fill="#daf1f9"
     id="path236" />
  <path
     d="m 103.30574,371.43797 7,1 3,2 v 3 l -5,2 2,-3 -7,-3 z"
     fill="#d38047"
     id="path237" />
  <path
     d="m 83.305743,267.43797 h 4 v 2 l -8,2 -1,3 -2,-2 -4,-1 z"
     fill="#ce3c37"
     id="path238" />
  <path
     d="m 318.30574,1153.438 h 2 l -2,5 h 7 v 1 l -11,1 -1,-3 h 2 l 1,-3 z"
     fill="#562c37"
     id="path239" />
  <path
     d="m 378.30574,583.43797 4,1 1,10 -1,-3 h -2 l -2,-4 z"
     fill="#4198c8"
     id="path240" />
  <path
     d="m 195.30574,300.43797 4,4 -8,7 v -3 l 3,-4 z"
     fill="#c63234"
     id="path241" />
  <path
     d="m 359.30574,740.43797 2,1 v 15 h -1 v -11 h -4 l -1,-2 1,-2 z"
     fill="#21202c"
     id="path242" />
  <path
     d="m 446.30574,553.43797 4,2 v 9 h 2 l -1,3 v -2 l -3,-1 -2,-5 1,-3 z"
     fill="#89b0c1"
     id="path243" />
  <path
     d="m 341.30574,990.43797 7,1 8,5 -2,1 -13,-6 z"
     fill="#2b3e4f"
     id="path244" />
  <path
     d="m 479.30574,598.43797 4,4 -1,4 h -4 v -7 z"
     fill="#d42639"
     id="path245" />
  <path
     d="m 426.30574,617.43797 h 1 l -1,14 -3,-2 1,-9 z"
     fill="#4297c7"
     id="path246" />
  <path
     d="m 539.30574,677.43797 h 8 l -5,5 -3,1 z"
     fill="#22222d"
     id="path247" />
  <path
     d="m 91.305743,366.43797 10.999997,3 2,2 -3,1 -9.999997,-4 z"
     fill="#d88342"
     id="path248" />
  <path
     d="m 12.305743,338.43797 9,2 3,2 -5,1 -5,-2 z"
     fill="#e9b530"
     id="path249" />
  <path
     d="m 198.30574,321.43797 2,1 -7,8 -5,2 3,-5 z"
     fill="#4a93b9"
     id="path250" />
  <path
     d="m 543.30574,580.43797 h 1 l -1,7 -3,3 -5,-1 4,-2 z"
     fill="#c72830"
     id="path251" />
  <path
     d="m 850.30574,342.43797 h 4 l -1,6 -4,1 1,-5 -3,-1 z"
     fill="#499ece"
     id="path252" />
</svg>
